<svg width="129" height="76" viewBox="0 0 129 76" fill="none" xmlns="http://www.w3.org/2000/svg">
<g clip-path="url(#clip0_138_710)">
<path d="M59.4935 38.2157C58.3535 38.0057 57.8235 38.4257 57.3635 39.4757C57.0535 40.1757 56.9435 40.9257 56.5435 41.5757C56.2035 42.1257 55.7035 42.6057 55.3135 43.1157C54.5635 44.0857 53.8535 45.0857 53.1035 46.0457C52.3735 46.9757 51.4735 48.2957 50.4135 48.8757C49.6935 49.2657 49.7135 49.4457 49.4235 48.5757C49.2135 47.9657 49.3735 47.0357 49.4235 46.4057C49.6135 44.0657 50.0435 41.2757 51.8135 39.5957C52.7435 38.7157 53.7835 38.4057 55.0335 38.5957C55.6635 38.6957 58.0235 38.9957 56.7935 37.7757C56.0035 36.9957 53.8035 36.8357 52.8135 36.9457C51.5835 37.0857 50.3135 37.5457 49.2335 38.1357C46.8935 39.4357 45.5135 41.9257 44.8535 44.4557C44.6835 45.1157 44.7635 45.9057 44.5435 46.5357C44.3135 47.1757 43.8435 47.4957 43.3435 47.9557C42.2935 48.9057 41.3035 49.8957 40.3935 50.9757C39.0135 52.6157 37.3435 55.6057 35.2835 56.4657C34.4735 53.3857 36.0335 49.9657 36.3735 46.9257C36.4935 45.8557 37.3935 43.6357 36.7435 42.6557C35.9835 41.5057 33.8735 41.5857 32.7235 41.7157C32.3235 41.7557 30.6635 42.2357 30.3735 41.8857C30.1335 41.6057 30.8135 40.5057 30.9335 40.3057C31.1835 39.8757 31.4235 39.7157 31.5735 39.2557C31.7135 38.8257 31.9535 37.1857 31.8635 36.7357C31.2335 33.6957 26.6235 34.1457 25.0835 35.9957C24.2135 37.0457 23.9235 38.5057 24.4135 39.7757C24.6535 40.4057 25.0835 41.0457 25.5535 41.5257C26.0635 42.0457 26.8735 42.1857 27.3335 42.6357C27.9835 43.2657 27.7535 43.1357 26.9635 43.6457C26.4335 43.9857 25.9735 44.2857 25.4635 44.6957C24.3235 45.6057 23.0235 46.7657 21.5035 46.9757C20.0035 47.1857 21.0635 45.3257 21.0735 44.1957C21.0835 42.5857 20.6135 40.6757 19.8635 39.2457C19.1635 37.8957 17.7135 36.9657 16.2035 37.0457C14.5935 37.1257 14.1735 37.8557 13.1735 38.9257C12.9635 37.7157 14.3235 37.1557 14.5435 36.0457C14.8435 34.5057 13.1835 34.5057 12.1235 35.0257C10.9935 35.5757 10.0035 36.5857 9.2235 37.5557C8.3135 38.6957 7.9735 40.0357 6.7335 40.8057C5.4535 41.6057 4.1335 42.5357 2.6035 42.7957C1.7235 42.9457 0.543497 42.0057 0.153497 42.7257C-0.666503 44.2357 2.6335 43.9957 3.2835 43.8057C4.0435 43.5957 4.7935 43.2157 5.4735 42.8457C5.9635 42.5757 6.3535 42.0357 6.9935 42.2057C6.2535 45.8557 5.9835 49.8557 7.7035 53.2957C8.4435 54.7757 9.9135 56.1957 11.4535 56.8257C13.2635 57.5657 14.5535 56.5757 15.9035 55.3857C17.3035 54.1557 18.2835 52.4857 19.0535 50.8157C19.4435 49.9757 19.7035 49.0557 20.5635 48.6357C21.3735 48.2457 22.3735 48.1857 23.2035 47.7857C24.9535 46.9357 26.1935 45.3457 27.6235 44.0657C28.8435 42.9657 30.5435 43.5257 32.1235 43.5857C31.4635 46.5457 30.8235 49.5257 30.5135 52.5557C30.2835 54.8157 29.8235 58.9457 33.2535 59.1657C35.3435 59.2957 37.4935 56.7757 38.7435 55.3957C40.6835 53.2457 42.1835 50.1357 44.7935 48.6757C45.9235 51.1457 47.7835 53.0757 50.4135 50.9957C52.5935 49.2657 54.0535 46.9157 55.8035 44.8057C55.4735 48.1057 54.3635 51.4257 53.3335 54.5657C52.6535 56.6657 51.6935 61.4457 49.3535 61.9857C47.7335 62.3557 46.0835 62.4657 44.4735 62.9457C42.8135 63.4357 41.2135 64.1357 39.6335 64.8357C37.0835 65.9757 33.6535 67.5657 32.6235 70.4057C31.7035 72.9257 33.8435 74.9157 36.2235 75.2457C37.5435 75.4257 38.9535 75.3957 40.2535 75.1257C41.5335 74.8657 42.3935 74.2157 43.5235 73.6857C46.2435 72.4057 48.4835 70.6957 50.7535 68.7457C51.8135 67.8357 52.8335 66.7257 53.6435 65.5957C53.8435 65.3057 53.9235 64.6757 54.1635 64.4657C54.7335 63.9557 55.3135 64.6257 55.8035 64.1757C56.6435 63.4257 55.7735 63.4157 55.5235 62.8057C55.3035 62.2557 55.4635 62.0357 55.7035 61.4757C56.2735 60.1357 56.9735 58.9357 57.4235 57.5457C58.2835 54.8957 59.1535 52.2357 59.7335 49.5057C60.3335 46.6657 60.7835 43.6457 60.8035 40.7657C60.8035 39.4057 61.1535 38.5257 59.4935 38.2157ZM13.4035 55.5257C12.0335 53.4157 11.8235 50.5657 11.6435 48.1257C11.4635 45.7157 11.4035 42.7057 12.5935 40.5057C12.9435 40.6357 12.6835 43.0757 12.7835 43.5557C12.9935 44.5457 13.4635 45.5557 14.0335 46.3957C15.2635 48.2157 16.8835 48.3357 18.7935 48.9357C17.9435 51.3757 15.7235 54.3257 13.4035 55.5257ZM19.3535 47.1257C17.8735 47.5757 16.8035 44.9857 16.7035 44.0057C16.5435 42.5157 16.7935 40.5757 17.7035 39.3557C18.9035 39.2557 19.0535 39.6657 19.4435 40.8157C19.6535 41.4357 19.8535 42.1457 19.9835 42.7857C20.1635 43.7057 20.4135 46.8057 19.3535 47.1257ZM29.1335 41.3057C29.0435 40.2657 28.8735 39.1557 28.9235 38.1157C28.9835 36.9057 29.1935 36.7657 30.2935 36.4357C30.9935 37.2357 30.9735 38.3157 30.7535 39.3557C30.6135 40.0157 29.8635 41.2657 29.1335 41.3057ZM42.8435 71.5057C41.3135 72.5657 39.8335 73.5657 37.9135 73.5657C36.9235 73.5657 34.9835 73.6857 34.4735 72.6457C34.0135 71.7157 34.8835 69.9757 35.3935 69.2457C36.3435 67.8857 38.5235 66.9357 39.9635 66.2657C42.9535 64.8757 46.2935 63.4757 49.6435 63.4257C47.7435 66.4357 45.8135 69.4557 42.8435 71.5057ZM126.773 44.8457C124.793 45.2957 123.553 48.5657 122.543 50.0857C122.013 50.8757 121.073 52.5557 120.123 52.8757C119.293 53.1457 119.513 53.1157 119.193 52.3957C118.983 51.9357 119.123 50.7757 119.083 50.2457C118.913 47.6957 119.303 45.4457 120.033 43.0157C120.503 41.4357 122.033 37.9057 124.233 38.8457C123.933 39.4357 123.064 41.1057 123.924 41.6957C124.874 42.3457 125.903 39.2457 125.743 38.5757C125.493 37.4857 123.803 36.8257 122.853 36.8157C121.443 36.7957 120.133 37.5957 118.993 38.3357C116.453 39.9957 116.174 43.1257 114.174 45.0957C113.644 45.6157 112.253 47.2457 111.493 47.3157C110.533 47.4057 111.343 44.6957 111.453 44.0557C111.803 42.0957 113.663 37.7957 111.383 36.5057C110.723 36.1257 109.133 35.5657 108.413 35.9957C107.503 36.5457 107.293 38.9657 107.113 39.9157C106.843 41.3157 106.883 43.1457 106.343 44.4457C105.823 45.6957 104.513 46.7957 103.753 47.9257C102.993 49.0557 102.283 50.1857 101.443 51.2757C100.583 52.3957 99.8735 53.8457 98.6235 54.5957C98.4135 52.1957 99.3435 49.9857 99.8235 47.6957C100.273 45.5557 101.663 41.9957 100.093 40.0357C99.6135 39.4357 98.7035 38.6557 98.0735 38.7157C97.2635 38.7857 95.7135 39.9757 95.0635 40.5257C94.2135 41.2457 93.5135 42.1357 92.8335 43.0057C92.2335 43.7757 91.5335 45.2657 90.7235 45.7857C90.2735 44.8857 90.9535 42.8657 90.9235 41.8657C90.8935 40.8757 90.7135 40.1557 90.0435 39.5757C89.3735 39.0057 89.0835 39.0657 88.1535 39.7257C87.1635 40.4357 86.2735 41.4657 85.5435 42.4257C84.2435 44.1157 83.3635 46.1857 82.3135 48.0357C81.7235 49.0757 81.0935 50.0257 80.3535 50.9657C79.7835 51.6957 79.2935 52.8357 78.5035 53.3157C78.2635 52.2157 78.7335 50.5657 78.8635 49.4357C79.0535 47.8557 79.3035 46.2957 79.5835 44.7257C79.8835 43.0257 80.4835 38.3957 77.2535 39.6357C75.2535 40.4057 74.0335 43.8257 73.1235 45.5557C72.0035 47.7057 70.5335 49.8457 68.5335 51.2957C68.2935 48.5157 68.9135 45.1957 70.4335 42.8157C70.9635 41.9857 71.9935 40.7757 72.7935 40.2257C73.5735 39.6957 75.8735 40.0257 76.1535 39.0557C76.5135 37.7957 73.4135 38.1957 72.7535 38.2957C71.3935 38.5257 70.0935 39.2357 68.8535 39.8157C67.5235 40.4257 66.0835 40.8557 64.6135 41.0157C64.0335 41.0757 60.9135 40.7357 61.2935 41.8557C61.6435 42.9057 63.7535 42.2857 64.5235 42.2757C65.5335 42.2557 65.4335 42.0057 65.2135 42.8757C65.0235 43.6357 64.2935 44.3757 64.0135 45.1357C63.2735 47.1557 62.3435 50.8157 64.1435 52.2857C66.4935 54.2157 68.5135 53.5157 70.4935 51.4957C71.4135 50.5557 72.0635 49.5357 72.8135 48.4657C73.3235 47.7357 74.0335 45.6757 74.9035 45.4157C75.3535 45.9757 74.5335 48.3357 74.4535 49.0357C74.2835 50.4657 74.0835 52.1457 74.2835 53.5657C74.6935 56.4757 76.7235 57.1357 78.8935 55.3357C79.8735 54.5257 80.4035 53.4057 81.1535 52.4057C82.0235 51.2457 82.8635 50.2457 83.5335 48.9357C84.0635 47.8957 84.6035 46.8557 85.1635 45.8357C85.5635 45.1157 86.2235 43.5357 86.9835 43.2057C86.7035 45.9057 86.2735 48.6457 85.7135 51.2957C85.4735 52.4557 84.9435 54.1257 86.3335 54.6957C87.2135 55.0557 88.3335 55.0257 88.9135 54.3857C89.6035 53.6157 89.7035 52.1957 90.1535 51.2657C90.7935 49.9257 91.0535 48.4557 91.7835 47.1457C92.3935 46.0557 93.0735 44.9957 93.8235 44.0057C94.4835 43.1357 95.7135 41.2357 96.8435 40.9757C96.6335 42.2557 96.0835 43.5457 95.7835 44.8357C95.4335 46.3457 95.0235 47.7857 94.7435 49.3057C94.3635 51.3557 93.7135 54.1057 95.3735 55.7957C99.6835 60.1957 103.843 49.0157 106.153 47.1457C106.603 47.4857 106.593 48.4957 107.103 48.9657C107.713 49.5357 108.693 49.7957 109.513 49.7357C110.513 49.6457 111.573 49.0457 112.383 48.4657C113.013 48.0157 113.643 47.0957 114.433 46.9457C114.643 47.6257 114.393 48.5757 114.443 49.3057C114.493 49.9357 114.643 50.5357 114.723 51.1557C114.863 52.2357 114.973 53.0657 115.803 53.8457C117.813 55.7457 120.323 55.0757 122.153 53.1957C123.903 51.4057 124.733 48.8457 126.373 46.9557C126.853 46.4057 127.873 46.2057 127.993 45.6757C128.163 44.9157 127.463 44.6957 126.773 44.8457ZM111.223 34.3257C111.993 33.8057 113.553 33.1157 113.223 31.9257C113.053 31.3057 112.073 30.5957 111.433 30.4257C110.353 30.1357 109.173 31.2657 109.343 32.4557C109.463 33.2457 110.543 34.0157 111.223 34.3257ZM62.4435 30.2657C63.1335 30.6657 63.7035 30.5257 64.3935 30.2357C64.2135 29.2657 63.5135 28.5457 62.8335 27.8257C61.7035 26.6357 60.4935 25.5057 59.3535 24.3257C57.1235 22.0157 54.1635 20.6557 50.5635 20.2757C49.1835 20.1357 48.4935 19.3957 47.4035 18.8157C50.1735 18.6157 52.6935 19.1457 55.2635 19.2257C58.1635 19.3157 61.0235 19.3657 63.9035 18.9357C64.3635 18.8657 65.0935 19.0657 65.3535 19.3557C65.8735 19.9357 66.0935 20.6857 66.5635 21.3057C67.1935 22.1457 67.8135 23.0257 68.6635 23.7057C69.6835 24.5357 70.9435 25.1657 72.0735 25.9057C73.2435 26.6757 74.5935 26.9857 76.1035 26.9657C77.4435 26.9457 78.7835 26.9557 80.1235 26.9357C80.4135 26.9357 80.9035 26.8857 80.9435 26.7857C81.0435 26.5157 81.0435 26.1557 80.9035 25.9057C80.7235 25.5957 80.3835 25.3257 80.0835 25.0757C78.6635 23.8957 77.3435 22.6157 75.7735 21.5857C74.6935 20.8757 73.2035 20.5857 71.9935 19.9857C70.3135 19.1557 68.4435 19.1557 66.5835 19.0457C66.2335 19.0257 65.9035 18.8957 65.4435 18.7857C65.6735 18.6257 65.7135 18.5857 65.7635 18.5657C69.0135 17.8057 72.2635 17.0357 75.5135 16.2857C75.8835 16.1957 76.3735 16.0057 76.6235 16.1257C77.3635 16.4557 78.1935 16.8057 78.6635 17.3357C79.4235 18.1957 79.9135 19.2157 80.5235 20.1657C82.4235 23.0757 85.5835 24.1557 89.5435 23.9957C91.1635 23.9357 92.7835 23.7457 94.4035 23.6057C94.6035 23.5857 94.8035 23.4857 95.0135 23.4157C94.4735 22.7457 94.0235 22.0857 93.4535 21.5157C92.6535 20.7157 91.8135 19.9157 90.8735 19.2157C89.6835 18.3257 88.4935 17.3557 87.0835 16.7557C85.0935 15.9157 82.8635 15.8257 80.6535 16.4857C79.4435 16.8457 78.6335 16.3157 77.6735 15.8257C77.9435 15.6857 78.0935 15.5557 78.2635 15.5057C79.3835 15.2057 80.5235 14.9657 81.6235 14.6257C82.3135 14.4157 82.8735 14.4157 83.3935 14.8157C84.4635 15.6157 85.8935 15.8257 87.2235 16.0157C89.8435 16.4057 91.9835 15.3257 94.0235 14.0757C95.6035 13.1157 96.5835 11.7557 97.8235 10.5757C98.5535 9.88573 98.4635 9.54573 97.3935 9.42573C94.1335 9.05573 90.8435 8.81573 87.6935 10.0357C86.2735 10.5857 84.8935 11.1857 83.8435 12.2257C83.2735 12.7957 82.7735 13.4757 81.7435 13.7157C80.5835 13.9857 79.4935 14.4457 78.1935 14.8757C78.3135 14.5857 78.3335 14.4557 78.4135 14.3457C78.8335 13.7757 79.5235 13.5057 80.2335 13.2157C81.5635 12.6657 83.0535 12.2257 84.1035 11.4257C86.1235 9.89573 86.6235 7.80573 86.6535 5.67573C86.7035 4.30573 86.7135 2.93573 86.6935 1.55573C86.6935 1.28573 86.5335 1.02573 86.4435 0.765731C86.1335 0.875731 85.7535 0.935731 85.5135 1.11573C84.7435 1.71573 84.0635 2.40573 83.2735 2.98573C80.6735 4.90573 79.1535 7.25573 78.7635 10.0357C78.6835 10.6057 78.8835 11.1957 78.9335 11.7757C78.9535 11.9757 79.0235 12.3157 78.9235 12.3557C78.2135 12.6457 78.4135 13.2757 78.0535 13.6857C77.3935 14.4157 76.9435 15.2957 75.6735 15.5757C74.5135 15.8357 73.3835 16.2257 72.2335 16.5357C71.0435 16.8557 69.8435 17.1457 68.6535 17.4457C68.7835 16.3557 69.7235 15.9257 70.6835 15.6857C72.0635 15.3357 72.9835 14.5057 73.7335 13.6757C75.9135 11.2857 77.1035 8.59573 77.0935 5.62573C77.0935 5.08573 77.0335 4.50573 77.2635 4.01573C77.5635 3.35573 77.1835 3.03573 76.6935 2.55573C76.5135 2.89573 76.4635 3.16573 76.2735 3.32573C75.3435 4.05573 74.3935 4.77573 73.4235 5.46573C72.3735 6.22573 71.1635 6.85573 70.2335 7.70573C67.8735 9.86573 67.8735 12.4257 68.5135 15.0157C68.7035 15.7857 67.6835 17.5657 66.7135 17.7757C65.1635 18.1057 63.6035 18.4057 62.0335 18.5957C59.6635 18.8757 57.2835 18.8857 54.7635 18.6057C54.9735 18.3357 55.0735 18.0557 55.2935 17.9457C55.9435 17.6057 56.6435 17.3257 57.3235 17.0257C57.8635 16.7857 58.4535 16.5957 58.9535 16.3057C60.8935 15.1857 62.1735 13.6857 62.7735 11.8257C63.0135 11.0757 63.4135 10.3557 63.5135 9.59573C63.7535 7.88573 63.8635 6.17573 63.9935 4.46573C64.0135 4.25573 63.8135 4.03573 63.7135 3.81573C63.4535 3.89573 63.1435 3.93573 62.9235 4.07573C61.8835 4.74573 60.9035 5.48573 59.8335 6.12573C58.1435 7.14573 56.2535 7.88573 55.2135 9.56573C53.7635 11.9157 53.3235 14.1957 54.5935 16.5957C55.1035 17.5557 54.1435 18.5857 52.8335 18.4957C51.5035 18.4057 50.1635 18.3557 48.8235 18.2557C46.8535 18.1157 44.8935 17.9557 42.7735 17.7857C43.3735 17.3357 43.9535 16.8557 44.5835 16.4557C45.7135 15.7357 47.1435 15.2257 47.7535 14.1157C48.3935 12.9657 48.9935 11.7557 49.2935 10.5257C50.0835 7.27573 50.1335 3.99573 49.8335 0.715731C49.8235 0.555731 49.5935 0.355731 49.4035 0.305731C49.2435 0.265731 48.9535 0.375731 48.8035 0.495731C47.2935 1.63573 45.7735 2.77573 44.3035 3.95573C43.2235 4.82573 42.1035 5.73573 41.7635 6.98573C41.3435 8.49573 41.0635 10.0157 40.7435 11.5357C40.6735 11.8457 40.5435 12.2057 40.6635 12.4757C41.2035 13.7357 41.7535 14.9857 42.4435 16.1957C42.7635 16.7557 42.4535 17.0957 42.1435 17.4857C41.8635 17.8357 41.5135 18.0157 40.8835 17.9857C39.1535 17.9057 37.4335 17.8257 35.6935 17.8157C34.1035 17.8057 32.5135 17.6757 30.9135 17.6457C30.4835 17.6357 29.8735 17.5357 29.6835 18.2057C30.0235 18.2357 30.3135 18.2657 30.6035 18.2757C32.4335 18.3257 34.2635 18.3457 36.0835 18.4157C36.9735 18.4557 37.8735 19.4157 37.7135 20.1157C36.9635 23.4957 38.0735 26.4357 40.5635 29.1157C41.6335 30.2657 42.9435 31.1757 44.3335 32.0157C45.6735 32.8357 47.0635 33.5957 48.4435 34.3557C48.6135 34.4457 49.0635 34.4557 49.1035 34.3857C49.2235 34.2057 49.2635 33.9457 49.2035 33.7457C48.8235 32.5357 48.2335 31.3457 48.0435 30.1157C47.6835 27.8057 46.2935 25.8757 45.0235 23.8957C43.8235 22.0257 41.7335 20.8557 39.5335 19.8157C38.8535 19.4957 37.9135 19.3257 37.7535 18.4057C38.8435 18.4357 39.9535 18.2757 40.8335 18.5557C41.8335 18.8757 42.7035 18.3257 43.6335 18.5657C44.1835 18.7057 44.8135 18.7357 45.3935 18.6857C46.5435 18.5957 47.0235 19.3957 47.8335 19.7557C47.8935 19.7857 47.9535 19.8757 47.9335 19.9257C47.6835 21.0957 48.2235 22.1257 48.7735 23.1357C49.7035 24.8557 50.6535 26.5557 52.5335 27.7957C55.0035 29.4157 57.7335 30.3457 61.0135 30.1257C61.5135 30.1157 62.1135 30.0757 62.4435 30.2657ZM68.4835 21.0857C69.1435 21.2457 69.9235 21.1657 69.8135 22.0457C69.7435 22.5857 69.9135 23.1357 69.9735 23.7357C68.4335 23.1957 68.8535 22.0357 68.4835 21.0857ZM70.7035 22.0757C71.3835 22.1657 71.6435 22.3657 71.6035 22.9357C71.5535 23.6157 71.7335 24.2957 71.8135 24.9657C70.9735 24.9257 70.9435 24.8557 70.7035 22.0757ZM72.7335 25.0557C72.7435 24.2757 72.4235 23.5057 72.2035 22.5657C73.2035 22.9557 73.8135 23.2057 73.6535 24.0957C73.5335 24.7057 73.8335 25.3457 73.9535 26.0357C73.3035 25.8757 72.7235 25.8357 72.7335 25.0557ZM75.4135 25.2257C75.5435 25.5857 75.6635 25.9557 75.8035 26.3257C74.8435 26.4257 74.0835 24.8757 74.5535 23.6557C75.0135 24.0557 75.4135 24.3957 75.8135 24.7457C75.3435 24.7657 75.2735 24.8457 75.4135 25.2257ZM77.3535 26.3757C76.7135 26.5257 76.4635 26.3057 76.3535 25.8057C76.2635 25.4357 76.0035 25.0957 75.8135 24.7457C75.9235 24.7357 76.0935 24.6857 76.1235 24.7157C76.6135 25.2257 77.4735 25.5557 77.3535 26.3757ZM79.7535 25.7957C79.1235 25.5557 78.7035 25.3957 78.2535 25.2257C78.9235 24.7457 78.9935 24.7657 79.7535 25.7957ZM78.1235 24.1457C77.9235 24.2957 77.7135 24.4657 77.4535 24.6657C77.0135 24.4257 76.5935 24.2057 76.0735 23.9257C77.2235 23.4457 77.5735 23.4857 78.1235 24.1457ZM76.5635 22.9557C75.7435 23.5357 74.9635 23.2057 74.0935 22.9357C75.2135 22.0157 75.7835 22.0257 76.5635 22.9557ZM74.7735 21.6757C73.6035 22.4857 72.5935 22.3857 71.4735 21.6257C72.0935 21.3757 72.6535 20.9857 73.2035 20.9857C73.7035 20.9857 74.2035 21.4057 74.7735 21.6757ZM72.0835 20.6257C71.0535 21.4157 70.6135 21.4157 69.3835 20.5957C70.3235 20.0157 71.2135 20.0857 72.0835 20.6257ZM69.3335 19.8257C68.7535 20.2957 68.4235 20.2857 67.7635 19.7057C68.3435 19.7457 68.8235 19.7857 69.3335 19.8257ZM67.5435 21.4457C67.2335 20.9857 66.9235 20.5157 66.5435 19.9557C67.7835 20.1557 67.7235 20.7757 67.5435 21.4457ZM81.5635 18.3957C82.4635 18.4757 82.9835 18.6757 83.0335 19.3957C83.0835 20.2357 83.2335 21.0657 83.3535 22.0057C82.0235 21.0357 81.7535 19.7757 81.5635 18.3957ZM83.8335 19.3657C84.2635 19.4557 84.6135 19.5357 84.9535 19.6057C84.8735 19.6357 84.7935 19.6557 84.7135 19.6857C84.8835 20.7557 85.0535 21.8257 85.2435 23.0257C83.7735 22.0357 84.0235 20.7057 83.8335 19.3657ZM88.0335 23.4757C87.9135 22.6057 87.8335 21.8157 87.6635 21.0357C87.6235 20.8557 87.2335 20.7257 87.0035 20.5757C86.9435 20.7657 86.8035 20.9657 86.8335 21.1457C86.9535 21.8557 87.1235 22.5557 87.2735 23.2557C86.6335 23.3157 85.9735 22.8357 85.8535 22.1257C85.7835 21.7257 85.8235 21.3057 85.7535 20.9057C85.6935 20.5457 85.5435 20.1957 85.3835 19.6557C86.6635 20.2157 87.8135 20.7257 88.9535 21.2457C89.0535 21.2957 89.1535 21.4057 89.1635 21.4957C89.2635 22.1057 89.3435 22.7057 89.4435 23.3957C89.1035 23.4057 88.6235 23.4357 88.0335 23.4757ZM90.0435 21.7657C91.1035 22.0057 90.6135 22.7657 91.0135 23.2157C90.1935 23.1657 90.0335 22.9257 90.0435 21.7657ZM93.2235 22.3557C93.1435 22.3957 93.0635 22.4457 92.9835 22.4857C92.4035 22.1957 91.8335 21.8957 91.2035 21.5857C91.5235 21.3957 91.7635 21.2457 92.1435 21.0257C92.5235 21.4957 92.8735 21.9257 93.2235 22.3557ZM91.3135 20.4357C90.2735 21.1457 90.1935 21.1557 88.9235 20.4957C89.5435 20.2757 90.0835 20.0857 90.6335 19.8857C90.8635 20.0657 91.0635 20.2357 91.3135 20.4357ZM89.7135 19.4057C89.6735 19.8057 88.2035 20.1057 87.6335 19.9057C87.2835 19.7857 86.9535 19.6357 86.3335 19.3957C87.3235 19.0257 88.0935 18.7457 89.0635 18.3857C89.2935 18.7157 89.7435 19.0657 89.7135 19.4057ZM88.3135 17.9257C87.2835 18.3957 86.4735 18.8957 85.5635 19.1357C85.1335 19.2457 84.5135 18.8557 83.9835 18.6957C83.9635 18.6157 83.9535 18.5357 83.9335 18.4557C84.7635 18.0257 85.5935 17.5857 86.5535 17.0857C87.0235 17.3157 87.6035 17.5957 88.3135 17.9257ZM85.2335 17.0057C84.3235 17.8557 82.9835 18.2257 82.1435 17.8457C82.9235 16.9357 84.4735 16.5257 85.2335 17.0057ZM82.1335 16.7357C81.5735 16.9757 81.2035 17.8757 80.1135 17.2757C80.8835 17.0757 81.5135 16.9057 82.1335 16.7357ZM89.4235 15.4457C88.9535 15.2157 88.6435 15.0257 88.3035 14.9057C87.5435 14.6357 86.8435 14.3257 86.4235 13.6857C87.3335 13.3557 88.0835 13.2057 88.8035 13.9257C89.2535 14.3757 89.9335 14.6657 90.5835 15.0757C90.0335 15.2457 89.6235 15.3757 89.4235 15.4457ZM91.1235 14.7057C90.4835 14.3757 89.8735 13.9857 89.2835 13.5957C89.1535 13.5057 89.1035 13.3357 88.9435 13.0757C89.2335 13.0257 89.4935 12.9157 89.6235 12.9757C90.3435 13.3057 91.0435 13.6557 91.7135 14.0557C91.8535 14.1357 91.7935 14.4357 91.8235 14.6257C91.5935 14.6657 91.2735 14.7857 91.1235 14.7057ZM92.7835 14.0957C92.1035 13.7057 91.4135 13.3057 90.7335 12.9057C90.6435 12.8557 90.5635 12.7857 90.4035 12.6857C90.7935 12.4957 91.0335 12.3757 91.2235 12.2857C91.7735 12.5557 92.2635 12.8357 92.7935 13.0457C93.6035 13.3757 93.6235 13.6057 92.7835 14.0957ZM94.6735 11.4857C95.2335 11.3257 95.7135 11.1957 96.3135 11.0257C95.4635 12.2157 95.3735 12.2457 94.6735 11.4857ZM95.0235 9.80573C95.5235 9.84573 95.9835 9.87573 96.4535 9.91573C96.4935 9.98573 96.5235 10.0457 96.5635 10.1157C95.9335 10.3657 95.3035 10.6257 94.6735 10.8757C94.6335 10.8357 94.5935 10.7957 94.5535 10.7557C94.7235 10.5157 94.9035 10.2857 95.0635 10.0457C95.0935 9.99573 95.0435 9.91573 95.0235 9.80573ZM94.2435 9.83573C93.6935 10.3157 93.8835 11.2257 92.6435 11.2557C92.7635 10.2557 93.3835 9.67573 94.2435 9.83573ZM95.1835 12.3857C94.7635 12.7557 94.5335 12.9557 94.2335 13.2157C93.5935 12.8557 93.0235 12.5357 92.4135 12.1857C93.4935 11.4957 94.0935 12.4257 95.1835 12.3857ZM91.4335 9.80573C91.6535 9.78573 92.0035 9.76573 92.3635 9.73573C91.6235 11.7457 91.6235 11.7457 90.1735 11.9157C90.4135 11.4857 90.5935 11.1657 90.7835 10.8457C90.9835 10.5157 91.1835 10.2057 91.4335 9.80573ZM90.4835 10.0457C90.0635 10.7557 89.7335 11.5057 89.1835 12.1357C88.9235 12.4357 88.2435 12.5057 87.6535 12.7157C88.0035 11.1957 89.1135 9.71573 90.4835 10.0457ZM87.3135 10.9457C87.1335 11.6157 86.9735 12.2157 86.7835 12.9157C86.7335 12.9257 86.4635 12.9657 86.2035 13.0057C85.9935 12.2257 86.4135 11.4257 87.3135 10.9457ZM85.1435 12.1757C85.2935 13.2657 85.2935 13.2657 83.7835 13.4957C84.3035 12.9857 84.6935 12.6157 85.1435 12.1757ZM86.3135 14.4657C86.7435 14.8757 87.4135 15.1157 87.9735 15.4357C87.9435 15.4957 87.9135 15.5657 87.8835 15.6257C86.5035 15.1857 84.8835 15.1957 83.6335 14.1257C84.7435 13.9157 85.5735 13.7557 86.3135 14.4657ZM82.3535 11.0557C82.6435 10.7357 82.9035 10.4357 83.1735 10.1357C83.5235 10.1657 83.8635 10.1857 84.1935 10.2157C83.9035 11.0957 83.5035 11.2857 82.3535 11.0557ZM83.7435 9.70573C83.6935 9.72573 83.4335 9.56573 83.4435 9.52573C83.5035 9.33573 83.5735 9.06573 83.7335 9.00573C84.1835 8.84573 84.6935 8.77573 85.2735 8.65573C85.1835 9.69573 84.2635 9.45573 83.7435 9.70573ZM85.5035 8.05573C85.1035 8.08573 84.7035 8.11573 84.3035 8.14573C84.2535 8.07573 84.2035 7.99573 84.1535 7.92573C84.4835 7.75573 84.8035 7.53573 85.1635 7.44573C85.2835 7.41573 85.5235 7.72573 85.7135 7.87573C85.6435 7.93573 85.5735 7.99573 85.5035 8.05573ZM85.8535 6.83573C85.4435 6.80573 85.0935 6.77573 84.7435 6.74573C84.6835 6.68573 84.6235 6.62573 84.5635 6.56573C84.8435 6.33573 85.1335 5.90573 85.3935 5.90573C86.0335 5.92573 86.0435 6.35573 85.8535 6.83573ZM85.6035 4.39573C85.6935 4.59573 85.8835 4.79573 85.8535 4.98573C85.8335 5.12573 85.5335 5.24573 85.3635 5.37573C85.2635 5.30573 85.1635 5.23573 85.0635 5.16573C85.2435 4.91573 85.4235 4.65573 85.6035 4.39573ZM85.0235 2.79573C84.7835 3.43573 84.5435 4.07573 84.2735 4.78573C83.7335 3.62573 83.7335 3.62573 85.0235 2.79573ZM83.0135 4.07573C84.0635 5.18573 84.3535 6.24573 83.4635 7.55573C83.0935 6.64573 82.7135 5.85573 82.4935 5.03573C82.4235 4.78573 82.8035 4.43573 83.0135 4.07573ZM81.6735 5.57573C81.7635 5.58573 81.8435 5.60573 81.9335 5.61573C82.3935 6.44573 82.9335 7.24573 83.2535 8.11573C83.3635 8.40573 82.9235 8.83573 82.6635 9.33573C82.1135 8.30573 81.5735 7.44573 81.2135 6.54573C81.1135 6.29573 81.5035 5.90573 81.6735 5.57573ZM80.7335 7.37573C81.9635 8.38573 82.3435 9.90573 81.5435 10.6257C80.3535 9.61573 80.0335 8.34573 80.7335 7.37573ZM79.7935 9.34573C80.9535 10.4057 81.2135 11.2457 80.4735 11.7057C79.7935 10.9857 79.4535 10.2557 79.7935 9.34573ZM70.4135 15.2157C70.6635 14.2557 71.0535 14.0457 71.9935 14.3457C71.4635 14.6357 71.0335 14.8757 70.4135 15.2157ZM71.5035 13.5857C71.8235 12.5157 71.9835 12.4457 73.3935 12.7057C73.2235 13.4857 72.9235 13.6257 71.5035 13.5857ZM72.3035 12.0457C72.7935 11.1357 73.3835 10.8857 74.6635 11.0057C74.4235 12.0657 74.3735 12.0857 72.3035 12.0457ZM73.3435 10.5757C73.8335 9.68573 74.1235 9.59573 75.3535 9.82573C75.2835 10.1157 75.2835 10.1157 73.3435 10.5757ZM74.2435 9.18573C74.5835 8.40573 74.8735 8.27573 75.7835 8.50573C75.6435 9.09573 75.6435 9.09573 74.2435 9.18573ZM76.4035 5.82573C76.3935 6.18573 76.3835 6.54573 76.3635 6.95573C76.0035 6.83573 75.8035 6.77573 75.5235 6.68573C75.7635 6.38573 76.0035 6.09573 76.2335 5.80573C76.2935 5.80573 76.3435 5.81573 76.4035 5.82573ZM75.6435 5.20573C75.2435 5.81573 74.8535 6.42573 74.4435 7.04573C73.8035 6.03573 73.8335 5.98573 75.6435 5.20573ZM73.2735 6.43573C74.0235 7.41573 74.0435 8.02573 73.3035 8.76573C73.1135 8.06573 72.9235 7.45573 72.8035 6.84573C72.7835 6.74573 73.0835 6.59573 73.2735 6.43573ZM71.8935 7.29573C73.0935 8.98573 73.1935 10.2357 71.8035 10.6857C71.5435 9.80573 71.2935 8.94573 71.0135 8.00573C71.2535 7.81573 71.5735 7.55573 71.8935 7.29573ZM69.8335 9.67573C69.9835 9.36573 70.2135 9.07573 70.5335 8.77573C70.7635 9.97573 72.1035 11.0157 71.0835 12.4157C70.6135 11.6757 70.1535 10.9957 69.7635 10.2957C69.6735 10.1157 69.7435 9.85573 69.8335 9.67573ZM69.2135 10.7257C69.8035 11.1457 70.2435 11.5657 70.1335 12.1157C70.0335 12.6357 70.1735 12.9457 70.9035 13.0757C70.6235 13.3557 70.4235 13.5557 70.2235 13.7657C69.2335 12.9157 68.8035 11.9957 69.2135 10.7257ZM55.3235 16.3957C55.1335 15.8157 54.9935 15.3557 54.8535 14.9057C54.9235 14.8757 54.9935 14.8557 55.0635 14.8257C55.1835 15.2857 56.1735 15.5557 55.3235 16.3957ZM56.3435 16.6357C56.7635 15.9657 57.3335 15.7657 58.5235 15.9657C57.8335 16.1757 57.1435 16.3857 56.3435 16.6357ZM59.7735 14.1057C59.3535 14.0557 58.8635 14.3157 58.3235 14.4657C58.7735 13.0957 60.0035 13.0457 61.4135 12.9857C60.9135 13.4957 60.9235 14.2357 59.7735 14.1057ZM61.7235 12.1757C61.0335 12.3757 60.3135 12.5057 59.6035 12.6657C59.8335 11.9557 60.7735 11.5257 62.1135 11.6357C61.9435 11.8757 61.8835 12.1357 61.7235 12.1757ZM60.6535 11.0557C60.9335 10.6157 60.9335 10.6157 62.4735 10.1757C62.6635 11.0257 62.2535 11.2257 60.6535 11.0557ZM62.8835 8.98573C62.7835 9.14573 62.6535 9.30573 62.4735 9.41573C62.1935 9.59573 61.8635 9.74573 61.4435 9.97573C61.6135 9.59573 61.6535 9.32573 61.8335 9.14573C62.0035 8.97573 62.3035 8.86573 62.5735 8.77573C62.6435 8.75573 62.9035 8.96573 62.8835 8.98573ZM62.4835 5.32573C62.5335 5.35573 62.5935 5.39573 62.6435 5.42573C62.5135 5.74573 62.3835 6.07573 62.1835 6.56573C61.9735 6.24573 61.6735 5.99573 61.7435 5.87573C61.8835 5.65573 62.2335 5.50573 62.4835 5.32573ZM61.1035 6.34573C61.5035 6.93573 62.1935 7.49573 61.2835 8.26573C60.3635 6.99573 60.3335 6.64573 61.1035 6.34573ZM59.7635 6.97573C60.0535 7.55573 60.2535 8.15573 60.6335 8.66573C61.1035 9.31573 60.7635 9.74573 60.1735 10.2957C59.8835 9.77573 59.6435 9.34573 59.4235 8.91573C59.2035 8.48573 59.0235 8.03573 58.7535 7.44573C58.9635 7.33573 59.2535 7.20573 59.7635 6.97573ZM58.0735 7.84573C58.5435 8.70573 58.9235 9.48573 59.3935 10.2157C59.7335 10.7457 59.8235 11.1957 59.0135 11.7257C58.3635 10.7057 57.7435 9.72573 57.0535 8.63573C57.2635 8.47573 57.5935 8.22573 58.0735 7.84573ZM56.5635 9.23573C57.2535 10.2257 57.9635 11.1557 58.5335 12.1457C58.6735 12.3857 58.3635 12.8057 58.2135 13.2857C56.2735 11.5657 55.6935 10.1457 56.5635 9.23573ZM55.5035 10.8857C56.2235 11.8657 56.9035 12.7257 57.4835 13.6257C57.6035 13.8157 57.3435 14.1557 57.2335 14.4857C55.8735 13.6757 54.9735 11.8557 55.5035 10.8857ZM54.5935 12.9757C54.7035 12.9257 54.8135 12.8757 54.9135 12.8357C55.4335 13.5857 55.9535 14.3357 56.4635 15.0857C56.3435 15.1457 56.2135 15.1957 56.0935 15.2557C55.6035 14.4857 55.0935 13.7257 54.5935 12.9757ZM39.6035 26.3457C38.7135 25.5457 38.8935 23.8257 39.6935 22.7957C40.0935 23.0557 40.4735 23.3157 40.9535 23.6357C39.4235 24.2857 40.0535 25.4557 39.6035 26.3457ZM44.5935 31.2657C43.9635 31.1457 43.6535 30.8557 43.8535 30.1957C44.0335 29.6057 44.0435 28.9857 44.0635 28.3757C44.0635 28.2057 43.8235 28.0257 43.6935 27.8557C43.5735 28.0057 43.3735 28.1557 43.3335 28.3157C43.2035 28.9657 43.1235 29.6157 43.0235 30.2657C42.9435 30.2957 42.8635 30.3257 42.7835 30.3557C42.2235 29.7957 41.6735 29.2357 41.1035 28.6757C40.2235 27.8057 40.1035 26.8257 40.5535 25.7557C40.6735 25.4657 40.5835 25.1157 40.7135 24.8357C40.9535 24.3457 41.3135 24.3257 41.6835 24.7357C42.1435 25.2457 42.4035 25.6757 41.9135 26.3957C41.4135 27.1357 41.2435 28.0557 41.7335 28.8757C41.8435 28.8857 41.9535 28.9057 42.0635 28.9157C42.2835 28.1257 42.5035 27.3357 42.7235 26.5557C42.8335 26.5357 42.9435 26.5257 43.0435 26.5057C43.9035 27.5857 44.7535 28.6557 45.4235 29.5057C45.0935 30.2257 44.8535 30.7357 44.5935 31.2657ZM46.0235 32.3157C45.4835 32.1357 45.4835 32.1357 45.7335 30.7057C46.1535 30.9757 46.4535 31.1757 46.6735 31.3057C46.4135 31.6957 46.2135 32.0057 46.0235 32.3157ZM47.0735 32.0257C47.4035 32.5057 47.6735 32.8857 47.9435 33.2757C46.9035 32.9557 46.8935 32.9457 47.0735 32.0257ZM47.2735 30.3357C46.6535 30.3257 46.3435 30.0457 45.9335 29.1057C46.9235 28.9357 47.0435 29.0557 47.2735 30.3357ZM46.7635 28.1857C45.7435 28.6157 45.2435 28.4357 44.8735 27.4557C45.5535 27.6957 46.4035 27.4857 46.7635 28.1857ZM45.9535 26.6957C45.7735 26.7857 45.5635 26.9757 45.4035 26.9557C44.9135 26.9057 44.4335 26.7657 43.9435 26.6657C43.9635 26.5857 43.9835 26.5057 44.0035 26.4257C44.4935 26.3857 44.9835 26.3157 45.4735 26.3257C45.6335 26.3357 45.7935 26.5657 45.9535 26.6957ZM45.1135 25.5757C43.2035 25.7157 42.7835 25.9057 42.5635 24.6357C44.6035 24.5257 44.9235 24.6457 45.1135 25.5757ZM44.0435 23.8557C42.7835 24.2657 41.7635 23.9957 41.3535 23.0857C42.0935 23.1457 42.7335 23.1957 43.5635 23.2557C43.6335 23.3457 43.8335 23.5957 44.0435 23.8557ZM42.9535 22.6857C41.7635 22.4757 40.5435 22.8457 40.0635 21.7557C40.8235 21.5257 42.1635 21.9057 42.9535 22.6857ZM40.5335 20.9657C39.4635 21.3457 39.0635 20.8957 38.8435 20.2157C39.3835 20.4557 39.9235 20.6957 40.5335 20.9657ZM38.6735 21.2857C39.3735 21.8657 38.9735 22.3157 38.4535 22.7657C38.5235 22.3057 38.5935 21.8357 38.6735 21.2857ZM44.3335 14.6557C44.7835 13.6457 46.1135 12.9257 47.5135 12.9057C47.3235 14.4757 45.6735 14.3257 44.3335 14.6557ZM45.3135 12.6757C45.6435 11.1257 47.2835 11.7257 48.2035 11.2957C47.7435 12.3957 46.4135 12.2357 45.3135 12.6757ZM45.9835 10.9857C46.0435 9.99573 47.4535 8.94573 48.6735 8.97573C48.9235 10.3757 48.3135 10.8357 45.9835 10.9857ZM48.8935 1.84573C49.1635 2.34573 49.5635 2.86573 48.3935 3.22573C48.5935 2.67573 48.7435 2.25573 48.8935 1.84573ZM48.6635 3.98573C48.7335 3.91573 49.0635 4.02573 49.2735 4.04573C49.1935 4.18573 49.1535 4.37573 49.0235 4.46573C48.7235 4.69573 48.3735 4.87573 48.0535 5.07573C47.9735 5.05573 47.9035 5.03573 47.8235 5.01573C48.0935 4.67573 48.3435 4.30573 48.6635 3.98573ZM49.0735 5.28573C49.4635 6.18573 49.0735 6.55573 47.4435 6.88573C47.3135 5.88573 48.4335 5.75573 49.0735 5.28573ZM48.9235 7.28573C49.0735 8.19573 49.0335 8.19573 47.9735 8.36573C47.5335 8.43573 47.1335 8.67573 46.5835 8.88573C46.9835 7.83573 47.6735 7.28573 48.9235 7.28573ZM46.3435 3.66573C46.9835 4.13573 47.1435 4.68573 46.8635 5.61573C45.7635 4.64573 45.6435 4.15573 46.3435 3.66573ZM44.9235 4.56573C45.1135 4.68573 45.3535 4.77573 45.4635 4.92573C45.7835 5.36573 46.0835 5.82573 46.3335 6.30573C46.4735 6.56573 46.4935 6.86573 46.5735 7.15573C46.4835 7.17573 46.4035 7.18573 46.3135 7.20573C45.7835 6.55573 45.2235 5.92573 44.7535 5.25573C44.6535 5.08573 44.8635 4.79573 44.9235 4.56573ZM44.0835 5.44573C44.5435 6.02573 45.0135 6.59573 45.4635 7.16573C45.5335 7.25573 45.5335 7.39573 45.6235 7.46573C46.3235 8.00573 46.1235 8.53573 45.5535 9.10573C44.6935 8.47573 43.9635 7.84573 43.6035 6.87573C43.3835 6.25573 43.2135 5.88573 44.0835 5.44573ZM42.6935 7.01573C43.5035 7.98573 44.1535 8.77573 44.8135 9.55573C45.4235 10.2857 45.4335 10.2857 44.9335 10.9557C44.0735 9.94573 43.2435 9.01573 42.5035 8.04573C42.3535 7.85573 42.5935 7.48573 42.6935 7.01573ZM42.0435 8.81573C43.0135 9.73573 43.9235 10.4857 44.6435 11.3457C44.8635 11.6057 44.5635 12.1557 44.4735 12.7757C43.4835 11.7957 42.5935 11.0157 41.8935 10.1457C41.6735 9.87573 41.9635 9.34573 42.0435 8.81573ZM41.7735 11.0457C42.7535 11.9657 43.7735 12.6757 44.0235 13.9257C42.0235 13.4157 41.6935 12.9857 41.7735 11.0457ZM42.1235 13.9757C43.5035 14.3557 43.6635 14.6957 42.8635 15.6257C42.5935 15.0157 42.3735 14.5357 42.1235 13.9757ZM60.5235 26.2757C58.8935 27.0557 58.4235 27.0157 57.3535 26.0557C59.2935 25.2257 60.0835 25.3457 60.5235 26.2757ZM59.0635 24.8957C58.2535 25.0957 57.4635 25.2857 56.5635 25.5057C56.1935 25.3157 55.7235 25.0657 55.2235 24.7957C56.8835 23.9457 58.4435 23.7057 59.0635 24.8957ZM57.3735 23.4157C56.6435 23.6757 55.9935 23.9057 55.3435 24.1357C54.6535 24.3757 54.0935 24.1657 53.1635 23.2257C54.2735 23.0057 55.2935 22.8057 56.3235 22.6057C56.6835 22.8757 57.0335 23.1457 57.3735 23.4157ZM55.2935 22.1457C54.5235 22.3657 53.7335 22.6757 52.8935 22.7857C52.4635 22.8457 51.9735 22.5257 51.3635 22.3457C53.1035 21.3757 54.2035 21.3657 55.2935 22.1457ZM52.2635 21.0757C51.3735 21.7357 50.5735 21.6757 49.7635 20.7857C50.7035 20.8957 51.4535 20.9757 52.2635 21.0757ZM49.7735 23.4357C49.4435 22.7257 49.1135 22.0157 48.7835 21.3057C50.1835 21.6657 49.6335 22.6557 50.0035 23.3657C49.9335 23.3857 49.8535 23.4057 49.7735 23.4357ZM51.6435 23.8857C51.4535 24.2857 51.5135 24.7657 51.4935 25.2057C51.4835 25.4157 51.5635 25.6157 51.6035 25.8257C51.2635 25.4257 50.6135 25.2057 51.0335 24.4957C51.3135 24.0257 50.9135 23.3057 50.8035 22.6057C51.6935 22.8857 51.9535 23.2157 51.6435 23.8857ZM53.5935 27.5857C52.9135 27.4157 52.7035 27.2957 52.5335 26.5057C52.3535 25.6457 51.9835 24.7557 52.6435 23.8257C53.1435 24.0957 53.6335 24.3657 54.0735 24.6057C52.7735 25.5657 53.9935 26.6457 53.5935 27.5857ZM55.5635 28.7157C54.4135 28.5257 54.6035 27.7657 54.4335 27.2257C54.2935 26.7757 54.2735 26.2957 54.3135 25.8257C54.3335 25.6257 54.6335 25.4257 54.8135 25.2357C54.9735 25.4057 55.2335 25.5557 55.2735 25.7457C55.4235 26.4457 55.5135 27.1657 55.6035 27.8757C55.6335 28.1357 55.5835 28.4057 55.5635 28.7157ZM57.5035 29.2057C56.3135 29.3557 56.4435 29.2057 56.3335 28.1257C56.2635 27.4457 56.2935 26.7557 56.2835 26.0057C56.8035 26.3657 57.3235 26.7257 57.9135 27.1257C56.9635 27.7857 57.5435 28.5157 57.5035 29.2057ZM59.2035 29.5457C58.7835 29.4157 58.2535 29.3057 58.2635 29.2457C58.3535 28.7457 57.8535 28.1857 58.5535 27.6957C58.9535 28.0057 59.7435 28.1057 59.0935 28.7757C58.9835 28.8857 59.1335 29.1557 59.2035 29.5457ZM59.1735 27.4257C60.7935 26.6857 61.2235 26.7457 61.9835 27.8057C61.1335 28.4857 60.7535 28.4457 59.1735 27.4257ZM61.3635 29.5957C60.9535 29.5657 60.5535 29.5357 60.1035 29.4957C60.0835 29.2557 60.0535 29.0057 60.0135 28.5557C60.5635 28.9157 60.9835 29.1957 61.4135 29.4757C61.3935 29.5157 61.3735 29.5557 61.3635 29.5957ZM62.9535 29.6557C62.4335 29.3457 61.9635 29.0657 61.4535 28.7657C62.5435 28.3957 63.0535 28.6957 62.9535 29.6557Z" fill="black"/>
</g>
<defs>
<clipPath id="clip0_138_710">
<rect width="128" height="75.01" fill="white" transform="translate(0.0136719 0.305664)"/>
</clipPath>
</defs>
</svg>
