<svg width="107" height="78" viewBox="0 0 107 78" fill="none" xmlns="http://www.w3.org/2000/svg">
<path d="M106.59 59.1307C106.29 59.0507 105.95 59.2107 105.9 59.5107C105.35 61.9707 101.53 73.6307 99.7702 73.6307C98.7802 73.6307 98.7002 64.7307 99.3302 60.0107C102.96 58.3407 106.34 50.6407 106.48 47.1707C106.56 45.1807 105.68 43.1607 103.84 43.1607C98.4002 43.1607 95.9202 53.8007 95.6302 62.9107C93.3302 67.4507 90.1302 70.6607 88.9302 70.6607C88.4102 70.6607 90.9102 59.9607 91.7302 57.5307C92.0302 56.7707 88.7902 56.1607 88.5102 57.2007C88.3502 57.6607 88.1502 58.2107 87.9302 58.7807C87.2702 57.3607 86.0302 56.3207 83.7202 56.4607C80.5702 56.6407 78.7402 60.9607 78.7902 64.3907C77.3802 67.9907 75.7002 70.7507 74.2402 70.7507C73.1102 70.7507 74.7102 62.9707 75.9702 58.0507C76.1902 57.3107 75.6902 56.9907 75.0302 56.9907C73.1102 56.9907 70.6902 58.4407 68.3202 58.6007C69.8302 54.6707 70.4102 50.4107 67.2502 50.4107H67.2202C65.0802 50.4107 63.8402 53.0007 63.8402 55.3207C63.8402 57.4507 64.8502 59.2907 66.7902 59.6407C66.3702 61.4607 65.6502 64.4207 65.1402 65.8907C64.6502 67.3407 63.6302 70.0407 63.0502 70.0407C61.9802 70.0407 62.9402 63.0807 63.6802 59.8007C64.0602 58.2207 60.6002 57.8607 60.2202 59.5307C58.7602 63.6507 57.6602 67.0707 56.4202 67.0707C55.2902 67.0707 56.4502 61.2807 57.1102 59.2607C57.6602 57.8107 54.3102 57.4807 53.8902 58.8807C53.8902 58.9207 53.2802 60.9507 52.9602 63.2207C51.4702 68.5507 49.0802 75.0807 47.7202 75.0807C46.7302 75.0807 46.9802 70.1907 47.3402 66.7807C47.7002 62.9607 48.9402 55.1507 49.9802 49.0307C53.3102 49.5807 56.7202 50.0907 59.4402 50.0907C64.1702 50.0907 67.7202 48.8907 68.7102 44.7907C68.7902 44.4907 68.6302 44.2107 68.3302 44.1307C68.0302 44.0507 67.7502 44.2407 67.6702 44.5407C66.9802 47.3007 64.8102 48.9607 60.8202 48.9607C57.0002 48.9607 53.4702 48.4207 50.2002 47.8707C50.3102 47.3007 50.3902 46.7307 50.5002 46.1807C50.6902 44.7107 47.3102 44.9007 47.1702 46.1007C47.0902 46.4807 47.0302 46.8907 46.9502 47.3307C44.6902 46.9507 42.5802 46.6707 40.6002 46.6707C38.3702 46.6707 36.5002 47.1107 36.0302 48.8307C35.9502 49.1307 36.1402 49.4307 36.4402 49.5107C36.8002 49.5707 37.0202 49.4307 37.1002 49.1007C37.4002 47.9507 39.0002 47.7607 40.5602 47.7607C42.2102 47.7907 44.3602 48.0907 46.7202 48.4707C46.1402 51.8207 45.4202 56.4507 44.8602 60.3707C42.6402 66.2007 38.4502 70.6707 37.0402 70.6707C36.5202 70.6707 39.0202 59.9707 39.8402 57.5407C40.1402 56.7807 36.9002 56.1707 36.6202 57.2107C36.4602 57.6707 36.2602 58.2207 36.0402 58.7907C35.3802 57.3707 34.1402 56.3307 31.8302 56.4707C28.5302 56.6607 26.6902 61.3707 26.9202 64.8507C25.4002 69.8807 23.4302 75.3307 21.8102 74.9007C20.1302 74.5707 21.7002 66.1907 22.2202 63.1007C23.8702 54.0307 24.6702 46.2207 19.3602 46.4707C16.5002 46.4707 14.5802 49.4707 11.4402 58.2907C12.5402 50.7507 11.6302 43.5707 5.20021 43.5707C-2.22979 43.5707 2.01021 57.7707 3.25021 59.9807C3.39021 60.2307 3.74021 60.3607 3.99021 60.1707C4.24021 59.9807 4.32021 59.6807 4.18021 59.4307C2.31021 56.1007 0.380212 44.9807 4.24021 44.9807C8.04021 44.9807 8.86021 50.4407 8.36021 55.9307C7.95021 60.8507 7.10021 63.9607 6.54021 67.5607C6.35021 68.8407 9.68021 68.7607 9.84021 67.7807C9.89021 67.4007 12.3102 59.1507 12.8402 57.6207C13.8602 54.7007 16.4702 47.7607 18.5102 47.7607C21.2102 47.7607 20.1302 55.2707 18.9502 62.1207C17.8502 68.7007 16.3402 77.0007 20.2702 77.0007C23.7002 77.0007 25.5702 72.7207 27.3902 66.8907C27.8302 67.8807 28.5702 68.5407 29.6602 68.5407C32.0002 68.5407 33.6502 66.3807 34.7502 64.4707C34.0102 68.4607 33.7902 72.3907 36.3502 72.3907C38.7502 72.3907 42.1202 68.2007 44.3402 64.1307C44.2102 65.1407 44.1102 66.0207 44.0502 66.6807C43.5902 72.2107 43.5402 77.3107 46.5102 77.3107C49.0302 77.3107 51.3302 72.3607 52.9602 67.3407C53.2202 68.5207 53.8402 69.3407 55.0502 69.3407C56.5902 69.3407 58.0502 67.8907 59.4302 65.0007C58.9102 68.6007 59.0702 72.6207 61.6002 72.6207C63.6602 72.6207 65.1502 69.3207 66.2202 66.2007C66.8002 64.5407 67.5102 61.3707 67.9202 59.7307C67.9202 59.7107 67.9302 59.7007 67.9302 59.6807C69.5002 59.6207 71.0102 59.2807 72.4402 58.7707C71.0602 63.9307 69.4202 72.4007 73.7602 72.4007C75.8102 72.4007 77.6402 69.8707 79.1402 66.5007C79.5502 67.7207 80.3402 68.5507 81.5602 68.5507C83.9002 68.5507 85.5502 66.3907 86.6502 64.4807C85.9102 68.4707 85.6902 72.4007 88.2502 72.4007C90.4302 72.4007 93.4102 68.9407 95.6102 65.2507C95.6702 71.0307 96.6702 75.6707 98.3702 75.6707C101.92 75.6707 104.89 67.1807 106.98 59.7807C107.06 59.4807 106.89 59.2107 106.59 59.1307ZM104.64 45.0107C105.41 44.8707 105.44 46.1007 105.38 47.1107C105.22 49.9207 102.38 57.2407 99.5202 58.6907C100.02 55.4507 102.49 45.4007 104.64 45.0107ZM31.2102 66.8807C29.6902 66.8807 30.8802 57.8207 32.8002 57.8207C34.0102 57.8207 35.0302 59.0207 35.4702 60.2807C34.1602 63.4207 32.3202 66.8807 31.2102 66.8807ZM67.1302 58.5807C65.6502 58.3907 64.9602 56.9207 64.9602 55.3107C64.9602 53.5607 65.8102 51.4907 67.2402 51.4907H67.2702C69.4202 51.4907 68.4002 55.6107 67.1302 58.5807ZM83.0802 66.8807C81.5602 66.8807 82.7502 57.8207 84.6702 57.8207C85.8802 57.8207 86.9002 59.0207 87.3402 60.2807C86.0202 63.4207 84.1802 66.8807 83.0802 66.8807ZM37.2502 34.4707C41.5802 33.7307 45.8602 32.7307 50.2002 31.9907C51.3602 31.7907 52.5302 31.6807 53.6802 31.6507C55.5502 31.2007 57.2602 30.7807 58.8102 30.4007C58.8102 30.5807 58.8602 30.7607 58.9802 30.9607C59.0202 31.0207 59.0602 31.0707 59.0902 31.1307C60.0102 32.6107 61.0502 34.0007 62.1302 35.3607C63.3402 36.9007 64.7202 38.2607 66.3802 39.1607C67.8402 40.0407 69.3202 40.5807 70.9302 40.7907C72.0502 40.9407 73.1702 41.0807 74.2902 41.2307C75.1202 41.3407 75.9502 41.3107 76.7802 41.2107C77.1302 41.1707 77.4702 41.1207 77.8202 41.0807C79.4002 40.9307 80.9202 40.5307 82.4002 39.9507C82.7502 39.8207 83.0902 39.6707 83.4302 39.5207C83.6002 39.4407 83.7402 39.3207 83.7302 39.1007C83.7202 38.8907 83.6102 38.7607 83.4302 38.6807C83.3002 38.6207 83.1702 38.5807 83.0502 38.5207C82.8602 38.4407 82.6602 38.3707 82.4802 38.2807C81.5602 37.8007 80.6902 37.2307 79.9102 36.5607C78.5802 35.4407 77.2702 34.2907 76.0202 33.0907C74.8002 31.9207 73.5502 30.7707 72.2302 29.7107C71.8002 29.3707 71.3602 29.0207 70.8802 28.7707C69.8602 28.2307 68.8002 27.7907 67.7102 27.4207C67.3002 27.2807 66.8802 27.1907 66.4602 27.1507C67.9402 26.4507 69.4302 25.7607 70.8902 25.0307C70.9902 25.0107 71.1002 24.9807 71.2102 24.9307C71.2802 24.9007 71.3402 24.8607 71.4002 24.8307C73.0602 24.0307 74.6402 23.0907 76.2002 22.1207C77.9502 21.0307 79.5502 19.7507 80.6802 18.1207C81.7702 16.7007 82.5002 15.2307 82.9002 13.6107C83.1802 12.4707 83.4602 11.3307 83.7302 10.2007C83.9302 9.36069 84.0002 8.50069 83.9902 7.64069C83.9702 7.29069 83.9602 6.93069 83.9602 6.58069C83.9702 4.94069 83.7202 3.34069 83.2802 1.76069C83.1802 1.39069 83.0602 1.03069 82.9302 0.660688C82.8702 0.470688 82.7502 0.320688 82.5202 0.310688C82.2902 0.300688 82.1502 0.410688 82.0502 0.580688C81.9802 0.700688 81.9102 0.830688 81.8402 0.960688C81.7402 1.15069 81.6402 1.35069 81.5202 1.52069C80.9102 2.42069 80.2102 3.25069 79.4302 4.00069C78.1002 5.26069 76.7402 6.49069 75.3402 7.66069C73.9602 8.80069 72.6202 9.97069 71.3602 11.2307C70.9502 11.6407 70.5402 12.0607 70.2202 12.5307C69.5402 13.5207 68.9502 14.5707 68.4502 15.6607C68.0602 16.5007 67.8602 17.3807 67.9102 18.3107C67.9702 19.3207 68.1202 20.3107 68.4902 21.2607C68.7002 21.8107 68.9102 22.3507 69.1302 22.8907C69.0702 22.8507 68.9902 22.8207 68.9302 22.7807C67.4502 24.6707 65.5202 26.0107 63.1702 26.9107C59.6002 28.2707 56.0202 29.5707 52.2302 30.2107C52.0002 30.2507 51.7602 30.2707 51.4602 30.2907C52.1002 29.8207 52.7302 29.3407 53.3602 28.8407C54.9502 27.5907 56.3802 26.1707 57.3402 24.4707C58.2702 22.9807 58.8702 21.4707 59.1302 19.8507C59.3202 18.7207 59.5002 17.5807 59.6802 16.4507C59.8102 15.6107 59.8202 14.7707 59.7402 13.9407C59.7102 13.5907 59.6702 13.2507 59.6502 12.9007C59.5502 11.3107 59.1902 9.78069 58.6602 8.30069C58.5402 7.95069 58.4002 7.61069 58.2502 7.27069C58.1802 7.10069 58.0602 6.96069 57.8302 6.98069C57.6202 6.99069 57.4902 7.11069 57.4002 7.29069C57.3402 7.42069 57.2902 7.55069 57.2302 7.68069C57.1402 7.87069 57.0602 8.07069 56.9602 8.26069C56.4402 9.20069 55.8402 10.0807 55.1402 10.8907C53.9602 12.2507 52.7602 13.6007 51.5002 14.8907C50.2702 16.1507 49.0702 17.4307 47.9602 18.7907C47.6002 19.2307 47.2402 19.6807 46.9602 20.1707C46.3902 21.2107 45.9002 22.2907 45.5002 23.4007C45.1902 24.2507 45.0602 25.1407 45.1702 26.0307C45.2902 27.0007 45.5102 27.9507 45.9302 28.8307C46.1702 29.3507 46.4202 29.8707 46.6702 30.3807C46.7702 30.5907 46.8902 30.8007 47.0002 31.0107C45.8802 31.2107 44.7302 31.3907 43.6202 31.5507C43.0902 31.7707 42.5302 31.9307 41.9302 32.0507C38.2902 32.7507 34.6502 33.4507 30.9102 33.0707C30.4602 33.0207 29.9902 33.0707 28.9602 33.0807C29.2302 34.0907 29.3902 34.6807 29.5602 35.2907C32.3002 35.6807 34.7702 34.8907 37.2502 34.4707ZM82.1202 6.94069C82.1402 6.91069 82.1702 6.88069 82.1902 6.86069C82.1902 6.90069 82.2102 6.95069 82.2002 6.96069C82.1802 6.98069 82.1402 6.98069 82.1002 6.99069C82.1102 6.97069 82.1102 6.95069 82.1202 6.94069ZM82.1002 7.01069C82.1602 7.06069 82.2602 7.11069 82.2602 7.17069C82.2802 7.41069 82.2802 7.65069 82.2602 7.88069C82.1902 8.66069 82.1002 9.45069 82.0402 10.2307C81.9302 11.7807 81.4002 13.2107 80.7302 14.5907C80.1502 15.8007 79.4202 16.9207 78.6302 18.0107C78.2902 18.4807 77.9102 18.9007 77.4502 19.2707C76.3302 20.1907 75.1002 20.9507 73.8002 21.5907C73.5502 21.7107 73.2702 21.7907 73.0102 21.8907C73.0702 21.6607 73.2602 21.5107 73.4202 21.3607C75.2902 19.6107 76.9702 17.7107 78.4702 15.6407C79.7602 13.8607 80.7802 11.9407 81.4302 9.85069C81.7202 8.92069 81.8802 7.96069 82.1002 7.01069ZM81.5102 5.26069C81.5402 5.40069 81.5802 5.49069 81.5802 5.57069C81.5702 5.83069 81.5602 6.10069 81.5202 6.36069C81.1602 8.57069 80.5802 10.7107 79.5102 12.6907C79.1902 13.2807 78.8602 13.8707 78.4802 14.4207C77.3702 15.9907 76.2302 17.5307 74.8802 18.9307C73.9602 19.8807 73.0202 20.8207 72.0402 21.7107C71.9602 21.7907 71.8502 21.8407 71.6002 22.0007C71.8902 21.0707 72.2602 20.3707 72.6502 19.6907C73.3102 18.5507 73.9902 17.4107 74.7102 16.3107C75.4902 15.1207 76.3402 13.9907 77.1302 12.8107C78.0702 11.4107 79.0002 10.0107 79.8702 8.58069C80.3002 7.87069 80.5702 7.06069 80.9402 6.31069C81.1102 5.98069 81.1702 5.58069 81.5102 5.26069ZM80.0702 6.47069C79.8702 7.16069 79.6302 7.65069 79.3502 8.12069C78.4402 9.67069 77.4502 11.1807 76.4002 12.6507C75.4902 13.9207 74.5802 15.1907 73.7402 16.5107C72.7902 18.0107 71.8502 19.5207 71.1502 21.1607C71.1302 21.2007 71.0902 21.2307 71.0002 21.3207C70.9002 20.9907 70.9502 20.7307 70.9902 20.4707C71.3602 18.1807 72.0102 15.9907 73.4902 14.1207C74.4802 12.8807 75.4702 11.6407 76.5002 10.4307C77.3802 9.41069 78.3202 8.44069 79.2202 7.44069C79.4902 7.18069 79.7202 6.88069 80.0702 6.47069ZM70.6402 15.0207C70.8402 14.6907 71.0102 14.3407 71.2402 14.0407C71.5202 13.6607 71.8302 13.2807 72.1602 12.9407C73.0302 12.0407 73.9102 11.1507 74.8202 10.2907C75.9002 9.26069 77.0102 8.26069 78.1102 7.26069C78.4102 6.99069 78.7102 6.72069 79.1302 6.35069C78.9602 6.75069 78.7702 6.96069 78.5802 7.16069C77.9902 7.80069 77.3902 8.42069 76.8102 9.06069C75.3402 10.6507 73.9702 12.3307 72.7002 14.0707C71.9102 15.1407 71.3302 16.3207 70.9702 17.6007C70.6602 18.6807 70.3502 19.7607 70.2702 20.8907C70.2702 20.9307 70.2102 20.9607 70.1502 21.0307C70.0902 20.8907 70.0302 20.7707 69.9902 20.6407C69.4702 18.6807 69.5802 16.8007 70.6402 15.0207ZM77.1002 39.5507C76.8702 39.5907 76.6402 39.6207 76.4102 39.6207C75.6502 39.6407 74.8902 39.6307 74.1302 39.6507C72.6302 39.7107 71.2002 39.3507 69.8102 38.8607C68.5902 38.4307 67.4402 37.8607 66.3202 37.2307C65.8402 36.9607 65.4002 36.6407 65.0002 36.2507C64.0202 35.2907 63.1702 34.2207 62.4302 33.0607C62.2902 32.8407 62.1902 32.5907 62.0702 32.3507C62.3002 32.3807 62.4602 32.5407 62.6202 32.6807C64.4702 34.2607 66.4502 35.6407 68.5802 36.8407C70.4102 37.8707 72.3502 38.6407 74.4302 39.0307C75.3502 39.2007 76.3002 39.2607 77.2302 39.3707C77.2002 39.4507 77.1602 39.5407 77.1002 39.5507ZM77.3002 39.4807C77.2802 39.4607 77.2702 39.4207 77.2602 39.3907C77.2802 39.3907 77.3002 39.4007 77.3102 39.4007C77.3402 39.4207 77.3702 39.4407 77.4002 39.4607C77.3702 39.4707 77.3202 39.4907 77.3002 39.4807ZM63.0302 29.4107C63.1502 29.3707 63.2702 29.3307 63.3902 29.2907C63.4202 29.2807 63.4502 29.2807 63.4802 29.2707C63.4802 29.2707 63.4802 29.2707 63.4802 29.2607C65.1702 28.7207 66.8402 28.7007 68.5002 29.4507C68.8402 29.6007 69.1802 29.7307 69.5002 29.9107C69.9002 30.1407 70.2802 30.3907 70.6402 30.6707C71.5802 31.4007 72.5202 32.1307 73.4302 32.9007C74.5202 33.8107 75.5802 34.7507 76.6502 35.6807C76.9402 35.9307 77.2202 36.1907 77.6202 36.5507C77.2102 36.4307 77.0002 36.2707 76.7902 36.1207C76.1302 35.6307 75.4702 35.1407 74.8002 34.6507C73.1302 33.4307 71.3902 32.3207 69.6002 31.3007C68.5002 30.6707 67.3102 30.2407 66.0402 30.0307C64.9702 29.8507 63.9002 29.6707 62.8102 29.7107C62.7802 29.7107 62.7402 29.6607 62.6702 29.6207C62.8002 29.5207 62.9102 29.4507 63.0302 29.4107ZM63.2702 30.3407C65.5102 30.4507 67.6802 30.8507 69.6102 32.0507C70.9002 32.8507 72.1802 33.6607 73.4402 34.5007C74.5002 35.2207 75.5202 36.0007 76.5702 36.7507C76.8602 36.9607 77.1602 37.1507 77.5902 37.4307C76.9002 37.3207 76.4102 37.1307 75.9302 36.9207C74.3502 36.2207 72.8102 35.4507 71.3002 34.6107C69.9902 33.8907 68.6902 33.1507 67.3402 32.5107C65.8102 31.7707 64.2702 31.0407 62.6302 30.5507C62.5902 30.5407 62.5602 30.5007 62.4602 30.4307C62.7602 30.3107 63.0202 30.3207 63.2702 30.3407ZM64.1702 31.8107C65.3302 32.3107 66.4902 32.8307 67.6102 33.4007C68.8202 34.0107 69.9902 34.7007 71.2002 35.3207C72.6302 36.0607 74.0602 36.7907 75.5202 37.4607C76.2502 37.7907 77.0502 37.9707 77.8102 38.2407C78.1502 38.3607 78.5302 38.3807 78.8702 38.6607C78.7402 38.7007 78.6602 38.7507 78.5802 38.7607C78.3302 38.7807 78.0702 38.7907 77.8202 38.7807C75.6602 38.6707 73.5502 38.3307 71.5402 37.5407C70.9402 37.3007 70.3402 37.0507 69.7802 36.7507C68.1702 35.8707 66.5802 34.9507 65.1102 33.8307C64.1102 33.0607 63.1202 32.2807 62.1802 31.4507C62.1002 31.3807 62.0402 31.2907 61.8602 31.0707C62.7702 31.2407 63.4802 31.5107 64.1702 31.8107ZM57.9202 13.4507C57.9402 13.4207 57.9602 13.3907 57.9802 13.3607C57.9902 13.3907 58.0102 13.4407 57.9902 13.4607C57.9702 13.4807 57.9302 13.4907 57.9002 13.5007C57.9102 13.4807 57.9102 13.4607 57.9202 13.4507ZM57.4702 16.3507C57.6802 15.4207 57.7602 14.4607 57.9002 13.5107C57.9602 13.5607 58.0602 13.5907 58.0602 13.6507C58.1002 13.8807 58.1102 14.1107 58.1102 14.3407C58.1002 15.1107 58.0702 15.8807 58.0702 16.6407C58.0802 18.1607 57.6702 19.6007 57.1302 21.0107C56.6602 22.2507 56.0502 23.4207 55.3702 24.5607C55.0802 25.0507 54.7402 25.5007 54.3402 25.9107C53.3302 26.9207 52.2202 27.8007 51.0302 28.5707C50.8002 28.7207 50.5402 28.8207 50.3002 28.9507C50.3402 28.7207 50.5102 28.5507 50.6502 28.3907C52.3102 26.4907 53.7702 24.4607 55.0502 22.2907C56.1702 20.4207 57.0102 18.4507 57.4702 16.3507ZM57.2202 11.8907C57.2602 12.0207 57.3102 12.1007 57.3102 12.1807C57.3202 12.4407 57.3302 12.6907 57.3102 12.9507C57.1202 15.1307 56.7202 17.2707 55.8502 19.3107C55.5902 19.9207 55.3202 20.5307 54.9902 21.1007C54.0502 22.7507 53.0702 24.3707 51.8902 25.8707C51.0802 26.9007 50.2602 27.9107 49.3902 28.8807C49.3202 28.9607 49.2202 29.0207 49.0002 29.2107C49.2102 28.2807 49.5102 27.5507 49.8402 26.8507C50.3902 25.6707 50.9502 24.4907 51.5602 23.3407C52.2102 22.1107 52.9502 20.9107 53.6202 19.6807C54.4102 18.2207 55.2002 16.7607 55.9302 15.2707C56.2902 14.5307 56.4902 13.7207 56.7902 12.9507C56.8902 12.6207 56.9202 12.2307 57.2202 11.8907ZM55.2102 14.2607C55.4302 13.9607 55.6302 13.6607 55.9302 13.2207C55.7902 13.9107 55.5902 14.4207 55.3602 14.9007C54.6002 16.5107 53.7702 18.0807 52.8802 19.6207C52.1102 20.9607 51.3202 22.2907 50.6302 23.6607C49.8402 25.2207 49.0402 26.7907 48.4902 28.4507C48.4802 28.4907 48.4402 28.5307 48.3602 28.6207C48.2502 28.3107 48.2702 28.0507 48.2902 27.8007C48.4802 25.5407 48.9402 23.3407 50.2202 21.3707C51.0702 20.0607 51.9302 18.7407 52.8302 17.4607C53.5902 16.3707 54.4202 15.3307 55.2102 14.2607ZM47.5602 22.5507C47.7202 22.2107 47.8602 21.8507 48.0602 21.5307C48.3002 21.1307 48.5702 20.7307 48.8602 20.3607C49.6302 19.4007 50.4002 18.4307 51.2002 17.5007C52.1602 16.3807 53.1402 15.2907 54.1202 14.2007C54.3802 13.9007 54.6602 13.6107 55.0302 13.2107C54.8902 13.6207 54.7302 13.8407 54.5602 14.0607C54.0502 14.7407 53.5202 15.4207 53.0102 16.1007C51.7302 17.8107 50.5402 19.5807 49.4502 21.4207C48.7802 22.5507 48.3102 23.7507 48.0502 25.0307C47.8302 26.1107 47.6102 27.1907 47.6202 28.3007C47.6202 28.3307 47.5702 28.3707 47.5202 28.4407C47.4502 28.3107 47.3802 28.2007 47.3402 28.0807C46.7102 26.2307 46.6902 24.3907 47.5602 22.5507Z" fill="black"/>
</svg>
