<svg width="103" height="71" viewBox="0 0 103 71" fill="none" xmlns="http://www.w3.org/2000/svg">
<path d="M67.2912 34.697C68.1712 34.987 68.9212 34.677 69.5812 34.967C73.8412 28.017 77.6012 20.607 81.3412 13.357C82.9212 10.297 85.0012 7.42703 86.4712 4.37703C88.2812 0.637031 84.5112 -0.392969 82.2312 2.41703C79.9612 5.21703 78.3912 8.85703 76.3912 11.887C74.2312 15.167 72.1812 18.497 70.3812 21.977C69.4412 23.787 68.2412 25.467 67.1812 27.217C66.4012 28.517 64.6012 30.547 64.7212 32.087C64.8312 33.627 65.9812 34.267 67.2912 34.697ZM57.7712 9.64703C56.5212 7.09703 54.9312 4.50703 51.5412 4.89703C45.5912 5.57703 44.0212 15.807 44.5112 20.397C44.5112 24.977 45.9212 33.917 52.6612 32.027C57.8512 30.577 59.1712 22.007 59.7612 17.697C59.9512 16.347 60.0412 14.707 59.7112 13.357C59.3612 11.927 58.4112 10.957 57.7712 9.64703ZM58.2512 17.447C57.8612 20.767 56.6712 27.787 53.2712 29.687C50.9112 31.007 50.6412 28.547 50.3612 26.807C49.9312 24.167 49.9712 21.327 50.1712 18.667C50.3012 16.897 51.3612 5.78703 53.8912 7.22703C53.3312 8.48703 55.8312 10.687 56.5212 11.907C57.6212 13.897 58.5512 14.887 58.2512 17.447ZM36.0912 31.897C41.7412 30.377 43.6112 22.917 43.4312 17.947C42.9912 11.997 40.8712 5.22703 33.5112 6.44703C28.8512 7.21703 27.5712 17.417 27.5712 21.347C27.5812 25.927 29.8712 33.567 36.0912 31.897ZM32.5912 20.307C32.7712 18.337 32.9312 16.357 33.4812 14.447C34.1012 12.287 35.2612 10.297 35.7012 8.10703C37.4212 7.19703 39.6112 9.93703 40.4412 11.157C41.7912 13.147 41.9512 15.447 42.0112 17.787C42.0912 21.437 41.2412 26.767 37.6912 28.977C33.1512 31.807 32.3712 22.667 32.5912 20.307ZM25.3712 33.407C27.5812 31.977 25.4512 31.197 24.0812 30.977C24.0812 26.337 24.9212 21.527 25.2312 16.887C25.3912 14.477 25.3912 12.107 25.4712 9.69703C25.5212 8.09703 26.4512 5.53703 24.2312 5.46703C22.3712 5.40703 21.5912 7.26703 21.2012 8.74703C20.6512 10.847 20.7212 10.687 18.6512 11.787C18.2112 12.027 12.7812 14.647 14.8612 15.477C15.9412 15.907 19.6812 12.987 20.7512 12.627C21.0812 16.647 20.3112 21.437 19.7912 25.437C19.6912 26.187 19.5812 30.187 18.8512 30.707C18.1312 31.227 16.2712 30.397 15.9412 31.727C15.4812 33.577 21.7012 33.487 22.7812 33.597C23.7712 33.677 24.6412 33.887 25.3712 33.407ZM82.9412 22.577C80.2912 22.687 78.0912 24.797 78.0212 27.337C77.9512 29.737 79.5912 33.027 82.2912 33.377C85.7612 33.837 87.1812 30.467 87.5112 27.797C88.0612 27.867 86.7212 25.187 86.5612 24.957C85.6712 23.667 84.6612 22.507 82.9412 22.577ZM85.5812 29.287C85.3612 29.837 83.9712 31.567 83.2112 31.397C80.9412 30.877 83.0112 25.937 84.1712 25.207C85.4612 26.037 86.1812 27.787 85.5812 29.287ZM70.1512 11.707C72.6412 12.127 74.6312 10.037 75.1212 7.72703C76.3512 1.86703 66.0212 -0.672969 66.1212 6.43703C66.3312 9.03703 67.2312 11.207 70.1512 11.707ZM71.8512 4.86703C72.9212 4.75703 73.0912 5.77703 73.5512 6.63703C72.9912 8.22703 70.5812 11.557 70.0912 7.89703C69.9712 6.98703 70.6912 4.98703 71.8512 4.86703ZM12.9812 44.247C12.5212 44.267 12.0512 44.247 11.5812 44.237C11.3012 44.227 10.9912 44.267 10.7412 44.187C9.92122 43.907 10.1912 44.797 9.81122 44.977C10.0412 45.157 10.2512 45.367 10.4912 45.517C10.8112 45.717 11.2912 45.687 11.3112 46.267C11.3912 48.417 11.4912 50.567 11.6412 52.717C11.7812 54.727 12.0412 56.717 11.8912 58.747C11.7812 60.247 11.8612 61.757 11.8512 63.267C11.8512 63.527 11.7912 63.777 11.7612 64.037C11.7112 64.047 11.6712 64.057 11.6212 64.057C11.5112 63.867 11.3912 63.697 11.3012 63.497C10.7712 62.267 10.3012 61.017 9.73123 59.797C8.74123 57.687 7.70123 55.597 6.67123 53.497C5.49123 51.077 4.26122 48.667 3.12122 46.227C2.57122 45.057 1.78122 44.407 0.511225 44.427C-0.148775 45.057 -0.098775 45.767 0.261225 46.417C0.841225 47.447 0.801225 48.567 0.901225 49.667C1.07122 51.577 1.24123 53.487 1.37122 55.397C1.50122 57.247 1.63123 59.097 1.71123 60.947C1.79123 62.807 1.80123 64.657 1.84123 66.517C1.85123 67.227 1.84123 67.937 1.84123 68.677C1.55123 68.657 1.35122 68.627 1.15122 68.617C0.541225 68.587 0.221225 68.867 0.191225 69.457C0.161225 70.017 0.511225 70.347 1.12122 70.367C1.41122 70.377 1.70123 70.467 1.99123 70.457C2.74123 70.437 3.50123 70.487 4.22123 70.317C4.67123 70.217 5.39123 70.127 5.30123 69.277C4.88123 69.207 4.46123 69.147 4.06123 69.047C3.94123 69.017 3.79122 68.857 3.78122 68.737C3.63122 67.677 3.38123 66.617 3.40123 65.557C3.46123 62.587 3.34122 59.637 3.13122 56.687C3.04122 55.467 2.96122 54.247 2.88122 53.027C3.27122 53.557 3.54122 54.127 3.81122 54.707C4.99122 57.227 6.19123 59.737 7.33123 62.277C7.99123 63.757 8.49123 65.307 9.15123 66.787C9.65123 67.897 10.2912 68.937 11.6912 69.177C11.8712 69.207 12.0312 69.367 12.2012 69.457C12.5712 69.657 12.9412 69.807 13.1212 69.227C13.3012 69.347 13.4612 69.437 13.8212 69.667C13.8212 69.077 13.8512 68.647 13.8112 68.237C13.7812 67.897 13.6112 67.557 13.6212 67.217C13.6512 65.287 13.7412 63.357 13.7512 61.417C13.7612 59.537 13.7012 57.657 13.6712 55.777C13.6512 54.567 13.6412 53.367 13.6012 52.157C13.5312 50.217 13.4412 48.277 13.3412 46.347C13.3112 45.837 13.4912 45.507 13.9712 45.267C14.2712 45.117 14.5312 44.887 14.7812 44.657C14.8612 44.587 14.9112 44.397 14.8712 44.297C14.8312 44.207 14.6612 44.107 14.5512 44.117C14.0312 44.147 13.5112 44.227 12.9812 44.247ZM73.1112 67.477C72.8112 67.317 72.2412 67.407 71.9012 67.587C71.4612 67.817 71.3412 67.607 71.1512 67.337C70.0312 65.677 68.9212 64.007 67.7812 62.357C67.5012 61.957 67.5512 61.637 67.9812 61.527C69.7312 61.057 70.5912 59.617 71.6512 58.397C71.8212 58.197 72.0212 57.977 72.0712 57.737C72.3612 56.367 72.7812 54.997 72.8412 53.617C72.9212 51.587 72.3312 49.727 71.0412 48.037C70.2112 46.957 69.2412 46.227 67.9912 45.757C66.9812 45.377 65.9712 44.977 64.9512 44.607C64.7912 44.547 64.5712 44.657 64.3712 44.677C64.1212 44.697 63.8712 44.727 63.6212 44.717C63.1712 44.687 62.4412 45.127 62.5112 45.507C62.5612 45.787 62.9012 46.217 63.1112 46.217C63.7112 46.207 63.6112 46.507 63.5412 46.847C63.4712 47.237 63.3412 47.637 63.3412 48.027C63.3212 51.427 63.3012 54.817 63.3212 58.217C63.3412 60.987 63.4112 63.757 63.4612 66.537C63.4812 67.617 63.5512 68.677 64.4112 69.527C64.8212 69.927 66.1512 70.017 66.3712 69.517C66.6112 68.967 66.7912 68.347 66.8212 67.747C66.8912 66.457 66.8412 65.157 66.8412 63.867C66.8412 63.867 66.9112 63.897 66.9412 63.937C67.9212 65.557 68.9412 67.157 69.8512 68.817C70.2512 69.547 70.8612 69.807 71.5812 69.967C71.6912 69.987 71.8612 69.927 71.9512 69.837C72.2612 69.547 72.5412 69.227 72.8512 68.937C73.2612 68.567 73.4912 67.677 73.1112 67.477ZM66.6812 60.437C66.0412 57.417 66.0412 54.387 66.0412 51.347C66.0412 49.907 66.0612 48.457 66.0512 47.017C66.0512 46.487 66.2412 46.417 66.7112 46.587C69.4112 47.527 70.6612 49.487 71.0112 52.187C71.1912 53.587 71.2112 54.987 70.7012 56.277C70.0112 58.037 68.7912 59.447 67.0412 60.327C66.9312 60.387 66.7912 60.407 66.6812 60.437ZM87.0312 49.927C86.3212 47.787 85.0712 45.967 82.8812 44.967C82.6612 44.867 82.4212 44.817 82.1912 44.737C82.2812 44.637 82.3612 44.537 82.4512 44.437C82.3812 44.487 82.3112 44.537 82.2412 44.567C82.1612 44.597 82.0712 44.607 81.9812 44.627C79.9612 45.047 78.1312 45.757 77.1612 47.767C77.0712 47.947 76.7612 48.007 76.5512 48.127C76.2912 48.277 75.9312 48.357 75.7912 48.577C75.6812 48.747 75.7512 49.147 75.8912 49.347C76.5612 50.347 78.4012 50.637 79.5412 49.867C79.2412 49.587 78.9512 49.317 78.6312 49.027C79.2712 47.607 80.4512 46.787 81.9812 46.417C82.2312 46.357 82.5712 46.427 82.8112 46.557C84.4212 47.377 84.8712 48.897 84.9212 50.477C84.9912 52.727 84.8712 54.997 84.8112 57.247C84.7912 58.017 84.7012 58.787 84.6512 59.547C83.9212 59.417 83.2712 59.247 82.6112 59.187C81.8912 59.117 81.1712 59.147 80.4512 59.137C78.3912 59.107 75.9712 60.637 75.3112 62.467C74.6412 64.347 75.3612 66.027 76.4212 67.487C77.8912 69.517 80.0912 70.117 82.5312 69.787C83.4812 69.667 84.4312 69.387 84.9912 68.417C85.0812 68.887 85.0712 69.317 85.2712 69.627C85.4312 69.887 85.8212 70.137 86.1112 70.147C86.4412 70.147 86.9112 70.087 86.8912 69.477C86.8612 68.637 86.9712 67.787 86.9912 66.937C87.0112 66.357 86.9412 65.777 86.9812 65.207C87.1112 63.067 87.3112 60.927 87.3912 58.787C87.4612 56.987 87.4512 55.177 87.4012 53.367C87.3612 52.207 87.3912 50.997 87.0312 49.927ZM84.2412 66.957C84.1912 67.617 83.3712 68.127 82.3912 68.177C82.1212 68.187 81.8412 68.177 81.7412 68.177C80.7112 68.217 79.8712 68.167 79.2112 67.557C78.8612 67.237 78.5312 66.857 78.3112 66.437C77.4212 64.757 77.3512 63.007 79.1112 61.547C80.4712 60.427 81.9912 60.567 83.5312 60.757C84.1612 60.837 84.5212 61.407 84.5112 61.957C84.4812 63.627 84.3612 65.297 84.2412 66.957ZM29.1312 67.217C29.0212 65.627 29.0512 64.027 29.0312 62.427C29.0312 62.027 29.0712 61.637 29.1212 61.237C29.2312 60.377 29.4312 59.527 29.4612 58.667C29.5112 57.377 29.3312 56.077 29.4412 54.797C29.5712 53.257 29.6812 51.767 29.4612 50.197C29.2612 48.747 28.7712 47.497 28.0212 46.307C27.7012 45.827 27.2112 45.397 26.7112 45.027C25.4512 44.097 24.1212 44.537 22.8912 45.057C20.1112 46.237 18.7212 48.537 17.9212 51.307C17.8312 51.267 17.7712 51.237 17.7112 51.207C17.2412 50.897 16.6612 50.707 16.3112 51.207C15.9812 51.687 16.1712 52.257 16.7412 52.577C17.2912 52.887 17.8312 53.207 18.3912 53.477C19.0912 53.807 19.6512 53.477 20.2812 53.047C20.0212 52.817 19.7812 52.657 19.6112 52.437C19.4512 52.237 19.2512 51.967 19.2812 51.747C19.4612 50.237 20.1412 48.907 21.1712 47.827C22.0712 46.887 23.1812 46.207 24.5712 46.037C25.4312 45.927 25.8812 46.007 26.3012 46.677C27.3912 48.407 27.9012 50.297 27.8612 52.327C27.8212 54.137 27.7812 55.957 27.7112 57.767C27.6812 58.427 27.5512 59.087 27.4712 59.737C26.5712 59.467 25.7512 59.137 24.9012 58.977C24.1112 58.837 23.2712 58.747 22.4912 58.867C20.7412 59.127 19.4512 60.237 18.2912 61.437C17.0112 62.757 16.6812 64.377 17.3612 66.067C17.6512 66.777 18.2412 67.407 18.8112 67.947C20.4312 69.487 23.4912 70.337 25.7812 68.977C26.2312 68.707 26.6212 68.557 26.9412 69.187C27.0612 69.427 27.4412 69.537 27.3412 69.927C27.3312 69.947 27.5912 70.077 27.7312 70.097C27.8612 70.117 28.0112 70.057 28.1412 70.017C28.6612 69.837 29.1912 69.647 29.7012 69.437C29.7512 69.417 29.7412 69.167 29.7012 69.037C29.5212 68.407 29.1712 67.827 29.1312 67.217ZM26.7912 64.587C26.7312 65.047 26.6712 65.507 26.6412 65.977C26.6112 66.447 26.6312 66.907 26.6312 67.487C25.5612 67.627 24.5512 67.917 23.5512 67.877C20.8312 67.767 19.6112 66.337 19.9412 63.607C20.1612 61.797 22.7612 60.187 24.2012 60.357C24.6912 60.417 25.1912 60.447 25.6812 60.517C26.3412 60.607 27.1512 61.657 27.0812 62.357C27.0112 63.097 26.8912 63.837 26.7912 64.587ZM59.1412 48.187C58.9912 47.667 58.9412 47.057 59.0912 46.547C59.2812 45.857 59.2712 45.577 58.5312 45.527C57.7912 45.467 57.0312 45.587 56.3712 45.627C56.2212 45.887 56.0612 46.037 56.0412 46.207C56.0112 46.417 56.0512 46.667 56.1512 46.857C56.2112 46.967 56.4612 47.077 56.5912 47.047C57.1912 46.917 57.6412 46.907 57.4712 47.727C57.4512 47.807 57.5212 47.897 57.5512 47.977C57.7412 48.707 58.0312 49.427 58.1112 50.167C58.2412 51.317 58.2512 52.487 58.2612 53.647C58.2812 55.517 58.2612 57.397 58.2712 59.267C58.2812 61.837 57.7412 64.237 56.1512 66.347C55.6912 66.957 55.0612 67.587 54.3112 67.387C53.7812 67.247 53.1812 66.597 53.0312 66.057C52.6712 64.827 52.1012 63.667 52.0512 62.317C52.0112 61.267 51.5712 60.247 51.6212 59.137C51.6612 58.367 51.2812 57.577 51.2712 56.787C51.2312 54.847 51.2412 52.907 51.3312 50.967C51.3912 49.617 51.6112 48.277 51.7612 46.897C51.9412 46.797 52.2512 46.617 52.5512 46.447C51.8712 45.557 51.0512 45.827 50.2912 45.777C49.8212 45.747 49.3512 45.657 48.8812 45.617C48.7012 45.597 48.4812 45.597 48.3312 45.677C47.8312 45.947 47.8512 46.847 48.4512 47.147C48.9012 47.377 48.8012 47.577 48.7512 47.917C48.5312 49.457 48.2312 50.987 48.1612 52.537C48.0812 54.217 48.2012 55.907 48.2812 57.587C48.3312 58.607 48.4512 59.627 48.6212 60.637C48.9612 62.647 49.7112 64.527 50.6512 66.317C51.3012 67.537 52.1012 68.727 53.7212 69.007C54.9112 69.207 57.2112 68.457 57.6612 67.437C58.3112 65.957 58.9812 64.427 59.2712 62.857C59.6312 60.897 59.6312 58.867 59.7212 56.867C59.7612 56.057 59.5812 55.237 59.5812 54.417C59.5712 52.337 59.7212 50.237 59.1412 48.187ZM45.8412 43.817C44.2212 44.417 42.5112 44.257 40.8612 44.387C38.0412 44.597 35.1912 44.437 32.3512 44.437C32.2312 44.437 32.0812 44.437 32.0012 44.497C31.3512 44.987 31.4212 46.607 32.1012 47.047C32.1812 47.097 32.3212 47.107 32.4212 47.087C32.6212 47.037 32.8212 46.957 33.0712 46.877C33.0912 46.667 33.1212 46.377 33.1412 46.107C34.7612 46.107 36.3412 46.107 37.9112 46.107C37.8912 46.257 37.8512 46.407 37.8512 46.557C37.8112 48.177 37.7712 49.807 37.7512 51.427C37.7212 54.057 37.6912 56.677 37.6912 59.307C37.6912 62.447 37.7212 65.587 37.7712 68.727C37.7812 69.097 37.7012 69.197 37.3512 69.217C36.9012 69.237 36.5212 69.437 36.5212 69.917C36.5212 70.217 36.7012 70.517 36.8012 70.807C37.0412 70.767 37.2212 70.697 37.3912 70.707C38.6512 70.777 39.8612 70.597 41.0212 70.127C41.2512 70.027 41.4112 69.767 41.6112 69.577C41.4412 69.427 41.2812 69.257 41.0912 69.117C41.0112 69.057 40.8812 69.057 40.7612 69.037C40.6612 66.457 40.5312 63.897 40.4612 61.337C40.4212 59.847 40.4712 58.347 40.4812 56.847C40.4912 55.697 40.5312 54.537 40.5012 53.387C40.4712 52.147 40.3912 50.907 40.3412 49.657C40.3112 48.817 40.3412 47.977 40.2612 47.137C40.1912 46.357 40.4512 45.987 41.2212 45.907C42.3212 45.797 43.4112 45.667 44.4412 45.547C44.7412 46.467 45.0312 47.337 45.3312 48.237C45.6612 48.097 45.9312 47.977 46.1912 47.867C46.3412 46.847 46.6412 45.877 46.9212 44.907C47.1612 44.147 46.6212 43.527 45.8412 43.817ZM101.581 66.977C101.411 66.867 100.951 66.967 100.801 67.127C100.551 67.397 100.351 67.777 100.321 68.137C100.271 68.657 100.121 68.817 99.6012 68.657C99.2812 68.557 98.9412 68.527 98.6012 68.517C97.5212 68.457 96.4412 68.407 95.3712 68.387C94.9312 68.377 94.6912 68.147 94.7012 67.797C94.7312 66.187 94.7912 64.577 94.8912 62.967C94.9612 61.877 95.1512 60.787 95.2112 59.697C95.2512 58.967 95.1212 58.237 95.1212 57.507C95.1312 55.957 95.2212 54.407 95.2012 52.857C95.1712 51.047 95.0912 49.247 94.9512 47.447C94.8712 46.407 94.7312 45.297 93.7912 44.597C93.4412 44.337 92.8912 44.067 92.5112 44.147C91.9212 44.277 91.4112 44.707 90.8612 45.017C90.8512 45.107 90.8412 45.197 90.8412 45.297C91.2212 45.497 91.5912 45.697 92.1412 45.997C92.2012 46.737 92.3212 47.677 92.3312 48.617C92.3612 50.727 92.3712 52.847 92.3412 54.957C92.3112 56.947 92.3312 58.947 92.1612 60.917C91.9512 63.357 91.5612 65.777 91.7812 68.237C91.8412 68.857 91.6012 69.667 92.6612 69.747C92.7012 69.747 92.7312 69.847 92.7612 69.907C92.9912 70.447 93.4512 70.497 93.9412 70.387C94.3712 70.297 94.7812 70.017 95.2012 70.017C96.4312 70.017 97.6712 70.117 98.9012 70.187C98.9412 70.187 98.9912 70.227 99.0312 70.227C99.7312 70.247 100.381 70.267 101.021 69.797C101.751 69.257 101.711 68.437 102.011 67.747C102.081 67.577 101.811 67.127 101.581 66.977Z" fill="black"/>
</svg>
