<svg width="120" height="89" viewBox="0 0 120 89" fill="none" xmlns="http://www.w3.org/2000/svg">
<path d="M119.462 54.5612C119.162 54.3312 118.492 54.0012 118.022 53.8712C117.352 53.6812 115.772 53.7212 114.832 53.9412C113.512 54.2612 113.142 54.3612 112.882 54.4612C112.742 54.5212 112.612 54.5612 112.572 54.5512C112.502 54.5412 110.852 55.2112 110.072 55.5812L109.592 55.8012L109.642 54.9812C109.672 54.5312 109.712 53.9612 109.732 53.7012C109.752 53.4512 109.772 53.0612 109.772 52.8412C109.772 52.6212 109.772 52.4012 109.772 52.3412C109.772 52.2812 109.792 50.9612 109.802 49.4012C109.832 46.3312 109.842 46.3712 109.362 45.8412C109.132 45.5812 109.082 45.5712 108.362 45.5312C107.672 45.4912 107.572 45.5112 107.172 45.7112C106.632 45.9812 105.322 47.2512 104.692 48.1112C104.442 48.4512 104.082 49.0212 103.892 49.3612C103.702 49.7012 103.442 50.1912 103.302 50.4512C103.162 50.7012 102.952 51.1012 102.822 51.3312C102.692 51.5612 102.442 52.0312 102.262 52.3712C101.652 53.5412 100.882 54.7512 100.502 55.1512C100.072 55.5912 99.8717 55.6612 99.9517 55.3412C99.9817 55.2312 99.9617 55.1112 99.9117 55.0912C99.8517 55.0512 99.8517 54.9612 99.9017 54.8212C99.9417 54.7012 99.9617 54.5812 99.9417 54.5412C99.9217 54.5012 99.9317 54.4512 99.9617 54.4312C100.032 54.3812 100.012 53.4312 99.9417 53.3012C99.9117 53.2512 99.9517 53.1212 100.032 53.0112C100.112 52.8912 100.142 52.7612 100.112 52.7112C100.082 52.6612 100.132 52.4712 100.222 52.2912C100.412 51.9212 100.602 51.2012 100.682 50.5412C100.712 50.2912 100.762 50.0512 100.792 50.0012C100.822 49.9512 100.852 49.8012 100.862 49.6612C100.872 49.5212 100.922 49.2612 100.972 49.0812C101.022 48.9012 101.082 48.5212 101.102 48.2512C101.122 47.9812 101.172 47.6412 101.222 47.5012C101.302 47.2412 101.382 46.9012 101.432 46.5612C101.492 46.1812 101.582 45.8212 101.642 45.7412C101.742 45.6012 101.732 44.7012 101.622 44.5112C101.542 44.3712 101.542 44.3312 101.632 44.3012C101.802 44.2412 101.742 43.7412 101.532 43.4212C101.422 43.2612 101.312 43.0512 101.282 42.9512C101.252 42.8512 101.072 42.6912 100.882 42.6012C100.692 42.5012 100.432 42.3412 100.302 42.2512C100.122 42.1112 100.052 42.1012 100.002 42.1812C99.9517 42.2612 99.8117 42.2712 99.5217 42.2312C99.1717 42.1812 99.0217 42.2112 98.6217 42.4012C98.2117 42.5912 98.1617 42.6412 98.2817 42.7112C98.5017 42.8412 98.4817 43.0212 97.8617 45.4112C97.7417 45.8712 97.6117 46.3912 97.5817 46.5812C97.3917 47.4812 97.2617 47.9612 97.1017 48.3712C97.0017 48.6212 96.9417 48.8412 96.9617 48.8612C96.9817 48.8812 96.9317 49.0012 96.8417 49.1112C96.7517 49.2312 96.6317 49.5112 96.5617 49.7412C96.4917 49.9712 96.2317 50.6612 95.9717 51.2812C95.7217 51.9012 95.5317 52.4212 95.5517 52.4412C95.5717 52.4612 95.5617 52.5212 95.5217 52.5712C95.4817 52.6212 95.3617 52.9012 95.2517 53.2012C95.1417 53.5012 94.9717 53.8412 94.8717 53.9712C94.7717 54.1012 94.6617 54.3812 94.6317 54.6212C94.6017 54.8512 94.4417 55.3412 94.2917 55.7012C94.1417 56.0612 94.0117 56.4212 94.0117 56.4912C94.0117 56.5612 93.9417 56.6912 93.8617 56.7812C93.7717 56.8712 93.6817 57.1212 93.6517 57.3912C93.5517 58.2012 93.2317 59.1312 93.0517 59.1312C92.9617 59.1312 92.9417 59.1812 92.9817 59.3012C93.0117 59.3912 92.9717 59.5912 92.9017 59.7412C92.8317 59.8912 92.6917 60.2512 92.6017 60.5512C92.5117 60.8512 92.3817 61.2112 92.3117 61.3612C92.2517 61.5012 92.1917 61.6712 92.1917 61.7112C92.1917 61.8412 91.6217 63.5212 91.3617 64.1812C91.0517 64.9412 89.6717 67.6612 89.5717 67.7012C89.3917 67.7712 89.3017 67.6512 89.4517 67.5312C89.5517 67.4512 89.5717 67.2512 89.5717 66.6412C89.5717 65.5212 89.6717 64.3812 89.7717 64.2812C89.8217 64.2312 89.8317 64.0312 89.8017 63.7912C89.7717 63.5312 89.7917 63.3412 89.8517 63.2612C89.9117 63.1912 89.9417 62.9912 89.9317 62.8212C89.9217 62.6412 89.9317 62.4612 89.9617 62.4112C89.9917 62.3612 90.0017 62.2612 89.9717 62.1812C89.9417 62.1012 89.9617 62.0012 90.0117 61.9312C90.0617 61.8712 90.1017 61.6512 90.1017 61.4512C90.0917 60.9912 90.1917 60.3612 90.2817 60.2512C90.3917 60.1212 90.5317 59.2112 90.5217 58.7112C90.5117 58.4612 90.5617 58.1412 90.6117 58.0012C90.7317 57.7012 90.7617 57.2912 90.6717 57.2312C90.6317 57.2012 90.6317 57.1612 90.6817 57.1312C90.7317 57.1012 90.7717 56.8712 90.7817 56.6212C90.7917 56.3712 90.8217 56.1312 90.8617 56.0812C90.8917 56.0312 90.9417 55.7912 90.9717 55.5412C91.0717 54.5112 91.1217 54.2412 91.2117 54.0612C91.2617 53.9612 91.2817 53.7612 91.2517 53.6312C91.2217 53.4712 91.2417 53.3512 91.3117 53.2912C91.3717 53.2412 91.4517 53.0112 91.4817 52.7812C91.5117 52.5512 91.5717 52.3512 91.6117 52.3212C91.6517 52.3012 91.6817 52.1912 91.6817 52.0912C91.6817 51.9912 91.7317 51.8312 91.7917 51.7512C91.8517 51.6712 91.8917 51.4812 91.8717 51.3412C91.8517 51.2012 91.8717 51.0112 91.9117 50.9112C92.0117 50.6912 92.1917 49.7912 92.1817 49.5712C92.1817 49.4812 92.2017 49.3312 92.2517 49.2412C92.3317 49.0712 92.5217 47.8212 92.5517 47.2812C92.5617 47.1212 92.6617 46.7312 92.7717 46.4012C92.9517 45.8712 92.9717 45.7012 92.9617 44.6512C92.9517 43.6612 92.9217 43.4212 92.7717 43.0912C92.5317 42.5612 92.1817 42.2212 91.8017 42.1712C91.3717 42.1012 90.7117 42.2112 90.4517 42.3812C90.2417 42.5212 89.2917 43.5612 89.2917 43.6512C89.2917 43.6712 89.1917 43.8012 89.0717 43.9312C88.5617 44.4812 87.1317 47.0212 87.1317 47.3712C87.1317 47.4512 87.0817 47.5512 87.0217 47.5712C86.9617 47.5912 86.7017 48.1312 86.4317 48.7712C86.1717 49.4012 85.8017 50.2712 85.6317 50.6912C85.4517 51.1112 85.2817 51.5812 85.2517 51.7312C85.2217 51.8912 85.1517 52.0912 85.0917 52.1812C84.9617 52.3912 84.3517 53.8512 84.2717 54.1412C84.2417 54.2512 84.1417 54.5112 84.0517 54.7012C83.9617 54.8912 83.8917 55.0912 83.8917 55.1312C83.8917 55.1712 83.8317 55.2612 83.7517 55.3212C83.6317 55.4212 83.6217 55.4112 83.6617 55.1812C83.6817 55.0412 83.7717 54.5712 83.8417 54.1412C83.9117 53.7112 84.0117 53.2312 84.0617 53.1012C84.1117 52.9312 84.1117 52.7412 84.0517 52.5212C83.9817 52.2912 83.9817 52.1412 84.0517 51.9912C84.1017 51.8812 84.1417 51.6112 84.1417 51.3812C84.1417 51.1512 84.1717 50.9512 84.2117 50.9212C84.2517 50.8912 84.2717 50.5312 84.2617 50.1012C84.2417 49.4912 84.2617 49.3012 84.3617 49.1912C84.4417 49.1112 84.4817 48.9512 84.4617 48.8112C84.4417 48.6812 84.4817 48.5212 84.5417 48.4612C84.6117 48.3912 84.6317 48.2812 84.6017 48.1812C84.5717 48.0812 84.5917 47.9912 84.6517 47.9512C84.7817 47.8712 84.8117 47.7012 84.8317 46.9112C84.8417 46.5812 84.8717 46.2812 84.9117 46.2312C84.9517 46.1812 84.9517 46.0812 84.9217 46.0012C84.8917 45.9212 84.9017 45.8212 84.9517 45.7612C84.9917 45.7012 85.0417 45.4712 85.0517 45.2512C85.0617 45.0212 85.1017 44.7712 85.1517 44.6812C85.2117 44.5712 85.2017 44.4912 85.1417 44.4112C85.0717 44.3212 85.0817 44.2912 85.1817 44.2512C85.2717 44.2212 85.3117 44.0912 85.3117 43.8412C85.3117 43.6412 85.3517 43.4412 85.3917 43.4012C85.4317 43.3612 85.4817 43.1012 85.5017 42.8212C85.5217 42.5412 85.5817 42.2312 85.6417 42.1212C85.7017 42.0012 85.7317 41.7912 85.7017 41.6012C85.6717 41.3812 85.7017 41.2512 85.7817 41.1812C85.8517 41.1212 85.8917 40.9812 85.8717 40.8412C85.8517 40.7112 85.8617 40.5812 85.9017 40.5612C85.9417 40.5412 85.9817 40.3812 85.9817 40.2212C85.9817 40.0612 86.0317 39.8212 86.1017 39.6912C86.2817 39.3312 86.3617 38.6012 86.2217 38.5112C86.1317 38.4512 86.1417 38.4012 86.2817 38.2712C86.4017 38.1512 86.4817 37.9512 86.5217 37.6012C86.5617 37.2712 86.6317 37.0512 86.7417 36.9612C86.8217 36.8912 86.9017 36.7612 86.9017 36.7112C86.9017 36.6512 86.9417 36.5312 86.9817 36.4612C87.1617 36.1412 87.3417 35.5412 87.3817 35.1412C87.5017 33.7412 87.3717 33.0112 86.9617 32.7912C86.8417 32.7212 86.7417 32.6312 86.7617 32.5812C86.7917 32.4812 86.2517 32.1612 86.1217 32.2112C86.0717 32.2312 85.9317 32.1912 85.8117 32.1312C85.6417 32.0412 85.5517 32.0412 85.4317 32.1112C85.3117 32.1912 85.2417 32.1812 85.0817 32.0612C84.8517 31.8912 84.7617 31.8912 84.7517 32.0312C84.7017 33.0812 84.5617 33.8112 84.2117 34.8512C84.1917 34.9212 84.1217 35.1812 84.0617 35.4312C84.0017 35.6812 83.9317 35.9312 83.9017 35.9712C83.8017 36.1212 83.3517 37.6412 83.2517 38.1412C83.2017 38.4212 83.1117 38.7112 83.0717 38.7912C83.0317 38.8712 82.9017 39.3112 82.8017 39.7512C82.5017 41.0312 82.1017 42.5012 81.8617 43.2212C81.7417 43.5812 81.6417 44.0112 81.6317 44.1612C81.6217 44.3212 81.5817 44.4712 81.5317 44.5012C81.4817 44.5312 81.4017 44.7312 81.3617 44.9312C81.3117 45.1412 81.1917 45.5612 81.0917 45.8912C80.9917 46.2212 80.8617 46.6612 80.8017 46.8912C80.7417 47.1212 80.5917 47.6212 80.4717 48.0212C80.1317 49.1112 79.4217 51.5312 79.3317 51.9012C79.2817 52.0812 79.2017 52.3512 79.1417 52.4812C79.0817 52.6212 78.8417 53.4212 78.6117 54.2712C78.3817 55.1212 78.1317 56.0012 78.0717 56.2312C78.0117 56.4612 77.8717 56.9612 77.7817 57.3612C77.6817 57.7512 77.5517 58.2012 77.4917 58.3612C77.1917 59.1612 76.6617 60.6412 76.4517 61.2412C75.8817 62.8812 75.7717 63.1412 74.9217 64.8312C74.1417 66.4012 73.4517 67.4812 73.3317 67.3512C73.3017 67.3212 73.2617 67.0812 73.2617 66.8112C73.2517 66.5512 73.2117 65.9712 73.1717 65.5412C73.1317 65.1112 73.1117 64.6912 73.1117 64.6212C73.1417 64.3512 73.2417 61.0112 73.2517 59.9512C73.2617 59.3312 73.2917 58.7912 73.3217 58.7412C73.3517 58.6912 73.3517 58.5012 73.3117 58.3112C73.2717 58.0912 73.2817 57.9512 73.3317 57.9312C73.3717 57.9112 73.4217 57.6712 73.4417 57.3812C73.4617 57.1012 73.5117 56.7412 73.5517 56.5912C73.6417 56.3012 73.6317 55.8812 73.5417 55.7212C73.5117 55.6712 73.5317 55.4912 73.5917 55.3412C73.8217 54.7812 73.8817 54.5012 73.8417 54.1412C73.8217 53.9312 73.8417 53.6912 73.8917 53.6012C73.9417 53.5112 74.0017 53.2612 74.0217 53.0412C74.0417 52.8212 74.1017 52.6012 74.1417 52.5512C74.2617 52.4012 74.3817 51.5712 74.3917 50.7612C74.4017 50.3712 74.4417 50.0112 74.4817 49.9512C74.5317 49.8912 74.5417 49.8212 74.5117 49.7712C74.4817 49.7312 74.5617 49.5012 74.6917 49.2612C74.9117 48.8412 74.9317 48.8212 75.4517 48.6712C76.2517 48.4512 77.4617 48.0012 77.6117 47.8712C77.6817 47.8012 77.8017 47.7712 77.8717 47.8012C77.9417 47.8312 78.0217 47.8112 78.0517 47.7612C78.0817 47.7112 78.1917 47.6712 78.2917 47.6712C78.3917 47.6712 78.6317 47.6012 78.8317 47.5012C79.1417 47.3612 79.1817 47.3112 79.1317 47.1412C79.0317 46.7812 78.9017 46.5812 78.7517 46.5812C78.6817 46.5812 78.5617 46.5212 78.5017 46.4512C78.3317 46.2412 77.7017 46.3412 76.4817 46.7712C75.8817 46.9812 75.3817 47.1212 75.3417 47.1012C75.1717 46.9412 75.3217 45.9412 75.5317 45.8112C75.6117 45.7612 75.6917 45.6412 75.6917 45.5612C75.6917 45.4812 75.7517 45.3412 75.8317 45.2512C75.9717 45.0812 76.3317 44.1312 76.4117 43.7212C76.4317 43.5912 76.5217 43.4512 76.6017 43.4112C76.6917 43.3612 76.7617 43.1912 76.7917 42.9312C76.8217 42.7112 76.9217 42.3812 77.0117 42.2012C77.1117 42.0212 77.1717 41.7912 77.1617 41.6912C77.1417 41.6012 77.1817 41.4712 77.2317 41.4212C77.2817 41.3712 77.3717 41.1112 77.4217 40.8412C77.4717 40.5712 77.5717 40.1512 77.6417 39.9012C77.7117 39.6512 77.8017 39.2712 77.8517 39.0612C77.9017 38.8512 77.9817 38.5612 78.0217 38.4112C78.1017 38.1512 78.0817 38.1112 77.7917 37.7812C77.4317 37.3812 77.1417 37.3112 76.6917 37.5112C76.5317 37.5812 76.0217 37.7812 75.5617 37.9412C73.8917 38.5512 73.7017 38.6212 73.7617 38.6812C73.7917 38.7112 73.6917 38.8412 73.5417 38.9812C73.3117 39.1812 73.2817 39.2412 73.3617 39.3412C73.4417 39.4412 73.4317 39.5212 73.3417 39.7012C73.0117 40.3712 72.1517 43.4212 72.0817 44.2312C72.0717 44.3512 72.0417 44.4912 72.0217 44.5612C71.9617 44.7312 71.7317 45.9712 71.6317 46.6912C71.5017 47.6212 71.3917 48.2312 71.3417 48.3112C71.3117 48.3512 71.1017 48.4312 70.8617 48.4812C70.6217 48.5312 69.7817 48.7912 68.9917 49.0512C67.7817 49.4512 67.5317 49.5112 67.3917 49.4212C67.1417 49.2612 67.1417 49.2812 67.3217 49.7312C67.4117 49.9512 67.6817 50.3312 67.9117 50.5612C68.2817 50.9412 68.3717 50.9912 68.6717 50.9912C68.8617 50.9912 69.0817 50.9412 69.1717 50.8812C69.2617 50.8212 69.5117 50.7212 69.7517 50.6612C69.9817 50.6012 70.2217 50.5012 70.3017 50.4412C70.3717 50.3812 70.5417 50.3312 70.6617 50.3312C70.8417 50.3312 70.8817 50.3612 70.8317 50.4812C70.8017 50.5612 70.7017 50.8212 70.6217 51.0612C70.5417 51.2912 70.4117 51.5912 70.3317 51.7012C70.2517 51.8212 70.1117 52.1512 70.0017 52.4412C69.7917 53.0212 69.3817 53.9712 68.8317 55.1612C68.6317 55.5912 68.4717 55.9612 68.4717 55.9912C68.4717 56.0212 68.3417 56.3212 68.1817 56.6612C67.8117 57.4312 67.5117 58.2512 67.3017 59.1212C67.2117 59.5012 67.0517 59.9712 66.9417 60.1812C66.4717 61.1112 66.3217 61.4212 66.1517 61.8512C66.0517 62.1012 65.8917 62.4412 65.8117 62.6012C64.6717 64.8912 64.0717 65.8512 63.3517 66.5412C62.7517 67.1112 62.3317 67.2712 61.9917 67.0512C61.7017 66.8612 61.0317 66.0312 60.8817 65.6812C60.8217 65.5312 60.6917 65.3312 60.5917 65.2512C60.4617 65.1312 60.4417 65.0712 60.5117 64.9812C60.5717 64.9012 60.5617 64.8212 60.4717 64.6812C60.4017 64.5812 60.3417 64.4112 60.3417 64.3112C60.3417 64.2112 60.2917 64.1112 60.2317 64.0812C60.1617 64.0512 60.1117 63.8512 60.1017 63.5212C60.0917 63.2412 60.0417 62.9312 60.0017 62.8512C59.9617 62.7712 59.9417 62.6412 59.9717 62.5712C60.0017 62.5012 59.9917 62.3912 59.9517 62.3412C59.8917 62.2512 59.8317 61.2912 59.8417 60.6512C59.8717 58.4812 59.8717 58.4712 60.1017 58.1712C60.2217 58.0112 60.4817 57.7212 60.6617 57.5212C60.8417 57.3312 61.0017 57.1412 61.0017 57.1112C61.0017 57.0812 61.1617 56.8812 61.3517 56.6712C61.5517 56.4612 61.8417 56.0912 62.0217 55.8412C62.1917 55.5912 62.4517 55.2312 62.6017 55.0212C62.7417 54.8212 62.9017 54.5912 62.9517 54.5212C63.0017 54.4512 63.1517 54.2212 63.3017 54.0112C63.4517 53.8012 63.6217 53.5112 63.6917 53.3712C63.7617 53.2312 63.8717 53.0612 63.9417 53.0112C64.0117 52.9512 64.0717 52.8712 64.0717 52.8312C64.0717 52.7912 64.1617 52.6312 64.2817 52.4812C64.3917 52.3312 64.4917 52.1812 64.4917 52.1512C64.4917 52.1212 64.6217 51.9012 64.7817 51.6712C64.9417 51.4412 65.0917 51.1512 65.1217 51.0412C65.1517 50.9312 65.2017 50.8412 65.2317 50.8412C65.2617 50.8412 65.4517 50.5112 65.6417 50.1112C65.8317 49.7112 66.1017 49.1612 66.2317 48.9012C66.3617 48.6412 66.4717 48.3712 66.4717 48.3112C66.4717 48.2512 66.5617 47.9912 66.6817 47.7412C66.8017 47.4912 66.9517 47.1512 67.0217 46.9912C67.0917 46.8312 67.2217 46.5612 67.3117 46.3812C67.4017 46.2012 67.4517 46.0312 67.4217 45.9812C67.3917 45.9312 67.4217 45.8512 67.4917 45.7912C67.5617 45.7412 67.6917 45.4612 67.8017 45.1912C68.1817 44.1712 68.2417 44.0212 68.3917 43.6912C68.4817 43.5012 68.5517 43.3112 68.5517 43.2612C68.5517 43.2112 68.6317 43.0112 68.7317 42.8012C68.8317 42.6012 68.9417 42.3312 68.9717 42.2212C69.0117 42.1012 69.1317 41.7512 69.2517 41.4312C69.3717 41.1012 69.4617 40.7612 69.4617 40.6612C69.4617 40.5612 69.5017 40.4712 69.5417 40.4712C69.5817 40.4712 69.6417 40.2912 69.6717 40.0712C69.7017 39.8512 69.7917 39.5212 69.8817 39.3312C69.9617 39.1412 70.0617 38.8212 70.0917 38.6212C70.1217 38.4212 70.1917 38.2112 70.2317 38.1512C70.2817 38.0912 70.3217 37.7912 70.3417 37.4812C70.3517 37.1712 70.3917 36.8512 70.4217 36.7712C70.5017 36.5512 70.3217 35.2112 70.2117 35.2112C70.1017 35.2112 70.0317 34.7812 70.1317 34.6612C70.2017 34.5812 70.1717 34.4912 70.0317 34.3012C69.9317 34.1612 69.8217 34.0512 69.8017 34.0512C69.7717 34.0512 69.6517 33.9512 69.5217 33.8312C69.3917 33.7112 69.1317 33.5712 68.9517 33.5312C68.7717 33.4912 68.5217 33.3912 68.4017 33.3012C68.2817 33.2212 68.0917 33.1212 67.9817 33.0912C67.8717 33.0612 67.6217 32.9612 67.4417 32.8712C67.2417 32.7812 66.8717 32.7112 66.5517 32.7012C66.0917 32.6912 65.9617 32.7112 65.8117 32.8512C65.7117 32.9412 65.3717 33.2012 65.0417 33.4212C64.2617 33.9612 63.3217 34.9412 62.7517 35.8012C62.2317 36.5812 61.5317 37.8812 61.2917 38.5012C61.2017 38.7312 61.0317 39.1312 60.9217 39.3812C60.4617 40.4112 59.3817 43.6212 59.1917 44.5112C59.1417 44.7412 58.9817 45.3612 58.8217 45.9012C58.6617 46.4312 58.5417 46.9712 58.5417 47.0912C58.5417 47.2112 58.5117 47.3312 58.4717 47.3512C58.4317 47.3812 58.3717 47.5812 58.3417 47.7912C58.3117 48.0112 58.2317 48.3412 58.1717 48.5312C58.1017 48.7212 58.0417 49.0012 58.0217 49.1612C58.0017 49.3212 57.9417 49.6312 57.8917 49.8612C57.8417 50.0912 57.7217 50.8212 57.6317 51.4912C57.5417 52.1612 57.4317 52.7612 57.4017 52.8312C57.3717 52.9012 57.3317 53.1412 57.3217 53.3612C57.2717 54.4412 56.9917 56.1412 56.8117 56.5012C56.6017 56.9212 56.0617 58.2012 55.7817 58.9612C55.6817 59.2412 55.5717 59.5012 55.5417 59.5512C55.5117 59.6012 55.3417 59.9912 55.1517 60.4112C54.9717 60.8412 54.6717 61.4212 54.4917 61.7012C54.1817 62.1912 52.6517 65.2412 51.9317 66.8012C51.5817 67.5612 51.0217 68.3912 50.8717 68.3712C50.7417 68.3512 50.5717 67.5812 50.6117 67.2012C50.6317 67.0012 50.6117 66.8312 50.5617 66.8012C50.5117 66.7712 50.5017 66.6512 50.5317 66.5212C50.5617 66.4012 50.6017 66.1712 50.6217 66.0112C50.6417 65.8512 50.6717 65.5712 50.6917 65.3812C50.7217 65.2012 50.7617 64.8212 50.7817 64.5412C50.8117 64.2612 50.8817 63.8312 50.9417 63.5812C51.0017 63.3312 51.0417 63.1012 51.0217 63.0712C51.0017 63.0412 51.0417 62.8812 51.1117 62.7212C51.1817 62.5612 51.2317 62.2812 51.2317 62.1012C51.2317 61.9212 51.2817 61.7012 51.3517 61.6212C51.4217 61.5312 51.4717 61.3612 51.4717 61.2412C51.4717 61.1212 51.5117 60.9912 51.5517 60.9512C51.5917 60.9112 51.6717 60.5912 51.7217 60.2412C51.7717 59.9012 51.8517 59.5412 51.9017 59.4612C52.0817 59.1312 52.2117 58.5512 52.1417 58.4212C52.0917 58.3312 52.1117 58.2112 52.1817 58.0812C52.2417 57.9612 52.2917 57.7712 52.3017 57.6512C52.3117 57.3712 51.8717 56.8512 51.5717 56.7812C51.4517 56.7512 51.1717 56.6212 50.9417 56.5012C50.7117 56.3712 50.3717 56.2312 50.1717 56.1712C49.8617 56.0912 49.7917 56.0312 49.6617 55.7212C49.4317 55.1912 49.0517 54.8712 47.9117 54.2712L46.8717 53.7312L45.9817 53.7712C45.0317 53.7512 44.4217 53.8412 43.9717 54.0812C43.5717 54.2912 42.6917 55.1912 42.2417 55.8512C41.8617 56.4112 41.1217 57.6212 41.1217 57.6912C41.1217 57.7112 41.0317 57.9212 40.9217 58.1712C40.4717 59.1512 39.8817 60.7812 39.5817 61.8312C39.5117 62.0812 39.2717 62.5912 39.0517 62.9612C38.3717 64.0812 37.6717 65.2712 37.3817 65.8212C37.2317 66.1012 37.0217 66.4812 36.9217 66.6512C36.8217 66.8212 36.6517 67.1312 36.5317 67.3412C36.4117 67.5512 36.2117 67.8812 36.0717 68.0912C35.9317 68.3012 35.8217 68.5112 35.8217 68.5612C35.8217 68.6112 35.7617 68.7012 35.7017 68.7612C35.6317 68.8212 35.4617 69.1012 35.3217 69.4012C35.1817 69.7012 34.8717 70.2812 34.6217 70.7012C34.3717 71.1212 34.1717 71.4812 34.1717 71.5212C34.1717 71.5612 34.1417 71.5912 34.1017 71.6112C34.0217 71.6512 33.3617 72.5312 33.0317 73.0612C32.4717 73.9412 31.0117 75.8312 30.6717 76.1112C30.2017 76.5112 29.6417 76.8512 29.4817 76.8512C29.3917 76.8512 29.3617 76.7612 29.3617 76.5612C29.3617 76.4012 29.3217 76.2512 29.2717 76.2212C29.2217 76.1912 29.2017 76.0712 29.2317 75.9412C29.2917 75.6812 29.4317 74.2712 29.4917 73.2212C29.5117 72.8012 29.5717 72.4512 29.6217 72.4212C29.7017 72.3712 29.8017 71.9012 29.9717 70.7612C30.0617 70.1412 30.0917 70.0512 30.2517 70.0312C30.3517 70.0212 30.6817 69.7912 30.9817 69.5312C31.2917 69.2712 31.6117 69.0112 31.7117 68.9612C31.8017 68.9112 31.9717 68.7312 32.0817 68.5612C32.1917 68.3912 32.3317 68.2612 32.3817 68.2612C32.4817 68.2612 33.6317 66.9212 33.9917 66.3912C34.0917 66.2412 34.1917 66.0312 34.2217 65.9112C34.2517 65.7912 34.3317 65.6712 34.3917 65.6512C34.4617 65.6312 34.5117 65.5512 34.5117 65.4812C34.5117 65.4012 34.5617 65.2612 34.6317 65.1512C34.7717 64.9412 35.3717 63.2812 35.5417 62.6512C35.6017 62.4312 35.6317 62.0312 35.6117 61.7612C35.5817 61.3512 35.6017 61.2412 35.7417 61.1012C35.8817 60.9612 35.8917 60.9012 35.8117 60.6812C35.7617 60.5412 35.6517 60.4112 35.5717 60.3812C35.4917 60.3612 35.3217 60.2512 35.2017 60.1512C34.7517 59.8012 34.0717 59.4212 33.8717 59.4212C33.7617 59.4212 33.6117 59.3912 33.5317 59.3512C33.0217 59.0912 32.9617 59.0812 32.7217 59.1812C32.5817 59.2412 32.4017 59.2912 32.3017 59.3012C31.8217 59.3612 30.7017 60.0412 30.2117 60.5612C29.6017 61.2112 28.9417 62.0312 28.5517 62.6112C27.7117 63.8712 26.7617 66.0712 26.3817 67.6412C26.1817 68.4712 26.0117 68.8912 25.4017 70.1012C24.6517 71.5912 23.9417 73.2812 23.7017 74.1612C23.6317 74.4312 23.5117 74.7912 23.4517 74.9412C23.3917 75.1012 23.1717 75.6812 22.9617 76.2312C22.7517 76.7812 22.3717 77.7712 22.1017 78.4412C21.8317 79.1112 21.4317 80.2112 21.2117 80.9012C20.7117 82.4512 19.3617 85.4312 19.1217 85.5112C19.0617 85.5312 19.0317 85.4112 19.0417 85.1812C19.0517 84.6112 18.9317 83.4212 18.8517 83.3212C18.8017 83.2612 18.8017 83.1812 18.8517 83.1012C18.9517 82.9412 18.9517 82.5612 18.8517 82.3712C18.8017 82.2812 18.8017 82.1212 18.8517 81.9412C18.8917 81.7912 18.9517 81.0412 18.9717 80.2812C18.9917 79.5212 19.0517 78.6512 19.1017 78.3612C19.1517 78.0612 19.2117 77.5812 19.2317 77.2712C19.2517 76.9712 19.3317 76.4912 19.4017 76.2112C19.4717 75.9312 19.5017 75.6512 19.4717 75.6012C19.4417 75.5512 19.4617 75.3012 19.5217 75.0412C19.5717 74.7812 19.6217 74.3312 19.6117 74.0412C19.6117 73.7612 19.6417 73.5012 19.6817 73.4712C19.7317 73.4412 19.7417 73.2912 19.7117 73.0912C19.6817 72.8912 19.6917 72.7112 19.7517 72.6412C19.8717 72.4912 19.9517 71.6612 19.9317 70.6212C19.9217 69.9312 19.8917 69.7212 19.7417 69.4812C19.6417 69.3112 19.5317 69.1812 19.5017 69.1812C19.4617 69.1812 19.3417 69.0912 19.2417 68.9812C19.0417 68.7712 18.4717 68.5512 17.8817 68.4612C17.4517 68.3912 17.1617 68.5212 16.4617 69.0912C15.9017 69.5512 14.5317 71.1212 14.5317 71.3112C14.5317 71.3812 14.4817 71.4612 14.4217 71.4912C14.3617 71.5312 14.1117 71.8712 13.8717 72.2412C13.4017 72.9712 13.2417 73.1012 13.3217 72.6612C13.3417 72.5112 13.4117 71.9812 13.4617 71.4712C13.5117 70.9612 13.5917 70.4912 13.6317 70.4112C13.6717 70.3312 13.7017 70.1012 13.7017 69.8912C13.7017 69.4212 13.8917 68.9412 14.1617 68.7212C14.2717 68.6312 14.5417 68.3712 14.7617 68.1412C14.9817 67.9212 15.3517 67.5412 15.5917 67.3112C16.0617 66.8512 17.0617 65.6412 17.6917 64.7512C17.9017 64.4512 18.1517 64.1112 18.2517 63.9912C18.3517 63.8612 18.4217 63.7112 18.4217 63.6412C18.4217 63.5712 18.4817 63.4712 18.5417 63.4112C18.6117 63.3512 18.7317 63.1712 18.8117 63.0112C18.8917 62.8512 19.0817 62.5312 19.2417 62.3112C19.4017 62.0912 19.6517 61.6812 19.7917 61.3912C20.1717 60.6512 20.3617 60.2912 20.4117 60.2512C20.4617 60.2012 20.5917 59.9312 21.0417 58.9612C21.6717 57.5912 21.7317 57.4312 21.7217 57.1612C21.7117 56.9112 21.8917 56.2912 22.0817 55.9012C22.1217 55.8312 22.1717 55.6212 22.2017 55.4412C22.2317 55.2612 22.3117 55.0112 22.3817 54.8812C22.7517 54.1412 22.9717 51.4012 22.7117 50.7412C22.6817 50.6712 22.6217 50.4512 22.5717 50.2412C22.5017 49.9612 22.3317 49.7212 21.9217 49.2912C21.6117 48.9712 21.3017 48.6412 21.2217 48.5512C21.0017 48.3112 20.5617 48.1512 20.1517 48.1512C19.9517 48.1512 19.4617 48.0812 19.0617 47.9912C18.5517 47.8812 18.2817 47.8512 18.1817 47.9112C18.1017 47.9612 18.0117 47.9812 17.9717 47.9712C17.9317 47.9612 17.7617 48.0212 17.5817 48.1012C17.4117 48.1812 17.2317 48.2412 17.1917 48.2412C17.1417 48.2412 16.8617 48.5212 15.8317 49.6612C14.8617 50.7212 13.6417 52.8012 13.0117 54.4612C12.9117 54.7412 12.7617 55.0712 12.6917 55.2112C12.6117 55.3512 12.5617 55.5212 12.5617 55.5912C12.5617 55.6712 12.5317 55.7512 12.4817 55.8012C12.3717 55.9112 11.9617 57.2812 11.6117 58.6512C11.4517 59.3012 11.2717 59.9312 11.2317 60.0512C11.1817 60.1712 11.0917 60.5712 11.0217 60.9512C10.9517 61.3312 10.8617 61.8212 10.8117 62.0512C10.7617 62.2812 10.6917 62.6312 10.6517 62.8412C10.5817 63.0212 10.4717 63.5112 10.3817 63.9012C10.1817 64.8112 9.9817 65.9912 9.8817 66.9912C9.8317 67.4312 9.7217 68.2912 9.6217 68.9112L9.4417 70.0412L8.9517 70.3612C8.6817 70.5312 8.4417 70.7212 8.4017 70.7712C8.3617 70.8212 8.2317 70.9212 8.0917 70.9912C7.9517 71.0612 7.5817 71.2912 7.2617 71.5012C6.4717 72.0212 5.2117 72.6612 4.9717 72.6612C4.9217 72.6612 4.7017 72.7512 4.4617 72.8612C4.2217 72.9712 3.8817 73.1012 3.7017 73.1412C3.5217 73.1912 3.1117 73.3012 2.7917 73.4012C2.4417 73.5112 1.9717 73.5812 1.6217 73.5812C1.0617 73.5812 1.0217 73.5912 0.991703 73.7712C0.941703 74.0212 1.2817 74.4412 1.7217 74.6812C1.9817 74.8212 2.1817 74.8512 2.9117 74.8512C3.7417 74.8512 3.8617 74.8212 5.0617 74.4212C6.1617 74.0512 6.8217 73.8112 7.8517 73.3812C7.9817 73.3212 8.2217 73.2212 8.3817 73.1612C8.5417 73.1012 8.7317 72.9712 8.8117 72.8812C8.8917 72.7812 8.9717 72.7312 9.0017 72.7512C9.0717 72.8312 9.0517 73.7412 8.9617 74.4912C8.7917 75.9012 8.7017 77.1212 8.7517 77.3012C8.7717 77.4012 8.7617 77.5012 8.7217 77.5312C8.6817 77.5612 8.6417 77.7912 8.6217 78.0612C8.5817 78.7412 8.6417 81.1912 8.6917 81.2912C8.7217 81.3312 8.7417 81.5712 8.7417 81.8312C8.7517 82.6812 8.8717 84.1212 8.9517 84.3812C9.0217 84.6012 9.1117 84.6712 9.5917 84.8712C9.9017 85.0012 10.2617 85.2112 10.4017 85.3412C10.7417 85.6712 11.3917 86.0012 11.6917 86.0012C11.8217 86.0012 11.9517 86.0412 11.9817 86.0812C12.1017 86.2912 12.2717 86.1412 12.3917 85.7112C12.4617 85.4612 12.5817 85.1412 12.6517 85.0012C12.7217 84.8612 12.7517 84.6812 12.7317 84.6012C12.6817 84.4512 12.8717 83.9612 13.0117 83.8812C13.1017 83.8212 13.0317 83.5312 12.8917 83.4112C12.8117 83.3512 12.8017 83.2712 12.8517 83.1812C12.8917 83.1012 12.9517 82.8812 12.9817 82.6812C13.0117 82.4812 13.0917 82.2112 13.1617 82.0712C13.2617 81.8712 13.2617 81.8012 13.1817 81.7012C13.1017 81.6112 13.1017 81.5512 13.1717 81.4712C13.3217 81.2912 13.4417 80.5212 13.4717 79.4912C13.4917 78.9612 13.5417 78.3412 13.5917 78.1112C13.6417 77.8812 13.7017 77.5812 13.7317 77.4412C13.7617 77.3012 13.8717 76.9612 13.9717 76.6912C14.0817 76.4212 14.2617 75.8012 14.3817 75.3312C14.4917 74.8612 14.6617 74.3312 14.7417 74.1712C15.5517 72.5112 16.0717 71.6412 16.2617 71.6412C16.2917 71.6412 16.3317 71.5612 16.3317 71.4812C16.3317 71.3412 16.5917 70.9512 17.0217 70.4612C17.0817 70.3912 17.1617 70.2612 17.1917 70.1912C17.2217 70.1212 17.2817 70.0512 17.3217 70.0512C17.4517 70.0512 17.4317 70.4912 17.2817 70.9312C17.0517 71.6212 16.5917 73.7512 16.4517 74.8112C16.3717 75.3912 16.2417 76.1312 16.1617 76.4812C15.7217 78.2312 15.4717 80.8112 15.5317 82.9112C15.5517 83.7612 15.6117 84.6212 15.6617 84.8312C15.7117 85.0412 15.7817 85.4612 15.8417 85.7912C16.1717 87.8612 17.0117 88.7612 18.6217 88.8012C19.2717 88.8112 19.4317 88.7312 19.6517 88.3012C19.7517 88.1012 19.8817 87.9212 19.9517 87.8912C20.0817 87.8412 20.4917 87.0512 20.4917 86.8612C20.4917 86.8012 20.5317 86.7512 20.5717 86.7512C20.6217 86.7512 20.6517 86.6912 20.6517 86.6112C20.6517 86.5312 20.7017 86.4112 20.7617 86.3412C20.8217 86.2712 20.9217 85.9812 20.9817 85.7112C21.0417 85.4312 21.1517 85.1112 21.2317 84.9912C21.3117 84.8712 21.4317 84.6112 21.5017 84.4112C21.6417 83.9812 21.7517 83.6912 22.3017 82.2512C22.5217 81.6712 22.7817 80.9612 22.8817 80.6612C22.9817 80.3612 23.1617 79.8812 23.2717 79.5712C23.3817 79.2712 23.4717 78.9112 23.4717 78.7712C23.4717 78.6312 23.5017 78.4812 23.5417 78.4412C23.5817 78.4012 23.6917 78.1112 23.7917 77.8012C23.8917 77.4912 24.0317 77.1312 24.0917 77.0112C24.1617 76.8812 24.2117 76.7412 24.2117 76.6812C24.2117 76.6312 24.2617 76.4512 24.3317 76.3012C24.3917 76.1512 24.5117 75.8012 24.6017 75.5212C24.6817 75.2412 24.7817 74.9812 24.8217 74.9212C24.8617 74.8712 24.9017 74.6412 24.9217 74.4112C24.9417 74.1812 24.9817 73.9412 25.0217 73.8812C25.0617 73.8212 25.1017 73.7112 25.1117 73.6412C25.1317 73.4912 25.4417 72.6512 25.4917 72.6012C25.5117 72.5812 25.5217 73.0612 25.5217 73.6712C25.5217 75.6012 26.0017 77.0212 26.9217 77.8212C27.4617 78.2812 27.7517 78.4012 28.4517 78.4412C28.7617 78.4612 29.1917 78.5012 29.4317 78.5312C29.7217 78.5712 29.9217 78.5612 30.0517 78.4812C30.1617 78.4212 30.3617 78.3512 30.5017 78.3212C30.6417 78.2912 30.7517 78.2212 30.7517 78.1612C30.7517 78.1012 30.8817 78.0112 31.0517 77.9512C31.3717 77.8412 32.0017 77.3712 32.0717 77.1812C32.1017 77.1112 32.1517 77.0612 32.2117 77.0612C32.3617 77.0612 33.3617 75.9612 33.6117 75.5212C33.7417 75.2912 33.9217 75.0312 34.0017 74.9412C34.2317 74.7012 34.6917 74.0012 34.6917 73.9012C34.6917 73.8612 34.7617 73.7712 34.8517 73.7112C34.9417 73.6512 35.0917 73.4412 35.1917 73.2512C35.2917 73.0612 35.5217 72.7312 35.7017 72.5312C35.8817 72.3312 36.0317 72.1312 36.0317 72.1012C36.0317 72.0712 36.1817 71.8312 36.3617 71.5612C36.6717 71.1012 36.8217 70.8312 37.5817 69.3812C37.9817 68.6212 38.2217 68.1912 38.4217 67.8912L38.5617 67.6712L38.6117 68.0812C38.6417 68.3112 38.6717 68.7612 38.6717 69.0912C38.6717 69.4212 38.7117 69.7112 38.7517 69.7412C38.7917 69.7712 38.8517 69.9612 38.8817 70.1812C38.9517 70.7112 39.1517 71.0912 39.5317 71.4712C39.8317 71.7712 40.4817 72.0512 40.9117 72.0812C41.0217 72.0912 41.3117 72.1412 41.5417 72.2012C42.0717 72.3312 42.5317 72.2212 42.8317 71.9012C43.0817 71.6312 43.7317 70.4312 43.7317 70.2212C43.7317 70.1412 43.7817 69.9912 43.8517 69.8712C44.0917 69.4412 44.3117 68.9612 44.3117 68.8512C44.3117 68.7912 44.4217 68.5312 44.5517 68.2812C44.6817 68.0312 44.9117 67.6012 45.0617 67.3212C45.2017 67.0412 45.4117 66.6712 45.5217 66.4912C45.6317 66.3112 45.7217 66.0712 45.7217 65.9712C45.7217 65.7312 45.8717 65.4112 46.2217 64.8612C46.3817 64.6112 46.5417 64.3412 46.5717 64.2812C46.6017 64.2112 46.7717 63.9112 46.9617 63.6112C47.1417 63.3112 47.3817 62.8912 47.5017 62.6812C47.8717 61.9912 47.9217 62.0512 47.8017 62.9512C47.7617 63.2512 47.6817 64.0412 47.6317 64.7112C47.5317 66.0512 47.6117 66.9012 47.9817 68.0712C48.2017 68.7612 48.8517 69.7212 49.3517 70.0712C50.0817 70.5812 52.1117 70.7112 52.1117 70.2412C52.1117 70.1812 52.2917 69.9912 52.5217 69.7912C52.7517 69.5912 52.9317 69.4012 52.9317 69.3612C52.9317 69.3212 53.0417 69.1112 53.1817 68.9112C53.3117 68.7112 53.4317 68.5112 53.4317 68.4712C53.4317 68.3412 53.8317 67.5812 53.9617 67.4712C54.0317 67.4112 54.1117 67.2512 54.1417 67.1012C54.1717 66.9512 54.3017 66.6212 54.4317 66.3612C54.5617 66.1012 54.6717 65.8312 54.6717 65.7812C54.6717 65.7212 54.7917 65.4412 54.9417 65.1512C55.5417 63.9812 56.1617 62.6312 56.1617 62.5012C56.1617 62.3312 56.4317 61.7712 56.6017 61.5812C56.6717 61.5012 56.7417 61.3512 56.7417 61.2712C56.7417 61.1912 56.7717 61.1212 56.8117 61.1212C56.8517 61.1212 56.9317 61.4912 56.9817 61.9312C57.1717 63.4412 57.7317 65.3212 58.3117 66.4012C58.7017 67.1212 59.4017 67.9012 59.9617 68.2312C60.5717 68.5912 60.9517 68.6512 62.2117 68.6112C63.0317 68.5812 63.1217 68.5612 63.7917 68.2312C64.3917 67.9412 64.6117 67.7712 65.2217 67.1212C65.9517 66.3412 66.4317 65.6412 66.4317 65.3212C66.4317 65.2212 66.7017 64.6012 67.0317 63.9412C67.3617 63.2812 67.7017 62.5912 67.7817 62.4112C67.8617 62.2312 68.0017 61.9512 68.0917 61.7912C68.3117 61.4012 68.5917 60.7412 68.5917 60.6012C68.5917 60.5412 68.7217 60.2512 68.8817 59.9512C69.0417 59.6612 69.1717 59.3612 69.1717 59.3012C69.1717 59.2412 69.2517 59.0512 69.3617 58.8812C69.4717 58.7112 69.6817 58.3012 69.8317 57.9612C69.9917 57.6312 70.1517 57.3512 70.1917 57.3512C70.2317 57.3512 70.2417 57.4112 70.2217 57.4812C70.1617 57.6412 70.1517 61.9512 70.2117 63.2812C70.3617 66.7112 70.6817 67.8612 71.7117 68.6412C72.0917 68.9312 72.1717 68.9612 72.7017 68.9612C73.0217 68.9612 73.3217 68.9612 73.3617 68.9512C73.4117 68.9412 73.6517 68.9012 73.9017 68.8512C74.3017 68.7812 74.4017 68.7212 74.7417 68.3512C74.9517 68.1212 75.2517 67.6812 75.3917 67.3812C75.5417 67.0812 75.7417 66.7212 75.8417 66.5812C75.9417 66.4412 76.0517 66.2212 76.0817 66.0912C76.1117 65.9612 76.2317 65.7012 76.3417 65.5312C76.4517 65.3512 76.5417 65.1712 76.5417 65.1212C76.5417 65.0312 76.8017 64.4412 76.8717 64.3712C76.9417 64.3012 77.3417 63.4512 77.4417 63.1312C77.4917 62.9712 77.5117 62.7612 77.4817 62.6512C77.4417 62.5112 77.4717 62.4412 77.5617 62.4012C77.6317 62.3712 77.6917 62.3112 77.6917 62.2512C77.6917 62.2012 77.7617 62.0112 77.8617 61.8412C77.9517 61.6712 78.0817 61.3112 78.1517 61.0612C78.2217 60.8112 78.3417 60.4412 78.4317 60.2512C78.7317 59.5912 79.1117 58.4712 79.1117 58.2212C79.1117 58.1612 79.1817 57.9912 79.2817 57.8312C79.3717 57.6812 79.4817 57.3812 79.5317 57.1812C79.6817 56.5012 79.8317 55.8912 79.8917 55.7712C79.9217 55.7012 80.0017 55.3912 80.0617 55.0912C80.1217 54.7912 80.2317 54.4512 80.3017 54.3412C80.3717 54.2312 80.4517 53.9912 80.4817 53.8112C80.5117 53.6312 80.5817 53.4012 80.6417 53.3112C80.7417 53.1612 80.8017 52.9312 80.9017 52.3112C80.9217 52.1712 81.0017 51.9112 81.0717 51.7312C81.1417 51.5512 81.2417 51.3112 81.2817 51.2012C81.4117 50.8712 81.4617 51.0712 81.3617 51.5312C81.2017 52.3412 81.0917 53.6212 81.1817 53.7312C81.2417 53.8012 81.2317 53.8612 81.1417 53.9312C81.0617 54.0012 81.0217 54.1812 81.0217 54.4312C81.0217 54.6512 80.9817 55.0312 80.9417 55.2812C80.9017 55.5312 80.8417 55.9212 80.8217 56.1512C80.8017 56.3812 80.7217 56.8812 80.6417 57.2812C80.4917 58.0312 80.4317 58.3812 80.4217 58.6612C80.4217 58.7512 80.3617 59.1112 80.3017 59.4612C80.2217 59.8912 80.2117 60.2212 80.2517 60.4812C80.2917 60.6912 80.3117 60.8812 80.2917 60.9012C80.2717 60.9212 80.2417 61.1912 80.2217 61.5012C80.2017 61.8112 80.1417 62.1412 80.0917 62.2312C80.0317 62.3412 80.0317 62.4312 80.0817 62.4912C80.1217 62.5512 80.2217 62.7812 80.3017 63.0212C80.3817 63.2612 80.5217 63.5012 80.6217 63.5712C80.7817 63.6812 81.3517 63.7812 82.1717 63.8412C82.3317 63.8512 82.5217 63.8912 82.6017 63.9212C82.8717 64.0312 83.1217 63.9312 83.1317 63.7312C83.1317 63.6312 83.2017 63.5012 83.2717 63.4412C83.4317 63.3212 83.5817 62.9512 83.5817 62.6512C83.5817 62.5312 83.6417 62.3612 83.7117 62.2812C83.7817 62.2012 83.8517 62.0012 83.8717 61.8412C83.8817 61.6812 83.9517 61.4412 84.0317 61.3012C84.1017 61.1612 84.1617 60.9712 84.1617 60.8812C84.1617 60.7912 84.2017 60.6912 84.2417 60.6612C84.2817 60.6312 84.3217 60.5212 84.3217 60.4112C84.3217 60.3012 84.3617 60.1812 84.4117 60.1612C84.4617 60.1312 84.4817 60.0612 84.4617 59.9912C84.4417 59.9212 84.4517 59.7812 84.5017 59.6612C84.5417 59.5412 84.5917 59.3312 84.6117 59.1812C84.6317 59.0312 84.6917 58.7812 84.7417 58.6212C84.8417 58.3312 85.0517 57.4812 85.1117 57.1612C85.1317 57.0712 85.2017 56.8812 85.2717 56.7412C85.3517 56.6012 85.4017 56.4212 85.4017 56.3212C85.4017 56.2312 85.4617 56.0412 85.5317 55.9012C85.6017 55.7612 85.7317 55.4412 85.8117 55.1812C85.8917 54.9212 86.0417 54.5512 86.1317 54.3512C86.2317 54.1512 86.3017 53.9112 86.3017 53.8212C86.3017 53.6212 86.5117 53.1412 86.6417 53.0712C86.6817 53.0412 86.7117 52.9312 86.7117 52.8112C86.7117 52.6912 86.7817 52.5012 86.8617 52.3712C87.0417 52.1012 87.2217 51.5312 87.1517 51.4312C87.1217 51.3912 87.1617 51.2912 87.2417 51.2012C87.3117 51.1212 87.3517 50.9912 87.3317 50.9212C87.3117 50.8512 87.3417 50.7712 87.4017 50.7512C87.4617 50.7212 87.5617 50.5312 87.6217 50.3212C87.6817 50.1012 87.7617 49.9112 87.8017 49.8912C87.8417 49.8712 87.8717 49.7812 87.8717 49.6912C87.8717 49.6012 87.9617 49.3412 88.0817 49.0912C88.2017 48.8512 88.2917 48.6112 88.2917 48.5512C88.2917 48.4912 88.3617 48.3212 88.4417 48.1712C88.5217 48.0212 88.6217 47.7812 88.6617 47.6412C88.6917 47.5012 88.8117 47.2712 88.9217 47.1312C89.0317 46.9912 89.1417 46.7712 89.1717 46.6512C89.2017 46.5212 89.2517 46.4112 89.2917 46.3912C89.3317 46.3712 89.4217 46.1412 89.5017 45.8712C89.5817 45.6012 89.6917 45.3312 89.7417 45.2612C89.7917 45.1912 89.8717 45.0612 89.9117 44.9712C89.9717 44.8312 89.9817 44.8212 90.0117 44.9412C90.0317 45.0212 89.8417 45.7312 89.5917 46.5312C89.3417 47.3212 89.0717 48.2612 89.0017 48.6012C88.8717 49.2212 88.7517 49.6812 88.5117 50.4812C88.4417 50.7112 88.3117 51.3112 88.2217 51.8212C88.1317 52.3312 87.9817 53.0712 87.8817 53.4912C87.7917 53.9012 87.6417 54.7112 87.5417 55.2812C87.4517 55.8612 87.3017 56.6612 87.2117 57.0812C87.1217 57.5012 87.0317 57.9412 87.0117 58.0812C86.9917 58.2212 86.8817 58.7812 86.7617 59.3312C86.5917 60.1812 86.5117 60.7112 86.4117 61.8312C86.4017 61.9212 86.3517 62.2812 86.2917 62.6212C86.1417 63.5112 86.1317 66.3812 86.2817 66.9612C86.4417 67.5712 86.7517 68.3412 87.0017 68.7012C87.1117 68.8712 87.2017 69.0812 87.2017 69.1812C87.2017 69.6312 87.9217 69.8912 89.0717 69.8712C89.5317 69.8612 89.9417 69.8212 90.0017 69.7812C90.0617 69.7312 90.1317 69.7212 90.1717 69.7512C90.2417 69.7912 90.5817 69.5612 91.0617 69.1612C91.2317 69.0112 91.7617 68.2712 91.7617 68.1812C91.7617 68.1512 91.8917 67.9312 92.0517 67.6812C92.2117 67.4412 92.3517 67.1312 92.3717 66.9812C92.3917 66.8412 92.4517 66.6612 92.5017 66.6012C92.5617 66.5312 92.5817 66.4412 92.5617 66.4012C92.5417 66.3612 92.7017 65.9512 92.9217 65.5012C93.1417 65.0512 93.3317 64.6012 93.3317 64.5012C93.3317 64.4012 93.3817 64.2212 93.4517 64.0912C93.5217 63.9612 93.5717 63.7812 93.5717 63.6912C93.5717 63.5512 93.6217 63.3912 93.8717 62.8112C93.9317 62.6712 93.9717 62.4912 93.9717 62.4012C93.9717 62.3112 94.0417 62.0712 94.1417 61.8712C94.2717 61.6012 94.2917 61.4712 94.2317 61.4012C94.1817 61.3412 94.1717 61.2412 94.2217 61.1512C94.4017 60.7812 94.4817 60.4212 94.3917 60.3212C94.3317 60.2512 94.3517 60.2112 94.4417 60.1712C94.5417 60.1312 94.5617 60.0612 94.5317 59.9212C94.5017 59.7912 94.5217 59.7012 94.6017 59.6712C94.6717 59.6412 94.7217 59.5312 94.7217 59.4212C94.7217 59.3012 94.7617 59.1912 94.8017 59.1612C94.9517 59.0612 95.2017 58.3212 95.2617 57.7812C95.2717 57.7112 95.3217 57.5712 95.3817 57.4612C95.4417 57.3512 95.5017 57.1712 95.5217 57.0412C95.5617 56.8112 95.9217 55.6112 96.0417 55.3212C96.0817 55.2312 96.1917 54.8912 96.3017 54.5712C96.4017 54.2412 96.5017 53.9312 96.5217 53.8612C96.5717 53.7112 96.8317 54.2912 96.9717 54.8512C97.0217 55.0612 97.1017 55.2612 97.1417 55.2812C97.1817 55.3112 97.2417 55.4912 97.2617 55.6812C97.2817 55.8712 97.3317 55.9912 97.3617 55.9412C97.4017 55.8812 97.4617 55.9112 97.5417 56.0412C97.8217 56.4712 97.8217 56.4712 97.6117 56.4212C97.4417 56.3712 97.4517 56.4012 97.7017 56.6612C98.1417 57.1212 98.4217 57.2112 99.8017 57.3212C100.242 57.3512 100.402 57.3412 100.512 57.2412C100.592 57.1712 100.782 57.1012 100.932 57.0812C101.082 57.0612 101.252 56.9912 101.292 56.9312C101.342 56.8612 101.492 56.7512 101.632 56.6812C101.772 56.6112 101.942 56.4612 102.012 56.3512C102.082 56.2412 102.352 55.8912 102.622 55.5712C103.312 54.7412 103.732 54.1312 103.732 53.9812C103.732 53.7912 103.952 53.3712 104.762 51.9812C104.982 51.6112 105.262 51.0912 105.392 50.8112C105.972 49.6012 106.882 48.1012 107.042 48.1012C107.112 48.1012 107.182 48.7612 107.132 48.9812C107.122 49.0312 107.092 49.7012 107.072 50.4812C107.022 52.2612 106.992 52.7512 106.942 52.8312C106.882 52.9312 106.752 54.2212 106.672 55.4012C106.652 55.7712 106.592 56.4112 106.552 56.8212C106.512 57.2312 106.492 57.5912 106.512 57.6212C106.532 57.6512 106.052 58.0412 105.462 58.4912C104.162 59.4612 103.662 59.9212 102.272 61.4612C101.222 62.6112 100.142 64.0212 100.212 64.1412C100.232 64.1712 100.192 64.2312 100.142 64.2612C100.012 64.3412 99.4117 65.1612 99.2717 65.4612C99.2117 65.5812 99.0117 65.9312 98.8017 66.2512C98.5917 66.5812 98.3417 67.0012 98.2417 67.2112C98.1417 67.4112 97.9217 67.8112 97.7817 68.0812C97.4417 68.7012 97.1617 69.2512 96.9917 69.6312C96.4117 70.9812 96.2217 71.4512 95.9317 72.2212C95.5217 73.3112 94.9817 75.0312 94.8717 75.5912C94.8217 75.8312 94.7317 76.2712 94.6617 76.6012C94.3317 78.0812 94.2017 79.2012 94.1917 80.7312C94.1817 82.3212 94.2717 83.0512 94.6017 84.1012C94.7117 84.4512 94.8117 84.6212 94.9317 84.6612C95.0317 84.6912 95.1117 84.7812 95.1117 84.8612C95.1117 84.9712 95.1617 84.9912 95.3317 84.9412C95.7117 84.8512 96.2717 84.8912 97.2517 85.0712C98.0817 85.2312 98.2617 85.2412 98.7017 85.1512C99.2117 85.0512 99.8717 84.7812 99.9617 84.6312C99.9917 84.5912 100.062 84.5612 100.132 84.5612C100.202 84.5612 100.402 84.4512 100.592 84.3112C100.782 84.1712 100.982 84.0612 101.032 84.0612C101.202 84.0612 103.062 82.0712 103.062 81.8912C103.062 81.8012 103.102 81.7212 103.142 81.7212C103.182 81.7212 103.252 81.6312 103.282 81.5312C103.312 81.4312 103.382 81.3012 103.442 81.2612C103.492 81.2112 103.592 81.0112 103.652 80.8212C103.712 80.6312 103.792 80.4712 103.832 80.4712C103.872 80.4712 103.902 80.4112 103.902 80.3412C103.902 80.2712 103.932 80.2112 103.972 80.2112C104.012 80.2112 104.122 80.0112 104.232 79.7712C104.332 79.5312 104.452 79.2812 104.492 79.2112C104.532 79.1412 104.602 79.0112 104.642 78.9212C104.682 78.8312 104.822 78.5712 104.952 78.3412C105.082 78.1112 105.262 77.6812 105.342 77.3812C105.422 77.0812 105.542 76.7812 105.602 76.7112C105.762 76.5212 105.982 75.8312 105.922 75.6812C105.892 75.6112 105.912 75.5312 105.962 75.5012C106.082 75.4312 106.342 74.8312 106.422 74.4612C106.452 74.3012 106.512 74.1112 106.552 74.0412C106.672 73.8112 106.882 73.0512 106.882 72.8512C106.882 72.7412 106.912 72.6112 106.952 72.5712C106.992 72.5312 107.092 72.1912 107.172 71.8212C107.252 71.4512 107.352 71.0912 107.392 71.0112C107.432 70.9312 107.492 70.7012 107.512 70.5112C107.532 70.3212 107.592 70.1112 107.632 70.0612C107.672 70.0112 107.702 69.9112 107.692 69.8512C107.682 69.7912 107.722 69.6512 107.782 69.5512C107.842 69.4412 107.872 69.2612 107.852 69.1412C107.832 69.0112 107.872 68.8212 107.972 68.6612C108.102 68.4412 108.112 68.3512 108.042 68.1612C107.972 67.9612 107.982 67.9112 108.112 67.8112C108.232 67.7312 108.282 67.5912 108.282 67.3112C108.292 66.8812 108.322 66.6512 108.392 66.4512C108.472 66.2212 108.622 65.3112 108.622 65.0812C108.622 64.9512 108.682 64.6712 108.762 64.4412C108.842 64.2012 108.882 63.8912 108.852 63.7012C108.832 63.5212 108.842 63.3412 108.872 63.3012C108.932 63.2312 108.962 62.9912 109.082 61.3512C109.112 61.0112 109.162 60.6812 109.202 60.6412C109.242 60.5912 109.242 60.5112 109.202 60.4512C109.162 60.3912 109.182 60.1012 109.242 59.7912C109.302 59.4812 109.372 58.8512 109.402 58.4012C109.472 57.4912 109.502 57.3912 109.752 57.2512C109.852 57.2012 110.202 56.9912 110.532 56.8112C111.142 56.4712 113.192 55.5512 113.752 55.3712C114.662 55.0812 116.582 54.7412 117.272 54.7412C117.972 54.7412 118.052 54.7612 118.492 55.0212C118.762 55.1712 119.012 55.3912 119.072 55.5212C119.162 55.7012 119.242 55.7512 119.522 55.7712C119.832 55.7912 119.862 55.7712 119.902 55.5812C120.042 55.3312 119.772 54.8012 119.462 54.5612ZM60.6117 54.2912C60.6617 54.2712 60.7117 54.0412 60.7317 53.7612C60.7617 53.2612 60.8917 52.6412 61.0417 52.1712C61.0917 52.0312 61.1217 51.7812 61.1117 51.6112C61.1017 51.4412 61.1317 51.2312 61.1717 51.1512C61.3417 50.8112 61.4217 50.4212 61.4017 50.0812C61.3817 49.8412 61.4117 49.6812 61.4817 49.6212C61.5417 49.5712 61.5717 49.4712 61.5517 49.4112C61.5217 49.3412 61.5517 49.2312 61.6017 49.1712C61.6517 49.1012 61.7017 48.9112 61.7117 48.7312C61.7117 48.5512 61.7617 48.3812 61.8217 48.3312C61.8817 48.2812 61.9417 48.1412 61.9617 48.0012C61.9817 47.8612 62.0217 47.6412 62.0517 47.5012C62.0817 47.3612 62.1117 47.0912 62.1217 46.9012C62.1317 46.6912 62.2117 46.4712 62.3117 46.3612C62.4017 46.2512 62.5217 45.9312 62.5817 45.6312C62.6417 45.3312 62.7117 45.0512 62.7417 45.0012C62.7717 44.9512 62.8017 44.7712 62.8117 44.6012C62.8217 44.4212 62.8917 44.2012 62.9617 44.1012C63.0417 43.9712 63.0617 43.8912 63.0017 43.8212C62.9417 43.7512 62.9717 43.6912 63.0917 43.6212C63.1917 43.5712 63.2517 43.5012 63.2217 43.4612C63.1617 43.3612 63.4017 42.7012 63.6317 42.3412C63.7417 42.1712 63.8317 41.9412 63.8317 41.8312C63.8317 41.7212 63.9217 41.4712 64.0217 41.2712C64.1317 41.0712 64.2417 40.8012 64.2617 40.6512C64.2917 40.5012 64.4017 40.2512 64.5217 40.0712C64.6417 39.8912 64.7317 39.6912 64.7317 39.6112C64.7317 39.5312 64.7617 39.4412 64.8017 39.4112C64.8417 39.3812 64.9417 39.1912 65.0217 38.9712C65.1617 38.5912 65.2717 38.4312 65.8517 37.7112C65.9917 37.5412 66.2417 37.1812 66.4117 36.9212C66.8017 36.3212 67.3517 35.7512 67.5017 35.8112C67.5617 35.8312 67.7117 35.7812 67.8217 35.7012C68.0417 35.5212 68.5517 35.4412 68.6517 35.5712C68.6817 35.6212 68.7117 35.8612 68.7117 36.1112C68.7117 37.0412 67.8517 40.1712 66.9217 42.6612C66.8017 42.9912 66.6917 43.3212 66.6817 43.4212C66.6717 43.5212 66.5517 43.8012 66.4317 44.0412C66.0117 44.8812 65.5617 45.9612 65.6017 46.0412C65.6217 46.0812 65.5517 46.2212 65.4417 46.3412C65.3217 46.4712 65.2317 46.6412 65.2317 46.7212C65.2317 46.9412 64.8017 47.8712 64.6917 47.8712C64.6417 47.8712 64.4917 48.1312 64.3417 48.4412C64.0017 49.1612 63.3317 50.3812 63.1917 50.5512C63.1317 50.6312 63.0817 50.7312 63.0817 50.7812C63.0817 50.8312 62.9317 51.1112 62.7517 51.3712C62.5717 51.6412 62.4217 51.8812 62.4217 51.9112C62.4217 51.9312 62.2317 52.2712 62.0017 52.6412C61.7717 53.0212 61.5717 53.3712 61.5617 53.4212C61.5517 53.4712 61.4917 53.5712 61.4217 53.6312C61.3517 53.7012 61.1717 53.9312 61.0117 54.1412C60.7217 54.5212 60.5117 54.6412 60.5117 54.4212C60.5317 54.3712 60.5617 54.3012 60.6117 54.2912ZM31.0617 67.2312C31.1717 66.9912 31.2717 66.7412 31.2717 66.6912C31.2717 66.6412 31.4017 66.3412 31.5517 66.0212C31.7117 65.7012 31.8617 65.2912 31.8917 65.1112C31.9217 64.9312 32.0017 64.7012 32.0617 64.6112C32.1217 64.5212 32.1717 64.3812 32.1717 64.3012C32.1717 64.2212 32.2017 64.1512 32.2417 64.1512C32.2817 64.1512 32.3817 64.0012 32.4617 63.8212C32.5417 63.6412 32.7017 63.4112 32.8017 63.3112C32.9117 63.2112 32.9917 63.0912 32.9917 63.0512C32.9917 62.9312 33.8317 62.1312 34.1117 61.9712C34.4317 61.8012 34.4817 61.7912 34.4817 61.9212C34.4817 62.1712 34.1417 63.3412 33.9817 63.6612C33.8117 63.9912 33.5117 64.4912 33.0217 65.2412C32.7817 65.6112 31.0317 67.6012 30.9217 67.6412C30.8917 67.6612 30.9417 67.4712 31.0617 67.2312ZM14.0517 65.5712C14.2017 64.8212 14.2317 64.5112 14.1517 64.3812C14.0917 64.2712 14.0917 64.2112 14.1817 64.1612C14.2617 64.1112 14.2817 64.0212 14.2417 63.8712C14.2017 63.7312 14.2317 63.5412 14.3217 63.3612C14.4017 63.2012 14.4417 63.0412 14.4117 63.0112C14.3817 62.9712 14.4417 62.7212 14.5317 62.4412C14.6217 62.1712 14.7317 61.6612 14.7817 61.3212C14.8317 60.9812 14.9017 60.5912 14.9517 60.4612C15.0017 60.3312 15.0517 60.0012 15.0717 59.7012C15.1217 58.7512 15.1517 58.6012 15.3017 58.3112C15.3817 58.1612 15.4217 58.0112 15.4017 57.9912C15.3717 57.9612 15.4117 57.8512 15.4917 57.7412C15.5817 57.6012 15.6117 57.4412 15.5817 57.2512C15.5617 57.1012 15.5717 56.9512 15.6017 56.9312C15.6417 56.9112 15.6917 56.7512 15.7117 56.5712C15.7917 55.9412 16.0317 54.8312 16.1517 54.5712C16.2117 54.4212 16.2717 54.2012 16.2717 54.0912C16.2717 53.9812 16.3617 53.6812 16.4817 53.4212C16.5917 53.1612 16.6917 52.8812 16.6917 52.7912C16.6917 52.7112 16.7417 52.6012 16.8117 52.5712C16.9417 52.4912 17.6917 51.4012 17.6917 51.2812C17.6917 51.2312 17.8617 51.0212 18.0817 50.7912C18.3017 50.5612 18.5917 50.2612 18.7317 50.1112C19.2017 49.6012 19.3417 49.5412 19.8817 49.5912C20.3417 49.6312 20.4017 49.6612 20.7317 50.0312C20.9817 50.3112 21.0917 50.5312 21.1417 50.8012C21.2117 51.2612 21.2217 52.2412 21.1517 52.6412C21.0617 53.1412 20.8817 53.7912 20.8217 53.8612C20.7917 53.8912 20.7617 54.0312 20.7617 54.1612C20.7617 54.3012 20.6917 54.5412 20.6117 54.7112C20.3717 55.1912 20.1817 55.6412 20.1817 55.7512C20.1817 55.8412 19.8017 56.7012 19.5917 57.0912C19.5517 57.1712 19.5117 57.3312 19.5117 57.4412C19.5117 57.5612 19.4617 57.6712 19.4017 57.6912C19.3417 57.7112 19.2917 57.7812 19.2917 57.8512C19.2917 57.9912 18.9217 58.7612 18.8317 58.8012C18.7917 58.8212 18.6617 59.0412 18.5417 59.3012C18.4217 59.5612 18.2017 59.9412 18.0617 60.1512C17.9217 60.3612 17.7417 60.6612 17.6717 60.8212C17.6017 60.9812 17.4517 61.2512 17.3417 61.4012C17.2417 61.5612 17.1017 61.7912 17.0417 61.9112C16.9817 62.0312 16.8117 62.2612 16.6617 62.4312C16.5217 62.5912 16.3117 62.9012 16.2117 63.1012C16.1117 63.3012 15.9517 63.5412 15.8617 63.6212C15.7717 63.7012 15.6917 63.8212 15.6917 63.8812C15.6917 63.9412 15.6217 64.0612 15.5217 64.1312C15.4317 64.2112 15.3517 64.3212 15.3517 64.3812C15.3517 64.4412 15.0417 64.8012 14.6717 65.1812C14.0117 65.8412 14.0017 65.8512 14.0517 65.5712ZM49.2917 56.7412C49.2317 56.9712 49.0317 57.3512 48.8217 57.6212C48.5117 58.0212 48.0517 58.7212 47.7217 59.2812C47.6417 59.4212 47.0117 60.3212 46.7017 60.7212C46.6117 60.8312 46.3817 61.2312 46.1917 61.6012C46.0017 61.9712 45.7717 62.3412 45.6917 62.4312C45.6117 62.5212 45.4517 62.7612 45.3417 62.9712C45.1417 63.3612 44.9417 63.6712 44.3217 64.6412C43.9317 65.2512 43.5217 65.9112 42.9217 66.8912C42.7017 67.2612 42.4817 67.5612 42.4517 67.5612C42.3717 67.5612 42.4617 67.2512 42.6617 66.7812C42.7417 66.6012 42.8917 66.1112 43.0017 65.6912C43.1117 65.2712 43.2817 64.6512 43.3717 64.3012C43.4717 63.9612 43.5317 63.5912 43.5117 63.4912C43.4917 63.3912 43.5117 63.3012 43.5517 63.3012C43.6517 63.3012 43.9517 62.5812 43.9517 62.3312C43.9517 62.2212 43.9917 62.1312 44.0317 62.1312C44.0717 62.1312 44.1117 61.9812 44.1117 61.8012C44.1117 61.6212 44.1617 61.4312 44.2317 61.3812C44.2917 61.3312 44.3717 61.0612 44.4017 60.7912C44.4417 60.4612 44.5017 60.2812 44.5817 60.2512C44.6517 60.2212 44.6817 60.1512 44.6517 60.0712C44.6217 59.9912 44.6517 59.8612 44.7217 59.7612C44.7917 59.6712 44.8417 59.5012 44.8417 59.4012C44.8417 59.3012 44.8817 59.1912 44.9317 59.1512C45.0317 59.0812 45.4117 58.3012 45.5417 57.8612C45.5917 57.7012 45.7117 57.5312 45.8017 57.4812C46.1117 57.3212 46.3817 57.0612 46.5017 56.8112C46.5717 56.6712 46.6917 56.5512 46.7917 56.5312C46.8817 56.5212 47.0317 56.4712 47.1217 56.4312C47.3917 56.3112 47.6517 56.2812 48.5417 56.2912L49.3817 56.3012L49.2917 56.7412ZM106.422 60.9812C106.332 60.9812 106.302 61.1512 106.292 61.7112C106.282 62.1112 106.262 62.6112 106.242 62.8212C106.222 63.0312 106.202 63.4512 106.202 63.7512C106.202 64.0712 106.142 64.4212 106.062 64.5712C105.962 64.7612 105.952 64.8612 106.022 64.9412C106.132 65.0712 106.042 65.5912 105.892 65.6812C105.762 65.7612 105.752 65.9912 105.872 65.9912C106.012 65.9912 105.892 66.6012 105.722 66.7212C105.592 66.8212 105.592 66.8212 105.732 66.8212C105.922 66.8212 105.842 67.1412 105.592 67.3412C105.432 67.4712 105.432 67.4912 105.552 67.4912C105.672 67.4912 105.692 67.5412 105.652 67.8412C105.622 68.0312 105.552 68.3312 105.502 68.4912C105.442 68.6512 105.372 68.9212 105.342 69.1012C105.312 69.2812 105.232 69.4412 105.172 69.4612C105.042 69.5112 104.962 69.7812 104.912 70.3612C104.892 70.5912 104.842 70.8312 104.802 70.9112C104.762 70.9912 104.702 71.2512 104.672 71.5012C104.642 71.7512 104.552 72.1912 104.462 72.4912C104.382 72.7812 104.332 73.0612 104.352 73.1012C104.382 73.1412 104.342 73.2212 104.282 73.2812C104.212 73.3412 104.102 73.6412 104.022 73.9612C103.942 74.2912 103.832 74.6612 103.762 74.7912C103.702 74.9312 103.602 75.2112 103.552 75.4212C103.452 75.8112 103.392 75.9512 103.032 76.7812C102.912 77.0512 102.782 77.4312 102.732 77.6412C102.682 77.8512 102.592 78.1112 102.512 78.2212C102.432 78.3512 102.412 78.4212 102.472 78.4212C102.522 78.4212 102.562 78.4812 102.562 78.5512C102.562 78.6212 102.512 78.6812 102.442 78.6812C102.382 78.6812 102.132 79.0612 101.892 79.5412C101.652 80.0112 101.292 80.6612 101.082 80.9812C100.622 81.6912 99.4017 82.9212 98.9517 83.1412C98.7717 83.2312 98.5517 83.3312 98.4817 83.3712C98.4017 83.4112 98.1117 83.4412 97.8217 83.4512C97.3717 83.4612 97.2417 83.4312 96.8817 83.2212C96.5117 83.0012 96.4417 82.9212 96.2717 82.4412C96.0917 81.9412 96.0817 81.8012 96.1117 80.2312C96.1317 78.8812 96.1717 78.4912 96.2817 78.2312C96.3617 78.0512 96.4217 77.8012 96.4117 77.6912C96.4017 77.4612 96.4417 77.2612 96.8317 75.7212C97.1517 74.4712 97.2217 74.2212 97.4217 73.7812C97.5117 73.5812 97.5817 73.3912 97.5817 73.3512C97.5817 73.3112 97.6317 73.1712 97.7017 73.0312C97.7717 72.8912 97.8617 72.6112 97.8917 72.3912C97.9317 72.1712 98.0117 71.9512 98.0617 71.8812C98.1217 71.8112 98.1417 71.7512 98.1117 71.7512C98.0817 71.7512 98.1817 71.5412 98.3317 71.2712C98.4817 71.0012 98.5917 70.7812 98.5817 70.7712C98.5717 70.7612 98.6617 70.5512 98.7717 70.3112C98.9817 69.8412 99.0817 69.6012 99.1117 69.4312C99.1417 69.2712 99.4917 68.5712 99.7017 68.2212C99.8017 68.0512 99.8917 67.8712 99.8917 67.8212C99.8917 67.7712 99.9817 67.6012 100.102 67.4512C100.212 67.3012 100.312 67.1212 100.312 67.0612C100.312 67.0012 100.372 66.8612 100.442 66.7612C100.512 66.6612 100.542 66.5812 100.512 66.5812C100.482 66.5812 100.552 66.5112 100.672 66.4112C100.792 66.3112 100.892 66.1912 100.892 66.1312C100.892 65.9912 101.452 65.1512 101.642 65.0212C101.712 64.9712 101.842 64.7512 101.932 64.5412C102.022 64.3312 102.122 64.1612 102.152 64.1612C102.192 64.1612 102.222 64.1112 102.222 64.0412C102.222 63.9712 102.282 63.8712 102.362 63.8112C102.442 63.7512 102.772 63.3812 103.092 62.9912C103.422 62.6012 103.862 62.0812 104.092 61.8412C104.652 61.2412 104.702 61.1712 104.702 61.0712C104.702 61.0212 104.732 60.9912 104.772 60.9912C104.812 60.9912 105.092 60.7512 105.392 60.4712C105.692 60.1812 106.062 59.8712 106.212 59.7812L106.482 59.6112L106.502 59.9012C106.512 60.0612 106.482 60.2812 106.422 60.3812C106.342 60.5312 106.342 60.5912 106.422 60.6712C106.572 60.7912 106.562 60.9812 106.422 60.9812ZM17.2217 35.0012C17.3417 35.7412 17.5217 36.5912 17.6317 36.8912C17.7417 37.1912 17.9117 37.6812 18.0117 37.9812C18.1117 38.2812 18.2417 38.5812 18.3117 38.6612C18.3717 38.7412 18.4217 38.8512 18.4317 38.9112C18.4517 39.4712 20.4617 41.9212 21.5917 42.7612C21.7517 42.8812 22.0517 43.1312 22.2617 43.3312C22.4717 43.5312 22.8917 43.8812 23.2217 44.1312C23.8817 44.6312 26.1617 46.0512 26.8017 46.3512C27.0317 46.4612 27.3117 46.6012 27.4217 46.6712C27.7417 46.8612 28.7617 47.3312 29.0817 47.4512C29.8217 47.7112 31.3617 48.1212 32.0817 48.2512C33.7317 48.5412 33.9517 48.5812 34.0217 48.6412C34.0617 48.6712 33.9617 48.9512 33.7917 49.2612C33.5017 49.7912 33.4917 49.8312 33.6217 50.0212C33.7217 50.1712 33.8217 50.2212 34.0417 50.2212C34.3317 50.2212 35.0317 49.9512 35.1217 49.8112C35.1517 49.7712 35.3417 49.7112 35.5517 49.6812C35.9117 49.6312 35.9517 49.6412 36.2217 49.9012C36.3817 50.0512 36.7017 50.4712 36.9317 50.8312C37.1717 51.1912 37.3917 51.4812 37.4317 51.4812C37.6417 51.4812 38.0017 51.2512 38.4017 50.8712C38.6517 50.6312 39.0217 50.3312 39.2417 50.2012C39.6917 49.9312 39.9817 49.9412 40.8317 50.2212C41.1017 50.3112 41.4417 50.3912 41.5817 50.3912C41.8717 50.3912 41.9117 50.3112 41.9417 49.5112L41.9617 49.0112L42.3817 48.9112C42.6117 48.8512 42.9217 48.7712 43.0917 48.7312C43.2517 48.6812 43.6117 48.5912 43.8817 48.5212C44.3417 48.4012 44.5417 48.3312 45.2917 48.0112C45.4317 47.9512 45.6317 47.8612 45.7517 47.8112C45.8617 47.7612 46.3817 47.5812 46.8917 47.4212C47.4117 47.2512 47.8517 47.0812 47.8717 47.0412C47.8917 47.0012 47.9917 46.9612 48.0717 46.9612C48.1617 46.9612 48.4817 46.8412 48.7917 46.6812C49.1117 46.5212 49.4517 46.3512 49.5717 46.3012C49.6917 46.2412 49.8517 46.1512 49.9417 46.1012C50.4717 45.7712 50.8117 45.5412 50.8617 45.4612C50.8917 45.4112 51.0517 45.3012 51.2217 45.2112C51.8317 44.8812 53.0317 43.9912 53.0117 43.8912C53.0017 43.8312 53.0217 43.8012 53.0717 43.8312C53.1117 43.8612 53.3517 43.7212 53.5917 43.5312C54.2517 43.0112 55.8517 41.4212 55.9917 41.1412C56.0617 41.0112 56.3517 40.5912 56.6317 40.2112C56.9217 39.8312 57.1517 39.4912 57.1517 39.4412C57.1517 39.4012 57.1917 39.3512 57.2417 39.3312C57.3317 39.3012 57.7917 38.5212 58.2217 37.6512C58.3517 37.3812 58.5017 37.1112 58.5417 37.0512C58.6017 36.9612 58.7517 36.6212 58.9817 36.0312C59.2517 35.3412 59.4017 34.7312 59.5117 33.8912C59.6117 33.1912 59.7317 30.8712 59.6917 30.3312C59.6517 29.7012 59.4317 28.3712 59.3117 28.0312C59.2717 27.9112 59.1717 27.6012 59.1017 27.3312C58.9417 26.7512 58.2917 25.6112 57.6417 24.8012C57.3917 24.4812 57.0917 24.0812 56.9717 23.9112C56.8517 23.7312 56.6417 23.5112 56.5017 23.4112C54.5817 22.0012 54.5817 22.0012 53.6717 21.6212C53.5017 21.5512 53.2917 21.4512 53.2117 21.4112C53.0617 21.3312 52.3217 21.1112 51.2317 20.8312C50.0517 20.5312 49.0817 20.3912 47.9317 20.3612C46.7617 20.3312 46.1017 20.4312 44.9417 20.7912C44.3617 20.9712 43.1117 21.5112 43.0817 21.5912C43.0617 21.6312 42.9917 21.6612 42.9317 21.6612C42.7917 21.6612 42.2117 21.9912 42.1717 22.1012C42.1517 22.1412 42.1017 22.1712 42.0417 22.1712C41.9417 22.1712 41.6317 22.3812 40.6817 23.0912C40.2117 23.4412 39.7517 23.6712 39.6917 23.5812C39.6117 23.4412 39.9817 22.0912 40.2917 21.4312C40.4017 21.1912 40.5717 20.7612 40.6517 20.5012C40.7317 20.2312 40.8417 19.9412 40.8917 19.8512C41.1117 19.4312 41.5617 18.4112 41.6617 18.0812C41.7217 17.8812 41.8017 17.7012 41.8417 17.6812C41.9017 17.6412 42.2017 17.0112 42.2217 16.8712C42.2317 16.8312 42.4117 16.5912 42.6217 16.3312C42.8317 16.0712 43.0317 15.8012 43.0517 15.7312C43.1017 15.6012 43.5017 15.0312 43.7217 14.8012C43.7917 14.7212 44.0017 14.4712 44.1917 14.2412C44.3717 14.0112 44.6517 13.7312 44.8017 13.6212C44.9517 13.5112 45.1617 13.3512 45.2617 13.2612C45.3617 13.1812 45.6617 12.9912 45.9217 12.8612C46.4417 12.5912 47.0917 11.9812 47.0517 11.7812C47.0417 11.7112 46.9517 11.6412 46.8517 11.6312C46.7517 11.6212 46.5117 11.4512 46.3117 11.2712C45.9017 10.9012 45.7617 10.8712 45.4717 11.1012C45.0517 11.4412 43.9117 11.9312 43.0917 12.1512C41.8117 12.4812 40.6617 12.4612 39.4117 12.1012C38.8717 11.9412 37.3717 11.1612 37.1517 10.9212C36.9917 10.7412 36.9317 10.5912 36.9317 10.3712C36.9417 9.83123 36.6417 7.69123 36.4717 7.01123C35.9517 5.01123 35.0417 3.56123 33.7017 2.60123C33.1517 2.21123 31.3117 1.29123 30.8017 1.16123C30.4817 1.05123 29.6417 0.911231 28.9817 0.821231C28.8617 0.811231 28.3617 0.841231 27.8617 0.901231C27.0017 1.00123 26.7017 1.06123 26.4017 1.17123C26.3317 1.19123 26.2417 1.21123 26.2017 1.20123C26.1617 1.19123 25.9217 1.26123 25.6617 1.35123C25.4117 1.44123 24.9617 1.58123 24.6817 1.66123C24.4017 1.74123 24.1217 1.86123 24.0717 1.92123C24.0217 1.98123 23.9217 2.03123 23.8517 2.03123C23.7817 2.03123 23.4417 2.17123 23.1017 2.34123L22.4817 2.65123L22.5317 2.99123C22.8317 4.87123 23.7317 8.14123 24.2917 9.40123C24.5717 10.0212 25.1417 10.8712 25.6617 11.4412C26.0517 11.8712 27.2117 12.6212 27.9517 12.9212C28.2217 13.0312 28.5217 13.1712 28.6217 13.2412C28.7217 13.3012 28.8817 13.3312 28.9717 13.3012C29.0617 13.2712 29.1417 13.2812 29.1417 13.3212C29.1417 13.5712 32.0117 13.7312 32.8417 13.5212C33.0317 13.4712 33.4417 13.3712 33.7617 13.2812C34.0817 13.2012 34.3717 13.1412 34.4117 13.1512C34.4517 13.1612 34.6317 13.0612 34.8317 12.9312C35.0317 12.8012 35.2917 12.6412 35.4317 12.5712C35.5717 12.5012 35.9017 12.2712 36.1917 12.0512L36.7017 11.6512L36.8617 11.8312C36.9517 11.9312 37.1117 12.0612 37.2317 12.1212C37.3517 12.1812 37.5517 12.3312 37.6917 12.4712C38.2317 12.9712 40.2717 13.4112 41.5917 13.3112C41.9117 13.2912 42.3617 13.2512 42.6117 13.2312C43.1117 13.1912 43.1817 13.2812 42.8517 13.5712C42.6817 13.7212 42.4617 14.0512 41.8617 15.0612C41.8117 15.1512 41.7417 15.2512 41.7217 15.2712C41.6817 15.3112 41.2517 16.0212 40.7617 16.8612C40.5517 17.2212 40.0317 18.2812 39.5717 19.2912C39.4617 19.5412 39.3117 19.8512 39.2617 19.9612C39.2017 20.0712 39.0017 20.6012 38.8117 21.1212C38.6217 21.6412 38.4417 22.1312 38.4017 22.2112C38.2917 22.4312 38.1617 22.7512 38.0517 23.0712C38.0017 23.2312 37.8617 23.4712 37.7617 23.6112C37.5717 23.8512 37.5617 23.8512 37.2117 23.7412C37.0117 23.6812 36.6917 23.5612 36.4817 23.4612C35.4717 23.0012 35.2517 22.9112 34.9017 22.7912C34.3517 22.6012 33.7917 22.4412 33.6517 22.4312C33.5817 22.4212 33.4717 22.4012 33.4017 22.3712C32.7317 22.1112 31.9017 22.0012 30.3517 21.9612C29.8317 21.9512 29.4117 21.9012 29.4117 21.8712C29.4117 21.7912 29.0417 21.8012 28.9517 21.8812C28.9017 21.9212 28.6417 21.9812 28.3617 22.0112C27.8917 22.0612 27.8417 22.0512 27.7917 21.8812C27.7417 21.7412 27.6917 21.7112 27.5117 21.7612C27.3917 21.7912 27.2217 21.8912 27.1417 21.9812C27.0517 22.0812 26.9317 22.1212 26.8417 22.0912C26.7617 22.0612 26.4517 22.1112 26.1617 22.2112C25.8717 22.3012 25.4117 22.4012 25.1417 22.4312C24.8717 22.4612 24.6217 22.5012 24.5817 22.5212C24.5417 22.5412 24.1917 22.6612 23.7917 22.7712C22.9717 23.0112 21.1917 23.8612 20.8117 24.1912C20.6717 24.3112 20.4617 24.5012 20.3217 24.6112C20.1917 24.7312 20.0517 24.8212 20.0217 24.8212C19.8017 24.8212 18.3017 26.7112 17.9617 27.4212C17.9017 27.5412 17.8217 27.6812 17.7817 27.7612C17.6417 27.9912 17.3517 28.6612 17.3217 28.8512C17.3017 28.9512 17.2517 29.0812 17.2117 29.1312C17.0017 29.3912 16.8017 32.5112 16.9517 33.2512C16.9617 33.4712 17.1017 34.2712 17.2217 35.0012ZM55.4417 23.6512C55.4917 23.6512 55.5317 23.6912 55.5317 23.7312C55.5317 23.7812 55.5117 23.8112 55.4917 23.8112C55.4717 23.8112 55.4317 23.7812 55.4017 23.7312C55.3817 23.6912 55.3917 23.6512 55.4417 23.6512ZM55.3217 38.6512C55.4017 38.6512 55.4517 38.7112 55.4517 38.8012C55.4517 38.8812 55.4117 39.0212 55.3717 39.1112C55.3017 39.2712 55.2917 39.2712 55.2917 39.1012C55.2917 39.0012 55.2617 38.8612 55.2417 38.7912C55.2017 38.7012 55.2317 38.6512 55.3217 38.6512ZM55.1117 41.2712C55.1717 41.3512 55.1717 41.4112 55.1017 41.4812C54.9517 41.6312 54.8717 41.6012 54.8717 41.3712C54.8717 41.1512 54.9717 41.1112 55.1117 41.2712ZM54.3717 42.1312C54.3217 42.1612 54.2917 42.1412 54.2917 42.0912C54.2917 42.0412 54.3317 42.0012 54.3717 42.0012C54.4217 42.0012 54.4517 42.0212 54.4517 42.0412C54.4517 42.0612 54.4217 42.1012 54.3717 42.1312ZM54.2217 22.3912C54.2917 22.3912 54.3917 22.4312 54.4117 22.4712C54.4817 22.5812 54.3717 22.5812 54.2017 22.4712C54.0917 22.4012 54.0917 22.3912 54.2217 22.3912ZM53.7017 38.8212C53.7417 38.8212 53.7817 38.9012 53.7817 38.9912C53.7817 39.0812 53.7417 39.1412 53.7017 39.1112C53.6517 39.0812 53.6217 39.0112 53.6217 38.9412C53.6217 38.8712 53.6517 38.8212 53.7017 38.8212ZM53.5017 40.0712C53.5217 40.0712 53.5317 40.2112 53.5317 40.3812C53.5317 40.5812 53.5117 40.6512 53.4617 40.5912C53.4017 40.4912 53.4317 40.0712 53.5017 40.0712ZM53.4217 41.4112C53.4417 41.4112 53.4517 41.5712 53.4417 41.7712L53.4317 42.1312L53.3817 41.8412C53.3217 41.5612 53.3417 41.4112 53.4217 41.4112ZM53.0517 23.2512C53.1117 23.2712 53.1817 23.3912 53.1917 23.5212C53.2117 23.6812 53.1817 23.7412 53.1117 23.7112C53.0517 23.6912 52.9817 23.5712 52.9717 23.4412C52.9417 23.2812 52.9717 23.2312 53.0517 23.2512ZM52.5117 42.7812C52.4917 42.8812 52.4817 42.8012 52.4817 42.5912C52.4817 42.3812 52.4917 42.3012 52.5117 42.4012C52.5317 42.5012 52.5317 42.6812 52.5117 42.7812ZM52.5017 23.8012L52.5617 23.6112L52.5917 23.8112C52.6117 23.9212 52.6017 24.0312 52.5717 24.0612C52.4917 24.1512 52.4417 23.9912 52.5017 23.8012ZM52.2817 21.7212C52.3317 21.7212 52.3817 21.7512 52.4117 21.8012C52.4417 21.8512 52.4317 21.8812 52.3817 21.8812C52.3317 21.8812 52.2817 21.8512 52.2517 21.8012C52.2117 21.7612 52.2317 21.7212 52.2817 21.7212ZM52.1217 24.2112C52.1217 24.3412 52.0917 24.4112 52.0617 24.3712C51.9717 24.2812 51.9617 23.8012 52.0517 23.8312C52.1017 23.8512 52.1317 23.8812 52.1217 23.9212C52.1217 23.9612 52.1217 24.0812 52.1217 24.2112ZM51.9917 21.6512C52.0717 21.6512 52.1217 21.6712 52.1017 21.6912C52.0717 21.7212 52.0017 21.7212 51.9417 21.7012C51.8717 21.6712 51.8917 21.6512 51.9917 21.6512ZM51.5117 41.3912C51.5317 41.4512 51.5317 41.5612 51.5117 41.6412C51.4917 41.7212 51.4717 41.6812 51.4717 41.5412C51.4717 41.4012 51.4917 41.3312 51.5117 41.3912ZM43.7617 13.9112C43.9417 13.6012 44.1017 13.5112 44.0017 13.7812C43.9717 13.8612 43.8917 13.9412 43.8317 13.9612C43.7417 14.0012 43.7217 13.9812 43.7617 13.9112ZM43.5117 14.1812C43.5417 14.1312 43.5717 14.1012 43.6017 14.1012C43.6217 14.1012 43.6417 14.1312 43.6417 14.1812C43.6417 14.2312 43.6017 14.2612 43.5517 14.2612C43.4917 14.2612 43.4817 14.2312 43.5117 14.1812ZM43.3017 14.5112C43.3517 14.5112 43.3817 14.5412 43.3817 14.5912C43.3817 14.6412 43.3517 14.6712 43.3017 14.6712C43.2517 14.6712 43.2217 14.6412 43.2217 14.5912C43.2217 14.5512 43.2517 14.5112 43.3017 14.5112ZM25.2917 8.73123C25.2717 8.73123 25.2317 8.70123 25.2017 8.65123C25.1717 8.60123 25.1917 8.57123 25.2417 8.57123C25.2917 8.57123 25.3317 8.61123 25.3317 8.65123C25.3217 8.70123 25.3117 8.73123 25.2917 8.73123ZM27.7817 1.27123C27.7517 1.22123 27.7817 1.19123 27.8617 1.19123C27.9317 1.19123 27.9917 1.20123 27.9917 1.22123C27.9917 1.32123 27.8317 1.35123 27.7817 1.27123ZM28.7117 11.8512C28.6817 11.9212 28.6717 11.9012 28.6617 11.8012C28.6617 11.7212 28.6817 11.6612 28.7017 11.6912C28.7317 11.7212 28.7317 11.7912 28.7117 11.8512ZM28.7317 1.32123C28.4917 1.33123 28.3817 1.28123 28.4317 1.20123C28.4817 1.11123 28.9417 1.15123 28.9417 1.24123C28.9417 1.28123 28.8517 1.32123 28.7317 1.32123ZM29.4517 1.39123C29.3717 1.36123 29.3417 1.31123 29.3617 1.26123C29.4217 1.16123 29.5417 1.17123 29.6017 1.27123C29.6317 1.32123 29.6817 1.34123 29.7317 1.31123C29.7717 1.29123 29.8117 1.31123 29.8117 1.36123C29.8217 1.45123 29.6517 1.47123 29.4517 1.39123ZM31.4017 13.2612C31.3517 13.2612 31.3217 13.2312 31.3217 13.1812C31.3217 13.1312 31.3517 13.1012 31.4017 13.1012C31.4517 13.1012 31.4817 13.1312 31.4817 13.1812C31.4817 13.2212 31.4517 13.2612 31.4017 13.2612ZM32.3117 13.1712C32.2617 13.1712 32.2317 13.1412 32.2317 13.0912C32.2317 13.0412 32.2617 13.0112 32.3117 13.0112C32.3617 13.0112 32.3917 13.0412 32.3917 13.0912C32.4017 13.1412 32.3617 13.1712 32.3117 13.1712ZM32.6217 7.24123C32.5917 7.31123 32.5817 7.29123 32.5717 7.19123C32.5717 7.11123 32.5917 7.05123 32.6117 7.08123C32.6417 7.11123 32.6417 7.18123 32.6217 7.24123ZM35.0417 6.60123C34.9617 6.68123 34.8017 6.54123 34.8617 6.45123C34.8917 6.40123 34.9417 6.40123 35.0017 6.46123C35.0517 6.51123 35.0717 6.58123 35.0417 6.60123ZM35.3117 10.2012C35.2617 10.1712 35.2317 10.1212 35.2317 10.0712C35.2317 10.0212 35.2617 9.99123 35.3117 9.99123C35.3617 9.99123 35.3917 10.0412 35.3917 10.1212C35.3917 10.2012 35.3617 10.2312 35.3117 10.2012ZM35.7717 11.7612C35.7517 11.7212 35.7517 11.6712 35.7817 11.6412C35.8617 11.5612 36.0617 11.5712 36.0617 11.6612C36.0617 11.7612 35.8217 11.8412 35.7717 11.7612ZM40.3717 12.8112C40.3017 12.7812 40.3217 12.7612 40.4217 12.7612C40.5017 12.7612 40.5517 12.7812 40.5317 12.8012C40.5017 12.8312 40.4317 12.8412 40.3717 12.8112ZM29.7817 47.2812C29.7617 47.2812 29.7217 47.2512 29.6917 47.2012C29.6617 47.1512 29.6817 47.1212 29.7317 47.1212C29.7817 47.1212 29.8217 47.1612 29.8217 47.2012C29.8217 47.2512 29.8017 47.2812 29.7817 47.2812ZM30.2217 46.0212C30.1417 45.9712 30.0617 45.8712 30.0617 45.8112C30.0617 45.7012 30.0917 45.7112 30.2617 45.8412C30.3717 45.9212 30.4717 46.0212 30.4717 46.0512C30.4817 46.1312 30.4217 46.1212 30.2217 46.0212ZM34.9817 49.4212C34.9317 49.4512 34.9017 49.4312 34.9017 49.3812C34.9017 49.3312 34.9417 49.2912 34.9817 49.2912C35.0317 49.2912 35.0617 49.3012 35.0617 49.3312C35.0617 49.3612 35.0317 49.3912 34.9817 49.4212ZM35.2317 47.3712C35.1817 47.3712 35.1517 47.3412 35.1517 47.2912C35.1517 47.2412 35.1817 47.2112 35.2317 47.2112C35.2817 47.2112 35.3117 47.2412 35.3117 47.2912C35.3117 47.3312 35.2817 47.3712 35.2317 47.3712ZM36.8917 50.1312C36.8417 50.1312 36.8117 50.1012 36.8117 50.0512C36.8117 50.0012 36.8417 49.9712 36.8917 49.9712C36.9417 49.9712 36.9717 50.0012 36.9717 50.0512C36.9717 50.1012 36.9417 50.1312 36.8917 50.1312ZM40.7817 46.5412C40.7517 46.6112 40.7417 46.5912 40.7317 46.4912C40.7317 46.4112 40.7517 46.3512 40.7717 46.3812C40.8017 46.4112 40.8017 46.4812 40.7817 46.5412ZM41.4717 48.1212C41.4217 48.1212 41.3917 48.0912 41.3917 48.0412C41.3917 47.9912 41.4217 47.9612 41.4717 47.9612C41.5217 47.9612 41.5517 47.9912 41.5517 48.0412C41.5517 48.0912 41.5217 48.1212 41.4717 48.1212ZM43.1817 47.3712C43.1617 47.3712 43.1217 47.3412 43.0917 47.2912C43.0617 47.2412 43.0817 47.2112 43.1317 47.2112C43.1817 47.2112 43.2217 47.2512 43.2217 47.2912C43.2217 47.3312 43.2017 47.3712 43.1817 47.3712ZM43.8917 48.0112C43.7417 48.0812 43.5917 48.1112 43.5717 48.0912C43.5217 48.0412 43.8717 47.8812 44.0417 47.8912C44.1117 47.8812 44.0417 47.9412 43.8917 48.0112ZM44.0417 39.7412C43.9917 39.7412 43.9717 39.7012 44.0017 39.6612C44.0317 39.6112 44.0617 39.5812 44.0917 39.5812C44.1117 39.5812 44.1317 39.6112 44.1317 39.6612C44.1317 39.7012 44.0917 39.7412 44.0417 39.7412ZM48.2917 30.9812C48.2417 30.9512 48.2117 30.9012 48.2117 30.8512C48.2117 30.8012 48.2417 30.7712 48.2917 30.7712C48.3417 30.7712 48.3717 30.8212 48.3717 30.9012C48.3717 30.9812 48.3417 31.0112 48.2917 30.9812ZM48.9117 45.0112C48.8717 45.0512 48.7417 45.1112 48.6317 45.1412L48.4217 45.1912L48.6317 45.0612C48.8617 44.9312 49.0417 44.8912 48.9117 45.0112ZM49.7717 44.6212C49.7517 44.6812 49.6617 44.7412 49.5817 44.7612C49.4517 44.7912 49.4417 44.7712 49.5417 44.6612C49.6717 44.4912 49.8217 44.4712 49.7717 44.6212ZM51.0417 43.0912C51.0917 43.0912 51.1217 43.1412 51.1217 43.2212C51.1217 43.3012 51.0917 43.3312 51.0417 43.3012C50.9917 43.2712 50.9617 43.2212 50.9617 43.1712C50.9517 43.1212 50.9917 43.0912 51.0417 43.0912ZM50.7817 38.4012C50.8317 38.4012 50.8717 38.4412 50.8717 38.4812C50.8717 38.5312 50.8517 38.5612 50.8317 38.5612C50.8117 38.5612 50.7717 38.5312 50.7417 38.4812C50.7217 38.4312 50.7317 38.4012 50.7817 38.4012ZM50.7817 42.2512C50.8017 42.3512 50.7717 42.4812 50.7217 42.5312C50.6517 42.6012 50.6317 42.5612 50.6317 42.4112C50.6217 42.1412 50.7417 42.0112 50.7817 42.2512ZM50.7017 42.8412C50.7417 42.9612 50.7317 43.1112 50.6917 43.1912C50.6517 43.2712 50.6217 43.4912 50.6217 43.6712C50.6217 43.8712 50.5817 44.0112 50.5317 44.0112C50.4417 44.0112 50.4617 43.4112 50.5717 42.8812C50.6317 42.6212 50.6317 42.6212 50.7017 42.8412ZM50.3817 21.1412C50.4617 21.1412 50.5317 21.1712 50.5317 21.2112C50.5317 21.2512 50.4817 21.3512 50.4217 21.4312C50.3117 21.5812 50.3117 21.5712 50.2717 21.3612C50.2417 21.1812 50.2617 21.1412 50.3817 21.1412ZM50.0117 22.7912C50.0317 22.8512 50.0317 22.9412 50.0117 23.0012C49.9917 23.0612 49.9717 23.0112 49.9717 22.9012C49.9717 22.7912 49.9917 22.7312 50.0117 22.7912ZM49.7717 21.2912C49.7917 21.3512 49.7317 21.3912 49.6317 21.3912C49.5317 21.3912 49.4617 21.3312 49.4617 21.2612C49.4617 21.1012 49.7217 21.1312 49.7717 21.2912ZM47.7817 20.7712C48.0117 20.7112 48.0517 20.7112 48.0417 20.7812C48.0417 20.8212 47.9817 20.9212 47.9117 21.0112C47.8017 21.1512 47.7717 21.1612 47.7117 21.0512C47.5917 20.8712 47.6117 20.8112 47.7817 20.7712ZM40.9917 26.8512C41.0017 26.8212 41.0317 26.5512 41.0617 26.2712C41.1017 25.8912 41.1317 25.7612 41.1917 25.7612C41.2317 25.7612 41.2917 25.8012 41.3117 25.8412C41.3417 25.8912 41.4817 25.9212 41.7917 25.9112C43.1217 25.9012 43.4317 25.9112 43.5217 25.9812C43.5817 26.0212 43.6617 26.0312 43.7117 26.0112C43.7617 25.9912 44.1417 25.9912 44.5717 26.0212C45.7117 26.1012 46.1517 26.1212 46.2317 26.0812C46.2717 26.0612 46.4017 26.0512 46.5217 26.0712C46.6317 26.0812 46.9517 26.0912 47.2217 26.0712C47.4917 26.0612 48.0417 26.0612 48.4417 26.0812C48.8417 26.1012 49.1817 26.1012 49.1917 26.0912C49.4917 25.8412 50.2417 27.2712 50.1717 27.9712C50.1517 28.1812 49.9017 28.3712 49.8017 28.2712C49.7517 28.2212 49.7017 28.2112 49.6717 28.2312C49.6417 28.2512 49.6017 28.2312 49.5717 28.1812C49.5317 28.1112 49.4917 28.1012 49.3717 28.1512C49.2217 28.2112 49.0217 28.2312 48.4317 28.2412C48.2717 28.2412 48.0517 28.2712 47.9517 28.3012C47.8517 28.3312 47.6217 28.3512 47.4317 28.3512C47.0817 28.3412 46.5417 28.5812 46.5617 28.7312C46.5617 28.7712 46.5317 28.8612 46.5017 28.9212C46.4517 29.0012 46.4517 29.0812 46.4917 29.2012C46.5417 29.3312 46.5317 29.3812 46.4717 29.4112C46.4117 29.4412 46.4117 29.5312 46.4517 29.7812C46.4817 29.9612 46.4917 30.1212 46.4717 30.1412C46.4517 30.1612 46.4617 30.3512 46.4917 30.5712C46.5217 30.7912 46.5417 31.2112 46.5317 31.5012C46.5217 31.7912 46.5417 32.0612 46.5717 32.1112C46.6017 32.1612 46.6017 32.2812 46.5717 32.3912C46.5417 32.5012 46.5317 32.6512 46.5617 32.7312C46.6117 32.8612 46.6317 33.1812 46.6317 33.9112C46.6317 34.0712 46.6417 34.3612 46.6517 34.5712C46.6617 34.7812 46.6617 35.0712 46.6417 35.2212C46.6217 35.3612 46.6317 35.5212 46.6617 35.5712C46.7317 35.6912 46.6717 36.0612 46.5617 36.1212C46.5017 36.1512 46.4917 36.1912 46.5317 36.2212C46.5917 36.2712 46.6817 37.0512 46.6517 37.1712C46.6417 37.2012 46.6517 37.2612 46.6617 37.3212C46.7217 37.5312 46.7317 38.0812 46.6817 38.5612C46.6517 38.8512 46.6517 39.0812 46.6817 39.0812C46.7117 39.0812 46.7317 39.1512 46.7217 39.2312C46.7117 39.3112 46.7317 39.5212 46.7717 39.6912C46.8317 39.9712 46.8217 40.0112 46.7317 40.0512C46.6417 40.0912 46.6417 40.1012 46.7417 40.1912C46.8117 40.2512 46.8417 40.3812 46.8317 40.5612C46.8117 41.0112 46.8217 41.3312 46.8517 41.5112C46.8717 41.6312 46.8617 41.6812 46.8117 41.6812C46.7717 41.6812 46.7417 41.7012 46.7417 41.7412C46.7417 41.7712 46.7917 41.8112 46.8617 41.8112C46.9617 41.8212 46.9817 41.8612 46.9717 42.0312C46.9617 42.1412 46.9617 42.2912 46.9717 42.3612C46.9817 42.4312 47.0117 42.8712 47.0317 43.3412C47.0617 43.8112 47.0817 44.2512 47.0917 44.3212C47.0917 44.3912 47.1217 44.5512 47.1517 44.6912C47.1817 44.8312 47.1917 44.9512 47.1617 44.9812C47.1417 45.0112 47.1617 45.0812 47.2117 45.1412C47.3317 45.2912 47.2717 45.4512 47.0617 45.5312C46.9617 45.5712 46.8417 45.6712 46.8017 45.7412C46.7117 45.8912 46.3017 46.0112 46.0917 45.9312C46.0217 45.9112 45.9017 45.9212 45.8017 45.9612C45.7017 46.0012 45.5817 46.0112 45.5117 45.9912C44.6117 45.7312 44.6217 45.7312 44.4917 45.4512C44.4017 45.2612 44.3717 45.0612 44.3817 44.7312C44.3917 44.4712 44.4217 44.2812 44.4617 44.2812C44.4917 44.2812 44.4817 44.2312 44.4317 44.1712C44.3817 44.1012 44.3417 43.8612 44.3517 43.5812C44.3517 43.3212 44.3417 43.0112 44.3217 42.8812C44.3017 42.7612 44.2917 42.4712 44.2917 42.2512C44.2917 42.0212 44.2817 41.6612 44.2717 41.4312C44.2517 41.2012 44.2517 40.8412 44.2517 40.6212C44.2617 40.4112 44.2417 40.1812 44.2017 40.1312C44.1717 40.0812 44.1417 39.8412 44.1517 39.6112C44.1617 39.3712 44.1517 38.9612 44.1417 38.6812C44.1317 38.4012 44.1217 38.0512 44.1417 37.8912C44.1517 37.7312 44.1417 37.5712 44.1217 37.5312C44.0917 37.4912 44.0917 37.3612 44.1117 37.2412C44.1317 37.1212 44.1317 36.7812 44.1217 36.4612C44.1117 36.1412 44.1117 35.8112 44.1217 35.7012C44.1717 35.3312 44.1717 34.8212 44.1317 34.7512C44.0417 34.6112 44.0117 31.9912 44.0917 30.4712C44.1817 28.5712 44.1917 28.6612 43.9017 28.6912C43.5117 28.7312 43.3717 28.7312 42.9317 28.7212C42.7017 28.7112 42.4817 28.7212 42.4617 28.7312C42.4317 28.7412 42.2417 28.7312 42.0317 28.7012C41.6317 28.6512 41.4617 28.5512 41.4817 28.3812C41.4917 28.3212 41.4517 28.2912 41.3717 28.3012C41.1817 28.3312 41.0817 28.1812 41.0717 27.8512C41.0517 27.4012 41.0317 27.1012 41.0017 26.9912C40.9917 26.9612 40.9817 26.8812 40.9917 26.8512ZM46.7917 31.3612C46.7917 31.4112 46.7717 31.4412 46.7517 31.4412C46.7317 31.4412 46.6917 31.4112 46.6617 31.3612C46.6317 31.3112 46.6517 31.2812 46.7017 31.2812C46.7617 31.2812 46.7917 31.3112 46.7917 31.3612ZM34.4417 35.0312C34.4517 34.9412 34.4917 34.7212 34.5417 34.5312C34.5817 34.3512 34.6517 34.0412 34.6917 33.8512C34.7317 33.6612 34.7717 33.4712 34.7917 33.4212C34.8117 33.3712 34.8617 33.0912 34.9117 32.8012C35.0417 31.9912 35.2317 31.0712 35.3117 30.9112C35.3517 30.8312 35.3717 30.7612 35.3517 30.7412C35.3217 30.7112 35.4817 30.1812 35.7817 29.3212C35.8717 29.0512 35.9817 28.7212 36.0317 28.5812C36.0717 28.4412 36.1517 28.2412 36.2217 28.1212C36.2817 28.0112 36.4717 27.6512 36.6417 27.3412C36.8117 27.0212 37.0517 26.6312 37.1817 26.4812C37.3117 26.3212 37.4417 26.1512 37.4717 26.0912C37.5017 26.0312 37.5817 25.9912 37.6717 26.0012C37.8017 26.0112 38.7917 26.5212 39.2317 26.8112C39.3217 26.8712 39.4717 26.9212 39.5717 26.9312C39.6917 26.9412 39.7617 26.9912 39.8117 27.0912C39.8417 27.1712 39.9417 27.3112 40.0417 27.4012C40.1317 27.4912 40.2017 27.6112 40.2017 27.6612C40.1917 27.7212 40.2717 27.9112 40.3817 28.1012C40.5117 28.3312 40.6117 28.6612 40.6917 29.1712C40.9017 30.4112 40.9717 30.9812 40.9217 31.1312C40.8917 31.2112 40.9017 31.2712 40.9317 31.2812C41.0117 31.2912 41.0717 31.6012 41.0817 32.0812C41.0817 32.1912 41.0917 32.3412 41.1117 32.4312C41.2017 33.0212 41.2417 33.9912 41.2017 34.3212C41.1717 34.5412 41.1717 34.7312 41.2017 34.7512C41.2317 34.7712 41.2117 34.8412 41.1717 34.9012C41.1117 34.9912 41.1117 35.0612 41.1717 35.1712C41.2217 35.2612 41.2417 35.5512 41.2217 35.9412C41.2117 36.2912 41.2117 36.6412 41.2417 36.7312C41.2617 36.8212 41.2817 37.0412 41.2617 37.2212C41.2517 37.4012 41.2617 37.5912 41.2817 37.6312C41.3017 37.6712 41.3117 37.8712 41.3017 38.0512C41.2517 39.0012 41.2317 39.7212 41.2517 39.8112C41.2717 39.9112 41.3217 41.3612 41.3217 41.9312C41.3217 42.1112 41.3217 42.3112 41.3217 42.4012C41.3217 42.4912 41.3417 42.6012 41.3717 42.6512C41.4017 42.7012 41.4217 42.8212 41.4217 42.9112C41.4217 43.0012 41.4417 43.2012 41.4717 43.3512C41.5017 43.5412 41.4917 43.6512 41.4417 43.6912C41.3917 43.7312 41.3917 43.7812 41.4317 43.8412C41.4917 43.9312 41.5917 44.7012 41.5917 45.2012C41.5917 45.3612 41.6217 45.5212 41.6517 45.5612C41.6817 45.6112 41.6917 45.6712 41.6617 45.7012C41.6317 45.7312 41.6517 45.8512 41.7017 45.9512C41.7517 46.0612 41.7717 46.1812 41.7517 46.2312C41.7017 46.3412 41.2517 46.3612 40.8917 46.2612C40.6017 46.1812 40.0617 45.8712 39.9617 45.7112C39.8817 45.5912 39.3017 41.4612 39.2917 40.9012C39.2817 40.5212 39.2717 40.4112 39.2017 39.5012C39.1717 39.1112 39.1517 38.4412 39.1517 38.0112C39.1517 37.0412 39.1217 35.6012 39.0917 35.3012C39.0717 35.1012 39.0417 35.0712 38.8517 35.0412C38.7117 35.0112 38.6117 35.0312 38.5617 35.0912C38.5217 35.1412 38.3417 35.2012 38.1717 35.2212C37.3417 35.3212 36.9417 35.4212 36.8917 35.5512C36.8117 35.7312 36.7217 36.2512 36.6917 36.6812C36.6717 36.9212 36.6117 37.2212 36.5617 37.3612C36.5117 37.5012 36.4517 37.7312 36.4217 37.8912C36.4017 38.0412 36.3417 38.3512 36.2917 38.5712C36.2117 38.9712 36.1917 39.1312 36.1317 39.8812C36.1017 40.2612 35.9417 41.6812 35.8317 42.5012C35.8017 42.6912 35.7617 42.8812 35.7317 42.9212C35.7017 42.9612 35.7017 43.0512 35.7317 43.1212C35.7617 43.2012 35.7617 43.3312 35.7117 43.4912C35.6317 43.7312 35.6217 43.8812 35.6517 44.3812C35.6617 44.5412 35.6617 44.7312 35.6517 44.8212C35.5717 45.4312 35.5717 45.5912 35.6217 45.7612C35.6917 46.0012 35.6117 46.1112 35.3317 46.1512C35.2317 46.1612 35.1417 46.2112 35.1417 46.2612C35.1317 46.3912 34.8817 46.3512 34.8017 46.2112C34.7317 46.1012 34.7217 46.1012 34.5917 46.1912C34.4717 46.2812 34.4117 46.2812 34.0417 46.1912C33.3417 46.0112 33.2117 45.8312 33.1817 44.9712C33.1617 44.2912 33.3817 41.6012 33.5317 40.6012C33.6517 39.8212 33.8117 38.8512 33.8917 38.3012C33.9217 38.0812 34.0417 37.4512 34.1417 36.9112C34.3317 35.7912 34.4217 35.2612 34.4417 35.0312ZM32.4417 24.8212C32.4717 24.7712 32.5217 24.7412 32.5717 24.7412C32.6217 24.7412 32.6317 24.7712 32.6017 24.8212C32.5717 24.8712 32.5217 24.9012 32.4717 24.9012C32.4217 24.9112 32.4117 24.8712 32.4417 24.8212ZM32.2617 22.5612C32.4317 22.5612 32.4317 22.5712 32.2717 22.6812C32.1817 22.7512 32.0817 22.7812 32.0417 22.7612C31.9317 22.6912 32.0717 22.5612 32.2617 22.5612ZM30.2917 22.8112C30.3617 22.8112 30.4017 22.8612 30.3817 22.9112C30.3317 23.0412 30.0817 23.2012 30.0217 23.1312C29.9417 23.0512 30.1417 22.8112 30.2917 22.8112ZM26.8017 32.1812C26.8217 32.2412 26.8217 32.3312 26.8017 32.3912C26.7817 32.4512 26.7617 32.4012 26.7617 32.2912C26.7617 32.1812 26.7717 32.1212 26.8017 32.1812ZM26.5317 24.4912C26.5617 24.4412 26.5917 24.4112 26.6217 24.4112C26.6417 24.4112 26.6617 24.4412 26.6617 24.4912C26.6617 24.5412 26.6217 24.5712 26.5717 24.5712C26.5217 24.5712 26.5017 24.5412 26.5317 24.4912ZM26.4017 32.9112C26.4417 32.9412 26.4817 33.0612 26.4817 33.1712C26.4817 33.2812 26.4417 33.3812 26.4017 33.3812C26.3517 33.3812 26.3217 33.2712 26.3217 33.1212C26.3217 32.9612 26.3617 32.8812 26.4017 32.9112ZM26.2517 37.1812C26.3217 36.9012 26.5517 36.2412 26.6317 36.1012C26.6717 36.0312 26.7717 35.8112 26.8717 35.6112C27.0817 35.1612 27.5117 34.6012 28.1217 34.0012L28.5717 33.5612L28.2517 33.2012C27.7617 32.6312 27.4917 32.1012 27.3017 31.3312C26.9817 29.9912 27.0517 29.4612 27.6617 28.3812C27.7817 28.1712 27.8817 27.9612 27.8817 27.9212C27.8817 27.8712 27.9917 27.7512 28.1117 27.6412C28.2317 27.5312 28.4617 27.3112 28.6317 27.1512C28.9317 26.8412 29.6017 26.3912 29.7017 26.4312C29.7317 26.4412 29.8917 26.4012 30.0617 26.3412C30.4917 26.2012 31.1817 26.1412 31.5417 26.2312C31.7217 26.2712 31.8617 26.2812 31.8817 26.2412C31.9017 26.2112 31.9617 26.2012 32.0017 26.2212C32.0417 26.2412 32.1817 26.1712 32.3117 26.0612L32.5417 25.8612L32.6717 26.0212C32.7417 26.1112 32.7917 26.2112 32.7917 26.2512C32.7917 26.2812 32.8217 26.3212 32.8717 26.3212C32.9217 26.3212 33.0117 26.4012 33.0817 26.5012C33.1517 26.5912 33.2417 26.6712 33.2817 26.6812C33.3917 26.6912 33.9417 27.3112 33.9317 27.4112C33.9317 27.4612 33.8917 27.4912 33.8517 27.4912C33.8117 27.4912 33.8017 27.5312 33.8117 27.5812C33.8317 27.6312 33.8517 27.7212 33.8717 27.7712C33.8917 27.8212 33.8717 27.8612 33.8317 27.8612C33.7917 27.8612 33.6917 27.9112 33.6117 27.9712C33.5317 28.0312 33.3817 28.0912 33.2917 28.1012C33.2017 28.1112 33.0817 28.1612 33.0417 28.2012C33.0017 28.2512 32.9317 28.2812 32.8917 28.2712C32.8517 28.2712 32.7317 28.3412 32.6117 28.4412C32.5017 28.5412 32.3017 28.6612 32.1617 28.7312C32.0217 28.7912 31.9117 28.8612 31.9117 28.8912C31.9117 28.9112 31.7517 29.0912 31.5717 29.2712C31.3917 29.4512 31.2117 29.6912 31.1817 29.7912C31.1517 29.8912 31.0317 30.0812 30.9117 30.2012C30.8017 30.3312 30.7017 30.4712 30.7017 30.5112C30.7017 30.5512 30.6617 30.5912 30.6317 30.5912C30.6017 30.5912 30.5617 30.6512 30.5617 30.7212C30.5517 30.8012 30.4717 31.0112 30.3817 31.1912C29.9617 32.0412 30.1017 32.8512 30.7417 33.1712C30.7717 33.1912 30.8917 33.2912 31.0117 33.4012C31.1317 33.5112 31.2417 33.6012 31.2617 33.6012C31.3517 33.6112 32.1417 34.6212 32.1317 34.7112C32.1317 34.7612 32.1717 34.8412 32.2417 34.8812C32.3717 34.9712 32.3717 35.1912 32.2417 35.4012C32.1217 35.5812 31.7517 35.9012 31.6617 35.8912C31.6217 35.8912 31.5917 35.9112 31.5917 35.9312C31.5917 35.9612 31.4417 36.0712 31.2517 36.1912C31.0717 36.3012 30.7817 36.5612 30.6217 36.7612C30.2217 37.2512 30.2217 37.2512 29.7217 37.9712C29.5417 38.2312 29.4917 38.3412 29.4817 38.4612C29.4717 38.5412 29.4117 38.6512 29.3517 38.7112C29.2417 38.8212 29.2117 38.9712 29.0117 40.7112L28.9417 41.3312L29.1617 41.8512C29.2817 42.1312 29.3617 42.4012 29.3417 42.4412C29.3217 42.4812 29.3817 42.6012 29.4717 42.7012C29.5617 42.8112 29.6317 42.9312 29.6317 42.9712C29.6317 43.0112 29.6617 43.0812 29.7117 43.1312C29.7617 43.1712 29.7817 43.2512 29.7617 43.2912C29.7017 43.4212 30.4517 44.0412 30.7317 44.0812C30.8517 44.1012 31.0217 44.1612 31.1017 44.2212C31.1817 44.2812 31.3417 44.3812 31.4717 44.4312C31.6017 44.4912 31.6917 44.5512 31.6917 44.5812C31.6917 44.6112 31.7517 44.6412 31.8317 44.6412C32.0517 44.6612 32.1317 44.8212 31.9917 44.9612C31.9017 45.0512 31.8317 45.0612 31.7017 45.0212C31.5717 44.9812 31.5217 44.9912 31.5217 45.0612C31.5117 45.1712 31.3817 45.2212 31.1817 45.2012C31.1117 45.1912 31.0017 45.2412 30.9517 45.3112C30.8517 45.4412 30.6717 45.4512 30.5717 45.3312C30.5217 45.2712 30.5017 45.2712 30.5017 45.3212C30.4917 45.4212 29.7217 45.3512 29.3317 45.2212C28.8917 45.0712 28.1317 44.6012 27.7917 44.2712C27.4217 43.9212 26.9717 43.1912 26.6917 42.5212C26.3917 41.7912 26.1017 40.5612 26.0717 39.9512C26.0717 39.8612 26.0517 39.6112 26.0317 39.3812C25.9817 39.0312 26.1217 37.6812 26.2517 37.1812ZM26.0617 31.9012C26.0717 32.2912 26.0517 32.6012 26.0017 32.6512C25.9417 32.7112 25.9117 32.5512 25.9117 32.1412C25.9117 31.2812 26.0317 31.0912 26.0617 31.9012ZM25.5917 28.0512C25.7017 27.8012 25.8317 27.7612 25.7717 28.0012C25.7517 28.0912 25.6717 28.2112 25.6117 28.2712C25.4717 28.3812 25.4617 28.3312 25.5917 28.0512ZM25.0417 31.6412C25.0717 31.6712 25.0717 31.7412 25.0517 31.8012C25.0217 31.8712 25.0117 31.8512 25.0017 31.7512C24.9917 31.6612 25.0117 31.6112 25.0417 31.6412ZM24.6117 33.9612C24.6317 33.9612 24.6717 33.9912 24.7017 34.0412C24.7317 34.0912 24.7117 34.1212 24.6617 34.1212C24.6117 34.1212 24.5717 34.0812 24.5717 34.0412C24.5717 33.9912 24.5917 33.9612 24.6117 33.9612ZM23.8617 41.5012C23.8817 41.5012 23.9117 41.5612 23.9417 41.6312C23.9617 41.7012 23.9517 41.7612 23.9117 41.7612C23.8717 41.7612 23.8317 41.7012 23.8317 41.6312C23.8317 41.5612 23.8417 41.5012 23.8617 41.5012ZM23.1617 31.1912C23.2017 31.1912 23.2417 31.2512 23.2417 31.3212C23.2417 31.3912 23.2217 31.4512 23.2117 31.4512C23.1917 31.4512 23.1617 31.3912 23.1317 31.3212C23.1117 31.2512 23.1217 31.1912 23.1617 31.1912ZM23.1317 32.8512C23.1517 32.9112 23.1517 33.0012 23.1317 33.0612C23.1117 33.1212 23.0917 33.0712 23.0917 32.9612C23.0917 32.8312 23.1117 32.7912 23.1317 32.8512ZM22.6817 34.0212C22.7617 34.1012 22.7617 34.1512 22.6817 34.2212C22.6017 34.3012 22.5817 34.2812 22.5817 34.1212C22.5817 33.9712 22.6017 33.9412 22.6817 34.0212ZM22.1617 42.5312V42.7112L21.9917 42.5112C21.7817 42.2612 21.7917 42.1412 22.0017 42.2512C22.0917 42.3012 22.1617 42.4312 22.1617 42.5312ZM21.8017 33.3412C21.9017 33.1712 21.9717 33.4512 21.9317 33.8912C21.9117 34.1512 21.8617 34.3712 21.8217 34.3712C21.7617 34.3812 21.7417 33.4512 21.8017 33.3412ZM21.7117 37.7912C21.7817 37.6812 21.8317 37.7212 21.8317 37.9212C21.8317 38.0612 21.8117 38.0812 21.7517 37.9812C21.7117 37.9212 21.6917 37.8312 21.7117 37.7912ZM21.0817 40.8712C21.1217 40.9012 21.1617 40.9812 21.1617 41.0512C21.1617 41.1212 21.1217 41.1512 21.0817 41.1312C21.0417 41.1012 21.0017 41.0212 21.0017 40.9512C21.0017 40.8812 21.0317 40.8412 21.0817 40.8712ZM20.8317 33.1212C20.8817 33.1212 20.9117 33.1512 20.9117 33.2012C20.9117 33.2512 20.8817 33.2812 20.8317 33.2812C20.7817 33.2812 20.7517 33.2512 20.7517 33.2012C20.7517 33.1512 20.7817 33.1212 20.8317 33.1212ZM20.3817 25.3012C20.4117 25.2712 20.4517 25.2612 20.4817 25.2912C20.5117 25.3112 20.4817 25.3712 20.4317 25.4312C20.3717 25.4912 20.3317 25.4912 20.3317 25.4412C20.3317 25.3912 20.3517 25.3312 20.3817 25.3012ZM19.9617 37.2812C20.0317 37.2112 20.1617 37.2912 20.1617 37.4012C20.1617 37.4412 20.1017 37.4812 20.0417 37.4812C19.9117 37.4812 19.8717 37.3812 19.9617 37.2812ZM19.8917 35.2812C19.9117 35.3412 19.9117 35.4512 19.8917 35.5312C19.8717 35.6112 19.8517 35.5712 19.8517 35.4312C19.8517 35.2812 19.8717 35.2212 19.8917 35.2812ZM19.7917 39.4812C19.8617 39.5412 19.9117 39.6512 19.9117 39.7212C19.9117 39.8412 19.8917 39.8312 19.7917 39.7012C19.6317 39.5012 19.6317 39.3512 19.7917 39.4812ZM19.2117 38.3112C19.2717 38.3112 19.3317 38.3712 19.3317 38.4412C19.3317 38.5112 19.2917 38.5712 19.2517 38.5712C19.2117 38.5712 19.1517 38.5112 19.1317 38.4412C19.1117 38.3612 19.1417 38.3112 19.2117 38.3112ZM17.5617 31.3512C17.6217 31.0812 17.6217 31.0812 17.6717 31.2812C17.7017 31.4012 17.7017 31.5712 17.6917 31.6712C17.6517 31.8712 17.5117 31.9312 17.5117 31.7512C17.5017 31.6812 17.5317 31.5012 17.5617 31.3512ZM37.4817 33.4512C37.7017 33.4712 38.4517 33.4312 38.8117 33.3912C38.9317 33.3812 38.9617 33.3312 38.9817 33.1412C39.0217 32.6912 38.8517 30.8812 38.7617 30.7612C38.7117 30.7012 38.6317 30.3512 38.5917 29.9912C38.4817 29.1412 38.4517 29.0712 38.3317 29.3712C38.2817 29.5112 38.2117 29.7512 38.1717 29.9212C38.1417 30.0912 38.0817 30.2712 38.0417 30.3312C38.0017 30.3912 37.9717 30.5012 37.9617 30.5812C37.9517 30.6612 37.9217 30.7512 37.8817 30.7812C37.8417 30.8112 37.7617 31.1812 37.6817 31.6112C37.6117 32.0412 37.4817 32.5812 37.4117 32.8112C37.2117 33.4612 37.2017 33.4312 37.4817 33.4512Z" fill="black"/>
</svg>
