<svg width="132" height="67" viewBox="0 0 132 67" fill="none" xmlns="http://www.w3.org/2000/svg">
<path d="M41.2354 27.0654C39.1654 28.1254 37.6554 30.1054 35.7254 31.6054C35.3854 30.4654 35.0954 29.4954 34.7154 28.2354C34.2054 28.7954 33.9054 29.0354 33.7354 29.3454C33.1554 30.3454 32.4954 31.3154 32.0954 32.3954C30.2054 37.4954 26.9854 41.8254 24.0654 46.5754C24.0554 45.9554 24.0154 45.5054 24.0354 45.0554C24.2254 41.2454 25.1054 37.5954 26.3554 34.0054C27.0054 32.1454 28.2854 31.3654 30.0354 31.1154C32.7254 30.7254 33.6354 29.3554 32.8454 26.8154C32.3054 25.1054 31.1454 24.1854 29.6954 24.3454C28.1954 24.5054 27.3454 25.5754 27.0054 27.3354C26.6554 29.1154 26.1354 30.8554 25.6554 32.6154C24.8954 35.4354 24.1054 38.2554 23.3354 41.0754C23.2054 41.5454 23.1054 42.0254 22.9954 42.4954C22.1454 40.1554 21.6754 37.8254 21.0654 35.5454C20.6954 34.1954 20.7954 32.9554 21.4054 31.7354C21.8854 30.7754 22.4554 29.8554 22.9454 28.8954C23.9554 26.9054 25.1154 24.9754 25.8854 22.8954C26.4454 21.3854 27.2354 20.4054 28.7054 19.8254C31.8854 18.5654 33.9454 15.8854 36.2854 13.5754C36.4654 13.3954 36.4954 13.0654 36.6954 12.5654C33.4254 12.6754 30.7654 14.4154 27.7054 14.8254C27.7554 13.9054 27.8054 13.1354 27.8354 12.3654C27.9554 8.97541 28.0854 5.58541 28.1754 2.19541C28.1854 1.74541 27.9854 1.28541 27.8754 0.82541C27.6954 0.81541 27.5154 0.80541 27.3354 0.79541C26.9154 1.83541 26.3854 2.84541 26.0954 3.91541C24.9354 8.23541 23.8454 12.5654 22.7254 16.8954C22.5754 17.4954 22.5654 18.1954 22.2254 18.6654C21.1154 20.1854 19.8954 21.6254 18.5854 23.2554C18.4054 21.7554 18.9754 20.6654 19.6354 19.5654C20.8554 17.5454 20.3454 14.9354 18.4854 13.8754C16.8854 12.9654 15.2054 13.0254 13.6954 14.0854C12.2054 15.1354 11.4654 16.6554 11.8054 18.5054C12.1454 20.3154 13.4154 21.2254 15.1354 21.5754C15.4354 21.6354 15.8054 21.5854 16.0154 21.7554C16.4654 22.1154 17.0654 22.5154 17.1854 23.0054C17.8054 25.5054 18.2954 28.0254 18.8354 30.5454C17.9754 30.1654 17.5454 29.5554 17.0254 29.0354C15.6054 27.6354 14.3154 26.0154 12.6654 24.9754C10.9454 23.8954 9.44537 22.6754 8.10537 21.1854C7.38537 20.3854 6.61537 19.6254 5.82537 18.8954C5.28537 18.4054 4.66537 18.0154 3.71537 17.2954C3.48537 19.9954 5.20537 21.6954 5.43537 23.7454C3.69537 24.3854 1.80537 23.9954 0.00537109 25.4154C1.35537 26.0954 2.47537 26.6654 3.59537 27.2354C5.91537 28.4154 8.29537 29.5654 9.91537 31.6954C11.5754 33.8654 13.4954 35.7054 15.7554 37.2154C16.9654 38.0254 18.2154 38.8154 19.3154 39.7654C21.0654 41.2754 22.0154 43.2054 21.9854 45.8154C20.3354 44.7254 18.9554 43.6254 17.4154 42.8554C15.7654 42.0354 14.2254 41.1254 12.9154 39.8254C12.4354 39.3454 12.0454 38.7554 11.5454 38.3054C9.96537 36.8654 7.62537 37.1554 6.81537 38.8454C6.23537 40.0554 6.58537 41.9954 7.53537 42.9454C8.51537 43.9254 9.53537 43.9754 11.1254 43.3754C12.0254 43.0354 13.1354 42.5754 13.9454 42.8254C16.0354 43.4654 18.0754 44.3854 19.9154 46.2754C18.8554 46.1954 18.1054 46.0654 17.3754 46.0954C16.0054 46.1454 14.5254 45.9754 13.2954 46.4554C10.3754 47.5854 7.49537 48.1354 4.39537 47.4754C3.67537 47.3254 2.65537 47.1454 2.13537 48.4854C3.03537 49.4554 3.99537 50.5054 4.95537 51.5354C4.49537 53.2054 2.64537 54.0654 2.55537 55.9254C2.88537 56.0054 3.10537 56.1154 3.31537 56.0954C3.77537 56.0454 4.28537 56.0354 4.65537 55.8154C7.57537 54.0954 10.6054 54.1554 13.8654 54.6854C16.1654 55.0554 18.5954 54.5854 20.9654 54.4254C23.4854 54.2554 23.5954 54.2954 24.6754 56.5054C25.0254 57.2254 25.8254 66.7854 27.0354 66.8254C27.1954 66.5954 27.5354 66.3354 27.5054 66.1254C27.2554 64.4954 26.4754 58.1454 26.7454 56.2554C27.3454 55.9254 30.0554 53.9454 30.6854 53.6654C35.5154 51.5454 38.8054 47.9654 40.6154 42.9954C40.7654 42.5854 40.7854 42.1254 40.9054 41.5254C39.1454 41.7954 38.0754 42.9554 36.8454 43.7754C35.5954 44.6054 34.4254 45.5754 33.2354 46.4654C33.9954 44.6454 34.8354 43.0054 35.3554 41.2654C35.6754 40.1954 36.0354 39.2854 36.7854 38.4454C39.1854 35.7554 40.8354 32.6454 41.6554 29.1154C41.8054 28.4754 42.2554 27.7754 41.2354 27.0654ZM27.5954 15.7954C29.8154 15.1254 32.0954 14.4354 34.3654 13.7454C32.4154 16.3054 30.3054 18.4754 26.9954 19.7054C27.2154 18.3254 27.3854 17.1954 27.5954 15.7954ZM26.9854 4.72541C26.5854 12.7954 27.0954 21.0654 21.8854 28.0854C22.7554 20.1154 24.4954 12.3354 26.9854 4.72541ZM21.8954 20.3454C21.7954 22.0954 21.8554 23.6954 19.7954 24.1954C20.0554 22.4654 20.2654 22.0854 21.8954 20.3454ZM21.2454 24.4454C20.9254 26.6054 20.6554 28.4154 20.3854 30.2254C20.2754 30.2254 20.1554 30.2354 20.0454 30.2354C19.7054 28.7554 19.3654 27.2754 19.0154 25.7454C19.6854 25.3654 20.2654 25.0254 21.2454 24.4454ZM18.5854 32.4954C17.7954 33.0954 17.0854 32.8054 16.7054 32.2954C15.3554 30.4754 14.1154 28.5654 12.8254 26.6954C15.3754 28.0354 16.8354 30.3354 18.5854 32.4954ZM2.55537 25.7454C2.54537 25.5854 2.52537 25.4154 2.51537 25.2554C3.65537 25.0754 4.80537 24.8954 5.98537 24.7154C6.68537 26.0754 7.29537 27.2654 8.03537 28.7154C6.01537 27.6254 4.28537 26.6854 2.55537 25.7454ZM5.59537 20.5954C8.83537 22.6054 15.8754 31.6754 18.4454 37.1454C13.3054 35.6254 8.41537 28.8854 5.59537 20.5954ZM20.2754 38.2154C19.4754 36.8854 18.6854 35.5554 17.8154 34.0954C19.0854 33.6254 19.6854 34.0054 19.9154 35.1354C20.1154 36.1154 20.3554 37.0854 20.5854 38.0554C20.4754 38.1054 20.3754 38.1554 20.2754 38.2154ZM21.7654 48.2454C17.9254 50.4054 14.6254 49.5154 11.3554 48.0654C14.7054 46.7854 18.0454 46.3554 21.7654 48.2454ZM4.13537 55.2354C4.03537 55.1054 3.92537 54.9654 3.82537 54.8354C4.41537 54.0054 5.00537 53.1754 5.88537 51.9454C6.63537 52.4754 7.22537 52.8854 8.18537 53.5554C6.58537 54.2154 5.36537 54.7254 4.13537 55.2354ZM4.06537 48.7054C10.5554 49.2354 16.3154 50.7954 21.9854 52.7954C15.6554 53.8654 9.37537 54.6454 4.06537 48.7054ZM19.2854 50.2854C20.7154 49.9554 21.7054 49.7254 22.7454 49.4854C22.9154 50.2254 23.0554 50.8454 23.2654 51.7554C21.9454 51.2654 20.8454 50.8554 19.2854 50.2854ZM34.2754 30.2354C35.5554 33.2254 33.1054 34.1654 32.0254 35.7754C31.8554 35.6954 31.6954 35.6154 31.5254 35.5354C32.4054 33.8354 33.2954 32.1154 34.2754 30.2354ZM27.2854 46.0054C27.1054 48.1354 27.1054 48.1354 25.0254 49.3654C25.3254 47.6854 26.1054 46.7654 27.2854 46.0054ZM26.0054 54.5154C25.7254 53.2854 25.5054 52.3354 25.2654 51.3154C27.5054 50.0254 29.7654 48.7254 32.2354 47.3054C30.1454 49.7254 28.2054 51.9754 26.0054 54.5154ZM38.6854 43.8854C38.0154 47.2454 32.9254 51.7254 29.2154 52.4954C30.6854 49.9454 35.7854 45.2954 38.6854 43.8854ZM28.0954 48.4754C27.8754 44.1954 31.5154 43.2554 34.0154 41.2754C34.1254 44.0054 31.7354 46.8854 28.0954 48.4754ZM26.7554 44.7454C27.4654 42.1554 36.5854 31.8554 39.8454 29.9554C39.3354 34.6554 34.4654 40.4654 26.7554 44.7454ZM63.5854 27.2654C63.4854 27.0154 63.4354 26.6554 63.4354 26.2054V19.6454C63.4354 18.8154 63.3754 18.1654 63.2554 17.6654C63.1354 17.1754 62.9454 16.7754 62.6754 16.4654C62.4054 16.1554 62.0654 15.9254 61.6354 15.7654C61.2154 15.6054 60.6754 15.5254 60.0054 15.5254C58.0854 15.5254 56.7654 16.2754 56.0254 17.7854V15.5954C55.0954 15.8154 53.9154 15.9254 52.4854 15.9254C51.9954 15.9254 51.4954 15.9054 50.9854 15.8554V16.3654C51.5654 16.3654 51.9654 16.5354 52.1954 16.8754C52.4254 17.2154 52.5354 17.7554 52.5354 18.5154V26.2054C52.5354 26.6554 52.4854 27.0154 52.3854 27.2654C52.2854 27.5154 52.1254 27.6954 51.8954 27.8054C51.6654 27.9054 51.3654 27.9554 50.9754 27.9554V28.4654C52.7154 28.4054 53.8254 28.3654 54.3254 28.3654C54.8454 28.3654 55.8454 28.3954 57.3354 28.4654V27.9554C57.0154 27.9554 56.7554 27.9054 56.5654 27.8054C56.3754 27.7054 56.2354 27.5254 56.1554 27.2654C56.0654 27.0154 56.0254 26.6554 56.0254 26.2054V19.4254C56.0254 18.9054 56.1354 18.4254 56.3454 17.9954C56.5554 17.5654 56.8454 17.2254 57.2154 16.9754C57.5854 16.7254 57.9854 16.6054 58.4254 16.6054C58.9954 16.6054 59.3854 16.7754 59.6054 17.1154C59.8254 17.4554 59.9354 17.9554 59.9354 18.6254V26.2054C59.9354 26.6554 59.8954 27.0154 59.8154 27.2654C59.7354 27.5154 59.5954 27.6954 59.4054 27.8054C59.2154 27.9054 58.9554 27.9554 58.6254 27.9554V28.4654C60.2354 28.4054 61.2854 28.3654 61.7854 28.3654C62.3054 28.3654 63.3754 28.3954 64.9854 28.4654V27.9554C64.5954 27.9554 64.2954 27.9054 64.0754 27.8054C63.8554 27.6954 63.6954 27.5154 63.5854 27.2654ZM77.4854 27.3154C77.1454 27.5954 76.8454 27.7354 76.5854 27.7354C76.3954 27.7354 76.2654 27.6554 76.1854 27.4954C76.1054 27.3354 76.0754 27.0554 76.0754 26.6554V20.0254C76.0754 19.1154 76.0154 18.4054 75.8954 17.8954C75.7754 17.3854 75.5454 16.9654 75.2054 16.6254C74.5054 15.8954 73.3254 15.5254 71.6654 15.5254C70.1854 15.5254 68.9554 15.7954 67.9754 16.3454C67.0754 16.8654 66.6254 17.5554 66.6254 18.3954C66.6254 18.9354 66.7854 19.3854 67.0954 19.7354C67.4054 20.0954 67.8254 20.2754 68.3454 20.2754C68.7354 20.2754 69.0754 20.1954 69.3754 20.0454C69.6754 19.8854 69.9054 19.6854 70.0654 19.4154C70.2254 19.1454 70.3054 18.8454 70.3054 18.5154C70.3054 18.0354 70.1754 17.6254 69.9254 17.3054C69.6754 16.9854 69.3254 16.7454 68.8754 16.5954C69.0854 16.3954 69.3454 16.2454 69.6554 16.1454C69.9754 16.0454 70.2854 15.9954 70.6054 15.9954C71.2854 15.9954 71.7854 16.1854 72.1054 16.5754C72.4254 16.9654 72.5854 17.4954 72.5854 18.1654V20.0554C72.5854 20.3854 72.4354 20.6954 72.1254 20.9754C71.8154 21.2554 71.3154 21.5254 70.6254 21.7954C69.9354 22.0654 69.5254 22.2154 69.3954 22.2654C68.2354 22.6954 67.3754 23.1854 66.8254 23.7454C66.2754 24.3054 65.9954 25.0054 65.9954 25.8554C65.9954 26.7254 66.2754 27.4054 66.8254 27.8954C67.3854 28.3854 68.1254 28.6254 69.0454 28.6254C69.7754 28.6254 70.4554 28.4654 71.0954 28.1354C71.7354 27.8054 72.2554 27.3154 72.6454 26.6554C72.6454 27.2454 72.8254 27.7154 73.1854 28.0854C73.5454 28.4554 74.1354 28.6354 74.9554 28.6354C75.5654 28.6354 76.0854 28.5654 76.5154 28.4254C76.9454 28.2854 77.3554 28.0554 77.7254 27.7454L77.4854 27.3154ZM72.5854 26.0754C72.1254 26.7454 71.5754 27.0754 70.9454 27.0754C70.4954 27.0754 70.1354 26.9154 69.8554 26.6054C69.5754 26.2954 69.4454 25.8154 69.4454 25.1854C69.4454 24.5154 69.5954 23.9654 69.8854 23.5154C70.1754 23.0654 70.5754 22.6654 71.0954 22.3054C71.5254 22.0354 71.8654 21.8054 72.0954 21.6254C72.3254 21.4354 72.4954 21.2554 72.5954 21.0854V26.0754H72.5854ZM79.8754 24.5854C79.8754 25.4854 79.9354 26.1954 80.0554 26.7054C80.1754 27.2154 80.4054 27.6354 80.7454 27.9754C81.2954 28.5354 82.1054 28.8054 83.1754 28.8054C84.7754 28.8054 85.8854 27.9654 86.4854 26.2954L86.0754 26.0654C85.6654 27.0454 85.1154 27.5254 84.4354 27.5254C84.0754 27.5254 83.8054 27.4254 83.6354 27.2254C83.4654 27.0254 83.3754 26.6754 83.3754 26.1954V16.3654H86.2354V15.8754H83.3754V11.8554C82.3854 12.3754 81.2154 12.6454 79.8854 12.6454V15.8854H77.8554V16.3754H79.8854V24.5854H79.8754ZM87.8954 16.8854C88.1254 17.2254 88.2454 17.7654 88.2454 18.5154V24.6954C88.2454 25.5054 88.3054 26.1554 88.4154 26.6554C88.5254 27.1554 88.7254 27.5554 88.9854 27.8554C89.5354 28.4854 90.4154 28.8054 91.6254 28.8054C93.4954 28.8054 94.7954 28.0454 95.5254 26.5354V28.7354C96.4654 28.5054 97.6454 28.3954 99.0654 28.3954C99.5654 28.3954 100.065 28.4154 100.565 28.4654V27.9554C99.9954 27.9554 99.5954 27.7854 99.3654 27.4454C99.1354 27.1054 99.0154 26.5654 99.0154 25.8054V15.5954C98.0654 15.8154 96.8854 15.9254 95.4754 15.9254C94.9854 15.9254 94.4854 15.9054 93.9754 15.8554V16.3654C94.5454 16.3654 94.9454 16.5354 95.1754 16.8754C95.4054 17.2154 95.5254 17.7554 95.5254 18.5054V24.8954C95.5254 25.4154 95.4154 25.8954 95.2054 26.3254C94.9954 26.7554 94.7054 27.0954 94.3454 27.3454C93.9854 27.5954 93.5954 27.7254 93.1654 27.7254C92.6054 27.7254 92.2254 27.5554 92.0254 27.2054C91.8254 26.8554 91.7254 26.3554 91.7254 25.6754V15.5954C90.7754 15.8154 89.5954 15.9254 88.1854 15.9254C87.6954 15.9254 87.1954 15.9054 86.6854 15.8554V16.3654C87.2654 16.3654 87.6654 16.5454 87.8954 16.8854ZM108.965 28.4654V27.9554C108.165 27.9554 107.585 27.8154 107.225 27.5254C106.865 27.2354 106.685 26.7154 106.685 25.9554V19.4954C106.685 19.0554 106.785 18.6154 106.975 18.1554C107.165 17.6954 107.435 17.2954 107.775 16.9754C108.115 16.6454 108.485 16.4454 108.895 16.3854C109.035 16.3454 109.165 16.3254 109.275 16.3254C109.365 16.3254 109.465 16.3354 109.575 16.3654C108.865 16.8554 108.505 17.4954 108.505 18.2654C108.505 18.7454 108.665 19.1254 108.985 19.4054C109.305 19.6854 109.745 19.8254 110.295 19.8254C110.865 19.8254 111.325 19.6354 111.665 19.2554C112.015 18.8754 112.185 18.3854 112.185 17.7754C112.185 17.3854 112.105 17.0254 111.945 16.6854C111.785 16.3454 111.545 16.0754 111.215 15.8554C110.885 15.6454 110.475 15.5354 109.985 15.5354C109.255 15.5354 108.595 15.7554 108.015 16.1854C107.435 16.6154 106.995 17.1754 106.685 17.8654V15.5954C105.755 15.8154 104.575 15.9254 103.145 15.9254C102.655 15.9254 102.155 15.9054 101.645 15.8554V16.3654C102.225 16.3654 102.625 16.5354 102.855 16.8754C103.085 17.2154 103.195 17.7554 103.195 18.5154V26.2054C103.195 26.6554 103.145 27.0154 103.045 27.2654C102.945 27.5154 102.785 27.6954 102.555 27.8054C102.325 27.9054 102.025 27.9554 101.635 27.9554V28.4654C103.435 28.4054 104.585 28.3654 105.105 28.3654C105.665 28.3654 106.945 28.3954 108.965 28.4654ZM119.205 20.9854C118.895 21.2654 118.395 21.5354 117.705 21.8054C117.015 22.0754 116.605 22.2254 116.475 22.2754C115.315 22.7054 114.455 23.1954 113.905 23.7554C113.355 24.3154 113.075 25.0154 113.075 25.8654C113.075 26.7354 113.355 27.4154 113.905 27.9054C114.465 28.3954 115.205 28.6354 116.125 28.6354C116.855 28.6354 117.535 28.4754 118.175 28.1454C118.815 27.8154 119.335 27.3254 119.725 26.6654C119.725 27.2554 119.905 27.7254 120.265 28.0954C120.625 28.4654 121.215 28.6454 122.035 28.6454C122.645 28.6454 123.165 28.5754 123.595 28.4354C124.025 28.2954 124.435 28.0654 124.805 27.7554L124.555 27.3354C124.215 27.6154 123.915 27.7554 123.655 27.7554C123.465 27.7554 123.335 27.6754 123.255 27.5154C123.175 27.3554 123.145 27.0754 123.145 26.6754V20.0454C123.145 19.1354 123.085 18.4254 122.965 17.9154C122.845 17.4054 122.615 16.9854 122.275 16.6454C121.575 15.9154 120.395 15.5454 118.735 15.5454C117.255 15.5454 116.025 15.8154 115.045 16.3654C114.145 16.8854 113.695 17.5754 113.695 18.4154C113.695 18.9554 113.855 19.4054 114.165 19.7554C114.475 20.1154 114.895 20.2954 115.415 20.2954C115.805 20.2954 116.145 20.2154 116.445 20.0654C116.745 19.9054 116.975 19.7054 117.135 19.4354C117.295 19.1654 117.375 18.8654 117.375 18.5354C117.375 18.0554 117.245 17.6454 116.995 17.3254C116.745 17.0054 116.395 16.7654 115.945 16.6154C116.155 16.4154 116.415 16.2654 116.725 16.1654C117.045 16.0654 117.355 16.0154 117.675 16.0154C118.355 16.0154 118.855 16.2054 119.175 16.5954C119.495 16.9854 119.655 17.5154 119.655 18.1854V20.0754C119.665 20.4054 119.515 20.7154 119.205 20.9854ZM119.665 26.0754C119.205 26.7454 118.655 27.0754 118.025 27.0754C117.575 27.0754 117.215 26.9154 116.935 26.6054C116.655 26.2954 116.525 25.8154 116.525 25.1854C116.525 24.5154 116.675 23.9654 116.965 23.5154C117.255 23.0654 117.655 22.6654 118.175 22.3054C118.605 22.0354 118.945 21.8054 119.175 21.6254C119.405 21.4354 119.575 21.2554 119.675 21.0854V26.0754H119.665ZM131.085 27.7954C130.865 27.6954 130.695 27.5154 130.595 27.2554C130.495 27.0054 130.445 26.6454 130.445 26.1954V9.37541C129.505 9.60541 128.325 9.72541 126.905 9.72541C126.415 9.72541 125.915 9.70541 125.405 9.65541V10.1654C125.975 10.1654 126.375 10.3354 126.605 10.6754C126.835 11.0154 126.955 11.5554 126.955 12.3154V26.2154C126.955 26.6654 126.905 27.0254 126.805 27.2754C126.705 27.5254 126.545 27.7054 126.315 27.8154C126.095 27.9154 125.785 27.9654 125.405 27.9654V28.4754C127.075 28.4154 128.195 28.3754 128.755 28.3754C129.245 28.3754 130.325 28.4054 131.995 28.4754V27.9654C131.615 27.9554 131.315 27.8954 131.085 27.7954ZM61.5954 41.8954C60.9354 41.4254 60.1854 41.1954 59.3254 41.1954C58.4754 41.1954 57.7254 41.3954 57.0754 41.7854C56.4254 42.1854 55.9354 42.7554 55.6054 43.5154V35.0654C54.6654 35.2954 53.4854 35.4154 52.0654 35.4154C51.5654 35.4154 51.0654 35.3954 50.5654 35.3454V35.8554C51.1354 35.8554 51.5354 36.0254 51.7654 36.3654C51.9954 36.7054 52.1154 37.2454 52.1154 38.0054V52.9554C52.1154 53.4454 52.0654 53.8954 51.9454 54.3154L52.3154 54.5454C52.6154 54.2754 53.0154 54.0554 53.5154 53.8854C54.0154 53.7154 54.5354 53.6254 55.0554 53.6254C55.2254 53.6254 55.3454 53.6254 55.4354 53.6354C56.1254 54.2054 57.0254 54.4954 58.1454 54.4954C59.1954 54.4954 60.1354 54.2554 60.9654 53.7854C61.7954 53.3054 62.4554 52.5554 62.9554 51.5154C63.4454 50.4754 63.6954 49.1454 63.6954 47.5254C63.6954 46.1454 63.5054 44.9854 63.1354 44.0354C62.7654 43.0654 62.2554 42.3654 61.5954 41.8954ZM57.4154 53.9654C56.7454 53.9654 56.1454 53.7454 55.6154 53.3154V44.3654C55.7454 43.7154 56.0354 43.1954 56.4654 42.8154C56.8954 42.4354 57.3754 42.2454 57.9054 42.2454C58.6054 42.2454 59.1454 42.6754 59.5054 43.5454C59.8754 44.4154 60.0554 45.8454 60.0554 47.8454C60.0554 51.9254 59.1754 53.9654 57.4154 53.9654ZM76.0154 46.5954C76.0154 42.9954 74.4954 41.1954 71.4554 41.1954C70.2854 41.1954 69.2554 41.4454 68.3654 41.9554C67.4754 42.4654 66.7754 43.2254 66.2754 44.2354C65.7754 45.2454 65.5154 46.4954 65.5154 47.9654C65.5154 49.4054 65.7454 50.6154 66.2154 51.5854C66.6854 52.5554 67.3354 53.2854 68.1754 53.7554C69.0154 54.2354 69.9954 54.4654 71.1054 54.4654C71.9454 54.4654 72.7054 54.2854 73.3554 53.9254C74.0154 53.5654 74.5554 53.0954 74.9854 52.5254C75.4154 51.9454 75.7354 51.3254 75.9354 50.6654L75.5054 50.5254C74.7054 51.8254 73.6354 52.4754 72.2954 52.4754C71.7554 52.4754 71.2354 52.3054 70.7654 51.9854C70.2854 51.6554 69.8954 51.1354 69.5954 50.4254C69.2954 49.7154 69.1454 48.8254 69.1454 47.7454C69.1454 47.2254 69.1554 46.8454 69.1854 46.6054H76.0154V46.5954ZM69.1654 46.1354C69.2554 44.6154 69.4854 43.5054 69.8654 42.7854C70.2454 42.0654 70.7254 41.7054 71.3054 41.7054C71.8754 41.7054 72.2954 42.1254 72.5754 42.9654C72.8554 43.8054 72.9854 44.8654 72.9554 46.1354H69.1654ZM88.1154 53.4054C87.9254 53.4054 87.7954 53.3254 87.7154 53.1654C87.6354 53.0054 87.6054 52.7254 87.6054 52.3254V45.6954C87.6054 44.7854 87.5454 44.0754 87.4254 43.5654C87.3054 43.0554 87.0754 42.6354 86.7354 42.2954C86.0354 41.5654 84.8554 41.2054 83.1954 41.2054C81.7154 41.2054 80.4854 41.4754 79.5054 42.0254C78.6054 42.5454 78.1554 43.2354 78.1554 44.0754C78.1554 44.6154 78.3154 45.0654 78.6254 45.4154C78.9354 45.7754 79.3554 45.9554 79.8754 45.9554C80.2654 45.9554 80.6054 45.8754 80.9054 45.7254C81.2054 45.5754 81.4354 45.3654 81.5954 45.0954C81.7554 44.8254 81.8354 44.5254 81.8354 44.1954C81.8354 43.7154 81.7054 43.3054 81.4554 42.9854C81.2054 42.6654 80.8554 42.4254 80.4054 42.2754C80.6154 42.0754 80.8754 41.9254 81.1854 41.8254C81.5054 41.7254 81.8154 41.6754 82.1354 41.6754C82.8154 41.6754 83.3154 41.8654 83.6354 42.2554C83.9554 42.6454 84.1154 43.1754 84.1154 43.8454V45.7354C84.1154 46.0654 83.9654 46.3754 83.6554 46.6554C83.3454 46.9354 82.8454 47.2054 82.1554 47.4754C81.4654 47.7454 81.0554 47.8954 80.9254 47.9454C79.7654 48.3754 78.9054 48.8654 78.3554 49.4254C77.8054 49.9854 77.5254 50.6854 77.5254 51.5354C77.5254 52.4054 77.8054 53.0854 78.3554 53.5754C78.9154 54.0654 79.6554 54.3054 80.5754 54.3054C81.3054 54.3054 81.9854 54.1454 82.6254 53.8154C83.2654 53.4854 83.7854 52.9954 84.1754 52.3354C84.1754 52.9254 84.3554 53.3954 84.7154 53.7654C85.0754 54.1354 85.6654 54.3154 86.4854 54.3154C87.0954 54.3154 87.6154 54.2454 88.0454 54.1054C88.4754 53.9654 88.8854 53.7354 89.2554 53.4254L89.0054 53.0054C88.6754 53.2654 88.3754 53.4054 88.1154 53.4054ZM84.1154 51.7354C83.6554 52.4054 83.1054 52.7354 82.4654 52.7354C82.0154 52.7354 81.6554 52.5754 81.3754 52.2654C81.0954 51.9554 80.9654 51.4754 80.9654 50.8454C80.9654 50.1754 81.1154 49.6254 81.4054 49.1754C81.6954 48.7254 82.0954 48.3254 82.6154 47.9654C83.0454 47.6954 83.3854 47.4654 83.6154 47.2854C83.8454 47.0954 84.0154 46.9154 84.1154 46.7454V51.7354V51.7354ZM102.385 53.1154C102.155 52.7754 102.035 52.2354 102.035 51.4754V41.2654C101.085 41.4854 99.9054 41.5954 98.4954 41.5954C98.0054 41.5954 97.5054 41.5754 96.9954 41.5254V42.0354C97.5654 42.0354 97.9654 42.2054 98.1954 42.5454C98.4254 42.8854 98.5454 43.4254 98.5454 44.1754V50.5654C98.5454 51.0854 98.4354 51.5654 98.2254 51.9954C98.0154 52.4254 97.7254 52.7654 97.3654 53.0154C97.0054 53.2654 96.6154 53.3954 96.1854 53.3954C95.6254 53.3954 95.2454 53.2254 95.0454 52.8754C94.8454 52.5254 94.7454 52.0254 94.7454 51.3454V41.2654C93.7954 41.4854 92.6154 41.5954 91.2054 41.5954C90.7154 41.5954 90.2154 41.5754 89.7054 41.5254V42.0354C90.2754 42.0354 90.6754 42.2054 90.9054 42.5454C91.1354 42.8854 91.2554 43.4254 91.2554 44.1754V50.3554C91.2554 51.1654 91.3154 51.8154 91.4254 52.3154C91.5354 52.8154 91.7354 53.2154 91.9954 53.5154C92.5454 54.1454 93.4254 54.4654 94.6354 54.4654C96.5054 54.4654 97.8054 53.7054 98.5354 52.1954V54.3954C99.4754 54.1654 100.655 54.0554 102.075 54.0554C102.575 54.0554 103.075 54.0754 103.575 54.1254V53.6154C103.015 53.6154 102.615 53.4554 102.385 53.1154ZM120.825 41.5254V42.0154C121.395 42.0554 121.835 42.2354 122.155 42.5554C122.475 42.8754 122.625 43.3454 122.625 43.9654C122.625 44.4854 122.495 45.1354 122.235 45.9154L120.575 50.6054L117.605 43.4054C117.495 43.1354 117.435 42.9054 117.435 42.7154C117.435 42.5054 117.505 42.3454 117.645 42.2554C117.785 42.1554 117.955 42.1054 118.145 42.0754C118.345 42.0554 118.615 42.0354 118.965 42.0354V41.5254C117.675 41.6154 116.545 41.6654 115.595 41.6654C114.445 41.6654 113.335 41.6154 112.265 41.5254V41.5454H109.575V37.5254C108.585 38.0454 107.415 38.3154 106.085 38.3154V41.5554H104.045V42.0454H106.085V50.2554C106.085 51.1554 106.145 51.8654 106.265 52.3754C106.385 52.8854 106.615 53.3054 106.955 53.6454C107.505 54.2054 108.315 54.4754 109.385 54.4754C110.985 54.4754 112.095 53.6354 112.695 51.9654L112.285 51.7354C111.875 52.7154 111.325 53.1954 110.645 53.1954C110.285 53.1954 110.015 53.0954 109.845 52.8954C109.675 52.6954 109.585 52.3454 109.585 51.8654V42.0354H112.275C112.525 42.0354 112.775 42.1254 113.025 42.2954C113.275 42.4654 113.525 42.8354 113.775 43.4054L118.925 55.1554L118.535 56.3254C118.065 57.6154 117.335 58.2554 116.325 58.2554C116.075 58.2554 115.885 58.2454 115.765 58.2354C116.145 58.0954 116.445 57.8754 116.655 57.5854C116.875 57.2954 116.985 56.9854 116.985 56.6554C116.985 56.1754 116.815 55.7954 116.485 55.5254C116.155 55.2554 115.715 55.1254 115.165 55.1254C114.585 55.1254 114.115 55.2754 113.755 55.5754C113.405 55.8754 113.225 56.2754 113.225 56.7754C113.225 57.2154 113.355 57.5754 113.625 57.8754C113.885 58.1654 114.225 58.3854 114.635 58.5254C115.045 58.6654 115.455 58.7354 115.875 58.7354C116.815 58.7354 117.525 58.5354 117.995 58.1254C118.385 57.8154 118.735 57.2354 119.065 56.3854L123.395 44.1254C123.635 43.4554 123.885 42.9554 124.155 42.6354C124.425 42.3154 124.735 42.1154 125.075 42.0254V41.5354C124.645 41.5854 124.015 41.6054 123.205 41.6054C122.365 41.5954 121.585 41.5754 120.825 41.5254Z" fill="black"/>
</svg>
