<svg width="45" height="44" viewBox="0 0 45 44" fill="none" xmlns="http://www.w3.org/2000/svg">
<g clip-path="url(#clip0_130_207)">
<path d="M34.3075 32.8032C34.255 32.3934 34.1081 32.0014 33.8783 31.658C33.6486 31.3147 33.3422 31.0293 32.9834 30.8245L24.7293 26.0712C24.2164 25.7764 23.6206 25.6587 23.0341 25.7362C22.4477 25.8138 21.903 26.0822 21.4843 26.5002L19.3489 28.6369C19.1459 28.8396 18.875 28.9598 18.5885 28.9742C18.302 28.9887 18.0203 28.8964 17.7979 28.7153C16.5105 27.6733 15.2791 26.5639 14.1088 25.3919C12.9368 24.2216 11.8274 22.9902 10.7854 21.7028C10.6042 21.4804 10.512 21.1987 10.5265 20.9122C10.5409 20.6257 10.6611 20.3548 10.8638 20.1518L13.0005 18.015C13.4181 17.5964 13.6864 17.052 13.7639 16.4658C13.8415 15.8796 13.724 15.2842 13.4295 14.7714L8.67478 6.51453C8.46989 6.1558 8.18455 5.8495 7.84121 5.61974C7.49788 5.38998 7.10592 5.24301 6.69616 5.1904C6.28697 5.13469 5.87044 5.17474 5.47937 5.30741C5.0883 5.44007 4.73337 5.66172 4.44254 5.9549L1.99229 8.40653C-1.50571 11.9045 2.14491 21.0359 10.3042 29.1952C16.3679 35.2589 22.9679 38.8339 27.3954 38.8325C28.9244 38.8325 30.1949 38.4063 31.0942 37.507L33.543 35.0568C33.8363 34.7657 34.058 34.4106 34.1907 34.0193C34.3234 33.6279 34.3634 33.2112 34.3075 32.8018V32.8032ZM32.6314 34.1452L32.3055 34.4724L25.2353 30.4382C25.0876 30.3629 24.9165 30.3475 24.7577 30.395C24.5989 30.4426 24.4645 30.5494 24.3824 30.6935C24.3003 30.8375 24.2769 31.0076 24.3169 31.1685C24.3569 31.3293 24.4573 31.4686 24.5973 31.5574L31.3609 35.417L30.1812 36.5954C28.8543 37.9237 26.1153 37.859 22.6695 36.4167C18.99 34.8794 14.9228 31.9892 11.2158 28.2835C7.50878 24.5765 4.61991 20.5093 3.08266 16.8298C1.64028 13.384 1.57428 10.645 2.90391 9.31815L4.16203 8.05865L4.60891 8.83553C4.65116 8.90893 4.70746 8.97329 4.77458 9.02493C4.84171 9.07657 4.91835 9.11449 5.00013 9.13652C5.08191 9.15854 5.16723 9.16424 5.25121 9.1533C5.33519 9.14235 5.4162 9.11497 5.4896 9.07271C5.563 9.03046 5.62736 8.97416 5.679 8.90704C5.73065 8.83991 5.76856 8.76327 5.79059 8.68149C5.81261 8.59971 5.81831 8.5144 5.80737 8.43041C5.79642 8.34643 5.76904 8.26543 5.72679 8.19203L5.10666 7.1154L5.35416 6.8679C5.50546 6.71519 5.69015 6.5997 5.89367 6.5305C6.0972 6.46131 6.31401 6.44031 6.52704 6.46915C6.96291 6.5269 7.33828 6.77853 7.55829 7.1594L12.3117 15.4149C12.6265 15.9635 12.5344 16.6565 12.0875 17.1034L11.3065 17.8844L7.10454 10.5845C7.0192 10.4363 6.87848 10.328 6.71331 10.2835C6.54815 10.2391 6.37209 10.262 6.22385 10.3473C6.07561 10.4327 5.96734 10.5734 5.92286 10.7386C5.87838 10.9037 5.90133 11.0798 5.98666 11.228L10.3633 18.829L9.95078 19.2415C9.52291 19.6692 9.26867 20.2402 9.23718 20.8443C9.20569 21.4485 9.39918 22.0428 9.78028 22.5126C10.8511 23.8356 11.9912 25.101 13.1958 26.3035C14.3987 27.5081 15.6646 28.6482 16.988 29.719C17.4581 30.1002 18.0527 30.2938 18.657 30.2623C19.2614 30.2308 19.8327 29.9765 20.2605 29.5485L20.5575 29.2515L22.1484 30.159C22.2218 30.2015 22.3029 30.2289 22.387 30.2399C22.471 30.2508 22.5564 30.245 22.6383 30.2227C22.7201 30.2005 22.7967 30.1623 22.8636 30.1103C22.9306 30.0583 22.9866 29.9935 23.0284 29.9198C23.0704 29.8462 23.0975 29.7651 23.1082 29.681C23.1188 29.597 23.1128 29.5116 23.0904 29.4299C23.0681 29.3482 23.0299 29.2717 22.9779 29.2047C22.926 29.1378 22.8614 29.0817 22.7878 29.0398L21.5022 28.3069L22.3959 27.4132C22.6138 27.1957 22.8971 27.0559 23.2022 27.0154C23.5074 26.9749 23.8174 27.0359 24.0844 27.189L32.3413 31.9424C32.7222 32.1624 32.9738 32.5364 33.0302 32.9723C33.059 33.1853 33.038 33.4021 32.9688 33.6056C32.8996 33.8092 32.7841 33.9939 32.6314 34.1452Z" fill="#1A1A1A"/>
<path d="M21.2852 21.7042H16.4562C16.6817 19.8204 17.8876 18.5417 19.1567 17.1955C20.5207 15.7518 21.9301 14.2572 21.9301 12.0132C21.929 11.1117 21.5704 10.2474 20.9329 9.60995C20.2954 8.97249 19.4312 8.61388 18.5297 8.61279C17.6279 8.61352 16.7633 8.97196 16.1256 9.60946C15.4878 10.247 15.129 11.1114 15.1279 12.0132C15.1279 12.1842 15.1959 12.3482 15.3168 12.4692C15.4377 12.5901 15.6018 12.658 15.7728 12.658C15.9438 12.658 16.1079 12.5901 16.2288 12.4692C16.3497 12.3482 16.4177 12.1842 16.4177 12.0132C16.4177 10.8485 17.3651 9.90254 18.5297 9.90254C19.6929 9.90254 20.6403 10.8485 20.6403 12.0132C20.6403 13.7457 19.5183 14.9337 18.2203 16.3114C16.7711 17.8473 15.1279 19.588 15.1279 22.3477C15.1279 22.7052 15.4167 22.9939 15.7742 22.9939H21.2852C21.4562 22.9939 21.6202 22.926 21.7412 22.805C21.8621 22.6841 21.9301 22.5201 21.9301 22.349C21.9301 22.178 21.8621 22.014 21.7412 21.893C21.6202 21.7721 21.4562 21.7042 21.2852 21.7042Z" fill="#1A1A1A"/>
<path d="M29.5531 18.2597H28.8202V9.25624C28.8202 9.08521 28.7522 8.92118 28.6313 8.80024C28.5104 8.67931 28.3463 8.61136 28.1753 8.61136C28.0043 8.61136 27.8403 8.67931 27.7193 8.80024C27.5984 8.92118 27.5304 9.08521 27.5304 9.25624V18.257H24.0971L25.3703 9.34699C25.3823 9.26311 25.3777 9.1777 25.3567 9.09561C25.3357 9.01353 25.2987 8.93639 25.2479 8.86859C25.1971 8.80079 25.1334 8.74366 25.0605 8.70047C24.9876 8.65728 24.9069 8.62887 24.8231 8.61686C24.7392 8.60486 24.6538 8.60949 24.5717 8.63049C24.4896 8.65149 24.4125 8.68846 24.3447 8.73927C24.2769 8.79009 24.2197 8.85377 24.1766 8.92666C24.1334 8.99955 24.105 9.08024 24.0929 9.16411L22.7152 18.8111C22.7024 18.9025 22.7094 18.9955 22.7356 19.084C22.7618 19.1724 22.8066 19.2542 22.867 19.3239C22.9275 19.3936 23.0021 19.4495 23.086 19.488C23.1698 19.5264 23.261 19.5464 23.3532 19.5467H27.5318V22.3462C27.5318 22.4309 27.5485 22.5148 27.5809 22.593C27.6133 22.6713 27.6608 22.7424 27.7207 22.8022C27.7806 22.8621 27.8517 22.9096 27.9299 22.942C28.0081 22.9744 28.092 22.9911 28.1767 22.9911C28.2614 22.9911 28.3452 22.9744 28.4235 22.942C28.5017 22.9096 28.5728 22.8621 28.6327 22.8022C28.6926 22.7424 28.7401 22.6713 28.7725 22.593C28.8049 22.5148 28.8216 22.4309 28.8216 22.3462V19.5467H29.5544C29.7255 19.5467 29.8895 19.4788 30.0104 19.3579C30.1314 19.2369 30.1993 19.0729 30.1993 18.9019C30.1993 18.7308 30.1314 18.5668 30.0104 18.4459C29.8895 18.3249 29.7255 18.257 29.5544 18.257L29.5531 18.2597Z" fill="#1A1A1A"/>
<path d="M44.5432 8.87679C44.4833 8.79488 44.4048 8.72827 44.3143 8.6824C44.2237 8.63653 44.1236 8.61268 44.0221 8.61279H39.1986C39.0276 8.61279 38.8635 8.68074 38.7426 8.80167C38.6217 8.92261 38.5537 9.08664 38.5537 9.25767C38.5537 9.4287 38.6217 9.59273 38.7426 9.71366C38.8635 9.8346 39.0276 9.90254 39.1986 9.90254H43.1421L39.2742 22.1538C39.2273 22.3154 39.2455 22.489 39.3249 22.6375C39.4042 22.7859 39.5385 22.8974 39.6989 22.9482C39.8594 22.999 40.0334 22.9851 40.1837 22.9093C40.334 22.8336 40.4488 22.7021 40.5035 22.5429L44.6367 9.45154C44.667 9.355 44.6742 9.2527 44.6577 9.15287C44.6412 9.05304 44.6015 8.95848 44.5418 8.87679H44.5432Z" fill="#1A1A1A"/>
<path d="M36.6161 6.56941C36.4517 6.52374 36.2758 6.54513 36.1271 6.6289C35.9784 6.71267 35.8689 6.85197 35.8227 7.01629L30.9992 24.2409C30.9573 24.4042 30.9811 24.5774 31.0653 24.7234C31.1495 24.8694 31.2876 24.9767 31.4499 25.0222C31.6122 25.0676 31.7859 25.0477 31.9337 24.9667C32.0816 24.8857 32.1918 24.7501 32.2409 24.5888L37.063 7.36416C37.0858 7.28255 37.0923 7.19724 37.0821 7.11311C37.0719 7.02899 37.0452 6.9477 37.0036 6.87389C36.9619 6.80008 36.9062 6.7352 36.8395 6.68295C36.7727 6.63071 36.6964 6.59213 36.6147 6.56941H36.6161Z" fill="#1A1A1A"/>
</g>
<defs>
<clipPath id="clip0_130_207">
<rect width="44" height="44" fill="white" transform="translate(0.666504)"/>
</clipPath>
</defs>
</svg>
