<svg width="41" height="40" viewBox="0 0 41 40" fill="none" xmlns="http://www.w3.org/2000/svg">
<g clip-path="url(#clip0_130_184)">
<path d="M39.0828 8.8259L20.9212 0.0582422C20.7602 -0.0194141 20.5727 -0.0194141 20.4118 0.0582422L2.25012 8.8259C2.04762 8.92363 1.91895 9.12871 1.91895 9.35355V30.6464C1.91895 30.8713 2.04762 31.0764 2.25012 31.1741L20.4117 39.9418C20.4921 39.9806 20.5793 40 20.6664 40C20.7536 40 20.8407 39.9806 20.9212 39.9418L39.0828 31.1741C39.2853 31.0764 39.4139 30.8713 39.4139 30.6464V9.35363C39.4139 9.12863 39.2852 8.92371 39.0828 8.8259ZM20.6664 1.2366L37.4803 9.35355L32.6063 11.7065C32.5754 11.683 32.5428 11.6613 32.5071 11.644L15.8075 3.5823L20.6664 1.2366ZM14.4842 4.2448L31.2736 12.35L27.8349 14.01L11.0525 5.90816L14.4842 4.2448ZM31.6664 13.4615V19.5979L28.4544 21.1486V15.0121L31.6664 13.4615ZM38.2421 30.2788L21.2524 38.4805V18.4889L25.305 16.5325C25.5964 16.3918 25.7186 16.0416 25.5778 15.7501C25.4371 15.4588 25.0869 15.3364 24.7954 15.4772L20.6664 17.4706L19.0418 16.6862C18.7503 16.5454 18.4 16.6677 18.2593 16.9591C18.1186 17.2505 18.2408 17.6008 18.5322 17.7415L20.0805 18.4889V38.4805L3.09082 30.2786V10.2871L16.0283 16.5328C16.1104 16.5725 16.1972 16.5912 16.2826 16.5912C16.5004 16.5912 16.7096 16.4692 16.8107 16.2599C16.9514 15.9685 16.8292 15.6182 16.5378 15.4775L3.85262 9.35355L9.67332 6.54356L27.2744 15.0407C27.277 15.0443 27.2799 15.0475 27.2825 15.051V22.0821C27.2825 22.2838 27.3862 22.4712 27.557 22.5785C27.6518 22.638 27.76 22.6681 27.8686 22.6681C27.9554 22.6681 28.0425 22.6488 28.1232 22.6098L32.5071 20.4935C32.7096 20.3957 32.8382 20.1907 32.8382 19.9658V12.8959L38.2421 10.2871V30.2788Z" fill="black"/>
<path d="M7.92649 28.0063L5.26125 26.7196C4.96969 26.5788 4.61953 26.7011 4.47883 26.9925C4.33812 27.2839 4.46031 27.6342 4.75172 27.7749L7.41696 29.0616C7.49906 29.1012 7.58586 29.12 7.67125 29.12C7.88906 29.12 8.09828 28.998 8.1993 28.7887C8.34008 28.4972 8.21789 28.147 7.92649 28.0063Z" fill="black"/>
<path d="M10.3791 26.4093L5.26462 23.9403C4.97313 23.7995 4.6229 23.9217 4.4822 24.2132C4.34157 24.5046 4.46376 24.8549 4.75517 24.9956L9.86962 27.4647C9.95173 27.5043 10.0385 27.5231 10.1239 27.5231C10.3417 27.5231 10.5509 27.4011 10.652 27.1918C10.7927 26.9003 10.6705 26.5499 10.3791 26.4093Z" fill="black"/>
</g>
<defs>
<clipPath id="clip0_130_184">
<rect width="40" height="40" fill="white" transform="translate(0.666504)"/>
</clipPath>
</defs>
</svg>
