<svg width="129" height="76" viewBox="0 0 129 76" fill="none" xmlns="http://www.w3.org/2000/svg">
<g clip-path="url(#clip0_130_119)">
<path d="M59.4935 38.4052C58.3535 38.1952 57.8235 38.6152 57.3635 39.6652C57.0535 40.3652 56.9435 41.1152 56.5435 41.7652C56.2035 42.3152 55.7035 42.7952 55.3135 43.3052C54.5635 44.2752 53.8535 45.2752 53.1035 46.2352C52.3735 47.1652 51.4735 48.4852 50.4135 49.0652C49.6935 49.4552 49.7135 49.6352 49.4235 48.7652C49.2135 48.1552 49.3735 47.2252 49.4235 46.5952C49.6135 44.2552 50.0435 41.4652 51.8135 39.7852C52.7435 38.9052 53.7835 38.5952 55.0335 38.7852C55.6635 38.8852 58.0235 39.1852 56.7935 37.9652C56.0035 37.1852 53.8035 37.0252 52.8135 37.1352C51.5835 37.2752 50.3135 37.7352 49.2335 38.3252C46.8935 39.6252 45.5135 42.1152 44.8535 44.6452C44.6835 45.3052 44.7635 46.0952 44.5435 46.7252C44.3135 47.3652 43.8435 47.6852 43.3435 48.1452C42.2935 49.0952 41.3035 50.0852 40.3935 51.1652C39.0135 52.8052 37.3435 55.7952 35.2835 56.6552C34.4735 53.5752 36.0335 50.1552 36.3735 47.1152C36.4935 46.0452 37.3935 43.8252 36.7435 42.8452C35.9835 41.6952 33.8735 41.7752 32.7235 41.9052C32.3235 41.9452 30.6635 42.4252 30.3735 42.0752C30.1335 41.7952 30.8135 40.6952 30.9335 40.4952C31.1835 40.0652 31.4235 39.9052 31.5735 39.4452C31.7135 39.0152 31.9535 37.3752 31.8635 36.9252C31.2335 33.8852 26.6235 34.3352 25.0835 36.1852C24.2135 37.2352 23.9235 38.6952 24.4135 39.9652C24.6535 40.5952 25.0835 41.2352 25.5535 41.7152C26.0635 42.2352 26.8735 42.3752 27.3335 42.8252C27.9835 43.4552 27.7535 43.3252 26.9635 43.8352C26.4335 44.1752 25.9735 44.4752 25.4635 44.8852C24.3235 45.7952 23.0235 46.9552 21.5035 47.1652C20.0035 47.3752 21.0635 45.5152 21.0735 44.3852C21.0835 42.7752 20.6135 40.8652 19.8635 39.4352C19.1635 38.0852 17.7135 37.1552 16.2035 37.2352C14.5935 37.3152 14.1735 38.0452 13.1735 39.1152C12.9635 37.9052 14.3235 37.3452 14.5435 36.2352C14.8435 34.6952 13.1835 34.6952 12.1235 35.2152C10.9935 35.7652 10.0035 36.7752 9.2235 37.7452C8.3135 38.8852 7.9735 40.2252 6.7335 40.9952C5.4535 41.7952 4.1335 42.7252 2.6035 42.9852C1.7235 43.1352 0.543497 42.1952 0.153497 42.9152C-0.666503 44.4252 2.6335 44.1852 3.2835 43.9952C4.0435 43.7852 4.7935 43.4052 5.4735 43.0352C5.9635 42.7652 6.3535 42.2252 6.9935 42.3952C6.2535 46.0452 5.9835 50.0452 7.7035 53.4852C8.4435 54.9652 9.9135 56.3852 11.4535 57.0152C13.2635 57.7552 14.5535 56.7652 15.9035 55.5752C17.3035 54.3452 18.2835 52.6752 19.0535 51.0052C19.4435 50.1652 19.7035 49.2452 20.5635 48.8252C21.3735 48.4352 22.3735 48.3752 23.2035 47.9752C24.9535 47.1252 26.1935 45.5352 27.6235 44.2552C28.8435 43.1552 30.5435 43.7152 32.1235 43.7752C31.4635 46.7352 30.8235 49.7152 30.5135 52.7452C30.2835 55.0052 29.8235 59.1352 33.2535 59.3552C35.3435 59.4852 37.4935 56.9652 38.7435 55.5852C40.6835 53.4352 42.1835 50.3252 44.7935 48.8652C45.9235 51.3352 47.7835 53.2652 50.4135 51.1852C52.5935 49.4552 54.0535 47.1052 55.8035 44.9952C55.4735 48.2952 54.3635 51.6152 53.3335 54.7552C52.6535 56.8552 51.6935 61.6352 49.3535 62.1752C47.7335 62.5452 46.0835 62.6552 44.4735 63.1352C42.8135 63.6252 41.2135 64.3252 39.6335 65.0252C37.0835 66.1652 33.6535 67.7552 32.6235 70.5952C31.7035 73.1152 33.8435 75.1052 36.2235 75.4352C37.5435 75.6152 38.9535 75.5852 40.2535 75.3152C41.5335 75.0552 42.3935 74.4052 43.5235 73.8752C46.2435 72.5952 48.4835 70.8852 50.7535 68.9352C51.8135 68.0252 52.8335 66.9152 53.6435 65.7852C53.8435 65.4952 53.9235 64.8652 54.1635 64.6552C54.7335 64.1452 55.3135 64.8152 55.8035 64.3652C56.6435 63.6152 55.7735 63.6052 55.5235 62.9952C55.3035 62.4452 55.4635 62.2252 55.7035 61.6652C56.2735 60.3252 56.9735 59.1252 57.4235 57.7352C58.2835 55.0852 59.1535 52.4252 59.7335 49.6952C60.3335 46.8552 60.7835 43.8352 60.8035 40.9552C60.8035 39.5952 61.1535 38.7152 59.4935 38.4052ZM13.4035 55.7152C12.0335 53.6052 11.8235 50.7552 11.6435 48.3152C11.4635 45.9052 11.4035 42.8952 12.5935 40.6952C12.9435 40.8252 12.6835 43.2652 12.7835 43.7452C12.9935 44.7352 13.4635 45.7452 14.0335 46.5852C15.2635 48.4052 16.8835 48.5252 18.7935 49.1252C17.9435 51.5652 15.7235 54.5152 13.4035 55.7152ZM19.3535 47.3152C17.8735 47.7652 16.8035 45.1752 16.7035 44.1952C16.5435 42.7052 16.7935 40.7652 17.7035 39.5452C18.9035 39.4452 19.0535 39.8552 19.4435 41.0052C19.6535 41.6252 19.8535 42.3352 19.9835 42.9752C20.1635 43.8952 20.4135 46.9952 19.3535 47.3152ZM29.1335 41.4952C29.0435 40.4552 28.8735 39.3452 28.9235 38.3052C28.9835 37.0952 29.1935 36.9552 30.2935 36.6252C30.9935 37.4252 30.9735 38.5052 30.7535 39.5452C30.6135 40.2052 29.8635 41.4552 29.1335 41.4952ZM42.8435 71.6952C41.3135 72.7552 39.8335 73.7552 37.9135 73.7552C36.9235 73.7552 34.9835 73.8752 34.4735 72.8352C34.0135 71.9052 34.8835 70.1652 35.3935 69.4352C36.3435 68.0752 38.5235 67.1252 39.9635 66.4552C42.9535 65.0652 46.2935 63.6652 49.6435 63.6152C47.7435 66.6252 45.8135 69.6452 42.8435 71.6952ZM126.773 45.0352C124.793 45.4852 123.553 48.7552 122.543 50.2752C122.013 51.0652 121.073 52.7452 120.123 53.0652C119.293 53.3352 119.513 53.3052 119.193 52.5852C118.983 52.1252 119.123 50.9652 119.083 50.4352C118.913 47.8852 119.303 45.6352 120.033 43.2052C120.503 41.6252 122.034 38.0952 124.233 39.0352C123.933 39.6252 123.063 41.2952 123.924 41.8852C124.873 42.5352 125.904 39.4352 125.743 38.7652C125.493 37.6752 123.803 37.0152 122.853 37.0052C121.443 36.9852 120.133 37.7852 118.993 38.5252C116.453 40.1852 116.174 43.3152 114.174 45.2852C113.644 45.8052 112.254 47.4352 111.493 47.5052C110.534 47.5952 111.343 44.8852 111.453 44.2452C111.803 42.2852 113.663 37.9852 111.383 36.6952C110.723 36.3152 109.133 35.7552 108.413 36.1852C107.503 36.7352 107.293 39.1552 107.113 40.1052C106.843 41.5052 106.883 43.3352 106.343 44.6352C105.824 45.8852 104.513 46.9852 103.753 48.1152C102.993 49.2452 102.283 50.3752 101.443 51.4652C100.583 52.5852 99.8735 54.0352 98.6235 54.7852C98.4135 52.3852 99.3435 50.1752 99.8235 47.8852C100.273 45.7452 101.663 42.1852 100.093 40.2252C99.6135 39.6252 98.7035 38.8452 98.0735 38.9052C97.2635 38.9752 95.7135 40.1652 95.0635 40.7152C94.2135 41.4352 93.5135 42.3252 92.8335 43.1952C92.2335 43.9652 91.5335 45.4552 90.7235 45.9752C90.2735 45.0752 90.9535 43.0552 90.9235 42.0552C90.8935 41.0652 90.7135 40.3452 90.0435 39.7652C89.3735 39.1952 89.0835 39.2552 88.1535 39.9152C87.1635 40.6252 86.2735 41.6552 85.5435 42.6152C84.2435 44.3052 83.3635 46.3752 82.3135 48.2252C81.7235 49.2652 81.0935 50.2152 80.3535 51.1552C79.7835 51.8852 79.2935 53.0252 78.5035 53.5052C78.2635 52.4052 78.7335 50.7552 78.8635 49.6252C79.0535 48.0452 79.3035 46.4852 79.5835 44.9152C79.8835 43.2152 80.4835 38.5852 77.2535 39.8252C75.2535 40.5952 74.0335 44.0152 73.1235 45.7452C72.0035 47.8952 70.5335 50.0352 68.5335 51.4852C68.2935 48.7052 68.9135 45.3852 70.4335 43.0052C70.9635 42.1752 71.9935 40.9652 72.7935 40.4152C73.5735 39.8852 75.8735 40.2152 76.1535 39.2452C76.5135 37.9852 73.4135 38.3852 72.7535 38.4852C71.3935 38.7152 70.0935 39.4252 68.8535 40.0052C67.5235 40.6152 66.0835 41.0452 64.6135 41.2052C64.0335 41.2652 60.9135 40.9252 61.2935 42.0452C61.6435 43.0952 63.7535 42.4752 64.5235 42.4652C65.5335 42.4452 65.4335 42.1952 65.2135 43.0652C65.0235 43.8252 64.2935 44.5652 64.0135 45.3252C63.2735 47.3452 62.3435 51.0052 64.1435 52.4752C66.4935 54.4052 68.5135 53.7052 70.4935 51.6852C71.4135 50.7452 72.0635 49.7252 72.8135 48.6552C73.3235 47.9252 74.0335 45.8652 74.9035 45.6052C75.3535 46.1652 74.5335 48.5252 74.4535 49.2252C74.2835 50.6552 74.0835 52.3352 74.2835 53.7552C74.6935 56.6652 76.7235 57.3252 78.8935 55.5252C79.8735 54.7152 80.4035 53.5952 81.1535 52.5952C82.0235 51.4352 82.8635 50.4352 83.5335 49.1252C84.0635 48.0852 84.6035 47.0452 85.1635 46.0252C85.5635 45.3052 86.2235 43.7252 86.9835 43.3952C86.7035 46.0952 86.2735 48.8352 85.7135 51.4852C85.4735 52.6452 84.9435 54.3152 86.3335 54.8852C87.2135 55.2452 88.3335 55.2152 88.9135 54.5752C89.6035 53.8052 89.7035 52.3852 90.1535 51.4552C90.7935 50.1152 91.0535 48.6452 91.7835 47.3352C92.3935 46.2452 93.0735 45.1852 93.8235 44.1952C94.4835 43.3252 95.7135 41.4252 96.8435 41.1652C96.6335 42.4452 96.0835 43.7352 95.7835 45.0252C95.4335 46.5352 95.0235 47.9752 94.7435 49.4952C94.3635 51.5452 93.7135 54.2952 95.3735 55.9852C99.6835 60.3852 103.843 49.2052 106.153 47.3352C106.603 47.6752 106.593 48.6852 107.103 49.1552C107.713 49.7252 108.693 49.9852 109.513 49.9252C110.513 49.8352 111.574 49.2352 112.383 48.6552C113.013 48.2052 113.643 47.2852 114.433 47.1352C114.643 47.8152 114.393 48.7652 114.443 49.4952C114.493 50.1252 114.643 50.7252 114.723 51.3452C114.863 52.4252 114.973 53.2552 115.803 54.0352C117.813 55.9352 120.323 55.2652 122.153 53.3852C123.903 51.5952 124.733 49.0352 126.373 47.1452C126.854 46.5952 127.873 46.3952 127.993 45.8652C128.163 45.1052 127.464 44.8852 126.773 45.0352ZM111.223 34.5152C111.993 33.9952 113.553 33.3052 113.223 32.1152C113.053 31.4952 112.073 30.7852 111.433 30.6152C110.353 30.3252 109.174 31.4552 109.343 32.6452C109.464 33.4352 110.543 34.2052 111.223 34.5152ZM62.4435 30.4552C63.1335 30.8552 63.7035 30.7152 64.3935 30.4252C64.2135 29.4552 63.5135 28.7352 62.8335 28.0152C61.7035 26.8252 60.4935 25.6952 59.3535 24.5152C57.1235 22.2052 54.1635 20.8452 50.5635 20.4652C49.1835 20.3252 48.4935 19.5852 47.4035 19.0052C50.1735 18.8052 52.6935 19.3352 55.2635 19.4152C58.1635 19.5052 61.0235 19.5552 63.9035 19.1252C64.3635 19.0552 65.0935 19.2552 65.3535 19.5452C65.8735 20.1252 66.0935 20.8752 66.5635 21.4952C67.1935 22.3352 67.8135 23.2152 68.6635 23.8952C69.6835 24.7252 70.9435 25.3552 72.0735 26.0952C73.2435 26.8652 74.5935 27.1752 76.1035 27.1552C77.4435 27.1352 78.7835 27.1452 80.1235 27.1252C80.4135 27.1252 80.9035 27.0752 80.9435 26.9752C81.0435 26.7052 81.0435 26.3452 80.9035 26.0952C80.7235 25.7852 80.3835 25.5152 80.0835 25.2652C78.6635 24.0852 77.3435 22.8052 75.7735 21.7752C74.6935 21.0652 73.2035 20.7752 71.9935 20.1752C70.3135 19.3452 68.4435 19.3452 66.5835 19.2352C66.2335 19.2152 65.9035 19.0852 65.4435 18.9752C65.6735 18.8152 65.7135 18.7752 65.7635 18.7552C69.0135 17.9952 72.2635 17.2252 75.5135 16.4752C75.8835 16.3852 76.3735 16.1952 76.6235 16.3152C77.3635 16.6452 78.1935 16.9952 78.6635 17.5252C79.4235 18.3852 79.9135 19.4052 80.5235 20.3552C82.4235 23.2652 85.5835 24.3452 89.5435 24.1852C91.1635 24.1252 92.7835 23.9352 94.4035 23.7952C94.6035 23.7752 94.8035 23.6752 95.0135 23.6052C94.4735 22.9352 94.0235 22.2752 93.4535 21.7052C92.6535 20.9052 91.8135 20.1052 90.8735 19.4052C89.6835 18.5152 88.4935 17.5452 87.0835 16.9452C85.0935 16.1052 82.8635 16.0152 80.6535 16.6752C79.4435 17.0352 78.6335 16.5052 77.6735 16.0152C77.9435 15.8752 78.0935 15.7452 78.2635 15.6952C79.3835 15.3952 80.5235 15.1552 81.6235 14.8152C82.3135 14.6052 82.8735 14.6052 83.3935 15.0052C84.4635 15.8052 85.8935 16.0152 87.2235 16.2052C89.8435 16.5952 91.9835 15.5152 94.0235 14.2652C95.6035 13.3052 96.5835 11.9452 97.8235 10.7652C98.5535 10.0752 98.4635 9.73518 97.3935 9.61518C94.1335 9.24518 90.8435 9.00518 87.6935 10.2252C86.2735 10.7752 84.8935 11.3752 83.8435 12.4152C83.2735 12.9852 82.7735 13.6652 81.7435 13.9052C80.5835 14.1752 79.4935 14.6352 78.1935 15.0652C78.3135 14.7752 78.3335 14.6452 78.4135 14.5352C78.8335 13.9652 79.5235 13.6952 80.2335 13.4052C81.5635 12.8552 83.0535 12.4152 84.1035 11.6152C86.1235 10.0852 86.6235 7.99518 86.6535 5.86518C86.7035 4.49518 86.7135 3.12518 86.6935 1.74518C86.6935 1.47518 86.5335 1.21518 86.4435 0.955184C86.1335 1.06518 85.7535 1.12518 85.5135 1.30518C84.7435 1.90518 84.0635 2.59518 83.2735 3.17518C80.6735 5.09518 79.1535 7.44518 78.7635 10.2252C78.6835 10.7952 78.8835 11.3852 78.9335 11.9652C78.9535 12.1652 79.0235 12.5052 78.9235 12.5452C78.2135 12.8352 78.4135 13.4652 78.0535 13.8752C77.3935 14.6052 76.9435 15.4852 75.6735 15.7652C74.5135 16.0252 73.3835 16.4152 72.2335 16.7252C71.0435 17.0452 69.8435 17.3352 68.6535 17.6352C68.7835 16.5452 69.7235 16.1152 70.6835 15.8752C72.0635 15.5252 72.9835 14.6952 73.7335 13.8652C75.9135 11.4752 77.1035 8.78518 77.0935 5.81518C77.0935 5.27518 77.0335 4.69518 77.2635 4.20518C77.5635 3.54518 77.1835 3.22518 76.6935 2.74518C76.5135 3.08518 76.4635 3.35518 76.2735 3.51518C75.3435 4.24518 74.3935 4.96518 73.4235 5.65518C72.3735 6.41518 71.1635 7.04518 70.2335 7.89518C67.8735 10.0552 67.8735 12.6152 68.5135 15.2052C68.7035 15.9752 67.6835 17.7552 66.7135 17.9652C65.1635 18.2952 63.6035 18.5952 62.0335 18.7852C59.6635 19.0652 57.2835 19.0752 54.7635 18.7952C54.9735 18.5252 55.0735 18.2452 55.2935 18.1352C55.9435 17.7952 56.6435 17.5152 57.3235 17.2152C57.8635 16.9752 58.4535 16.7852 58.9535 16.4952C60.8935 15.3752 62.1735 13.8752 62.7735 12.0152C63.0135 11.2652 63.4135 10.5452 63.5135 9.78518C63.7535 8.07518 63.8635 6.36518 63.9935 4.65518C64.0135 4.44518 63.8135 4.22518 63.7135 4.00518C63.4535 4.08518 63.1435 4.12518 62.9235 4.26518C61.8835 4.93518 60.9035 5.67518 59.8335 6.31518C58.1435 7.33518 56.2535 8.07518 55.2135 9.75518C53.7635 12.1052 53.3235 14.3852 54.5935 16.7852C55.1035 17.7452 54.1435 18.7752 52.8335 18.6852C51.5035 18.5952 50.1635 18.5452 48.8235 18.4452C46.8535 18.3052 44.8935 18.1452 42.7735 17.9752C43.3735 17.5252 43.9535 17.0452 44.5835 16.6452C45.7135 15.9252 47.1435 15.4152 47.7535 14.3052C48.3935 13.1552 48.9935 11.9452 49.2935 10.7152C50.0835 7.46518 50.1335 4.18518 49.8335 0.905184C49.8235 0.745184 49.5935 0.545184 49.4035 0.495184C49.2435 0.455184 48.9535 0.565184 48.8035 0.685184C47.2935 1.82518 45.7735 2.96518 44.3035 4.14518C43.2235 5.01518 42.1035 5.92518 41.7635 7.17518C41.3435 8.68518 41.0635 10.2052 40.7435 11.7252C40.6735 12.0352 40.5435 12.3952 40.6635 12.6652C41.2035 13.9252 41.7535 15.1752 42.4435 16.3852C42.7635 16.9452 42.4535 17.2852 42.1435 17.6752C41.8635 18.0252 41.5135 18.2052 40.8835 18.1752C39.1535 18.0952 37.4335 18.0152 35.6935 18.0052C34.1035 17.9952 32.5135 17.8652 30.9135 17.8352C30.4835 17.8252 29.8735 17.7252 29.6835 18.3952C30.0235 18.4252 30.3135 18.4552 30.6035 18.4652C32.4335 18.5152 34.2635 18.5352 36.0835 18.6052C36.9735 18.6452 37.8735 19.6052 37.7135 20.3052C36.9635 23.6852 38.0735 26.6252 40.5635 29.3052C41.6335 30.4552 42.9435 31.3652 44.3335 32.2052C45.6735 33.0252 47.0635 33.7852 48.4435 34.5452C48.6135 34.6352 49.0635 34.6452 49.1035 34.5752C49.2235 34.3952 49.2635 34.1352 49.2035 33.9352C48.8235 32.7252 48.2335 31.5352 48.0435 30.3052C47.6835 27.9952 46.2935 26.0652 45.0235 24.0852C43.8235 22.2152 41.7335 21.0452 39.5335 20.0052C38.8535 19.6852 37.9135 19.5152 37.7535 18.5952C38.8435 18.6252 39.9535 18.4652 40.8335 18.7452C41.8335 19.0652 42.7035 18.5152 43.6335 18.7552C44.1835 18.8952 44.8135 18.9252 45.3935 18.8752C46.5435 18.7852 47.0235 19.5852 47.8335 19.9452C47.8935 19.9752 47.9535 20.0652 47.9335 20.1152C47.6835 21.2852 48.2235 22.3152 48.7735 23.3252C49.7035 25.0452 50.6535 26.7452 52.5335 27.9852C55.0035 29.6052 57.7335 30.5352 61.0135 30.3152C61.5135 30.3052 62.1135 30.2652 62.4435 30.4552ZM68.4835 21.2752C69.1435 21.4352 69.9235 21.3552 69.8135 22.2352C69.7435 22.7752 69.9135 23.3252 69.9735 23.9252C68.4335 23.3852 68.8535 22.2252 68.4835 21.2752ZM70.7035 22.2652C71.3835 22.3552 71.6435 22.5552 71.6035 23.1252C71.5535 23.8052 71.7335 24.4852 71.8135 25.1552C70.9735 25.1152 70.9435 25.0452 70.7035 22.2652ZM72.7335 25.2452C72.7435 24.4652 72.4235 23.6952 72.2035 22.7552C73.2035 23.1452 73.8135 23.3952 73.6535 24.2852C73.5335 24.8952 73.8335 25.5352 73.9535 26.2252C73.3035 26.0652 72.7235 26.0252 72.7335 25.2452ZM75.4135 25.4152C75.5435 25.7752 75.6635 26.1452 75.8035 26.5152C74.8435 26.6152 74.0835 25.0652 74.5535 23.8452C75.0135 24.2452 75.4135 24.5852 75.8135 24.9352C75.3435 24.9552 75.2735 25.0352 75.4135 25.4152ZM77.3535 26.5652C76.7135 26.7152 76.4635 26.4952 76.3535 25.9952C76.2635 25.6252 76.0035 25.2852 75.8135 24.9352C75.9235 24.9252 76.0935 24.8752 76.1235 24.9052C76.6135 25.4152 77.4735 25.7452 77.3535 26.5652ZM79.7535 25.9852C79.1235 25.7452 78.7035 25.5852 78.2535 25.4152C78.9235 24.9352 78.9935 24.9552 79.7535 25.9852ZM78.1235 24.3352C77.9235 24.4852 77.7135 24.6552 77.4535 24.8552C77.0135 24.6152 76.5935 24.3952 76.0735 24.1152C77.2235 23.6352 77.5735 23.6752 78.1235 24.3352ZM76.5635 23.1452C75.7435 23.7252 74.9635 23.3952 74.0935 23.1252C75.2135 22.2052 75.7835 22.2152 76.5635 23.1452ZM74.7735 21.8652C73.6035 22.6752 72.5935 22.5752 71.4735 21.8152C72.0935 21.5652 72.6535 21.1752 73.2035 21.1752C73.7035 21.1752 74.2035 21.5952 74.7735 21.8652ZM72.0835 20.8152C71.0535 21.6052 70.6135 21.6052 69.3835 20.7852C70.3235 20.2052 71.2135 20.2752 72.0835 20.8152ZM69.3335 20.0152C68.7535 20.4852 68.4235 20.4752 67.7635 19.8952C68.3435 19.9352 68.8235 19.9752 69.3335 20.0152ZM67.5435 21.6352C67.2335 21.1752 66.9235 20.7052 66.5435 20.1452C67.7835 20.3452 67.7235 20.9652 67.5435 21.6352ZM81.5635 18.5852C82.4635 18.6652 82.9835 18.8652 83.0335 19.5852C83.0835 20.4252 83.2335 21.2552 83.3535 22.1952C82.0235 21.2252 81.7535 19.9652 81.5635 18.5852ZM83.8335 19.5552C84.2635 19.6452 84.6135 19.7252 84.9535 19.7952C84.8735 19.8252 84.7935 19.8452 84.7135 19.8752C84.8835 20.9452 85.0535 22.0152 85.2435 23.2152C83.7735 22.2252 84.0235 20.8952 83.8335 19.5552ZM88.0335 23.6652C87.9135 22.7952 87.8335 22.0052 87.6635 21.2252C87.6235 21.0452 87.2335 20.9152 87.0035 20.7652C86.9435 20.9552 86.8035 21.1552 86.8335 21.3352C86.9535 22.0452 87.1235 22.7452 87.2735 23.4452C86.6335 23.5052 85.9735 23.0252 85.8535 22.3152C85.7835 21.9152 85.8235 21.4952 85.7535 21.0952C85.6935 20.7352 85.5435 20.3852 85.3835 19.8452C86.6635 20.4052 87.8135 20.9152 88.9535 21.4352C89.0535 21.4852 89.1535 21.5952 89.1635 21.6852C89.2635 22.2952 89.3435 22.8952 89.4435 23.5852C89.1035 23.5952 88.6235 23.6252 88.0335 23.6652ZM90.0435 21.9552C91.1035 22.1952 90.6135 22.9552 91.0135 23.4052C90.1935 23.3552 90.0335 23.1152 90.0435 21.9552ZM93.2235 22.5452C93.1435 22.5852 93.0635 22.6352 92.9835 22.6752C92.4035 22.3852 91.8335 22.0852 91.2035 21.7752C91.5235 21.5852 91.7635 21.4352 92.1435 21.2152C92.5235 21.6852 92.8735 22.1152 93.2235 22.5452ZM91.3135 20.6252C90.2735 21.3352 90.1935 21.3452 88.9235 20.6852C89.5435 20.4652 90.0835 20.2752 90.6335 20.0752C90.8635 20.2552 91.0635 20.4252 91.3135 20.6252ZM89.7135 19.5952C89.6735 19.9952 88.2035 20.2952 87.6335 20.0952C87.2835 19.9752 86.9535 19.8252 86.3335 19.5852C87.3235 19.2152 88.0935 18.9352 89.0635 18.5752C89.2935 18.9052 89.7435 19.2552 89.7135 19.5952ZM88.3135 18.1152C87.2835 18.5852 86.4735 19.0852 85.5635 19.3252C85.1335 19.4352 84.5135 19.0452 83.9835 18.8852C83.9635 18.8052 83.9535 18.7252 83.9335 18.6452C84.7635 18.2152 85.5935 17.7752 86.5535 17.2752C87.0235 17.5052 87.6035 17.7852 88.3135 18.1152ZM85.2335 17.1952C84.3235 18.0452 82.9835 18.4152 82.1435 18.0352C82.9235 17.1252 84.4735 16.7152 85.2335 17.1952ZM82.1335 16.9252C81.5735 17.1652 81.2035 18.0652 80.1135 17.4652C80.8835 17.2652 81.5135 17.0952 82.1335 16.9252ZM89.4235 15.6352C88.9535 15.4052 88.6435 15.2152 88.3035 15.0952C87.5435 14.8252 86.8435 14.5152 86.4235 13.8752C87.3335 13.5452 88.0835 13.3952 88.8035 14.1152C89.2535 14.5652 89.9335 14.8552 90.5835 15.2652C90.0335 15.4352 89.6235 15.5652 89.4235 15.6352ZM91.1235 14.8952C90.4835 14.5652 89.8735 14.1752 89.2835 13.7852C89.1535 13.6952 89.1035 13.5252 88.9435 13.2652C89.2335 13.2152 89.4935 13.1052 89.6235 13.1652C90.3435 13.4952 91.0435 13.8452 91.7135 14.2452C91.8535 14.3252 91.7935 14.6252 91.8235 14.8152C91.5935 14.8552 91.2735 14.9752 91.1235 14.8952ZM92.7835 14.2852C92.1035 13.8952 91.4135 13.4952 90.7335 13.0952C90.6435 13.0452 90.5635 12.9752 90.4035 12.8752C90.7935 12.6852 91.0335 12.5652 91.2235 12.4752C91.7735 12.7452 92.2635 13.0252 92.7935 13.2352C93.6035 13.5652 93.6235 13.7952 92.7835 14.2852ZM94.6735 11.6752C95.2335 11.5152 95.7135 11.3852 96.3135 11.2152C95.4635 12.4052 95.3735 12.4352 94.6735 11.6752ZM95.0235 9.99518C95.5235 10.0352 95.9835 10.0652 96.4535 10.1052C96.4935 10.1752 96.5235 10.2352 96.5635 10.3052C95.9335 10.5552 95.3035 10.8152 94.6735 11.0652C94.6335 11.0252 94.5935 10.9852 94.5535 10.9452C94.7235 10.7052 94.9035 10.4752 95.0635 10.2352C95.0935 10.1852 95.0435 10.1052 95.0235 9.99518ZM94.2435 10.0252C93.6935 10.5052 93.8835 11.4152 92.6435 11.4452C92.7635 10.4452 93.3835 9.86518 94.2435 10.0252ZM95.1835 12.5752C94.7635 12.9452 94.5335 13.1452 94.2335 13.4052C93.5935 13.0452 93.0235 12.7252 92.4135 12.3752C93.4935 11.6852 94.0935 12.6152 95.1835 12.5752ZM91.4335 9.99518C91.6535 9.97518 92.0035 9.95518 92.3635 9.92518C91.6235 11.9352 91.6235 11.9352 90.1735 12.1052C90.4135 11.6752 90.5935 11.3552 90.7835 11.0352C90.9835 10.7052 91.1835 10.3952 91.4335 9.99518ZM90.4835 10.2352C90.0635 10.9452 89.7335 11.6952 89.1835 12.3252C88.9235 12.6252 88.2435 12.6952 87.6535 12.9052C88.0035 11.3852 89.1135 9.90518 90.4835 10.2352ZM87.3135 11.1352C87.1335 11.8052 86.9735 12.4052 86.7835 13.1052C86.7335 13.1152 86.4635 13.1552 86.2035 13.1952C85.9935 12.4152 86.4135 11.6152 87.3135 11.1352ZM85.1435 12.3652C85.2935 13.4552 85.2935 13.4552 83.7835 13.6852C84.3035 13.1752 84.6935 12.8052 85.1435 12.3652ZM86.3135 14.6552C86.7435 15.0652 87.4135 15.3052 87.9735 15.6252C87.9435 15.6852 87.9135 15.7552 87.8835 15.8152C86.5035 15.3752 84.8835 15.3852 83.6335 14.3152C84.7435 14.1052 85.5735 13.9452 86.3135 14.6552ZM82.3535 11.2452C82.6435 10.9252 82.9035 10.6252 83.1735 10.3252C83.5235 10.3552 83.8635 10.3752 84.1935 10.4052C83.9035 11.2852 83.5035 11.4752 82.3535 11.2452ZM83.7435 9.89518C83.6935 9.91518 83.4335 9.75518 83.4435 9.71518C83.5035 9.52518 83.5735 9.25518 83.7335 9.19518C84.1835 9.03518 84.6935 8.96518 85.2735 8.84518C85.1835 9.88518 84.2635 9.64518 83.7435 9.89518ZM85.5035 8.24518C85.1035 8.27518 84.7035 8.30518 84.3035 8.33518C84.2535 8.26518 84.2035 8.18518 84.1535 8.11518C84.4835 7.94518 84.8035 7.72518 85.1635 7.63518C85.2835 7.60518 85.5235 7.91518 85.7135 8.06518C85.6435 8.12518 85.5735 8.18518 85.5035 8.24518ZM85.8535 7.02518C85.4435 6.99518 85.0935 6.96518 84.7435 6.93518C84.6835 6.87518 84.6235 6.81518 84.5635 6.75518C84.8435 6.52518 85.1335 6.09518 85.3935 6.09518C86.0335 6.11518 86.0435 6.54518 85.8535 7.02518ZM85.6035 4.58518C85.6935 4.78518 85.8835 4.98518 85.8535 5.17518C85.8335 5.31518 85.5335 5.43518 85.3635 5.56518C85.2635 5.49518 85.1635 5.42518 85.0635 5.35518C85.2435 5.10518 85.4235 4.84518 85.6035 4.58518ZM85.0235 2.98518C84.7835 3.62518 84.5435 4.26518 84.2735 4.97518C83.7335 3.81518 83.7335 3.81518 85.0235 2.98518ZM83.0135 4.26518C84.0635 5.37518 84.3535 6.43518 83.4635 7.74518C83.0935 6.83518 82.7135 6.04518 82.4935 5.22518C82.4235 4.97518 82.8035 4.62518 83.0135 4.26518ZM81.6735 5.76518C81.7635 5.77518 81.8435 5.79518 81.9335 5.80518C82.3935 6.63518 82.9335 7.43518 83.2535 8.30518C83.3635 8.59518 82.9235 9.02518 82.6635 9.52518C82.1135 8.49518 81.5735 7.63518 81.2135 6.73518C81.1135 6.48518 81.5035 6.09518 81.6735 5.76518ZM80.7335 7.56518C81.9635 8.57518 82.3435 10.0952 81.5435 10.8152C80.3535 9.80518 80.0335 8.53518 80.7335 7.56518ZM79.7935 9.53518C80.9535 10.5952 81.2135 11.4352 80.4735 11.8952C79.7935 11.1752 79.4535 10.4452 79.7935 9.53518ZM70.4135 15.4052C70.6635 14.4452 71.0535 14.2352 71.9935 14.5352C71.4635 14.8252 71.0335 15.0652 70.4135 15.4052ZM71.5035 13.7752C71.8235 12.7052 71.9835 12.6352 73.3935 12.8952C73.2235 13.6752 72.9235 13.8152 71.5035 13.7752ZM72.3035 12.2352C72.7935 11.3252 73.3835 11.0752 74.6635 11.1952C74.4235 12.2552 74.3735 12.2752 72.3035 12.2352ZM73.3435 10.7652C73.8335 9.87518 74.1235 9.78518 75.3535 10.0152C75.2835 10.3052 75.2835 10.3052 73.3435 10.7652ZM74.2435 9.37518C74.5835 8.59518 74.8735 8.46518 75.7835 8.69518C75.6435 9.28518 75.6435 9.28518 74.2435 9.37518ZM76.4035 6.01518C76.3935 6.37518 76.3835 6.73518 76.3635 7.14518C76.0035 7.02518 75.8035 6.96518 75.5235 6.87518C75.7635 6.57518 76.0035 6.28518 76.2335 5.99518C76.2935 5.99518 76.3435 6.00518 76.4035 6.01518ZM75.6435 5.39518C75.2435 6.00518 74.8535 6.61518 74.4435 7.23518C73.8035 6.22518 73.8335 6.17518 75.6435 5.39518ZM73.2735 6.62518C74.0235 7.60518 74.0435 8.21518 73.3035 8.95518C73.1135 8.25518 72.9235 7.64518 72.8035 7.03518C72.7835 6.93518 73.0835 6.78518 73.2735 6.62518ZM71.8935 7.48518C73.0935 9.17518 73.1935 10.4252 71.8035 10.8752C71.5435 9.99518 71.2935 9.13518 71.0135 8.19518C71.2535 8.00518 71.5735 7.74518 71.8935 7.48518ZM69.8335 9.86518C69.9835 9.55518 70.2135 9.26518 70.5335 8.96518C70.7635 10.1652 72.1035 11.2052 71.0835 12.6052C70.6135 11.8652 70.1535 11.1852 69.7635 10.4852C69.6735 10.3052 69.7435 10.0452 69.8335 9.86518ZM69.2135 10.9152C69.8035 11.3352 70.2435 11.7552 70.1335 12.3052C70.0335 12.8252 70.1735 13.1352 70.9035 13.2652C70.6235 13.5452 70.4235 13.7452 70.2235 13.9552C69.2335 13.1052 68.8035 12.1852 69.2135 10.9152ZM55.3235 16.5852C55.1335 16.0052 54.9935 15.5452 54.8535 15.0952C54.9235 15.0652 54.9935 15.0452 55.0635 15.0152C55.1835 15.4752 56.1735 15.7452 55.3235 16.5852ZM56.3435 16.8252C56.7635 16.1552 57.3335 15.9552 58.5235 16.1552C57.8335 16.3652 57.1435 16.5752 56.3435 16.8252ZM59.7735 14.2952C59.3535 14.2452 58.8635 14.5052 58.3235 14.6552C58.7735 13.2852 60.0035 13.2352 61.4135 13.1752C60.9135 13.6852 60.9235 14.4252 59.7735 14.2952ZM61.7235 12.3652C61.0335 12.5652 60.3135 12.6952 59.6035 12.8552C59.8335 12.1452 60.7735 11.7152 62.1135 11.8252C61.9435 12.0652 61.8835 12.3252 61.7235 12.3652ZM60.6535 11.2452C60.9335 10.8052 60.9335 10.8052 62.4735 10.3652C62.6635 11.2152 62.2535 11.4152 60.6535 11.2452ZM62.8835 9.17518C62.7835 9.33518 62.6535 9.49518 62.4735 9.60518C62.1935 9.78518 61.8635 9.93518 61.4435 10.1652C61.6135 9.78518 61.6535 9.51518 61.8335 9.33518C62.0035 9.16518 62.3035 9.05518 62.5735 8.96518C62.6435 8.94518 62.9035 9.15518 62.8835 9.17518ZM62.4835 5.51518C62.5335 5.54518 62.5935 5.58518 62.6435 5.61518C62.5135 5.93518 62.3835 6.26518 62.1835 6.75518C61.9735 6.43518 61.6735 6.18518 61.7435 6.06518C61.8835 5.84518 62.2335 5.69518 62.4835 5.51518ZM61.1035 6.53518C61.5035 7.12518 62.1935 7.68518 61.2835 8.45518C60.3635 7.18518 60.3335 6.83518 61.1035 6.53518ZM59.7635 7.16518C60.0535 7.74518 60.2535 8.34518 60.6335 8.85518C61.1035 9.50518 60.7635 9.93518 60.1735 10.4852C59.8835 9.96518 59.6435 9.53518 59.4235 9.10518C59.2035 8.67518 59.0235 8.22518 58.7535 7.63518C58.9635 7.52518 59.2535 7.39518 59.7635 7.16518ZM58.0735 8.03518C58.5435 8.89518 58.9235 9.67518 59.3935 10.4052C59.7335 10.9352 59.8235 11.3852 59.0135 11.9152C58.3635 10.8952 57.7435 9.91518 57.0535 8.82518C57.2635 8.66518 57.5935 8.41518 58.0735 8.03518ZM56.5635 9.42518C57.2535 10.4152 57.9635 11.3452 58.5335 12.3352C58.6735 12.5752 58.3635 12.9952 58.2135 13.4752C56.2735 11.7552 55.6935 10.3352 56.5635 9.42518ZM55.5035 11.0752C56.2235 12.0552 56.9035 12.9152 57.4835 13.8152C57.6035 14.0052 57.3435 14.3452 57.2335 14.6752C55.8735 13.8652 54.9735 12.0452 55.5035 11.0752ZM54.5935 13.1652C54.7035 13.1152 54.8135 13.0652 54.9135 13.0252C55.4335 13.7752 55.9535 14.5252 56.4635 15.2752C56.3435 15.3352 56.2135 15.3852 56.0935 15.4452C55.6035 14.6752 55.0935 13.9152 54.5935 13.1652ZM39.6035 26.5352C38.7135 25.7352 38.8935 24.0152 39.6935 22.9852C40.0935 23.2452 40.4735 23.5052 40.9535 23.8252C39.4235 24.4752 40.0535 25.6452 39.6035 26.5352ZM44.5935 31.4552C43.9635 31.3352 43.6535 31.0452 43.8535 30.3852C44.0335 29.7952 44.0435 29.1752 44.0635 28.5652C44.0635 28.3952 43.8235 28.2152 43.6935 28.0452C43.5735 28.1952 43.3735 28.3452 43.3335 28.5052C43.2035 29.1552 43.1235 29.8052 43.0235 30.4552C42.9435 30.4852 42.8635 30.5152 42.7835 30.5452C42.2235 29.9852 41.6735 29.4252 41.1035 28.8652C40.2235 27.9952 40.1035 27.0152 40.5535 25.9452C40.6735 25.6552 40.5835 25.3052 40.7135 25.0252C40.9535 24.5352 41.3135 24.5152 41.6835 24.9252C42.1435 25.4352 42.4035 25.8652 41.9135 26.5852C41.4135 27.3252 41.2435 28.2452 41.7335 29.0652C41.8435 29.0752 41.9535 29.0952 42.0635 29.1052C42.2835 28.3152 42.5035 27.5252 42.7235 26.7452C42.8335 26.7252 42.9435 26.7152 43.0435 26.6952C43.9035 27.7752 44.7535 28.8452 45.4235 29.6952C45.0935 30.4152 44.8535 30.9252 44.5935 31.4552ZM46.0235 32.5052C45.4835 32.3252 45.4835 32.3252 45.7335 30.8952C46.1535 31.1652 46.4535 31.3652 46.6735 31.4952C46.4135 31.8852 46.2135 32.1952 46.0235 32.5052ZM47.0735 32.2152C47.4035 32.6952 47.6735 33.0752 47.9435 33.4652C46.9035 33.1452 46.8935 33.1352 47.0735 32.2152ZM47.2735 30.5252C46.6535 30.5152 46.3435 30.2352 45.9335 29.2952C46.9235 29.1252 47.0435 29.2452 47.2735 30.5252ZM46.7635 28.3752C45.7435 28.8052 45.2435 28.6252 44.8735 27.6452C45.5535 27.8852 46.4035 27.6752 46.7635 28.3752ZM45.9535 26.8852C45.7735 26.9752 45.5635 27.1652 45.4035 27.1452C44.9135 27.0952 44.4335 26.9552 43.9435 26.8552C43.9635 26.7752 43.9835 26.6952 44.0035 26.6152C44.4935 26.5752 44.9835 26.5052 45.4735 26.5152C45.6335 26.5252 45.7935 26.7552 45.9535 26.8852ZM45.1135 25.7652C43.2035 25.9052 42.7835 26.0952 42.5635 24.8252C44.6035 24.7152 44.9235 24.8352 45.1135 25.7652ZM44.0435 24.0452C42.7835 24.4552 41.7635 24.1852 41.3535 23.2752C42.0935 23.3352 42.7335 23.3852 43.5635 23.4452C43.6335 23.5352 43.8335 23.7852 44.0435 24.0452ZM42.9535 22.8752C41.7635 22.6652 40.5435 23.0352 40.0635 21.9452C40.8235 21.7152 42.1635 22.0952 42.9535 22.8752ZM40.5335 21.1552C39.4635 21.5352 39.0635 21.0852 38.8435 20.4052C39.3835 20.6452 39.9235 20.8852 40.5335 21.1552ZM38.6735 21.4752C39.3735 22.0552 38.9735 22.5052 38.4535 22.9552C38.5235 22.4952 38.5935 22.0252 38.6735 21.4752ZM44.3335 14.8452C44.7835 13.8352 46.1135 13.1152 47.5135 13.0952C47.3235 14.6652 45.6735 14.5152 44.3335 14.8452ZM45.3135 12.8652C45.6435 11.3152 47.2835 11.9152 48.2035 11.4852C47.7435 12.5852 46.4135 12.4252 45.3135 12.8652ZM45.9835 11.1752C46.0435 10.1852 47.4535 9.13518 48.6735 9.16518C48.9235 10.5652 48.3135 11.0252 45.9835 11.1752ZM48.8935 2.03518C49.1635 2.53518 49.5635 3.05518 48.3935 3.41518C48.5935 2.86518 48.7435 2.44518 48.8935 2.03518ZM48.6635 4.17518C48.7335 4.10518 49.0635 4.21518 49.2735 4.23518C49.1935 4.37518 49.1535 4.56518 49.0235 4.65518C48.7235 4.88518 48.3735 5.06518 48.0535 5.26518C47.9735 5.24518 47.9035 5.22518 47.8235 5.20518C48.0935 4.86518 48.3435 4.49518 48.6635 4.17518ZM49.0735 5.47518C49.4635 6.37518 49.0735 6.74518 47.4435 7.07518C47.3135 6.07518 48.4335 5.94518 49.0735 5.47518ZM48.9235 7.47518C49.0735 8.38518 49.0335 8.38518 47.9735 8.55518C47.5335 8.62518 47.1335 8.86518 46.5835 9.07518C46.9835 8.02518 47.6735 7.47518 48.9235 7.47518ZM46.3435 3.85518C46.9835 4.32518 47.1435 4.87518 46.8635 5.80518C45.7635 4.83518 45.6435 4.34518 46.3435 3.85518ZM44.9235 4.75518C45.1135 4.87518 45.3535 4.96518 45.4635 5.11518C45.7835 5.55518 46.0835 6.01518 46.3335 6.49518C46.4735 6.75518 46.4935 7.05518 46.5735 7.34518C46.4835 7.36518 46.4035 7.37518 46.3135 7.39518C45.7835 6.74518 45.2235 6.11518 44.7535 5.44518C44.6535 5.27518 44.8635 4.98518 44.9235 4.75518ZM44.0835 5.63518C44.5435 6.21518 45.0135 6.78518 45.4635 7.35518C45.5335 7.44518 45.5335 7.58518 45.6235 7.65518C46.3235 8.19518 46.1235 8.72518 45.5535 9.29518C44.6935 8.66518 43.9635 8.03518 43.6035 7.06518C43.3835 6.44518 43.2135 6.07518 44.0835 5.63518ZM42.6935 7.20518C43.5035 8.17518 44.1535 8.96518 44.8135 9.74518C45.4235 10.4752 45.4335 10.4752 44.9335 11.1452C44.0735 10.1352 43.2435 9.20518 42.5035 8.23518C42.3535 8.04518 42.5935 7.67518 42.6935 7.20518ZM42.0435 9.00518C43.0135 9.92518 43.9235 10.6752 44.6435 11.5352C44.8635 11.7952 44.5635 12.3452 44.4735 12.9652C43.4835 11.9852 42.5935 11.2052 41.8935 10.3352C41.6735 10.0652 41.9635 9.53518 42.0435 9.00518ZM41.7735 11.2352C42.7535 12.1552 43.7735 12.8652 44.0235 14.1152C42.0235 13.6052 41.6935 13.1752 41.7735 11.2352ZM42.1235 14.1652C43.5035 14.5452 43.6635 14.8852 42.8635 15.8152C42.5935 15.2052 42.3735 14.7252 42.1235 14.1652ZM60.5235 26.4652C58.8935 27.2452 58.4235 27.2052 57.3535 26.2452C59.2935 25.4152 60.0835 25.5352 60.5235 26.4652ZM59.0635 25.0852C58.2535 25.2852 57.4635 25.4752 56.5635 25.6952C56.1935 25.5052 55.7235 25.2552 55.2235 24.9852C56.8835 24.1352 58.4435 23.8952 59.0635 25.0852ZM57.3735 23.6052C56.6435 23.8652 55.9935 24.0952 55.3435 24.3252C54.6535 24.5652 54.0935 24.3552 53.1635 23.4152C54.2735 23.1952 55.2935 22.9952 56.3235 22.7952C56.6835 23.0652 57.0335 23.3352 57.3735 23.6052ZM55.2935 22.3352C54.5235 22.5552 53.7335 22.8652 52.8935 22.9752C52.4635 23.0352 51.9735 22.7152 51.3635 22.5352C53.1035 21.5652 54.2035 21.5552 55.2935 22.3352ZM52.2635 21.2652C51.3735 21.9252 50.5735 21.8652 49.7635 20.9752C50.7035 21.0852 51.4535 21.1652 52.2635 21.2652ZM49.7735 23.6252C49.4435 22.9152 49.1135 22.2052 48.7835 21.4952C50.1835 21.8552 49.6335 22.8452 50.0035 23.5552C49.9335 23.5752 49.8535 23.5952 49.7735 23.6252ZM51.6435 24.0752C51.4535 24.4752 51.5135 24.9552 51.4935 25.3952C51.4835 25.6052 51.5635 25.8052 51.6035 26.0152C51.2635 25.6152 50.6135 25.3952 51.0335 24.6852C51.3135 24.2152 50.9135 23.4952 50.8035 22.7952C51.6935 23.0752 51.9535 23.4052 51.6435 24.0752ZM53.5935 27.7752C52.9135 27.6052 52.7035 27.4852 52.5335 26.6952C52.3535 25.8352 51.9835 24.9452 52.6435 24.0152C53.1435 24.2852 53.6335 24.5552 54.0735 24.7952C52.7735 25.7552 53.9935 26.8352 53.5935 27.7752ZM55.5635 28.9052C54.4135 28.7152 54.6035 27.9552 54.4335 27.4152C54.2935 26.9652 54.2735 26.4852 54.3135 26.0152C54.3335 25.8152 54.6335 25.6152 54.8135 25.4252C54.9735 25.5952 55.2335 25.7452 55.2735 25.9352C55.4235 26.6352 55.5135 27.3552 55.6035 28.0652C55.6335 28.3252 55.5835 28.5952 55.5635 28.9052ZM57.5035 29.3952C56.3135 29.5452 56.4435 29.3952 56.3335 28.3152C56.2635 27.6352 56.2935 26.9452 56.2835 26.1952C56.8035 26.5552 57.3235 26.9152 57.9135 27.3152C56.9635 27.9752 57.5435 28.7052 57.5035 29.3952ZM59.2035 29.7352C58.7835 29.6052 58.2535 29.4952 58.2635 29.4352C58.3535 28.9352 57.8535 28.3752 58.5535 27.8852C58.9535 28.1952 59.7435 28.2952 59.0935 28.9652C58.9835 29.0752 59.1335 29.3452 59.2035 29.7352ZM59.1735 27.6152C60.7935 26.8752 61.2235 26.9352 61.9835 27.9952C61.1335 28.6752 60.7535 28.6352 59.1735 27.6152ZM61.3635 29.7852C60.9535 29.7552 60.5535 29.7252 60.1035 29.6852C60.0835 29.4452 60.0535 29.1952 60.0135 28.7452C60.5635 29.1052 60.9835 29.3852 61.4135 29.6652C61.3935 29.7052 61.3735 29.7452 61.3635 29.7852ZM62.9535 29.8452C62.4335 29.5352 61.9635 29.2552 61.4535 28.9552C62.5435 28.5852 63.0535 28.8852 62.9535 29.8452Z" fill="black"/>
</g>
<defs>
<clipPath id="clip0_130_119">
<rect width="128" height="75.01" fill="white" transform="translate(0.0136719 0.495117)"/>
</clipPath>
</defs>
</svg>
