<svg width="120" height="88" viewBox="0 0 120 88" fill="none" xmlns="http://www.w3.org/2000/svg">
<path d="M119.462 53.7504C119.162 53.5204 118.492 53.1904 118.022 53.0604C117.352 52.8704 115.772 52.9104 114.832 53.1304C113.512 53.4504 113.142 53.5504 112.882 53.6504C112.742 53.7104 112.612 53.7504 112.572 53.7404C112.502 53.7304 110.852 54.4004 110.072 54.7704L109.592 54.9904L109.642 54.1704C109.672 53.7204 109.712 53.1504 109.732 52.8904C109.752 52.6404 109.772 52.2504 109.772 52.0304C109.772 51.8104 109.772 51.5904 109.772 51.5304C109.772 51.4704 109.792 50.1504 109.802 48.5904C109.832 45.5204 109.842 45.5604 109.362 45.0304C109.132 44.7704 109.082 44.7604 108.362 44.7204C107.672 44.6804 107.572 44.7004 107.172 44.9004C106.632 45.1704 105.322 46.4404 104.692 47.3004C104.442 47.6404 104.082 48.2104 103.892 48.5504C103.702 48.8904 103.442 49.3804 103.302 49.6404C103.162 49.8904 102.952 50.2904 102.822 50.5204C102.692 50.7504 102.442 51.2204 102.262 51.5604C101.652 52.7304 100.882 53.9404 100.502 54.3404C100.072 54.7804 99.8717 54.8504 99.9517 54.5304C99.9817 54.4204 99.9617 54.3004 99.9117 54.2804C99.8517 54.2404 99.8517 54.1504 99.9017 54.0104C99.9417 53.8904 99.9617 53.7704 99.9417 53.7304C99.9217 53.6904 99.9317 53.6404 99.9617 53.6204C100.032 53.5704 100.012 52.6204 99.9417 52.4904C99.9117 52.4404 99.9517 52.3104 100.032 52.2004C100.112 52.0804 100.142 51.9504 100.112 51.9004C100.082 51.8504 100.132 51.6604 100.222 51.4804C100.412 51.1104 100.602 50.3904 100.682 49.7304C100.712 49.4804 100.762 49.2404 100.792 49.1904C100.822 49.1404 100.852 48.9904 100.862 48.8504C100.872 48.7104 100.922 48.4504 100.972 48.2704C101.022 48.0904 101.082 47.7104 101.102 47.4404C101.122 47.1704 101.172 46.8304 101.222 46.6904C101.302 46.4304 101.382 46.0904 101.432 45.7504C101.492 45.3704 101.582 45.0104 101.642 44.9304C101.742 44.7904 101.732 43.8904 101.622 43.7004C101.542 43.5604 101.542 43.5204 101.632 43.4904C101.802 43.4304 101.742 42.9304 101.532 42.6104C101.422 42.4504 101.312 42.2404 101.282 42.1404C101.252 42.0404 101.072 41.8804 100.882 41.7904C100.692 41.6904 100.432 41.5304 100.302 41.4404C100.122 41.3004 100.052 41.2904 100.002 41.3704C99.9517 41.4504 99.8117 41.4604 99.5217 41.4204C99.1717 41.3704 99.0217 41.4004 98.6217 41.5904C98.2117 41.7804 98.1617 41.8304 98.2817 41.9004C98.5017 42.0304 98.4817 42.2104 97.8617 44.6004C97.7417 45.0604 97.6117 45.5804 97.5817 45.7704C97.3917 46.6704 97.2617 47.1504 97.1017 47.5604C97.0017 47.8104 96.9417 48.0304 96.9617 48.0504C96.9817 48.0704 96.9317 48.1904 96.8417 48.3004C96.7517 48.4204 96.6317 48.7004 96.5617 48.9304C96.4917 49.1604 96.2317 49.8504 95.9717 50.4704C95.7217 51.0904 95.5317 51.6104 95.5517 51.6304C95.5717 51.6504 95.5617 51.7104 95.5217 51.7604C95.4817 51.8104 95.3617 52.0904 95.2517 52.3904C95.1417 52.6904 94.9717 53.0304 94.8717 53.1604C94.7717 53.2904 94.6617 53.5704 94.6317 53.8104C94.6017 54.0404 94.4417 54.5304 94.2917 54.8904C94.1417 55.2504 94.0117 55.6104 94.0117 55.6804C94.0117 55.7504 93.9417 55.8804 93.8617 55.9704C93.7717 56.0604 93.6817 56.3104 93.6517 56.5804C93.5517 57.3904 93.2317 58.3204 93.0517 58.3204C92.9617 58.3204 92.9417 58.3704 92.9817 58.4904C93.0117 58.5804 92.9717 58.7804 92.9017 58.9304C92.8317 59.0804 92.6917 59.4404 92.6017 59.7404C92.5117 60.0404 92.3817 60.4004 92.3117 60.5504C92.2517 60.6904 92.1917 60.8604 92.1917 60.9004C92.1917 61.0304 91.6217 62.7104 91.3617 63.3704C91.0517 64.1304 89.6717 66.8504 89.5717 66.8904C89.3917 66.9604 89.3017 66.8404 89.4517 66.7204C89.5517 66.6404 89.5717 66.4404 89.5717 65.8304C89.5717 64.7104 89.6717 63.5704 89.7717 63.4704C89.8217 63.4204 89.8317 63.2204 89.8017 62.9804C89.7717 62.7204 89.7917 62.5304 89.8517 62.4504C89.9117 62.3804 89.9417 62.1804 89.9317 62.0104C89.9217 61.8304 89.9317 61.6504 89.9617 61.6004C89.9917 61.5504 90.0017 61.4504 89.9717 61.3704C89.9417 61.2904 89.9617 61.1904 90.0117 61.1204C90.0617 61.0604 90.1017 60.8404 90.1017 60.6404C90.0917 60.1804 90.1917 59.5504 90.2817 59.4404C90.3917 59.3104 90.5317 58.4004 90.5217 57.9004C90.5117 57.6504 90.5617 57.3304 90.6117 57.1904C90.7317 56.8904 90.7617 56.4804 90.6717 56.4204C90.6317 56.3904 90.6317 56.3504 90.6817 56.3204C90.7317 56.2904 90.7717 56.0604 90.7817 55.8104C90.7917 55.5604 90.8217 55.3204 90.8617 55.2704C90.8917 55.2204 90.9417 54.9804 90.9717 54.7304C91.0717 53.7004 91.1217 53.4304 91.2117 53.2504C91.2617 53.1504 91.2817 52.9504 91.2517 52.8204C91.2217 52.6604 91.2417 52.5404 91.3117 52.4804C91.3717 52.4304 91.4517 52.2004 91.4817 51.9704C91.5117 51.7404 91.5717 51.5404 91.6117 51.5104C91.6517 51.4904 91.6817 51.3804 91.6817 51.2804C91.6817 51.1804 91.7317 51.0204 91.7917 50.9404C91.8517 50.8604 91.8917 50.6704 91.8717 50.5304C91.8517 50.3904 91.8717 50.2004 91.9117 50.1004C92.0117 49.8804 92.1917 48.9804 92.1817 48.7604C92.1817 48.6704 92.2017 48.5204 92.2517 48.4304C92.3317 48.2604 92.5217 47.0104 92.5517 46.4704C92.5617 46.3104 92.6617 45.9204 92.7717 45.5904C92.9517 45.0604 92.9717 44.8904 92.9617 43.8404C92.9517 42.8504 92.9217 42.6104 92.7717 42.2804C92.5317 41.7504 92.1817 41.4104 91.8017 41.3604C91.3717 41.2904 90.7117 41.4004 90.4517 41.5704C90.2417 41.7104 89.2917 42.7504 89.2917 42.8404C89.2917 42.8604 89.1917 42.9904 89.0717 43.1204C88.5617 43.6704 87.1317 46.2104 87.1317 46.5604C87.1317 46.6404 87.0817 46.7404 87.0217 46.7604C86.9617 46.7804 86.7017 47.3204 86.4317 47.9604C86.1717 48.5904 85.8017 49.4604 85.6317 49.8804C85.4517 50.3004 85.2817 50.7704 85.2517 50.9204C85.2217 51.0804 85.1517 51.2804 85.0917 51.3704C84.9617 51.5804 84.3517 53.0404 84.2717 53.3304C84.2417 53.4404 84.1417 53.7004 84.0517 53.8904C83.9617 54.0804 83.8917 54.2804 83.8917 54.3204C83.8917 54.3604 83.8317 54.4504 83.7517 54.5104C83.6317 54.6104 83.6217 54.6004 83.6617 54.3704C83.6817 54.2304 83.7717 53.7604 83.8417 53.3304C83.9117 52.9004 84.0117 52.4204 84.0617 52.2904C84.1117 52.1204 84.1117 51.9304 84.0517 51.7104C83.9817 51.4804 83.9817 51.3304 84.0517 51.1804C84.1017 51.0704 84.1417 50.8004 84.1417 50.5704C84.1417 50.3404 84.1717 50.1404 84.2117 50.1104C84.2517 50.0804 84.2717 49.7204 84.2617 49.2904C84.2417 48.6804 84.2617 48.4904 84.3617 48.3804C84.4417 48.3004 84.4817 48.1404 84.4617 48.0004C84.4417 47.8704 84.4817 47.7104 84.5417 47.6504C84.6117 47.5804 84.6317 47.4704 84.6017 47.3704C84.5717 47.2704 84.5917 47.1804 84.6517 47.1404C84.7817 47.0604 84.8117 46.8904 84.8317 46.1004C84.8417 45.7704 84.8717 45.4704 84.9117 45.4204C84.9517 45.3704 84.9517 45.2704 84.9217 45.1904C84.8917 45.1104 84.9017 45.0104 84.9517 44.9504C84.9917 44.8904 85.0417 44.6604 85.0517 44.4404C85.0617 44.2104 85.1017 43.9604 85.1517 43.8704C85.2117 43.7604 85.2017 43.6804 85.1417 43.6004C85.0717 43.5104 85.0817 43.4804 85.1817 43.4404C85.2717 43.4104 85.3117 43.2804 85.3117 43.0304C85.3117 42.8304 85.3517 42.6304 85.3917 42.5904C85.4317 42.5504 85.4817 42.2904 85.5017 42.0104C85.5217 41.7304 85.5817 41.4204 85.6417 41.3104C85.7017 41.1904 85.7317 40.9804 85.7017 40.7904C85.6717 40.5704 85.7017 40.4404 85.7817 40.3704C85.8517 40.3104 85.8917 40.1704 85.8717 40.0304C85.8517 39.9004 85.8617 39.7704 85.9017 39.7504C85.9417 39.7304 85.9817 39.5704 85.9817 39.4104C85.9817 39.2504 86.0317 39.0104 86.1017 38.8804C86.2817 38.5204 86.3617 37.7904 86.2217 37.7004C86.1317 37.6404 86.1417 37.5904 86.2817 37.4604C86.4017 37.3404 86.4817 37.1404 86.5217 36.7904C86.5617 36.4604 86.6317 36.2404 86.7417 36.1504C86.8217 36.0804 86.9017 35.9504 86.9017 35.9004C86.9017 35.8404 86.9417 35.7204 86.9817 35.6504C87.1617 35.3304 87.3417 34.7304 87.3817 34.3304C87.5017 32.9304 87.3717 32.2004 86.9617 31.9804C86.8417 31.9104 86.7417 31.8204 86.7617 31.7704C86.7917 31.6704 86.2517 31.3504 86.1217 31.4004C86.0717 31.4204 85.9317 31.3804 85.8117 31.3204C85.6417 31.2304 85.5517 31.2304 85.4317 31.3004C85.3117 31.3804 85.2417 31.3704 85.0817 31.2504C84.8517 31.0804 84.7617 31.0804 84.7517 31.2204C84.7017 32.2704 84.5617 33.0004 84.2117 34.0404C84.1917 34.1104 84.1217 34.3704 84.0617 34.6204C84.0017 34.8704 83.9317 35.1204 83.9017 35.1604C83.8017 35.3104 83.3517 36.8304 83.2517 37.3304C83.2017 37.6104 83.1117 37.9004 83.0717 37.9804C83.0317 38.0604 82.9017 38.5004 82.8017 38.9404C82.5017 40.2204 82.1017 41.6904 81.8617 42.4104C81.7417 42.7704 81.6417 43.2004 81.6317 43.3504C81.6217 43.5104 81.5817 43.6604 81.5317 43.6904C81.4817 43.7204 81.4017 43.9204 81.3617 44.1204C81.3117 44.3304 81.1917 44.7504 81.0917 45.0804C80.9917 45.4104 80.8617 45.8504 80.8017 46.0804C80.7417 46.3104 80.5917 46.8104 80.4717 47.2104C80.1317 48.3004 79.4217 50.7204 79.3317 51.0904C79.2817 51.2704 79.2017 51.5404 79.1417 51.6704C79.0817 51.8104 78.8417 52.6104 78.6117 53.4604C78.3817 54.3104 78.1317 55.1904 78.0717 55.4204C78.0117 55.6504 77.8717 56.1504 77.7817 56.5504C77.6817 56.9404 77.5517 57.3904 77.4917 57.5504C77.1917 58.3504 76.6617 59.8304 76.4517 60.4304C75.8817 62.0704 75.7717 62.3304 74.9217 64.0204C74.1417 65.5904 73.4517 66.6704 73.3317 66.5404C73.3017 66.5104 73.2617 66.2704 73.2617 66.0004C73.2517 65.7404 73.2117 65.1604 73.1717 64.7304C73.1317 64.3004 73.1117 63.8804 73.1117 63.8104C73.1417 63.5404 73.2417 60.2004 73.2517 59.1404C73.2617 58.5204 73.2917 57.9804 73.3217 57.9304C73.3517 57.8804 73.3517 57.6904 73.3117 57.5004C73.2717 57.2804 73.2817 57.1404 73.3317 57.1204C73.3717 57.1004 73.4217 56.8604 73.4417 56.5704C73.4617 56.2904 73.5117 55.9304 73.5517 55.7804C73.6417 55.4904 73.6317 55.0704 73.5417 54.9104C73.5117 54.8604 73.5317 54.6804 73.5917 54.5304C73.8217 53.9704 73.8817 53.6904 73.8417 53.3304C73.8217 53.1204 73.8417 52.8804 73.8917 52.7904C73.9417 52.7004 74.0017 52.4504 74.0217 52.2304C74.0417 52.0104 74.1017 51.7904 74.1417 51.7404C74.2617 51.5904 74.3817 50.7604 74.3917 49.9504C74.4017 49.5604 74.4417 49.2004 74.4817 49.1404C74.5317 49.0804 74.5417 49.0104 74.5117 48.9604C74.4817 48.9204 74.5617 48.6904 74.6917 48.4504C74.9117 48.0304 74.9317 48.0104 75.4517 47.8604C76.2517 47.6404 77.4617 47.1904 77.6117 47.0604C77.6817 46.9904 77.8017 46.9604 77.8717 46.9904C77.9417 47.0204 78.0217 47.0004 78.0517 46.9504C78.0817 46.9004 78.1917 46.8604 78.2917 46.8604C78.3917 46.8604 78.6317 46.7904 78.8317 46.6904C79.1417 46.5504 79.1817 46.5004 79.1317 46.3304C79.0317 45.9704 78.9017 45.7704 78.7517 45.7704C78.6817 45.7704 78.5617 45.7104 78.5017 45.6404C78.3317 45.4304 77.7017 45.5304 76.4817 45.9604C75.8817 46.1704 75.3817 46.3104 75.3417 46.2904C75.1717 46.1304 75.3217 45.1304 75.5317 45.0004C75.6117 44.9504 75.6917 44.8304 75.6917 44.7504C75.6917 44.6704 75.7517 44.5304 75.8317 44.4404C75.9717 44.2704 76.3317 43.3204 76.4117 42.9104C76.4317 42.7804 76.5217 42.6404 76.6017 42.6004C76.6917 42.5504 76.7617 42.3804 76.7917 42.1204C76.8217 41.9004 76.9217 41.5704 77.0117 41.3904C77.1117 41.2104 77.1717 40.9804 77.1617 40.8804C77.1417 40.7904 77.1817 40.6604 77.2317 40.6104C77.2817 40.5604 77.3717 40.3004 77.4217 40.0304C77.4717 39.7604 77.5717 39.3404 77.6417 39.0904C77.7117 38.8404 77.8017 38.4604 77.8517 38.2504C77.9017 38.0404 77.9817 37.7504 78.0217 37.6004C78.1017 37.3404 78.0817 37.3004 77.7917 36.9704C77.4317 36.5704 77.1417 36.5004 76.6917 36.7004C76.5317 36.7704 76.0217 36.9704 75.5617 37.1304C73.8917 37.7404 73.7017 37.8104 73.7617 37.8704C73.7917 37.9004 73.6917 38.0304 73.5417 38.1704C73.3117 38.3704 73.2817 38.4304 73.3617 38.5304C73.4417 38.6304 73.4317 38.7104 73.3417 38.8904C73.0117 39.5604 72.1517 42.6104 72.0817 43.4204C72.0717 43.5404 72.0417 43.6804 72.0217 43.7504C71.9617 43.9204 71.7317 45.1604 71.6317 45.8804C71.5017 46.8104 71.3917 47.4204 71.3417 47.5004C71.3117 47.5404 71.1017 47.6204 70.8617 47.6704C70.6217 47.7204 69.7817 47.9804 68.9917 48.2404C67.7817 48.6404 67.5317 48.7004 67.3917 48.6104C67.1417 48.4504 67.1417 48.4704 67.3217 48.9204C67.4117 49.1404 67.6817 49.5204 67.9117 49.7504C68.2817 50.1304 68.3717 50.1804 68.6717 50.1804C68.8617 50.1804 69.0817 50.1304 69.1717 50.0704C69.2617 50.0104 69.5117 49.9104 69.7517 49.8504C69.9817 49.7904 70.2217 49.6904 70.3017 49.6304C70.3717 49.5704 70.5417 49.5204 70.6617 49.5204C70.8417 49.5204 70.8817 49.5504 70.8317 49.6704C70.8017 49.7504 70.7017 50.0104 70.6217 50.2504C70.5417 50.4804 70.4117 50.7804 70.3317 50.8904C70.2517 51.0104 70.1117 51.3404 70.0017 51.6304C69.7917 52.2104 69.3817 53.1604 68.8317 54.3504C68.6317 54.7804 68.4717 55.1504 68.4717 55.1804C68.4717 55.2104 68.3417 55.5104 68.1817 55.8504C67.8117 56.6204 67.5117 57.4404 67.3017 58.3104C67.2117 58.6904 67.0517 59.1604 66.9417 59.3704C66.4717 60.3004 66.3217 60.6104 66.1517 61.0404C66.0517 61.2904 65.8917 61.6304 65.8117 61.7904C64.6717 64.0804 64.0717 65.0404 63.3517 65.7304C62.7517 66.3004 62.3317 66.4604 61.9917 66.2404C61.7017 66.0504 61.0317 65.2204 60.8817 64.8704C60.8217 64.7204 60.6917 64.5204 60.5917 64.4404C60.4617 64.3204 60.4417 64.2604 60.5117 64.1704C60.5717 64.0904 60.5617 64.0104 60.4717 63.8704C60.4017 63.7704 60.3417 63.6004 60.3417 63.5004C60.3417 63.4004 60.2917 63.3004 60.2317 63.2704C60.1617 63.2404 60.1117 63.0404 60.1017 62.7104C60.0917 62.4304 60.0417 62.1204 60.0017 62.0404C59.9617 61.9604 59.9417 61.8304 59.9717 61.7604C60.0017 61.6904 59.9917 61.5804 59.9517 61.5304C59.8917 61.4404 59.8317 60.4804 59.8417 59.8404C59.8717 57.6704 59.8717 57.6604 60.1017 57.3604C60.2217 57.2004 60.4817 56.9104 60.6617 56.7104C60.8417 56.5204 61.0017 56.3304 61.0017 56.3004C61.0017 56.2704 61.1617 56.0704 61.3517 55.8604C61.5517 55.6504 61.8417 55.2804 62.0217 55.0304C62.1917 54.7804 62.4517 54.4204 62.6017 54.2104C62.7417 54.0104 62.9017 53.7804 62.9517 53.7104C63.0017 53.6404 63.1517 53.4104 63.3017 53.2004C63.4517 52.9904 63.6217 52.7004 63.6917 52.5604C63.7617 52.4204 63.8717 52.2504 63.9417 52.2004C64.0117 52.1404 64.0717 52.0604 64.0717 52.0204C64.0717 51.9804 64.1617 51.8204 64.2817 51.6704C64.3917 51.5204 64.4917 51.3704 64.4917 51.3404C64.4917 51.3104 64.6217 51.0904 64.7817 50.8604C64.9417 50.6304 65.0917 50.3404 65.1217 50.2304C65.1517 50.1204 65.2017 50.0304 65.2317 50.0304C65.2617 50.0304 65.4517 49.7004 65.6417 49.3004C65.8317 48.9004 66.1017 48.3504 66.2317 48.0904C66.3617 47.8304 66.4717 47.5604 66.4717 47.5004C66.4717 47.4404 66.5617 47.1804 66.6817 46.9304C66.8017 46.6804 66.9517 46.3404 67.0217 46.1804C67.0917 46.0204 67.2217 45.7504 67.3117 45.5704C67.4017 45.3904 67.4517 45.2204 67.4217 45.1704C67.3917 45.1204 67.4217 45.0404 67.4917 44.9804C67.5617 44.9304 67.6917 44.6504 67.8017 44.3804C68.1817 43.3604 68.2417 43.2104 68.3917 42.8804C68.4817 42.6904 68.5517 42.5004 68.5517 42.4504C68.5517 42.4004 68.6317 42.2004 68.7317 41.9904C68.8317 41.7904 68.9417 41.5204 68.9717 41.4104C69.0117 41.2904 69.1317 40.9404 69.2517 40.6204C69.3717 40.2904 69.4617 39.9504 69.4617 39.8504C69.4617 39.7504 69.5017 39.6604 69.5417 39.6604C69.5817 39.6604 69.6417 39.4804 69.6717 39.2604C69.7017 39.0404 69.7917 38.7104 69.8817 38.5204C69.9617 38.3304 70.0617 38.0104 70.0917 37.8104C70.1217 37.6104 70.1917 37.4004 70.2317 37.3404C70.2817 37.2804 70.3217 36.9804 70.3417 36.6704C70.3517 36.3604 70.3917 36.0404 70.4217 35.9604C70.5017 35.7404 70.3217 34.4004 70.2117 34.4004C70.1017 34.4004 70.0317 33.9704 70.1317 33.8504C70.2017 33.7704 70.1717 33.6804 70.0317 33.4904C69.9317 33.3504 69.8217 33.2404 69.8017 33.2404C69.7717 33.2404 69.6517 33.1404 69.5217 33.0204C69.3917 32.9004 69.1317 32.7604 68.9517 32.7204C68.7717 32.6804 68.5217 32.5804 68.4017 32.4904C68.2817 32.4104 68.0917 32.3104 67.9817 32.2804C67.8717 32.2504 67.6217 32.1504 67.4417 32.0604C67.2417 31.9704 66.8717 31.9004 66.5517 31.8904C66.0917 31.8804 65.9617 31.9004 65.8117 32.0404C65.7117 32.1304 65.3717 32.3904 65.0417 32.6104C64.2617 33.1504 63.3217 34.1304 62.7517 34.9904C62.2317 35.7704 61.5317 37.0704 61.2917 37.6904C61.2017 37.9204 61.0317 38.3204 60.9217 38.5704C60.4617 39.6004 59.3817 42.8104 59.1917 43.7004C59.1417 43.9304 58.9817 44.5504 58.8217 45.0904C58.6617 45.6204 58.5417 46.1604 58.5417 46.2804C58.5417 46.4004 58.5117 46.5204 58.4717 46.5404C58.4317 46.5704 58.3717 46.7704 58.3417 46.9804C58.3117 47.2004 58.2317 47.5304 58.1717 47.7204C58.1017 47.9104 58.0417 48.1904 58.0217 48.3504C58.0017 48.5104 57.9417 48.8204 57.8917 49.0504C57.8417 49.2804 57.7217 50.0104 57.6317 50.6804C57.5417 51.3504 57.4317 51.9504 57.4017 52.0204C57.3717 52.0904 57.3317 52.3304 57.3217 52.5504C57.2717 53.6304 56.9917 55.3304 56.8117 55.6904C56.6017 56.1104 56.0617 57.3904 55.7817 58.1504C55.6817 58.4304 55.5717 58.6904 55.5417 58.7404C55.5117 58.7904 55.3417 59.1804 55.1517 59.6004C54.9717 60.0304 54.6717 60.6104 54.4917 60.8904C54.1817 61.3804 52.6517 64.4304 51.9317 65.9904C51.5817 66.7504 51.0217 67.5804 50.8717 67.5604C50.7417 67.5404 50.5717 66.7704 50.6117 66.3904C50.6317 66.1904 50.6117 66.0204 50.5617 65.9904C50.5117 65.9604 50.5017 65.8404 50.5317 65.7104C50.5617 65.5904 50.6017 65.3604 50.6217 65.2004C50.6417 65.0404 50.6717 64.7604 50.6917 64.5704C50.7217 64.3904 50.7617 64.0104 50.7817 63.7304C50.8117 63.4504 50.8817 63.0204 50.9417 62.7704C51.0017 62.5204 51.0417 62.2904 51.0217 62.2604C51.0017 62.2304 51.0417 62.0704 51.1117 61.9104C51.1817 61.7504 51.2317 61.4704 51.2317 61.2904C51.2317 61.1104 51.2817 60.8904 51.3517 60.8104C51.4217 60.7204 51.4717 60.5504 51.4717 60.4304C51.4717 60.3104 51.5117 60.1804 51.5517 60.1404C51.5917 60.1004 51.6717 59.7804 51.7217 59.4304C51.7717 59.0904 51.8517 58.7304 51.9017 58.6504C52.0817 58.3204 52.2117 57.7404 52.1417 57.6104C52.0917 57.5204 52.1117 57.4004 52.1817 57.2704C52.2417 57.1504 52.2917 56.9604 52.3017 56.8404C52.3117 56.5604 51.8717 56.0404 51.5717 55.9704C51.4517 55.9404 51.1717 55.8104 50.9417 55.6904C50.7117 55.5604 50.3717 55.4204 50.1717 55.3604C49.8617 55.2804 49.7917 55.2204 49.6617 54.9104C49.4317 54.3804 49.0517 54.0604 47.9117 53.4604L46.8717 52.9204L45.9817 52.9604C45.0317 52.9404 44.4217 53.0304 43.9717 53.2704C43.5717 53.4804 42.6917 54.3804 42.2417 55.0404C41.8617 55.6004 41.1217 56.8104 41.1217 56.8804C41.1217 56.9004 41.0317 57.1104 40.9217 57.3604C40.4717 58.3404 39.8817 59.9704 39.5817 61.0204C39.5117 61.2704 39.2717 61.7804 39.0517 62.1504C38.3717 63.2704 37.6717 64.4604 37.3817 65.0104C37.2317 65.2904 37.0217 65.6704 36.9217 65.8404C36.8217 66.0104 36.6517 66.3204 36.5317 66.5304C36.4117 66.7404 36.2117 67.0704 36.0717 67.2804C35.9317 67.4904 35.8217 67.7004 35.8217 67.7504C35.8217 67.8004 35.7617 67.8904 35.7017 67.9504C35.6317 68.0104 35.4617 68.2904 35.3217 68.5904C35.1817 68.8904 34.8717 69.4704 34.6217 69.8904C34.3717 70.3104 34.1717 70.6704 34.1717 70.7104C34.1717 70.7504 34.1417 70.7804 34.1017 70.8004C34.0217 70.8404 33.3617 71.7204 33.0317 72.2504C32.4717 73.1304 31.0117 75.0204 30.6717 75.3004C30.2017 75.7004 29.6417 76.0404 29.4817 76.0404C29.3917 76.0404 29.3617 75.9504 29.3617 75.7504C29.3617 75.5904 29.3217 75.4404 29.2717 75.4104C29.2217 75.3804 29.2017 75.2604 29.2317 75.1304C29.2917 74.8704 29.4317 73.4604 29.4917 72.4104C29.5117 71.9904 29.5717 71.6404 29.6217 71.6104C29.7017 71.5604 29.8017 71.0904 29.9717 69.9504C30.0617 69.3304 30.0917 69.2404 30.2517 69.2204C30.3517 69.2104 30.6817 68.9804 30.9817 68.7204C31.2917 68.4604 31.6117 68.2004 31.7117 68.1504C31.8017 68.1004 31.9717 67.9204 32.0817 67.7504C32.1917 67.5804 32.3317 67.4504 32.3817 67.4504C32.4817 67.4504 33.6317 66.1104 33.9917 65.5804C34.0917 65.4304 34.1917 65.2204 34.2217 65.1004C34.2517 64.9804 34.3317 64.8604 34.3917 64.8404C34.4617 64.8204 34.5117 64.7404 34.5117 64.6704C34.5117 64.5904 34.5617 64.4504 34.6317 64.3404C34.7717 64.1304 35.3717 62.4704 35.5417 61.8404C35.6017 61.6204 35.6317 61.2204 35.6117 60.9504C35.5817 60.5404 35.6017 60.4304 35.7417 60.2904C35.8817 60.1504 35.8917 60.0904 35.8117 59.8704C35.7617 59.7304 35.6517 59.6004 35.5717 59.5704C35.4917 59.5504 35.3217 59.4404 35.2017 59.3404C34.7517 58.9904 34.0717 58.6104 33.8717 58.6104C33.7617 58.6104 33.6117 58.5804 33.5317 58.5404C33.0217 58.2804 32.9617 58.2704 32.7217 58.3704C32.5817 58.4304 32.4017 58.4804 32.3017 58.4904C31.8217 58.5504 30.7017 59.2304 30.2117 59.7504C29.6017 60.4004 28.9417 61.2204 28.5517 61.8004C27.7117 63.0604 26.7617 65.2604 26.3817 66.8304C26.1817 67.6604 26.0117 68.0804 25.4017 69.2904C24.6517 70.7804 23.9417 72.4704 23.7017 73.3504C23.6317 73.6204 23.5117 73.9804 23.4517 74.1304C23.3917 74.2904 23.1717 74.8704 22.9617 75.4204C22.7517 75.9704 22.3717 76.9604 22.1017 77.6304C21.8317 78.3004 21.4317 79.4004 21.2117 80.0904C20.7117 81.6404 19.3617 84.6204 19.1217 84.7004C19.0617 84.7204 19.0317 84.6004 19.0417 84.3704C19.0517 83.8004 18.9317 82.6104 18.8517 82.5104C18.8017 82.4504 18.8017 82.3704 18.8517 82.2904C18.9517 82.1304 18.9517 81.7504 18.8517 81.5604C18.8017 81.4704 18.8017 81.3104 18.8517 81.1304C18.8917 80.9804 18.9517 80.2304 18.9717 79.4704C18.9917 78.7104 19.0517 77.8404 19.1017 77.5504C19.1517 77.2504 19.2117 76.7704 19.2317 76.4604C19.2517 76.1604 19.3317 75.6804 19.4017 75.4004C19.4717 75.1204 19.5017 74.8404 19.4717 74.7904C19.4417 74.7404 19.4617 74.4904 19.5217 74.2304C19.5717 73.9704 19.6217 73.5204 19.6117 73.2304C19.6117 72.9504 19.6417 72.6904 19.6817 72.6604C19.7317 72.6304 19.7417 72.4804 19.7117 72.2804C19.6817 72.0804 19.6917 71.9004 19.7517 71.8304C19.8717 71.6804 19.9517 70.8504 19.9317 69.8104C19.9217 69.1204 19.8917 68.9104 19.7417 68.6704C19.6417 68.5004 19.5317 68.3704 19.5017 68.3704C19.4617 68.3704 19.3417 68.2804 19.2417 68.1704C19.0417 67.9604 18.4717 67.7404 17.8817 67.6504C17.4517 67.5804 17.1617 67.7104 16.4617 68.2804C15.9017 68.7404 14.5317 70.3104 14.5317 70.5004C14.5317 70.5704 14.4817 70.6504 14.4217 70.6804C14.3617 70.7204 14.1117 71.0604 13.8717 71.4304C13.4017 72.1604 13.2417 72.2904 13.3217 71.8504C13.3417 71.7004 13.4117 71.1704 13.4617 70.6604C13.5117 70.1504 13.5917 69.6804 13.6317 69.6004C13.6717 69.5204 13.7017 69.2904 13.7017 69.0804C13.7017 68.6104 13.8917 68.1304 14.1617 67.9104C14.2717 67.8204 14.5417 67.5604 14.7617 67.3304C14.9817 67.1104 15.3517 66.7304 15.5917 66.5004C16.0617 66.0404 17.0617 64.8304 17.6917 63.9404C17.9017 63.6404 18.1517 63.3004 18.2517 63.1804C18.3517 63.0504 18.4217 62.9004 18.4217 62.8304C18.4217 62.7604 18.4817 62.6604 18.5417 62.6004C18.6117 62.5404 18.7317 62.3604 18.8117 62.2004C18.8917 62.0404 19.0817 61.7204 19.2417 61.5004C19.4017 61.2804 19.6517 60.8704 19.7917 60.5804C20.1717 59.8404 20.3617 59.4804 20.4117 59.4404C20.4617 59.3904 20.5917 59.1204 21.0417 58.1504C21.6717 56.7804 21.7317 56.6204 21.7217 56.3504C21.7117 56.1004 21.8917 55.4804 22.0817 55.0904C22.1217 55.0204 22.1717 54.8104 22.2017 54.6304C22.2317 54.4504 22.3117 54.2004 22.3817 54.0704C22.7517 53.3304 22.9717 50.5904 22.7117 49.9304C22.6817 49.8604 22.6217 49.6404 22.5717 49.4304C22.5017 49.1504 22.3317 48.9104 21.9217 48.4804C21.6117 48.1604 21.3017 47.8304 21.2217 47.7404C21.0017 47.5004 20.5617 47.3404 20.1517 47.3404C19.9517 47.3404 19.4617 47.2704 19.0617 47.1804C18.5517 47.0704 18.2817 47.0404 18.1817 47.1004C18.1017 47.1504 18.0117 47.1704 17.9717 47.1604C17.9317 47.1504 17.7617 47.2104 17.5817 47.2904C17.4117 47.3704 17.2317 47.4304 17.1917 47.4304C17.1417 47.4304 16.8617 47.7104 15.8317 48.8504C14.8617 49.9104 13.6417 51.9904 13.0117 53.6504C12.9117 53.9304 12.7617 54.2604 12.6917 54.4004C12.6117 54.5404 12.5617 54.7104 12.5617 54.7804C12.5617 54.8604 12.5317 54.9404 12.4817 54.9904C12.3717 55.1004 11.9617 56.4704 11.6117 57.8404C11.4517 58.4904 11.2717 59.1204 11.2317 59.2404C11.1817 59.3604 11.0917 59.7604 11.0217 60.1404C10.9517 60.5204 10.8617 61.0104 10.8117 61.2404C10.7617 61.4704 10.6917 61.8204 10.6517 62.0304C10.5817 62.2104 10.4717 62.7004 10.3817 63.0904C10.1817 64.0004 9.9817 65.1804 9.8817 66.1804C9.8317 66.6204 9.7217 67.4804 9.6217 68.1004L9.4417 69.2304L8.9517 69.5504C8.6817 69.7204 8.4417 69.9104 8.4017 69.9604C8.3617 70.0104 8.2317 70.1104 8.0917 70.1804C7.9517 70.2504 7.5817 70.4804 7.2617 70.6904C6.4717 71.2104 5.2117 71.8504 4.9717 71.8504C4.9217 71.8504 4.7017 71.9404 4.4617 72.0504C4.2217 72.1604 3.8817 72.2904 3.7017 72.3304C3.5217 72.3804 3.1117 72.4904 2.7917 72.5904C2.4417 72.7004 1.9717 72.7704 1.6217 72.7704C1.0617 72.7704 1.0217 72.7804 0.991703 72.9604C0.941703 73.2104 1.2817 73.6304 1.7217 73.8704C1.9817 74.0104 2.1817 74.0404 2.9117 74.0404C3.7417 74.0404 3.8617 74.0104 5.0617 73.6104C6.1617 73.2404 6.8217 73.0004 7.8517 72.5704C7.9817 72.5104 8.2217 72.4104 8.3817 72.3504C8.5417 72.2904 8.7317 72.1604 8.8117 72.0704C8.8917 71.9704 8.9717 71.9204 9.0017 71.9404C9.0717 72.0204 9.0517 72.9304 8.9617 73.6804C8.7917 75.0904 8.7017 76.3104 8.7517 76.4904C8.7717 76.5904 8.7617 76.6904 8.7217 76.7204C8.6817 76.7504 8.6417 76.9804 8.6217 77.2504C8.5817 77.9304 8.6417 80.3804 8.6917 80.4804C8.7217 80.5204 8.7417 80.7604 8.7417 81.0204C8.7517 81.8704 8.8717 83.3104 8.9517 83.5704C9.0217 83.7904 9.1117 83.8604 9.5917 84.0604C9.9017 84.1904 10.2617 84.4004 10.4017 84.5304C10.7417 84.8604 11.3917 85.1904 11.6917 85.1904C11.8217 85.1904 11.9517 85.2304 11.9817 85.2704C12.1017 85.4804 12.2717 85.3304 12.3917 84.9004C12.4617 84.6504 12.5817 84.3304 12.6517 84.1904C12.7217 84.0504 12.7517 83.8704 12.7317 83.7904C12.6817 83.6404 12.8717 83.1504 13.0117 83.0704C13.1017 83.0104 13.0317 82.7204 12.8917 82.6004C12.8117 82.5404 12.8017 82.4604 12.8517 82.3704C12.8917 82.2904 12.9517 82.0704 12.9817 81.8704C13.0117 81.6704 13.0917 81.4004 13.1617 81.2604C13.2617 81.0604 13.2617 80.9904 13.1817 80.8904C13.1017 80.8004 13.1017 80.7404 13.1717 80.6604C13.3217 80.4804 13.4417 79.7104 13.4717 78.6804C13.4917 78.1504 13.5417 77.5304 13.5917 77.3004C13.6417 77.0704 13.7017 76.7704 13.7317 76.6304C13.7617 76.4904 13.8717 76.1504 13.9717 75.8804C14.0817 75.6104 14.2617 74.9904 14.3817 74.5204C14.4917 74.0504 14.6617 73.5204 14.7417 73.3604C15.5517 71.7004 16.0717 70.8304 16.2617 70.8304C16.2917 70.8304 16.3317 70.7504 16.3317 70.6704C16.3317 70.5304 16.5917 70.1404 17.0217 69.6504C17.0817 69.5804 17.1617 69.4504 17.1917 69.3804C17.2217 69.3104 17.2817 69.2404 17.3217 69.2404C17.4517 69.2404 17.4317 69.6804 17.2817 70.1204C17.0517 70.8104 16.5917 72.9404 16.4517 74.0004C16.3717 74.5804 16.2417 75.3204 16.1617 75.6704C15.7217 77.4204 15.4717 80.0004 15.5317 82.1004C15.5517 82.9504 15.6117 83.8104 15.6617 84.0204C15.7117 84.2304 15.7817 84.6504 15.8417 84.9804C16.1717 87.0504 17.0117 87.9504 18.6217 87.9904C19.2717 88.0004 19.4317 87.9204 19.6517 87.4904C19.7517 87.2904 19.8817 87.1104 19.9517 87.0804C20.0817 87.0304 20.4917 86.2404 20.4917 86.0504C20.4917 85.9904 20.5317 85.9404 20.5717 85.9404C20.6217 85.9404 20.6517 85.8804 20.6517 85.8004C20.6517 85.7204 20.7017 85.6004 20.7617 85.5304C20.8217 85.4604 20.9217 85.1704 20.9817 84.9004C21.0417 84.6204 21.1517 84.3004 21.2317 84.1804C21.3117 84.0604 21.4317 83.8004 21.5017 83.6004C21.6417 83.1704 21.7517 82.8804 22.3017 81.4404C22.5217 80.8604 22.7817 80.1504 22.8817 79.8504C22.9817 79.5504 23.1617 79.0704 23.2717 78.7604C23.3817 78.4604 23.4717 78.1004 23.4717 77.9604C23.4717 77.8204 23.5017 77.6704 23.5417 77.6304C23.5817 77.5904 23.6917 77.3004 23.7917 76.9904C23.8917 76.6804 24.0317 76.3204 24.0917 76.2004C24.1617 76.0704 24.2117 75.9304 24.2117 75.8704C24.2117 75.8204 24.2617 75.6404 24.3317 75.4904C24.3917 75.3404 24.5117 74.9904 24.6017 74.7104C24.6817 74.4304 24.7817 74.1704 24.8217 74.1104C24.8617 74.0604 24.9017 73.8304 24.9217 73.6004C24.9417 73.3704 24.9817 73.1304 25.0217 73.0704C25.0617 73.0104 25.1017 72.9004 25.1117 72.8304C25.1317 72.6804 25.4417 71.8404 25.4917 71.7904C25.5117 71.7704 25.5217 72.2504 25.5217 72.8604C25.5217 74.7904 26.0017 76.2104 26.9217 77.0104C27.4617 77.4704 27.7517 77.5904 28.4517 77.6304C28.7617 77.6504 29.1917 77.6904 29.4317 77.7204C29.7217 77.7604 29.9217 77.7504 30.0517 77.6704C30.1617 77.6104 30.3617 77.5404 30.5017 77.5104C30.6417 77.4804 30.7517 77.4104 30.7517 77.3504C30.7517 77.2904 30.8817 77.2004 31.0517 77.1404C31.3717 77.0304 32.0017 76.5604 32.0717 76.3704C32.1017 76.3004 32.1517 76.2504 32.2117 76.2504C32.3617 76.2504 33.3617 75.1504 33.6117 74.7104C33.7417 74.4804 33.9217 74.2204 34.0017 74.1304C34.2317 73.8904 34.6917 73.1904 34.6917 73.0904C34.6917 73.0504 34.7617 72.9604 34.8517 72.9004C34.9417 72.8404 35.0917 72.6304 35.1917 72.4404C35.2917 72.2504 35.5217 71.9204 35.7017 71.7204C35.8817 71.5204 36.0317 71.3204 36.0317 71.2904C36.0317 71.2604 36.1817 71.0204 36.3617 70.7504C36.6717 70.2904 36.8217 70.0204 37.5817 68.5704C37.9817 67.8104 38.2217 67.3804 38.4217 67.0804L38.5617 66.8604L38.6117 67.2704C38.6417 67.5004 38.6717 67.9504 38.6717 68.2804C38.6717 68.6104 38.7117 68.9004 38.7517 68.9304C38.7917 68.9604 38.8517 69.1504 38.8817 69.3704C38.9517 69.9004 39.1517 70.2804 39.5317 70.6604C39.8317 70.9604 40.4817 71.2404 40.9117 71.2704C41.0217 71.2804 41.3117 71.3304 41.5417 71.3904C42.0717 71.5204 42.5317 71.4104 42.8317 71.0904C43.0817 70.8204 43.7317 69.6204 43.7317 69.4104C43.7317 69.3304 43.7817 69.1804 43.8517 69.0604C44.0917 68.6304 44.3117 68.1504 44.3117 68.0404C44.3117 67.9804 44.4217 67.7204 44.5517 67.4704C44.6817 67.2204 44.9117 66.7904 45.0617 66.5104C45.2017 66.2304 45.4117 65.8604 45.5217 65.6804C45.6317 65.5004 45.7217 65.2604 45.7217 65.1604C45.7217 64.9204 45.8717 64.6004 46.2217 64.0504C46.3817 63.8004 46.5417 63.5304 46.5717 63.4704C46.6017 63.4004 46.7717 63.1004 46.9617 62.8004C47.1417 62.5004 47.3817 62.0804 47.5017 61.8704C47.8717 61.1804 47.9217 61.2404 47.8017 62.1404C47.7617 62.4404 47.6817 63.2304 47.6317 63.9004C47.5317 65.2404 47.6117 66.0904 47.9817 67.2604C48.2017 67.9504 48.8517 68.9104 49.3517 69.2604C50.0817 69.7704 52.1117 69.9004 52.1117 69.4304C52.1117 69.3704 52.2917 69.1804 52.5217 68.9804C52.7517 68.7804 52.9317 68.5904 52.9317 68.5504C52.9317 68.5104 53.0417 68.3004 53.1817 68.1004C53.3117 67.9004 53.4317 67.7004 53.4317 67.6604C53.4317 67.5304 53.8317 66.7704 53.9617 66.6604C54.0317 66.6004 54.1117 66.4404 54.1417 66.2904C54.1717 66.1404 54.3017 65.8104 54.4317 65.5504C54.5617 65.2904 54.6717 65.0204 54.6717 64.9704C54.6717 64.9104 54.7917 64.6304 54.9417 64.3404C55.5417 63.1704 56.1617 61.8204 56.1617 61.6904C56.1617 61.5204 56.4317 60.9604 56.6017 60.7704C56.6717 60.6904 56.7417 60.5404 56.7417 60.4604C56.7417 60.3804 56.7717 60.3104 56.8117 60.3104C56.8517 60.3104 56.9317 60.6804 56.9817 61.1204C57.1717 62.6304 57.7317 64.5104 58.3117 65.5904C58.7017 66.3104 59.4017 67.0904 59.9617 67.4204C60.5717 67.7804 60.9517 67.8404 62.2117 67.8004C63.0317 67.7704 63.1217 67.7504 63.7917 67.4204C64.3917 67.1304 64.6117 66.9604 65.2217 66.3104C65.9517 65.5304 66.4317 64.8304 66.4317 64.5104C66.4317 64.4104 66.7017 63.7904 67.0317 63.1304C67.3617 62.4704 67.7017 61.7804 67.7817 61.6004C67.8617 61.4204 68.0017 61.1404 68.0917 60.9804C68.3117 60.5904 68.5917 59.9304 68.5917 59.7904C68.5917 59.7304 68.7217 59.4404 68.8817 59.1404C69.0417 58.8504 69.1717 58.5504 69.1717 58.4904C69.1717 58.4304 69.2517 58.2404 69.3617 58.0704C69.4717 57.9004 69.6817 57.4904 69.8317 57.1504C69.9917 56.8204 70.1517 56.5404 70.1917 56.5404C70.2317 56.5404 70.2417 56.6004 70.2217 56.6704C70.1617 56.8304 70.1517 61.1404 70.2117 62.4704C70.3617 65.9004 70.6817 67.0504 71.7117 67.8304C72.0917 68.1204 72.1717 68.1504 72.7017 68.1504C73.0217 68.1504 73.3217 68.1504 73.3617 68.1404C73.4117 68.1304 73.6517 68.0904 73.9017 68.0404C74.3017 67.9704 74.4017 67.9104 74.7417 67.5404C74.9517 67.3104 75.2517 66.8704 75.3917 66.5704C75.5417 66.2704 75.7417 65.9104 75.8417 65.7704C75.9417 65.6304 76.0517 65.4104 76.0817 65.2804C76.1117 65.1504 76.2317 64.8904 76.3417 64.7204C76.4517 64.5404 76.5417 64.3604 76.5417 64.3104C76.5417 64.2204 76.8017 63.6304 76.8717 63.5604C76.9417 63.4904 77.3417 62.6404 77.4417 62.3204C77.4917 62.1604 77.5117 61.9504 77.4817 61.8404C77.4417 61.7004 77.4717 61.6304 77.5617 61.5904C77.6317 61.5604 77.6917 61.5004 77.6917 61.4404C77.6917 61.3904 77.7617 61.2004 77.8617 61.0304C77.9517 60.8604 78.0817 60.5004 78.1517 60.2504C78.2217 60.0004 78.3417 59.6304 78.4317 59.4404C78.7317 58.7804 79.1117 57.6604 79.1117 57.4104C79.1117 57.3504 79.1817 57.1804 79.2817 57.0204C79.3717 56.8704 79.4817 56.5704 79.5317 56.3704C79.6817 55.6904 79.8317 55.0804 79.8917 54.9604C79.9217 54.8904 80.0017 54.5804 80.0617 54.2804C80.1217 53.9804 80.2317 53.6404 80.3017 53.5304C80.3717 53.4204 80.4517 53.1804 80.4817 53.0004C80.5117 52.8204 80.5817 52.5904 80.6417 52.5004C80.7417 52.3504 80.8017 52.1204 80.9017 51.5004C80.9217 51.3604 81.0017 51.1004 81.0717 50.9204C81.1417 50.7404 81.2417 50.5004 81.2817 50.3904C81.4117 50.0604 81.4617 50.2604 81.3617 50.7204C81.2017 51.5304 81.0917 52.8104 81.1817 52.9204C81.2417 52.9904 81.2317 53.0504 81.1417 53.1204C81.0617 53.1904 81.0217 53.3704 81.0217 53.6204C81.0217 53.8404 80.9817 54.2204 80.9417 54.4704C80.9017 54.7204 80.8417 55.1104 80.8217 55.3404C80.8017 55.5704 80.7217 56.0704 80.6417 56.4704C80.4917 57.2204 80.4317 57.5704 80.4217 57.8504C80.4217 57.9404 80.3617 58.3004 80.3017 58.6504C80.2217 59.0804 80.2117 59.4104 80.2517 59.6704C80.2917 59.8804 80.3117 60.0704 80.2917 60.0904C80.2717 60.1104 80.2417 60.3804 80.2217 60.6904C80.2017 61.0004 80.1417 61.3304 80.0917 61.4204C80.0317 61.5304 80.0317 61.6204 80.0817 61.6804C80.1217 61.7404 80.2217 61.9704 80.3017 62.2104C80.3817 62.4504 80.5217 62.6904 80.6217 62.7604C80.7817 62.8704 81.3517 62.9704 82.1717 63.0304C82.3317 63.0404 82.5217 63.0804 82.6017 63.1104C82.8717 63.2204 83.1217 63.1204 83.1317 62.9204C83.1317 62.8204 83.2017 62.6904 83.2717 62.6304C83.4317 62.5104 83.5817 62.1404 83.5817 61.8404C83.5817 61.7204 83.6417 61.5504 83.7117 61.4704C83.7817 61.3904 83.8517 61.1904 83.8717 61.0304C83.8817 60.8704 83.9517 60.6304 84.0317 60.4904C84.1017 60.3504 84.1617 60.1604 84.1617 60.0704C84.1617 59.9804 84.2017 59.8804 84.2417 59.8504C84.2817 59.8204 84.3217 59.7104 84.3217 59.6004C84.3217 59.4904 84.3617 59.3704 84.4117 59.3504C84.4617 59.3204 84.4817 59.2504 84.4617 59.1804C84.4417 59.1104 84.4517 58.9704 84.5017 58.8504C84.5417 58.7304 84.5917 58.5204 84.6117 58.3704C84.6317 58.2204 84.6917 57.9704 84.7417 57.8104C84.8417 57.5204 85.0517 56.6704 85.1117 56.3504C85.1317 56.2604 85.2017 56.0704 85.2717 55.9304C85.3517 55.7904 85.4017 55.6104 85.4017 55.5104C85.4017 55.4204 85.4617 55.2304 85.5317 55.0904C85.6017 54.9504 85.7317 54.6304 85.8117 54.3704C85.8917 54.1104 86.0417 53.7404 86.1317 53.5404C86.2317 53.3404 86.3017 53.1004 86.3017 53.0104C86.3017 52.8104 86.5117 52.3304 86.6417 52.2604C86.6817 52.2304 86.7117 52.1204 86.7117 52.0004C86.7117 51.8804 86.7817 51.6904 86.8617 51.5604C87.0417 51.2904 87.2217 50.7204 87.1517 50.6204C87.1217 50.5804 87.1617 50.4804 87.2417 50.3904C87.3117 50.3104 87.3517 50.1804 87.3317 50.1104C87.3117 50.0404 87.3417 49.9604 87.4017 49.9404C87.4617 49.9104 87.5617 49.7204 87.6217 49.5104C87.6817 49.2904 87.7617 49.1004 87.8017 49.0804C87.8417 49.0604 87.8717 48.9704 87.8717 48.8804C87.8717 48.7904 87.9617 48.5304 88.0817 48.2804C88.2017 48.0404 88.2917 47.8004 88.2917 47.7404C88.2917 47.6804 88.3617 47.5104 88.4417 47.3604C88.5217 47.2104 88.6217 46.9704 88.6617 46.8304C88.6917 46.6904 88.8117 46.4604 88.9217 46.3204C89.0317 46.1804 89.1417 45.9604 89.1717 45.8404C89.2017 45.7104 89.2517 45.6004 89.2917 45.5804C89.3317 45.5604 89.4217 45.3304 89.5017 45.0604C89.5817 44.7904 89.6917 44.5204 89.7417 44.4504C89.7917 44.3804 89.8717 44.2504 89.9117 44.1604C89.9717 44.0204 89.9817 44.0104 90.0117 44.1304C90.0317 44.2104 89.8417 44.9204 89.5917 45.7204C89.3417 46.5104 89.0717 47.4504 89.0017 47.7904C88.8717 48.4104 88.7517 48.8704 88.5117 49.6704C88.4417 49.9004 88.3117 50.5004 88.2217 51.0104C88.1317 51.5204 87.9817 52.2604 87.8817 52.6804C87.7917 53.0904 87.6417 53.9004 87.5417 54.4704C87.4517 55.0504 87.3017 55.8504 87.2117 56.2704C87.1217 56.6904 87.0317 57.1304 87.0117 57.2704C86.9917 57.4104 86.8817 57.9704 86.7617 58.5204C86.5917 59.3704 86.5117 59.9004 86.4117 61.0204C86.4017 61.1104 86.3517 61.4704 86.2917 61.8104C86.1417 62.7004 86.1317 65.5704 86.2817 66.1504C86.4417 66.7604 86.7517 67.5304 87.0017 67.8904C87.1117 68.0604 87.2017 68.2704 87.2017 68.3704C87.2017 68.8204 87.9217 69.0804 89.0717 69.0604C89.5317 69.0504 89.9417 69.0104 90.0017 68.9704C90.0617 68.9204 90.1317 68.9104 90.1717 68.9404C90.2417 68.9804 90.5817 68.7504 91.0617 68.3504C91.2317 68.2004 91.7617 67.4604 91.7617 67.3704C91.7617 67.3404 91.8917 67.1204 92.0517 66.8704C92.2117 66.6304 92.3517 66.3204 92.3717 66.1704C92.3917 66.0304 92.4517 65.8504 92.5017 65.7904C92.5617 65.7204 92.5817 65.6304 92.5617 65.5904C92.5417 65.5504 92.7017 65.1404 92.9217 64.6904C93.1417 64.2404 93.3317 63.7904 93.3317 63.6904C93.3317 63.5904 93.3817 63.4104 93.4517 63.2804C93.5217 63.1504 93.5717 62.9704 93.5717 62.8804C93.5717 62.7404 93.6217 62.5804 93.8717 62.0004C93.9317 61.8604 93.9717 61.6804 93.9717 61.5904C93.9717 61.5004 94.0417 61.2604 94.1417 61.0604C94.2717 60.7904 94.2917 60.6604 94.2317 60.5904C94.1817 60.5304 94.1717 60.4304 94.2217 60.3404C94.4017 59.9704 94.4817 59.6104 94.3917 59.5104C94.3317 59.4404 94.3517 59.4004 94.4417 59.3604C94.5417 59.3204 94.5617 59.2504 94.5317 59.1104C94.5017 58.9804 94.5217 58.8904 94.6017 58.8604C94.6717 58.8304 94.7217 58.7204 94.7217 58.6104C94.7217 58.4904 94.7617 58.3804 94.8017 58.3504C94.9517 58.2504 95.2017 57.5104 95.2617 56.9704C95.2717 56.9004 95.3217 56.7604 95.3817 56.6504C95.4417 56.5404 95.5017 56.3604 95.5217 56.2304C95.5617 56.0004 95.9217 54.8004 96.0417 54.5104C96.0817 54.4204 96.1917 54.0804 96.3017 53.7604C96.4017 53.4304 96.5017 53.1204 96.5217 53.0504C96.5717 52.9004 96.8317 53.4804 96.9717 54.0404C97.0217 54.2504 97.1017 54.4504 97.1417 54.4704C97.1817 54.5004 97.2417 54.6804 97.2617 54.8704C97.2817 55.0604 97.3317 55.1804 97.3617 55.1304C97.4017 55.0704 97.4617 55.1004 97.5417 55.2304C97.8217 55.6604 97.8217 55.6604 97.6117 55.6104C97.4417 55.5604 97.4517 55.5904 97.7017 55.8504C98.1417 56.3104 98.4217 56.4004 99.8017 56.5104C100.242 56.5404 100.402 56.5304 100.512 56.4304C100.592 56.3604 100.782 56.2904 100.932 56.2704C101.082 56.2504 101.252 56.1804 101.292 56.1204C101.342 56.0504 101.492 55.9404 101.632 55.8704C101.772 55.8004 101.942 55.6504 102.012 55.5404C102.082 55.4304 102.352 55.0804 102.622 54.7604C103.312 53.9304 103.732 53.3204 103.732 53.1704C103.732 52.9804 103.952 52.5604 104.762 51.1704C104.982 50.8004 105.262 50.2804 105.392 50.0004C105.972 48.7904 106.882 47.2904 107.042 47.2904C107.112 47.2904 107.182 47.9504 107.132 48.1704C107.122 48.2204 107.092 48.8904 107.072 49.6704C107.022 51.4504 106.992 51.9404 106.942 52.0204C106.882 52.1204 106.752 53.4104 106.672 54.5904C106.652 54.9604 106.592 55.6004 106.552 56.0104C106.512 56.4204 106.492 56.7804 106.512 56.8104C106.532 56.8404 106.052 57.2304 105.462 57.6804C104.162 58.6504 103.662 59.1104 102.272 60.6504C101.222 61.8004 100.142 63.2104 100.212 63.3304C100.232 63.3604 100.192 63.4204 100.142 63.4504C100.012 63.5304 99.4117 64.3504 99.2717 64.6504C99.2117 64.7704 99.0117 65.1204 98.8017 65.4404C98.5917 65.7704 98.3417 66.1904 98.2417 66.4004C98.1417 66.6004 97.9217 67.0004 97.7817 67.2704C97.4417 67.8904 97.1617 68.4404 96.9917 68.8204C96.4117 70.1704 96.2217 70.6404 95.9317 71.4104C95.5217 72.5004 94.9817 74.2204 94.8717 74.7804C94.8217 75.0204 94.7317 75.4604 94.6617 75.7904C94.3317 77.2704 94.2017 78.3904 94.1917 79.9204C94.1817 81.5104 94.2717 82.2404 94.6017 83.2904C94.7117 83.6404 94.8117 83.8104 94.9317 83.8504C95.0317 83.8804 95.1117 83.9704 95.1117 84.0504C95.1117 84.1604 95.1617 84.1804 95.3317 84.1304C95.7117 84.0404 96.2717 84.0804 97.2517 84.2604C98.0817 84.4204 98.2617 84.4304 98.7017 84.3404C99.2117 84.2404 99.8717 83.9704 99.9617 83.8204C99.9917 83.7804 100.062 83.7504 100.132 83.7504C100.202 83.7504 100.402 83.6404 100.592 83.5004C100.782 83.3604 100.982 83.2504 101.032 83.2504C101.202 83.2504 103.062 81.2604 103.062 81.0804C103.062 80.9904 103.102 80.9104 103.142 80.9104C103.182 80.9104 103.252 80.8204 103.282 80.7204C103.312 80.6204 103.382 80.4904 103.442 80.4504C103.492 80.4004 103.592 80.2004 103.652 80.0104C103.712 79.8204 103.792 79.6604 103.832 79.6604C103.872 79.6604 103.902 79.6004 103.902 79.5304C103.902 79.4604 103.932 79.4004 103.972 79.4004C104.012 79.4004 104.122 79.2004 104.232 78.9604C104.332 78.7204 104.452 78.4704 104.492 78.4004C104.532 78.3304 104.602 78.2004 104.642 78.1104C104.682 78.0204 104.822 77.7604 104.952 77.5304C105.082 77.3004 105.262 76.8704 105.342 76.5704C105.422 76.2704 105.542 75.9704 105.602 75.9004C105.762 75.7104 105.982 75.0204 105.922 74.8704C105.892 74.8004 105.912 74.7204 105.962 74.6904C106.082 74.6204 106.342 74.0204 106.422 73.6504C106.452 73.4904 106.512 73.3004 106.552 73.2304C106.672 73.0004 106.882 72.2404 106.882 72.0404C106.882 71.9304 106.912 71.8004 106.952 71.7604C106.992 71.7204 107.092 71.3804 107.172 71.0104C107.252 70.6404 107.352 70.2804 107.392 70.2004C107.432 70.1204 107.492 69.8904 107.512 69.7004C107.532 69.5104 107.592 69.3004 107.632 69.2504C107.672 69.2004 107.702 69.1004 107.692 69.0404C107.682 68.9804 107.722 68.8404 107.782 68.7404C107.842 68.6304 107.872 68.4504 107.852 68.3304C107.832 68.2004 107.872 68.0104 107.972 67.8504C108.102 67.6304 108.112 67.5404 108.042 67.3504C107.972 67.1504 107.982 67.1004 108.112 67.0004C108.232 66.9204 108.282 66.7804 108.282 66.5004C108.292 66.0704 108.322 65.8404 108.392 65.6404C108.472 65.4104 108.622 64.5004 108.622 64.2704C108.622 64.1404 108.682 63.8604 108.762 63.6304C108.842 63.3904 108.882 63.0804 108.852 62.8904C108.832 62.7104 108.842 62.5304 108.872 62.4904C108.932 62.4204 108.962 62.1804 109.082 60.5404C109.112 60.2004 109.162 59.8704 109.202 59.8304C109.242 59.7804 109.242 59.7004 109.202 59.6404C109.162 59.5804 109.182 59.2904 109.242 58.9804C109.302 58.6704 109.372 58.0404 109.402 57.5904C109.472 56.6804 109.502 56.5804 109.752 56.4404C109.852 56.3904 110.202 56.1804 110.532 56.0004C111.142 55.6604 113.192 54.7404 113.752 54.5604C114.662 54.2704 116.582 53.9304 117.272 53.9304C117.972 53.9304 118.052 53.9504 118.492 54.2104C118.762 54.3604 119.012 54.5804 119.072 54.7104C119.162 54.8904 119.242 54.9404 119.522 54.9604C119.832 54.9804 119.862 54.9604 119.902 54.7704C120.042 54.5204 119.772 53.9904 119.462 53.7504ZM60.6117 53.4804C60.6617 53.4604 60.7117 53.2304 60.7317 52.9504C60.7617 52.4504 60.8917 51.8304 61.0417 51.3604C61.0917 51.2204 61.1217 50.9704 61.1117 50.8004C61.1017 50.6304 61.1317 50.4204 61.1717 50.3404C61.3417 50.0004 61.4217 49.6104 61.4017 49.2704C61.3817 49.0304 61.4117 48.8704 61.4817 48.8104C61.5417 48.7604 61.5717 48.6604 61.5517 48.6004C61.5217 48.5304 61.5517 48.4204 61.6017 48.3604C61.6517 48.2904 61.7017 48.1004 61.7117 47.9204C61.7117 47.7404 61.7617 47.5704 61.8217 47.5204C61.8817 47.4704 61.9417 47.3304 61.9617 47.1904C61.9817 47.0504 62.0217 46.8304 62.0517 46.6904C62.0817 46.5504 62.1117 46.2804 62.1217 46.0904C62.1317 45.8804 62.2117 45.6604 62.3117 45.5504C62.4017 45.4404 62.5217 45.1204 62.5817 44.8204C62.6417 44.5204 62.7117 44.2404 62.7417 44.1904C62.7717 44.1404 62.8017 43.9604 62.8117 43.7904C62.8217 43.6104 62.8917 43.3904 62.9617 43.2904C63.0417 43.1604 63.0617 43.0804 63.0017 43.0104C62.9417 42.9404 62.9717 42.8804 63.0917 42.8104C63.1917 42.7604 63.2517 42.6904 63.2217 42.6504C63.1617 42.5504 63.4017 41.8904 63.6317 41.5304C63.7417 41.3604 63.8317 41.1304 63.8317 41.0204C63.8317 40.9104 63.9217 40.6604 64.0217 40.4604C64.1317 40.2604 64.2417 39.9904 64.2617 39.8404C64.2917 39.6904 64.4017 39.4404 64.5217 39.2604C64.6417 39.0804 64.7317 38.8804 64.7317 38.8004C64.7317 38.7204 64.7617 38.6304 64.8017 38.6004C64.8417 38.5704 64.9417 38.3804 65.0217 38.1604C65.1617 37.7804 65.2717 37.6204 65.8517 36.9004C65.9917 36.7304 66.2417 36.3704 66.4117 36.1104C66.8017 35.5104 67.3517 34.9404 67.5017 35.0004C67.5617 35.0204 67.7117 34.9704 67.8217 34.8904C68.0417 34.7104 68.5517 34.6304 68.6517 34.7604C68.6817 34.8104 68.7117 35.0504 68.7117 35.3004C68.7117 36.2304 67.8517 39.3604 66.9217 41.8504C66.8017 42.1804 66.6917 42.5104 66.6817 42.6104C66.6717 42.7104 66.5517 42.9904 66.4317 43.2304C66.0117 44.0704 65.5617 45.1504 65.6017 45.2304C65.6217 45.2704 65.5517 45.4104 65.4417 45.5304C65.3217 45.6604 65.2317 45.8304 65.2317 45.9104C65.2317 46.1304 64.8017 47.0604 64.6917 47.0604C64.6417 47.0604 64.4917 47.3204 64.3417 47.6304C64.0017 48.3504 63.3317 49.5704 63.1917 49.7404C63.1317 49.8204 63.0817 49.9204 63.0817 49.9704C63.0817 50.0204 62.9317 50.3004 62.7517 50.5604C62.5717 50.8304 62.4217 51.0704 62.4217 51.1004C62.4217 51.1204 62.2317 51.4604 62.0017 51.8304C61.7717 52.2104 61.5717 52.5604 61.5617 52.6104C61.5517 52.6604 61.4917 52.7604 61.4217 52.8204C61.3517 52.8904 61.1717 53.1204 61.0117 53.3304C60.7217 53.7104 60.5117 53.8304 60.5117 53.6104C60.5317 53.5604 60.5617 53.4904 60.6117 53.4804ZM31.0617 66.4204C31.1717 66.1804 31.2717 65.9304 31.2717 65.8804C31.2717 65.8304 31.4017 65.5304 31.5517 65.2104C31.7117 64.8904 31.8617 64.4804 31.8917 64.3004C31.9217 64.1204 32.0017 63.8904 32.0617 63.8004C32.1217 63.7104 32.1717 63.5704 32.1717 63.4904C32.1717 63.4104 32.2017 63.3404 32.2417 63.3404C32.2817 63.3404 32.3817 63.1904 32.4617 63.0104C32.5417 62.8304 32.7017 62.6004 32.8017 62.5004C32.9117 62.4004 32.9917 62.2804 32.9917 62.2404C32.9917 62.1204 33.8317 61.3204 34.1117 61.1604C34.4317 60.9904 34.4817 60.9804 34.4817 61.1104C34.4817 61.3604 34.1417 62.5304 33.9817 62.8504C33.8117 63.1804 33.5117 63.6804 33.0217 64.4304C32.7817 64.8004 31.0317 66.7904 30.9217 66.8304C30.8917 66.8504 30.9417 66.6604 31.0617 66.4204ZM14.0517 64.7604C14.2017 64.0104 14.2317 63.7004 14.1517 63.5704C14.0917 63.4604 14.0917 63.4004 14.1817 63.3504C14.2617 63.3004 14.2817 63.2104 14.2417 63.0604C14.2017 62.9204 14.2317 62.7304 14.3217 62.5504C14.4017 62.3904 14.4417 62.2304 14.4117 62.2004C14.3817 62.1604 14.4417 61.9104 14.5317 61.6304C14.6217 61.3604 14.7317 60.8504 14.7817 60.5104C14.8317 60.1704 14.9017 59.7804 14.9517 59.6504C15.0017 59.5204 15.0517 59.1904 15.0717 58.8904C15.1217 57.9404 15.1517 57.7904 15.3017 57.5004C15.3817 57.3504 15.4217 57.2004 15.4017 57.1804C15.3717 57.1504 15.4117 57.0404 15.4917 56.9304C15.5817 56.7904 15.6117 56.6304 15.5817 56.4404C15.5617 56.2904 15.5717 56.1404 15.6017 56.1204C15.6417 56.1004 15.6917 55.9404 15.7117 55.7604C15.7917 55.1304 16.0317 54.0204 16.1517 53.7604C16.2117 53.6104 16.2717 53.3904 16.2717 53.2804C16.2717 53.1704 16.3617 52.8704 16.4817 52.6104C16.5917 52.3504 16.6917 52.0704 16.6917 51.9804C16.6917 51.9004 16.7417 51.7904 16.8117 51.7604C16.9417 51.6804 17.6917 50.5904 17.6917 50.4704C17.6917 50.4204 17.8617 50.2104 18.0817 49.9804C18.3017 49.7504 18.5917 49.4504 18.7317 49.3004C19.2017 48.7904 19.3417 48.7304 19.8817 48.7804C20.3417 48.8204 20.4017 48.8504 20.7317 49.2204C20.9817 49.5004 21.0917 49.7204 21.1417 49.9904C21.2117 50.4504 21.2217 51.4304 21.1517 51.8304C21.0617 52.3304 20.8817 52.9804 20.8217 53.0504C20.7917 53.0804 20.7617 53.2204 20.7617 53.3504C20.7617 53.4904 20.6917 53.7304 20.6117 53.9004C20.3717 54.3804 20.1817 54.8304 20.1817 54.9404C20.1817 55.0304 19.8017 55.8904 19.5917 56.2804C19.5517 56.3604 19.5117 56.5204 19.5117 56.6304C19.5117 56.7504 19.4617 56.8604 19.4017 56.8804C19.3417 56.9004 19.2917 56.9704 19.2917 57.0404C19.2917 57.1804 18.9217 57.9504 18.8317 57.9904C18.7917 58.0104 18.6617 58.2304 18.5417 58.4904C18.4217 58.7504 18.2017 59.1304 18.0617 59.3404C17.9217 59.5504 17.7417 59.8504 17.6717 60.0104C17.6017 60.1704 17.4517 60.4404 17.3417 60.5904C17.2417 60.7504 17.1017 60.9804 17.0417 61.1004C16.9817 61.2204 16.8117 61.4504 16.6617 61.6204C16.5217 61.7804 16.3117 62.0904 16.2117 62.2904C16.1117 62.4904 15.9517 62.7304 15.8617 62.8104C15.7717 62.8904 15.6917 63.0104 15.6917 63.0704C15.6917 63.1304 15.6217 63.2504 15.5217 63.3204C15.4317 63.4004 15.3517 63.5104 15.3517 63.5704C15.3517 63.6304 15.0417 63.9904 14.6717 64.3704C14.0117 65.0304 14.0017 65.0404 14.0517 64.7604ZM49.2917 55.9304C49.2317 56.1604 49.0317 56.5404 48.8217 56.8104C48.5117 57.2104 48.0517 57.9104 47.7217 58.4704C47.6417 58.6104 47.0117 59.5104 46.7017 59.9104C46.6117 60.0204 46.3817 60.4204 46.1917 60.7904C46.0017 61.1604 45.7717 61.5304 45.6917 61.6204C45.6117 61.7104 45.4517 61.9504 45.3417 62.1604C45.1417 62.5504 44.9417 62.8604 44.3217 63.8304C43.9317 64.4404 43.5217 65.1004 42.9217 66.0804C42.7017 66.4504 42.4817 66.7504 42.4517 66.7504C42.3717 66.7504 42.4617 66.4404 42.6617 65.9704C42.7417 65.7904 42.8917 65.3004 43.0017 64.8804C43.1117 64.4604 43.2817 63.8404 43.3717 63.4904C43.4717 63.1504 43.5317 62.7804 43.5117 62.6804C43.4917 62.5804 43.5117 62.4904 43.5517 62.4904C43.6517 62.4904 43.9517 61.7704 43.9517 61.5204C43.9517 61.4104 43.9917 61.3204 44.0317 61.3204C44.0717 61.3204 44.1117 61.1704 44.1117 60.9904C44.1117 60.8104 44.1617 60.6204 44.2317 60.5704C44.2917 60.5204 44.3717 60.2504 44.4017 59.9804C44.4417 59.6504 44.5017 59.4704 44.5817 59.4404C44.6517 59.4104 44.6817 59.3404 44.6517 59.2604C44.6217 59.1804 44.6517 59.0504 44.7217 58.9504C44.7917 58.8604 44.8417 58.6904 44.8417 58.5904C44.8417 58.4904 44.8817 58.3804 44.9317 58.3404C45.0317 58.2704 45.4117 57.4904 45.5417 57.0504C45.5917 56.8904 45.7117 56.7204 45.8017 56.6704C46.1117 56.5104 46.3817 56.2504 46.5017 56.0004C46.5717 55.8604 46.6917 55.7404 46.7917 55.7204C46.8817 55.7104 47.0317 55.6604 47.1217 55.6204C47.3917 55.5004 47.6517 55.4704 48.5417 55.4804L49.3817 55.4904L49.2917 55.9304ZM106.422 60.1704C106.332 60.1704 106.302 60.3404 106.292 60.9004C106.282 61.3004 106.262 61.8004 106.242 62.0104C106.222 62.2204 106.202 62.6404 106.202 62.9404C106.202 63.2604 106.142 63.6104 106.062 63.7604C105.962 63.9504 105.952 64.0504 106.022 64.1304C106.132 64.2604 106.042 64.7804 105.892 64.8704C105.762 64.9504 105.752 65.1804 105.872 65.1804C106.012 65.1804 105.892 65.7904 105.722 65.9104C105.592 66.0104 105.592 66.0104 105.732 66.0104C105.922 66.0104 105.842 66.3304 105.592 66.5304C105.432 66.6604 105.432 66.6804 105.552 66.6804C105.672 66.6804 105.692 66.7304 105.652 67.0304C105.622 67.2204 105.552 67.5204 105.502 67.6804C105.442 67.8404 105.372 68.1104 105.342 68.2904C105.312 68.4704 105.232 68.6304 105.172 68.6504C105.042 68.7004 104.962 68.9704 104.912 69.5504C104.892 69.7804 104.842 70.0204 104.802 70.1004C104.762 70.1804 104.702 70.4404 104.672 70.6904C104.642 70.9404 104.552 71.3804 104.462 71.6804C104.382 71.9704 104.332 72.2504 104.352 72.2904C104.382 72.3304 104.342 72.4104 104.282 72.4704C104.212 72.5304 104.102 72.8304 104.022 73.1504C103.942 73.4804 103.832 73.8504 103.762 73.9804C103.702 74.1204 103.602 74.4004 103.552 74.6104C103.452 75.0004 103.392 75.1404 103.032 75.9704C102.912 76.2404 102.782 76.6204 102.732 76.8304C102.682 77.0404 102.592 77.3004 102.512 77.4104C102.432 77.5404 102.412 77.6104 102.472 77.6104C102.522 77.6104 102.562 77.6704 102.562 77.7404C102.562 77.8104 102.512 77.8704 102.442 77.8704C102.382 77.8704 102.132 78.2504 101.892 78.7304C101.652 79.2004 101.292 79.8504 101.082 80.1704C100.622 80.8804 99.4017 82.1104 98.9517 82.3304C98.7717 82.4204 98.5517 82.5204 98.4817 82.5604C98.4017 82.6004 98.1117 82.6304 97.8217 82.6404C97.3717 82.6504 97.2417 82.6204 96.8817 82.4104C96.5117 82.1904 96.4417 82.1104 96.2717 81.6304C96.0917 81.1304 96.0817 80.9904 96.1117 79.4204C96.1317 78.0704 96.1717 77.6804 96.2817 77.4204C96.3617 77.2404 96.4217 76.9904 96.4117 76.8804C96.4017 76.6504 96.4417 76.4504 96.8317 74.9104C97.1517 73.6604 97.2217 73.4104 97.4217 72.9704C97.5117 72.7704 97.5817 72.5804 97.5817 72.5404C97.5817 72.5004 97.6317 72.3604 97.7017 72.2204C97.7717 72.0804 97.8617 71.8004 97.8917 71.5804C97.9317 71.3604 98.0117 71.1404 98.0617 71.0704C98.1217 71.0004 98.1417 70.9404 98.1117 70.9404C98.0817 70.9404 98.1817 70.7304 98.3317 70.4604C98.4817 70.1904 98.5917 69.9704 98.5817 69.9604C98.5717 69.9504 98.6617 69.7404 98.7717 69.5004C98.9817 69.0304 99.0817 68.7904 99.1117 68.6204C99.1417 68.4604 99.4917 67.7604 99.7017 67.4104C99.8017 67.2404 99.8917 67.0604 99.8917 67.0104C99.8917 66.9604 99.9817 66.7904 100.102 66.6404C100.212 66.4904 100.312 66.3104 100.312 66.2504C100.312 66.1904 100.372 66.0504 100.442 65.9504C100.512 65.8504 100.542 65.7704 100.512 65.7704C100.482 65.7704 100.552 65.7004 100.672 65.6004C100.792 65.5004 100.892 65.3804 100.892 65.3204C100.892 65.1804 101.452 64.3404 101.642 64.2104C101.712 64.1604 101.842 63.9404 101.932 63.7304C102.022 63.5204 102.122 63.3504 102.152 63.3504C102.192 63.3504 102.222 63.3004 102.222 63.2304C102.222 63.1604 102.282 63.0604 102.362 63.0004C102.442 62.9404 102.772 62.5704 103.092 62.1804C103.422 61.7904 103.862 61.2704 104.092 61.0304C104.652 60.4304 104.702 60.3604 104.702 60.2604C104.702 60.2104 104.732 60.1804 104.772 60.1804C104.812 60.1804 105.092 59.9404 105.392 59.6604C105.692 59.3704 106.062 59.0604 106.212 58.9704L106.482 58.8004L106.502 59.0904C106.512 59.2504 106.482 59.4704 106.422 59.5704C106.342 59.7204 106.342 59.7804 106.422 59.8604C106.572 59.9804 106.562 60.1704 106.422 60.1704ZM17.2217 34.1904C17.3417 34.9304 17.5217 35.7804 17.6317 36.0804C17.7417 36.3804 17.9117 36.8704 18.0117 37.1704C18.1117 37.4704 18.2417 37.7704 18.3117 37.8504C18.3717 37.9304 18.4217 38.0404 18.4317 38.1004C18.4517 38.6604 20.4617 41.1104 21.5917 41.9504C21.7517 42.0704 22.0517 42.3204 22.2617 42.5204C22.4717 42.7204 22.8917 43.0704 23.2217 43.3204C23.8817 43.8204 26.1617 45.2404 26.8017 45.5404C27.0317 45.6504 27.3117 45.7904 27.4217 45.8604C27.7417 46.0504 28.7617 46.5204 29.0817 46.6404C29.8217 46.9004 31.3617 47.3104 32.0817 47.4404C33.7317 47.7304 33.9517 47.7704 34.0217 47.8304C34.0617 47.8604 33.9617 48.1404 33.7917 48.4504C33.5017 48.9804 33.4917 49.0204 33.6217 49.2104C33.7217 49.3604 33.8217 49.4104 34.0417 49.4104C34.3317 49.4104 35.0317 49.1404 35.1217 49.0004C35.1517 48.9604 35.3417 48.9004 35.5517 48.8704C35.9117 48.8204 35.9517 48.8304 36.2217 49.0904C36.3817 49.2404 36.7017 49.6604 36.9317 50.0204C37.1717 50.3804 37.3917 50.6704 37.4317 50.6704C37.6417 50.6704 38.0017 50.4404 38.4017 50.0604C38.6517 49.8204 39.0217 49.5204 39.2417 49.3904C39.6917 49.1204 39.9817 49.1304 40.8317 49.4104C41.1017 49.5004 41.4417 49.5804 41.5817 49.5804C41.8717 49.5804 41.9117 49.5004 41.9417 48.7004L41.9617 48.2004L42.3817 48.1004C42.6117 48.0404 42.9217 47.9604 43.0917 47.9204C43.2517 47.8704 43.6117 47.7804 43.8817 47.7104C44.3417 47.5904 44.5417 47.5204 45.2917 47.2004C45.4317 47.1404 45.6317 47.0504 45.7517 47.0004C45.8617 46.9504 46.3817 46.7704 46.8917 46.6104C47.4117 46.4404 47.8517 46.2704 47.8717 46.2304C47.8917 46.1904 47.9917 46.1504 48.0717 46.1504C48.1617 46.1504 48.4817 46.0304 48.7917 45.8704C49.1117 45.7104 49.4517 45.5404 49.5717 45.4904C49.6917 45.4304 49.8517 45.3404 49.9417 45.2904C50.4717 44.9604 50.8117 44.7304 50.8617 44.6504C50.8917 44.6004 51.0517 44.4904 51.2217 44.4004C51.8317 44.0704 53.0317 43.1804 53.0117 43.0804C53.0017 43.0204 53.0217 42.9904 53.0717 43.0204C53.1117 43.0504 53.3517 42.9104 53.5917 42.7204C54.2517 42.2004 55.8517 40.6104 55.9917 40.3304C56.0617 40.2004 56.3517 39.7804 56.6317 39.4004C56.9217 39.0204 57.1517 38.6804 57.1517 38.6304C57.1517 38.5904 57.1917 38.5404 57.2417 38.5204C57.3317 38.4904 57.7917 37.7104 58.2217 36.8404C58.3517 36.5704 58.5017 36.3004 58.5417 36.2404C58.6017 36.1504 58.7517 35.8104 58.9817 35.2204C59.2517 34.5304 59.4017 33.9204 59.5117 33.0804C59.6117 32.3804 59.7317 30.0604 59.6917 29.5204C59.6517 28.8904 59.4317 27.5604 59.3117 27.2204C59.2717 27.1004 59.1717 26.7904 59.1017 26.5204C58.9417 25.9404 58.2917 24.8004 57.6417 23.9904C57.3917 23.6704 57.0917 23.2704 56.9717 23.1004C56.8517 22.9204 56.6417 22.7004 56.5017 22.6004C54.5817 21.1904 54.5817 21.1904 53.6717 20.8104C53.5017 20.7404 53.2917 20.6404 53.2117 20.6004C53.0617 20.5204 52.3217 20.3004 51.2317 20.0204C50.0517 19.7204 49.0817 19.5804 47.9317 19.5504C46.7617 19.5204 46.1017 19.6204 44.9417 19.9804C44.3617 20.1604 43.1117 20.7004 43.0817 20.7804C43.0617 20.8204 42.9917 20.8504 42.9317 20.8504C42.7917 20.8504 42.2117 21.1804 42.1717 21.2904C42.1517 21.3304 42.1017 21.3604 42.0417 21.3604C41.9417 21.3604 41.6317 21.5704 40.6817 22.2804C40.2117 22.6304 39.7517 22.8604 39.6917 22.7704C39.6117 22.6304 39.9817 21.2804 40.2917 20.6204C40.4017 20.3804 40.5717 19.9504 40.6517 19.6904C40.7317 19.4204 40.8417 19.1304 40.8917 19.0404C41.1117 18.6204 41.5617 17.6004 41.6617 17.2704C41.7217 17.0704 41.8017 16.8904 41.8417 16.8704C41.9017 16.8304 42.2017 16.2004 42.2217 16.0604C42.2317 16.0204 42.4117 15.7804 42.6217 15.5204C42.8317 15.2604 43.0317 14.9904 43.0517 14.9204C43.1017 14.7904 43.5017 14.2204 43.7217 13.9904C43.7917 13.9104 44.0017 13.6604 44.1917 13.4304C44.3717 13.2004 44.6517 12.9204 44.8017 12.8104C44.9517 12.7004 45.1617 12.5404 45.2617 12.4504C45.3617 12.3704 45.6617 12.1804 45.9217 12.0504C46.4417 11.7804 47.0917 11.1704 47.0517 10.9704C47.0417 10.9004 46.9517 10.8304 46.8517 10.8204C46.7517 10.8104 46.5117 10.6404 46.3117 10.4604C45.9017 10.0904 45.7617 10.0604 45.4717 10.2904C45.0517 10.6304 43.9117 11.1204 43.0917 11.3404C41.8117 11.6704 40.6617 11.6504 39.4117 11.2904C38.8717 11.1304 37.3717 10.3504 37.1517 10.1104C36.9917 9.93044 36.9317 9.78044 36.9317 9.56044C36.9417 9.02044 36.6417 6.88044 36.4717 6.20044C35.9517 4.20044 35.0417 2.75044 33.7017 1.79044C33.1517 1.40044 31.3117 0.48044 30.8017 0.35044C30.4817 0.24044 29.6417 0.10044 28.9817 0.0104399C28.8617 0.000439926 28.3617 0.0304399 27.8617 0.0904399C27.0017 0.19044 26.7017 0.25044 26.4017 0.36044C26.3317 0.38044 26.2417 0.40044 26.2017 0.39044C26.1617 0.38044 25.9217 0.45044 25.6617 0.54044C25.4117 0.63044 24.9617 0.77044 24.6817 0.85044C24.4017 0.93044 24.1217 1.05044 24.0717 1.11044C24.0217 1.17044 23.9217 1.22044 23.8517 1.22044C23.7817 1.22044 23.4417 1.36044 23.1017 1.53044L22.4817 1.84044L22.5317 2.18044C22.8317 4.06044 23.7317 7.33044 24.2917 8.59044C24.5717 9.21044 25.1417 10.0604 25.6617 10.6304C26.0517 11.0604 27.2117 11.8104 27.9517 12.1104C28.2217 12.2204 28.5217 12.3604 28.6217 12.4304C28.7217 12.4904 28.8817 12.5204 28.9717 12.4904C29.0617 12.4604 29.1417 12.4704 29.1417 12.5104C29.1417 12.7604 32.0117 12.9204 32.8417 12.7104C33.0317 12.6604 33.4417 12.5604 33.7617 12.4704C34.0817 12.3904 34.3717 12.3304 34.4117 12.3404C34.4517 12.3504 34.6317 12.2504 34.8317 12.1204C35.0317 11.9904 35.2917 11.8304 35.4317 11.7604C35.5717 11.6904 35.9017 11.4604 36.1917 11.2404L36.7017 10.8404L36.8617 11.0204C36.9517 11.1204 37.1117 11.2504 37.2317 11.3104C37.3517 11.3704 37.5517 11.5204 37.6917 11.6604C38.2317 12.1604 40.2717 12.6004 41.5917 12.5004C41.9117 12.4804 42.3617 12.4404 42.6117 12.4204C43.1117 12.3804 43.1817 12.4704 42.8517 12.7604C42.6817 12.9104 42.4617 13.2404 41.8617 14.2504C41.8117 14.3404 41.7417 14.4404 41.7217 14.4604C41.6817 14.5004 41.2517 15.2104 40.7617 16.0504C40.5517 16.4104 40.0317 17.4704 39.5717 18.4804C39.4617 18.7304 39.3117 19.0404 39.2617 19.1504C39.2017 19.2604 39.0017 19.7904 38.8117 20.3104C38.6217 20.8304 38.4417 21.3204 38.4017 21.4004C38.2917 21.6204 38.1617 21.9404 38.0517 22.2604C38.0017 22.4204 37.8617 22.6604 37.7617 22.8004C37.5717 23.0404 37.5617 23.0404 37.2117 22.9304C37.0117 22.8704 36.6917 22.7504 36.4817 22.6504C35.4717 22.1904 35.2517 22.1004 34.9017 21.9804C34.3517 21.7904 33.7917 21.6304 33.6517 21.6204C33.5817 21.6104 33.4717 21.5904 33.4017 21.5604C32.7317 21.3004 31.9017 21.1904 30.3517 21.1504C29.8317 21.1404 29.4117 21.0904 29.4117 21.0604C29.4117 20.9804 29.0417 20.9904 28.9517 21.0704C28.9017 21.1104 28.6417 21.1704 28.3617 21.2004C27.8917 21.2504 27.8417 21.2404 27.7917 21.0704C27.7417 20.9304 27.6917 20.9004 27.5117 20.9504C27.3917 20.9804 27.2217 21.0804 27.1417 21.1704C27.0517 21.2704 26.9317 21.3104 26.8417 21.2804C26.7617 21.2504 26.4517 21.3004 26.1617 21.4004C25.8717 21.4904 25.4117 21.5904 25.1417 21.6204C24.8717 21.6504 24.6217 21.6904 24.5817 21.7104C24.5417 21.7304 24.1917 21.8504 23.7917 21.9604C22.9717 22.2004 21.1917 23.0504 20.8117 23.3804C20.6717 23.5004 20.4617 23.6904 20.3217 23.8004C20.1917 23.9204 20.0517 24.0104 20.0217 24.0104C19.8017 24.0104 18.3017 25.9004 17.9617 26.6104C17.9017 26.7304 17.8217 26.8704 17.7817 26.9504C17.6417 27.1804 17.3517 27.8504 17.3217 28.0404C17.3017 28.1404 17.2517 28.2704 17.2117 28.3204C17.0017 28.5804 16.8017 31.7004 16.9517 32.4404C16.9617 32.6604 17.1017 33.4604 17.2217 34.1904ZM55.4417 22.8404C55.4917 22.8404 55.5317 22.8804 55.5317 22.9204C55.5317 22.9704 55.5117 23.0004 55.4917 23.0004C55.4717 23.0004 55.4317 22.9704 55.4017 22.9204C55.3817 22.8804 55.3917 22.8404 55.4417 22.8404ZM55.3217 37.8404C55.4017 37.8404 55.4517 37.9004 55.4517 37.9904C55.4517 38.0704 55.4117 38.2104 55.3717 38.3004C55.3017 38.4604 55.2917 38.4604 55.2917 38.2904C55.2917 38.1904 55.2617 38.0504 55.2417 37.9804C55.2017 37.8904 55.2317 37.8404 55.3217 37.8404ZM55.1117 40.4604C55.1717 40.5404 55.1717 40.6004 55.1017 40.6704C54.9517 40.8204 54.8717 40.7904 54.8717 40.5604C54.8717 40.3404 54.9717 40.3004 55.1117 40.4604ZM54.3717 41.3204C54.3217 41.3504 54.2917 41.3304 54.2917 41.2804C54.2917 41.2304 54.3317 41.1904 54.3717 41.1904C54.4217 41.1904 54.4517 41.2104 54.4517 41.2304C54.4517 41.2504 54.4217 41.2904 54.3717 41.3204ZM54.2217 21.5804C54.2917 21.5804 54.3917 21.6204 54.4117 21.6604C54.4817 21.7704 54.3717 21.7704 54.2017 21.6604C54.0917 21.5904 54.0917 21.5804 54.2217 21.5804ZM53.7017 38.0104C53.7417 38.0104 53.7817 38.0904 53.7817 38.1804C53.7817 38.2704 53.7417 38.3304 53.7017 38.3004C53.6517 38.2704 53.6217 38.2004 53.6217 38.1304C53.6217 38.0604 53.6517 38.0104 53.7017 38.0104ZM53.5017 39.2604C53.5217 39.2604 53.5317 39.4004 53.5317 39.5704C53.5317 39.7704 53.5117 39.8404 53.4617 39.7804C53.4017 39.6804 53.4317 39.2604 53.5017 39.2604ZM53.4217 40.6004C53.4417 40.6004 53.4517 40.7604 53.4417 40.9604L53.4317 41.3204L53.3817 41.0304C53.3217 40.7504 53.3417 40.6004 53.4217 40.6004ZM53.0517 22.4404C53.1117 22.4604 53.1817 22.5804 53.1917 22.7104C53.2117 22.8704 53.1817 22.9304 53.1117 22.9004C53.0517 22.8804 52.9817 22.7604 52.9717 22.6304C52.9417 22.4704 52.9717 22.4204 53.0517 22.4404ZM52.5117 41.9704C52.4917 42.0704 52.4817 41.9904 52.4817 41.7804C52.4817 41.5704 52.4917 41.4904 52.5117 41.5904C52.5317 41.6904 52.5317 41.8704 52.5117 41.9704ZM52.5017 22.9904L52.5617 22.8004L52.5917 23.0004C52.6117 23.1104 52.6017 23.2204 52.5717 23.2504C52.4917 23.3404 52.4417 23.1804 52.5017 22.9904ZM52.2817 20.9104C52.3317 20.9104 52.3817 20.9404 52.4117 20.9904C52.4417 21.0404 52.4317 21.0704 52.3817 21.0704C52.3317 21.0704 52.2817 21.0404 52.2517 20.9904C52.2117 20.9504 52.2317 20.9104 52.2817 20.9104ZM52.1217 23.4004C52.1217 23.5304 52.0917 23.6004 52.0617 23.5604C51.9717 23.4704 51.9617 22.9904 52.0517 23.0204C52.1017 23.0404 52.1317 23.0704 52.1217 23.1104C52.1217 23.1504 52.1217 23.2704 52.1217 23.4004ZM51.9917 20.8404C52.0717 20.8404 52.1217 20.8604 52.1017 20.8804C52.0717 20.9104 52.0017 20.9104 51.9417 20.8904C51.8717 20.8604 51.8917 20.8404 51.9917 20.8404ZM51.5117 40.5804C51.5317 40.6404 51.5317 40.7504 51.5117 40.8304C51.4917 40.9104 51.4717 40.8704 51.4717 40.7304C51.4717 40.5904 51.4917 40.5204 51.5117 40.5804ZM43.7617 13.1004C43.9417 12.7904 44.1017 12.7004 44.0017 12.9704C43.9717 13.0504 43.8917 13.1304 43.8317 13.1504C43.7417 13.1904 43.7217 13.1704 43.7617 13.1004ZM43.5117 13.3704C43.5417 13.3204 43.5717 13.2904 43.6017 13.2904C43.6217 13.2904 43.6417 13.3204 43.6417 13.3704C43.6417 13.4204 43.6017 13.4504 43.5517 13.4504C43.4917 13.4504 43.4817 13.4204 43.5117 13.3704ZM43.3017 13.7004C43.3517 13.7004 43.3817 13.7304 43.3817 13.7804C43.3817 13.8304 43.3517 13.8604 43.3017 13.8604C43.2517 13.8604 43.2217 13.8304 43.2217 13.7804C43.2217 13.7404 43.2517 13.7004 43.3017 13.7004ZM25.2917 7.92044C25.2717 7.92044 25.2317 7.89044 25.2017 7.84044C25.1717 7.79044 25.1917 7.76044 25.2417 7.76044C25.2917 7.76044 25.3317 7.80044 25.3317 7.84044C25.3217 7.89044 25.3117 7.92044 25.2917 7.92044ZM27.7817 0.46044C27.7517 0.41044 27.7817 0.38044 27.8617 0.38044C27.9317 0.38044 27.9917 0.39044 27.9917 0.41044C27.9917 0.51044 27.8317 0.54044 27.7817 0.46044ZM28.7117 11.0404C28.6817 11.1104 28.6717 11.0904 28.6617 10.9904C28.6617 10.9104 28.6817 10.8504 28.7017 10.8804C28.7317 10.9104 28.7317 10.9804 28.7117 11.0404ZM28.7317 0.51044C28.4917 0.52044 28.3817 0.47044 28.4317 0.39044C28.4817 0.30044 28.9417 0.34044 28.9417 0.43044C28.9417 0.47044 28.8517 0.51044 28.7317 0.51044ZM29.4517 0.58044C29.3717 0.55044 29.3417 0.50044 29.3617 0.45044C29.4217 0.35044 29.5417 0.36044 29.6017 0.46044C29.6317 0.51044 29.6817 0.53044 29.7317 0.50044C29.7717 0.48044 29.8117 0.50044 29.8117 0.55044C29.8217 0.64044 29.6517 0.66044 29.4517 0.58044ZM31.4017 12.4504C31.3517 12.4504 31.3217 12.4204 31.3217 12.3704C31.3217 12.3204 31.3517 12.2904 31.4017 12.2904C31.4517 12.2904 31.4817 12.3204 31.4817 12.3704C31.4817 12.4104 31.4517 12.4504 31.4017 12.4504ZM32.3117 12.3604C32.2617 12.3604 32.2317 12.3304 32.2317 12.2804C32.2317 12.2304 32.2617 12.2004 32.3117 12.2004C32.3617 12.2004 32.3917 12.2304 32.3917 12.2804C32.4017 12.3304 32.3617 12.3604 32.3117 12.3604ZM32.6217 6.43044C32.5917 6.50044 32.5817 6.48044 32.5717 6.38044C32.5717 6.30044 32.5917 6.24044 32.6117 6.27044C32.6417 6.30044 32.6417 6.37044 32.6217 6.43044ZM35.0417 5.79044C34.9617 5.87044 34.8017 5.73044 34.8617 5.64044C34.8917 5.59044 34.9417 5.59044 35.0017 5.65044C35.0517 5.70044 35.0717 5.77044 35.0417 5.79044ZM35.3117 9.39044C35.2617 9.36044 35.2317 9.31044 35.2317 9.26044C35.2317 9.21044 35.2617 9.18044 35.3117 9.18044C35.3617 9.18044 35.3917 9.23044 35.3917 9.31044C35.3917 9.39044 35.3617 9.42044 35.3117 9.39044ZM35.7717 10.9504C35.7517 10.9104 35.7517 10.8604 35.7817 10.8304C35.8617 10.7504 36.0617 10.7604 36.0617 10.8504C36.0617 10.9504 35.8217 11.0304 35.7717 10.9504ZM40.3717 12.0004C40.3017 11.9704 40.3217 11.9504 40.4217 11.9504C40.5017 11.9504 40.5517 11.9704 40.5317 11.9904C40.5017 12.0204 40.4317 12.0304 40.3717 12.0004ZM29.7817 46.4704C29.7617 46.4704 29.7217 46.4404 29.6917 46.3904C29.6617 46.3404 29.6817 46.3104 29.7317 46.3104C29.7817 46.3104 29.8217 46.3504 29.8217 46.3904C29.8217 46.4404 29.8017 46.4704 29.7817 46.4704ZM30.2217 45.2104C30.1417 45.1604 30.0617 45.0604 30.0617 45.0004C30.0617 44.8904 30.0917 44.9004 30.2617 45.0304C30.3717 45.1104 30.4717 45.2104 30.4717 45.2404C30.4817 45.3204 30.4217 45.3104 30.2217 45.2104ZM34.9817 48.6104C34.9317 48.6404 34.9017 48.6204 34.9017 48.5704C34.9017 48.5204 34.9417 48.4804 34.9817 48.4804C35.0317 48.4804 35.0617 48.4904 35.0617 48.5204C35.0617 48.5504 35.0317 48.5804 34.9817 48.6104ZM35.2317 46.5604C35.1817 46.5604 35.1517 46.5304 35.1517 46.4804C35.1517 46.4304 35.1817 46.4004 35.2317 46.4004C35.2817 46.4004 35.3117 46.4304 35.3117 46.4804C35.3117 46.5204 35.2817 46.5604 35.2317 46.5604ZM36.8917 49.3204C36.8417 49.3204 36.8117 49.2904 36.8117 49.2404C36.8117 49.1904 36.8417 49.1604 36.8917 49.1604C36.9417 49.1604 36.9717 49.1904 36.9717 49.2404C36.9717 49.2904 36.9417 49.3204 36.8917 49.3204ZM40.7817 45.7304C40.7517 45.8004 40.7417 45.7804 40.7317 45.6804C40.7317 45.6004 40.7517 45.5404 40.7717 45.5704C40.8017 45.6004 40.8017 45.6704 40.7817 45.7304ZM41.4717 47.3104C41.4217 47.3104 41.3917 47.2804 41.3917 47.2304C41.3917 47.1804 41.4217 47.1504 41.4717 47.1504C41.5217 47.1504 41.5517 47.1804 41.5517 47.2304C41.5517 47.2804 41.5217 47.3104 41.4717 47.3104ZM43.1817 46.5604C43.1617 46.5604 43.1217 46.5304 43.0917 46.4804C43.0617 46.4304 43.0817 46.4004 43.1317 46.4004C43.1817 46.4004 43.2217 46.4404 43.2217 46.4804C43.2217 46.5204 43.2017 46.5604 43.1817 46.5604ZM43.8917 47.2004C43.7417 47.2704 43.5917 47.3004 43.5717 47.2804C43.5217 47.2304 43.8717 47.0704 44.0417 47.0804C44.1117 47.0704 44.0417 47.1304 43.8917 47.2004ZM44.0417 38.9304C43.9917 38.9304 43.9717 38.8904 44.0017 38.8504C44.0317 38.8004 44.0617 38.7704 44.0917 38.7704C44.1117 38.7704 44.1317 38.8004 44.1317 38.8504C44.1317 38.8904 44.0917 38.9304 44.0417 38.9304ZM48.2917 30.1704C48.2417 30.1404 48.2117 30.0904 48.2117 30.0404C48.2117 29.9904 48.2417 29.9604 48.2917 29.9604C48.3417 29.9604 48.3717 30.0104 48.3717 30.0904C48.3717 30.1704 48.3417 30.2004 48.2917 30.1704ZM48.9117 44.2004C48.8717 44.2404 48.7417 44.3004 48.6317 44.3304L48.4217 44.3804L48.6317 44.2504C48.8617 44.1204 49.0417 44.0804 48.9117 44.2004ZM49.7717 43.8104C49.7517 43.8704 49.6617 43.9304 49.5817 43.9504C49.4517 43.9804 49.4417 43.9604 49.5417 43.8504C49.6717 43.6804 49.8217 43.6604 49.7717 43.8104ZM51.0417 42.2804C51.0917 42.2804 51.1217 42.3304 51.1217 42.4104C51.1217 42.4904 51.0917 42.5204 51.0417 42.4904C50.9917 42.4604 50.9617 42.4104 50.9617 42.3604C50.9517 42.3104 50.9917 42.2804 51.0417 42.2804ZM50.7817 37.5904C50.8317 37.5904 50.8717 37.6304 50.8717 37.6704C50.8717 37.7204 50.8517 37.7504 50.8317 37.7504C50.8117 37.7504 50.7717 37.7204 50.7417 37.6704C50.7217 37.6204 50.7317 37.5904 50.7817 37.5904ZM50.7817 41.4404C50.8017 41.5404 50.7717 41.6704 50.7217 41.7204C50.6517 41.7904 50.6317 41.7504 50.6317 41.6004C50.6217 41.3304 50.7417 41.2004 50.7817 41.4404ZM50.7017 42.0304C50.7417 42.1504 50.7317 42.3004 50.6917 42.3804C50.6517 42.4604 50.6217 42.6804 50.6217 42.8604C50.6217 43.0604 50.5817 43.2004 50.5317 43.2004C50.4417 43.2004 50.4617 42.6004 50.5717 42.0704C50.6317 41.8104 50.6317 41.8104 50.7017 42.0304ZM50.3817 20.3304C50.4617 20.3304 50.5317 20.3604 50.5317 20.4004C50.5317 20.4404 50.4817 20.5404 50.4217 20.6204C50.3117 20.7704 50.3117 20.7604 50.2717 20.5504C50.2417 20.3704 50.2617 20.3304 50.3817 20.3304ZM50.0117 21.9804C50.0317 22.0404 50.0317 22.1304 50.0117 22.1904C49.9917 22.2504 49.9717 22.2004 49.9717 22.0904C49.9717 21.9804 49.9917 21.9204 50.0117 21.9804ZM49.7717 20.4804C49.7917 20.5404 49.7317 20.5804 49.6317 20.5804C49.5317 20.5804 49.4617 20.5204 49.4617 20.4504C49.4617 20.2904 49.7217 20.3204 49.7717 20.4804ZM47.7817 19.9604C48.0117 19.9004 48.0517 19.9004 48.0417 19.9704C48.0417 20.0104 47.9817 20.1104 47.9117 20.2004C47.8017 20.3404 47.7717 20.3504 47.7117 20.2404C47.5917 20.0604 47.6117 20.0004 47.7817 19.9604ZM40.9917 26.0404C41.0017 26.0104 41.0317 25.7404 41.0617 25.4604C41.1017 25.0804 41.1317 24.9504 41.1917 24.9504C41.2317 24.9504 41.2917 24.9904 41.3117 25.0304C41.3417 25.0804 41.4817 25.1104 41.7917 25.1004C43.1217 25.0904 43.4317 25.1004 43.5217 25.1704C43.5817 25.2104 43.6617 25.2204 43.7117 25.2004C43.7617 25.1804 44.1417 25.1804 44.5717 25.2104C45.7117 25.2904 46.1517 25.3104 46.2317 25.2704C46.2717 25.2504 46.4017 25.2404 46.5217 25.2604C46.6317 25.2704 46.9517 25.2804 47.2217 25.2604C47.4917 25.2504 48.0417 25.2504 48.4417 25.2704C48.8417 25.2904 49.1817 25.2904 49.1917 25.2804C49.4917 25.0304 50.2417 26.4604 50.1717 27.1604C50.1517 27.3704 49.9017 27.5604 49.8017 27.4604C49.7517 27.4104 49.7017 27.4004 49.6717 27.4204C49.6417 27.4404 49.6017 27.4204 49.5717 27.3704C49.5317 27.3004 49.4917 27.2904 49.3717 27.3404C49.2217 27.4004 49.0217 27.4204 48.4317 27.4304C48.2717 27.4304 48.0517 27.4604 47.9517 27.4904C47.8517 27.5204 47.6217 27.5404 47.4317 27.5404C47.0817 27.5304 46.5417 27.7704 46.5617 27.9204C46.5617 27.9604 46.5317 28.0504 46.5017 28.1104C46.4517 28.1904 46.4517 28.2704 46.4917 28.3904C46.5417 28.5204 46.5317 28.5704 46.4717 28.6004C46.4117 28.6304 46.4117 28.7204 46.4517 28.9704C46.4817 29.1504 46.4917 29.3104 46.4717 29.3304C46.4517 29.3504 46.4617 29.5404 46.4917 29.7604C46.5217 29.9804 46.5417 30.4004 46.5317 30.6904C46.5217 30.9804 46.5417 31.2504 46.5717 31.3004C46.6017 31.3504 46.6017 31.4704 46.5717 31.5804C46.5417 31.6904 46.5317 31.8404 46.5617 31.9204C46.6117 32.0504 46.6317 32.3704 46.6317 33.1004C46.6317 33.2604 46.6417 33.5504 46.6517 33.7604C46.6617 33.9704 46.6617 34.2604 46.6417 34.4104C46.6217 34.5504 46.6317 34.7104 46.6617 34.7604C46.7317 34.8804 46.6717 35.2504 46.5617 35.3104C46.5017 35.3404 46.4917 35.3804 46.5317 35.4104C46.5917 35.4604 46.6817 36.2404 46.6517 36.3604C46.6417 36.3904 46.6517 36.4504 46.6617 36.5104C46.7217 36.7204 46.7317 37.2704 46.6817 37.7504C46.6517 38.0404 46.6517 38.2704 46.6817 38.2704C46.7117 38.2704 46.7317 38.3404 46.7217 38.4204C46.7117 38.5004 46.7317 38.7104 46.7717 38.8804C46.8317 39.1604 46.8217 39.2004 46.7317 39.2404C46.6417 39.2804 46.6417 39.2904 46.7417 39.3804C46.8117 39.4404 46.8417 39.5704 46.8317 39.7504C46.8117 40.2004 46.8217 40.5204 46.8517 40.7004C46.8717 40.8204 46.8617 40.8704 46.8117 40.8704C46.7717 40.8704 46.7417 40.8904 46.7417 40.9304C46.7417 40.9604 46.7917 41.0004 46.8617 41.0004C46.9617 41.0104 46.9817 41.0504 46.9717 41.2204C46.9617 41.3304 46.9617 41.4804 46.9717 41.5504C46.9817 41.6204 47.0117 42.0604 47.0317 42.5304C47.0617 43.0004 47.0817 43.4404 47.0917 43.5104C47.0917 43.5804 47.1217 43.7404 47.1517 43.8804C47.1817 44.0204 47.1917 44.1404 47.1617 44.1704C47.1417 44.2004 47.1617 44.2704 47.2117 44.3304C47.3317 44.4804 47.2717 44.6404 47.0617 44.7204C46.9617 44.7604 46.8417 44.8604 46.8017 44.9304C46.7117 45.0804 46.3017 45.2004 46.0917 45.1204C46.0217 45.1004 45.9017 45.1104 45.8017 45.1504C45.7017 45.1904 45.5817 45.2004 45.5117 45.1804C44.6117 44.9204 44.6217 44.9204 44.4917 44.6404C44.4017 44.4504 44.3717 44.2504 44.3817 43.9204C44.3917 43.6604 44.4217 43.4704 44.4617 43.4704C44.4917 43.4704 44.4817 43.4204 44.4317 43.3604C44.3817 43.2904 44.3417 43.0504 44.3517 42.7704C44.3517 42.5104 44.3417 42.2004 44.3217 42.0704C44.3017 41.9504 44.2917 41.6604 44.2917 41.4404C44.2917 41.2104 44.2817 40.8504 44.2717 40.6204C44.2517 40.3904 44.2517 40.0304 44.2517 39.8104C44.2617 39.6004 44.2417 39.3704 44.2017 39.3204C44.1717 39.2704 44.1417 39.0304 44.1517 38.8004C44.1617 38.5604 44.1517 38.1504 44.1417 37.8704C44.1317 37.5904 44.1217 37.2404 44.1417 37.0804C44.1517 36.9204 44.1417 36.7604 44.1217 36.7204C44.0917 36.6804 44.0917 36.5504 44.1117 36.4304C44.1317 36.3104 44.1317 35.9704 44.1217 35.6504C44.1117 35.3304 44.1117 35.0004 44.1217 34.8904C44.1717 34.5204 44.1717 34.0104 44.1317 33.9404C44.0417 33.8004 44.0117 31.1804 44.0917 29.6604C44.1817 27.7604 44.1917 27.8504 43.9017 27.8804C43.5117 27.9204 43.3717 27.9204 42.9317 27.9104C42.7017 27.9004 42.4817 27.9104 42.4617 27.9204C42.4317 27.9304 42.2417 27.9204 42.0317 27.8904C41.6317 27.8404 41.4617 27.7404 41.4817 27.5704C41.4917 27.5104 41.4517 27.4804 41.3717 27.4904C41.1817 27.5204 41.0817 27.3704 41.0717 27.0404C41.0517 26.5904 41.0317 26.2904 41.0017 26.1804C40.9917 26.1504 40.9817 26.0704 40.9917 26.0404ZM46.7917 30.5504C46.7917 30.6004 46.7717 30.6304 46.7517 30.6304C46.7317 30.6304 46.6917 30.6004 46.6617 30.5504C46.6317 30.5004 46.6517 30.4704 46.7017 30.4704C46.7617 30.4704 46.7917 30.5004 46.7917 30.5504ZM34.4417 34.2204C34.4517 34.1304 34.4917 33.9104 34.5417 33.7204C34.5817 33.5404 34.6517 33.2304 34.6917 33.0404C34.7317 32.8504 34.7717 32.6604 34.7917 32.6104C34.8117 32.5604 34.8617 32.2804 34.9117 31.9904C35.0417 31.1804 35.2317 30.2604 35.3117 30.1004C35.3517 30.0204 35.3717 29.9504 35.3517 29.9304C35.3217 29.9004 35.4817 29.3704 35.7817 28.5104C35.8717 28.2404 35.9817 27.9104 36.0317 27.7704C36.0717 27.6304 36.1517 27.4304 36.2217 27.3104C36.2817 27.2004 36.4717 26.8404 36.6417 26.5304C36.8117 26.2104 37.0517 25.8204 37.1817 25.6704C37.3117 25.5104 37.4417 25.3404 37.4717 25.2804C37.5017 25.2204 37.5817 25.1804 37.6717 25.1904C37.8017 25.2004 38.7917 25.7104 39.2317 26.0004C39.3217 26.0604 39.4717 26.1104 39.5717 26.1204C39.6917 26.1304 39.7617 26.1804 39.8117 26.2804C39.8417 26.3604 39.9417 26.5004 40.0417 26.5904C40.1317 26.6804 40.2017 26.8004 40.2017 26.8504C40.1917 26.9104 40.2717 27.1004 40.3817 27.2904C40.5117 27.5204 40.6117 27.8504 40.6917 28.3604C40.9017 29.6004 40.9717 30.1704 40.9217 30.3204C40.8917 30.4004 40.9017 30.4604 40.9317 30.4704C41.0117 30.4804 41.0717 30.7904 41.0817 31.2704C41.0817 31.3804 41.0917 31.5304 41.1117 31.6204C41.2017 32.2104 41.2417 33.1804 41.2017 33.5104C41.1717 33.7304 41.1717 33.9204 41.2017 33.9404C41.2317 33.9604 41.2117 34.0304 41.1717 34.0904C41.1117 34.1804 41.1117 34.2504 41.1717 34.3604C41.2217 34.4504 41.2417 34.7404 41.2217 35.1304C41.2117 35.4804 41.2117 35.8304 41.2417 35.9204C41.2617 36.0104 41.2817 36.2304 41.2617 36.4104C41.2517 36.5904 41.2617 36.7804 41.2817 36.8204C41.3017 36.8604 41.3117 37.0604 41.3017 37.2404C41.2517 38.1904 41.2317 38.9104 41.2517 39.0004C41.2717 39.1004 41.3217 40.5504 41.3217 41.1204C41.3217 41.3004 41.3217 41.5004 41.3217 41.5904C41.3217 41.6804 41.3417 41.7904 41.3717 41.8404C41.4017 41.8904 41.4217 42.0104 41.4217 42.1004C41.4217 42.1904 41.4417 42.3904 41.4717 42.5404C41.5017 42.7304 41.4917 42.8404 41.4417 42.8804C41.3917 42.9204 41.3917 42.9704 41.4317 43.0304C41.4917 43.1204 41.5917 43.8904 41.5917 44.3904C41.5917 44.5504 41.6217 44.7104 41.6517 44.7504C41.6817 44.8004 41.6917 44.8604 41.6617 44.8904C41.6317 44.9204 41.6517 45.0404 41.7017 45.1404C41.7517 45.2504 41.7717 45.3704 41.7517 45.4204C41.7017 45.5304 41.2517 45.5504 40.8917 45.4504C40.6017 45.3704 40.0617 45.0604 39.9617 44.9004C39.8817 44.7804 39.3017 40.6504 39.2917 40.0904C39.2817 39.7104 39.2717 39.6004 39.2017 38.6904C39.1717 38.3004 39.1517 37.6304 39.1517 37.2004C39.1517 36.2304 39.1217 34.7904 39.0917 34.4904C39.0717 34.2904 39.0417 34.2604 38.8517 34.2304C38.7117 34.2004 38.6117 34.2204 38.5617 34.2804C38.5217 34.3304 38.3417 34.3904 38.1717 34.4104C37.3417 34.5104 36.9417 34.6104 36.8917 34.7404C36.8117 34.9204 36.7217 35.4404 36.6917 35.8704C36.6717 36.1104 36.6117 36.4104 36.5617 36.5504C36.5117 36.6904 36.4517 36.9204 36.4217 37.0804C36.4017 37.2304 36.3417 37.5404 36.2917 37.7604C36.2117 38.1604 36.1917 38.3204 36.1317 39.0704C36.1017 39.4504 35.9417 40.8704 35.8317 41.6904C35.8017 41.8804 35.7617 42.0704 35.7317 42.1104C35.7017 42.1504 35.7017 42.2404 35.7317 42.3104C35.7617 42.3904 35.7617 42.5204 35.7117 42.6804C35.6317 42.9204 35.6217 43.0704 35.6517 43.5704C35.6617 43.7304 35.6617 43.9204 35.6517 44.0104C35.5717 44.6204 35.5717 44.7804 35.6217 44.9504C35.6917 45.1904 35.6117 45.3004 35.3317 45.3404C35.2317 45.3504 35.1417 45.4004 35.1417 45.4504C35.1317 45.5804 34.8817 45.5404 34.8017 45.4004C34.7317 45.2904 34.7217 45.2904 34.5917 45.3804C34.4717 45.4704 34.4117 45.4704 34.0417 45.3804C33.3417 45.2004 33.2117 45.0204 33.1817 44.1604C33.1617 43.4804 33.3817 40.7904 33.5317 39.7904C33.6517 39.0104 33.8117 38.0404 33.8917 37.4904C33.9217 37.2704 34.0417 36.6404 34.1417 36.1004C34.3317 34.9804 34.4217 34.4504 34.4417 34.2204ZM32.4417 24.0104C32.4717 23.9604 32.5217 23.9304 32.5717 23.9304C32.6217 23.9304 32.6317 23.9604 32.6017 24.0104C32.5717 24.0604 32.5217 24.0904 32.4717 24.0904C32.4217 24.1004 32.4117 24.0604 32.4417 24.0104ZM32.2617 21.7504C32.4317 21.7504 32.4317 21.7604 32.2717 21.8704C32.1817 21.9404 32.0817 21.9704 32.0417 21.9504C31.9317 21.8804 32.0717 21.7504 32.2617 21.7504ZM30.2917 22.0004C30.3617 22.0004 30.4017 22.0504 30.3817 22.1004C30.3317 22.2304 30.0817 22.3904 30.0217 22.3204C29.9417 22.2404 30.1417 22.0004 30.2917 22.0004ZM26.8017 31.3704C26.8217 31.4304 26.8217 31.5204 26.8017 31.5804C26.7817 31.6404 26.7617 31.5904 26.7617 31.4804C26.7617 31.3704 26.7717 31.3104 26.8017 31.3704ZM26.5317 23.6804C26.5617 23.6304 26.5917 23.6004 26.6217 23.6004C26.6417 23.6004 26.6617 23.6304 26.6617 23.6804C26.6617 23.7304 26.6217 23.7604 26.5717 23.7604C26.5217 23.7604 26.5017 23.7304 26.5317 23.6804ZM26.4017 32.1004C26.4417 32.1304 26.4817 32.2504 26.4817 32.3604C26.4817 32.4704 26.4417 32.5704 26.4017 32.5704C26.3517 32.5704 26.3217 32.4604 26.3217 32.3104C26.3217 32.1504 26.3617 32.0704 26.4017 32.1004ZM26.2517 36.3704C26.3217 36.0904 26.5517 35.4304 26.6317 35.2904C26.6717 35.2204 26.7717 35.0004 26.8717 34.8004C27.0817 34.3504 27.5117 33.7904 28.1217 33.1904L28.5717 32.7504L28.2517 32.3904C27.7617 31.8204 27.4917 31.2904 27.3017 30.5204C26.9817 29.1804 27.0517 28.6504 27.6617 27.5704C27.7817 27.3604 27.8817 27.1504 27.8817 27.1104C27.8817 27.0604 27.9917 26.9404 28.1117 26.8304C28.2317 26.7204 28.4617 26.5004 28.6317 26.3404C28.9317 26.0304 29.6017 25.5804 29.7017 25.6204C29.7317 25.6304 29.8917 25.5904 30.0617 25.5304C30.4917 25.3904 31.1817 25.3304 31.5417 25.4204C31.7217 25.4604 31.8617 25.4704 31.8817 25.4304C31.9017 25.4004 31.9617 25.3904 32.0017 25.4104C32.0417 25.4304 32.1817 25.3604 32.3117 25.2504L32.5417 25.0504L32.6717 25.2104C32.7417 25.3004 32.7917 25.4004 32.7917 25.4404C32.7917 25.4704 32.8217 25.5104 32.8717 25.5104C32.9217 25.5104 33.0117 25.5904 33.0817 25.6904C33.1517 25.7804 33.2417 25.8604 33.2817 25.8704C33.3917 25.8804 33.9417 26.5004 33.9317 26.6004C33.9317 26.6504 33.8917 26.6804 33.8517 26.6804C33.8117 26.6804 33.8017 26.7204 33.8117 26.7704C33.8317 26.8204 33.8517 26.9104 33.8717 26.9604C33.8917 27.0104 33.8717 27.0504 33.8317 27.0504C33.7917 27.0504 33.6917 27.1004 33.6117 27.1604C33.5317 27.2204 33.3817 27.2804 33.2917 27.2904C33.2017 27.3004 33.0817 27.3504 33.0417 27.3904C33.0017 27.4404 32.9317 27.4704 32.8917 27.4604C32.8517 27.4604 32.7317 27.5304 32.6117 27.6304C32.5017 27.7304 32.3017 27.8504 32.1617 27.9204C32.0217 27.9804 31.9117 28.0504 31.9117 28.0804C31.9117 28.1004 31.7517 28.2804 31.5717 28.4604C31.3917 28.6404 31.2117 28.8804 31.1817 28.9804C31.1517 29.0804 31.0317 29.2704 30.9117 29.3904C30.8017 29.5204 30.7017 29.6604 30.7017 29.7004C30.7017 29.7404 30.6617 29.7804 30.6317 29.7804C30.6017 29.7804 30.5617 29.8404 30.5617 29.9104C30.5517 29.9904 30.4717 30.2004 30.3817 30.3804C29.9617 31.2304 30.1017 32.0404 30.7417 32.3604C30.7717 32.3804 30.8917 32.4804 31.0117 32.5904C31.1317 32.7004 31.2417 32.7904 31.2617 32.7904C31.3517 32.8004 32.1417 33.8104 32.1317 33.9004C32.1317 33.9504 32.1717 34.0304 32.2417 34.0704C32.3717 34.1604 32.3717 34.3804 32.2417 34.5904C32.1217 34.7704 31.7517 35.0904 31.6617 35.0804C31.6217 35.0804 31.5917 35.1004 31.5917 35.1204C31.5917 35.1504 31.4417 35.2604 31.2517 35.3804C31.0717 35.4904 30.7817 35.7504 30.6217 35.9504C30.2217 36.4404 30.2217 36.4404 29.7217 37.1604C29.5417 37.4204 29.4917 37.5304 29.4817 37.6504C29.4717 37.7304 29.4117 37.8404 29.3517 37.9004C29.2417 38.0104 29.2117 38.1604 29.0117 39.9004L28.9417 40.5204L29.1617 41.0404C29.2817 41.3204 29.3617 41.5904 29.3417 41.6304C29.3217 41.6704 29.3817 41.7904 29.4717 41.8904C29.5617 42.0004 29.6317 42.1204 29.6317 42.1604C29.6317 42.2004 29.6617 42.2704 29.7117 42.3204C29.7617 42.3604 29.7817 42.4404 29.7617 42.4804C29.7017 42.6104 30.4517 43.2304 30.7317 43.2704C30.8517 43.2904 31.0217 43.3504 31.1017 43.4104C31.1817 43.4704 31.3417 43.5704 31.4717 43.6204C31.6017 43.6804 31.6917 43.7404 31.6917 43.7704C31.6917 43.8004 31.7517 43.8304 31.8317 43.8304C32.0517 43.8504 32.1317 44.0104 31.9917 44.1504C31.9017 44.2404 31.8317 44.2504 31.7017 44.2104C31.5717 44.1704 31.5217 44.1804 31.5217 44.2504C31.5117 44.3604 31.3817 44.4104 31.1817 44.3904C31.1117 44.3804 31.0017 44.4304 30.9517 44.5004C30.8517 44.6304 30.6717 44.6404 30.5717 44.5204C30.5217 44.4604 30.5017 44.4604 30.5017 44.5104C30.4917 44.6104 29.7217 44.5404 29.3317 44.4104C28.8917 44.2604 28.1317 43.7904 27.7917 43.4604C27.4217 43.1104 26.9717 42.3804 26.6917 41.7104C26.3917 40.9804 26.1017 39.7504 26.0717 39.1404C26.0717 39.0504 26.0517 38.8004 26.0317 38.5704C25.9817 38.2204 26.1217 36.8704 26.2517 36.3704ZM26.0617 31.0904C26.0717 31.4804 26.0517 31.7904 26.0017 31.8404C25.9417 31.9004 25.9117 31.7404 25.9117 31.3304C25.9117 30.4704 26.0317 30.2804 26.0617 31.0904ZM25.5917 27.2404C25.7017 26.9904 25.8317 26.9504 25.7717 27.1904C25.7517 27.2804 25.6717 27.4004 25.6117 27.4604C25.4717 27.5704 25.4617 27.5204 25.5917 27.2404ZM25.0417 30.8304C25.0717 30.8604 25.0717 30.9304 25.0517 30.9904C25.0217 31.0604 25.0117 31.0404 25.0017 30.9404C24.9917 30.8504 25.0117 30.8004 25.0417 30.8304ZM24.6117 33.1504C24.6317 33.1504 24.6717 33.1804 24.7017 33.2304C24.7317 33.2804 24.7117 33.3104 24.6617 33.3104C24.6117 33.3104 24.5717 33.2704 24.5717 33.2304C24.5717 33.1804 24.5917 33.1504 24.6117 33.1504ZM23.8617 40.6904C23.8817 40.6904 23.9117 40.7504 23.9417 40.8204C23.9617 40.8904 23.9517 40.9504 23.9117 40.9504C23.8717 40.9504 23.8317 40.8904 23.8317 40.8204C23.8317 40.7504 23.8417 40.6904 23.8617 40.6904ZM23.1617 30.3804C23.2017 30.3804 23.2417 30.4404 23.2417 30.5104C23.2417 30.5804 23.2217 30.6404 23.2117 30.6404C23.1917 30.6404 23.1617 30.5804 23.1317 30.5104C23.1117 30.4404 23.1217 30.3804 23.1617 30.3804ZM23.1317 32.0404C23.1517 32.1004 23.1517 32.1904 23.1317 32.2504C23.1117 32.3104 23.0917 32.2604 23.0917 32.1504C23.0917 32.0204 23.1117 31.9804 23.1317 32.0404ZM22.6817 33.2104C22.7617 33.2904 22.7617 33.3404 22.6817 33.4104C22.6017 33.4904 22.5817 33.4704 22.5817 33.3104C22.5817 33.1604 22.6017 33.1304 22.6817 33.2104ZM22.1617 41.7204V41.9004L21.9917 41.7004C21.7817 41.4504 21.7917 41.3304 22.0017 41.4404C22.0917 41.4904 22.1617 41.6204 22.1617 41.7204ZM21.8017 32.5304C21.9017 32.3604 21.9717 32.6404 21.9317 33.0804C21.9117 33.3404 21.8617 33.5604 21.8217 33.5604C21.7617 33.5704 21.7417 32.6404 21.8017 32.5304ZM21.7117 36.9804C21.7817 36.8704 21.8317 36.9104 21.8317 37.1104C21.8317 37.2504 21.8117 37.2704 21.7517 37.1704C21.7117 37.1104 21.6917 37.0204 21.7117 36.9804ZM21.0817 40.0604C21.1217 40.0904 21.1617 40.1704 21.1617 40.2404C21.1617 40.3104 21.1217 40.3404 21.0817 40.3204C21.0417 40.2904 21.0017 40.2104 21.0017 40.1404C21.0017 40.0704 21.0317 40.0304 21.0817 40.0604ZM20.8317 32.3104C20.8817 32.3104 20.9117 32.3404 20.9117 32.3904C20.9117 32.4404 20.8817 32.4704 20.8317 32.4704C20.7817 32.4704 20.7517 32.4404 20.7517 32.3904C20.7517 32.3404 20.7817 32.3104 20.8317 32.3104ZM20.3817 24.4904C20.4117 24.4604 20.4517 24.4504 20.4817 24.4804C20.5117 24.5004 20.4817 24.5604 20.4317 24.6204C20.3717 24.6804 20.3317 24.6804 20.3317 24.6304C20.3317 24.5804 20.3517 24.5204 20.3817 24.4904ZM19.9617 36.4704C20.0317 36.4004 20.1617 36.4804 20.1617 36.5904C20.1617 36.6304 20.1017 36.6704 20.0417 36.6704C19.9117 36.6704 19.8717 36.5704 19.9617 36.4704ZM19.8917 34.4704C19.9117 34.5304 19.9117 34.6404 19.8917 34.7204C19.8717 34.8004 19.8517 34.7604 19.8517 34.6204C19.8517 34.4704 19.8717 34.4104 19.8917 34.4704ZM19.7917 38.6704C19.8617 38.7304 19.9117 38.8404 19.9117 38.9104C19.9117 39.0304 19.8917 39.0204 19.7917 38.8904C19.6317 38.6904 19.6317 38.5404 19.7917 38.6704ZM19.2117 37.5004C19.2717 37.5004 19.3317 37.5604 19.3317 37.6304C19.3317 37.7004 19.2917 37.7604 19.2517 37.7604C19.2117 37.7604 19.1517 37.7004 19.1317 37.6304C19.1117 37.5504 19.1417 37.5004 19.2117 37.5004ZM17.5617 30.5404C17.6217 30.2704 17.6217 30.2704 17.6717 30.4704C17.7017 30.5904 17.7017 30.7604 17.6917 30.8604C17.6517 31.0604 17.5117 31.1204 17.5117 30.9404C17.5017 30.8704 17.5317 30.6904 17.5617 30.5404ZM37.4817 32.6404C37.7017 32.6604 38.4517 32.6204 38.8117 32.5804C38.9317 32.5704 38.9617 32.5204 38.9817 32.3304C39.0217 31.8804 38.8517 30.0704 38.7617 29.9504C38.7117 29.8904 38.6317 29.5404 38.5917 29.1804C38.4817 28.3304 38.4517 28.2604 38.3317 28.5604C38.2817 28.7004 38.2117 28.9404 38.1717 29.1104C38.1417 29.2804 38.0817 29.4604 38.0417 29.5204C38.0017 29.5804 37.9717 29.6904 37.9617 29.7704C37.9517 29.8504 37.9217 29.9404 37.8817 29.9704C37.8417 30.0004 37.7617 30.3704 37.6817 30.8004C37.6117 31.2304 37.4817 31.7704 37.4117 32.0004C37.2117 32.6504 37.2017 32.6204 37.4817 32.6404Z" fill="black"/>
</svg>
