<svg width="103" height="70" viewBox="0 0 103 70" fill="none" xmlns="http://www.w3.org/2000/svg">
<path d="M67.2912 33.8862C68.1712 34.1762 68.9212 33.8662 69.5812 34.1562C73.8412 27.2062 77.6012 19.7962 81.3412 12.5462C82.9212 9.48624 85.0012 6.61624 86.4712 3.56624C88.2812 -0.17376 84.5112 -1.20376 82.2312 1.60624C79.9612 4.40624 78.3912 8.04624 76.3912 11.0762C74.2312 14.3562 72.1812 17.6862 70.3812 21.1662C69.4412 22.9762 68.2412 24.6562 67.1812 26.4062C66.4012 27.7062 64.6012 29.7362 64.7212 31.2762C64.8312 32.8162 65.9812 33.4562 67.2912 33.8862ZM57.7712 8.83624C56.5212 6.28624 54.9312 3.69624 51.5412 4.08624C45.5912 4.76624 44.0212 14.9962 44.5112 19.5862C44.5112 24.1662 45.9212 33.1062 52.6612 31.2162C57.8512 29.7662 59.1712 21.1962 59.7612 16.8862C59.9512 15.5362 60.0412 13.8962 59.7112 12.5462C59.3612 11.1162 58.4112 10.1462 57.7712 8.83624ZM58.2512 16.6362C57.8612 19.9562 56.6712 26.9762 53.2712 28.8762C50.9112 30.1962 50.6412 27.7362 50.3612 25.9962C49.9312 23.3562 49.9712 20.5162 50.1712 17.8562C50.3012 16.0862 51.3612 4.97624 53.8912 6.41624C53.3312 7.67624 55.8312 9.87624 56.5212 11.0962C57.6212 13.0862 58.5512 14.0762 58.2512 16.6362ZM36.0912 31.0862C41.7412 29.5662 43.6112 22.1062 43.4312 17.1362C42.9912 11.1862 40.8712 4.41624 33.5112 5.63624C28.8512 6.40624 27.5712 16.6062 27.5712 20.5362C27.5812 25.1162 29.8712 32.7562 36.0912 31.0862ZM32.5912 19.4962C32.7712 17.5262 32.9312 15.5462 33.4812 13.6362C34.1012 11.4762 35.2612 9.48624 35.7012 7.29624C37.4212 6.38624 39.6112 9.12624 40.4412 10.3462C41.7912 12.3362 41.9512 14.6362 42.0112 16.9762C42.0912 20.6262 41.2412 25.9562 37.6912 28.1662C33.1512 30.9962 32.3712 21.8562 32.5912 19.4962ZM25.3712 32.5962C27.5812 31.1662 25.4512 30.3862 24.0812 30.1662C24.0812 25.5262 24.9212 20.7162 25.2312 16.0762C25.3912 13.6662 25.3912 11.2962 25.4712 8.88624C25.5212 7.28624 26.4512 4.72624 24.2312 4.65624C22.3712 4.59624 21.5912 6.45624 21.2012 7.93624C20.6512 10.0362 20.7212 9.87624 18.6512 10.9762C18.2112 11.2162 12.7812 13.8362 14.8612 14.6662C15.9412 15.0962 19.6812 12.1762 20.7512 11.8162C21.0812 15.8362 20.3112 20.6262 19.7912 24.6262C19.6912 25.3762 19.5812 29.3762 18.8512 29.8962C18.1312 30.4162 16.2712 29.5862 15.9412 30.9162C15.4812 32.7662 21.7012 32.6762 22.7812 32.7862C23.7712 32.8662 24.6412 33.0762 25.3712 32.5962ZM82.9412 21.7662C80.2912 21.8762 78.0912 23.9862 78.0212 26.5262C77.9512 28.9262 79.5912 32.2162 82.2912 32.5662C85.7612 33.0262 87.1812 29.6562 87.5112 26.9862C88.0612 27.0562 86.7212 24.3762 86.5612 24.1462C85.6712 22.8562 84.6612 21.6962 82.9412 21.7662ZM85.5812 28.4762C85.3612 29.0262 83.9712 30.7562 83.2112 30.5862C80.9412 30.0662 83.0112 25.1262 84.1712 24.3962C85.4612 25.2262 86.1812 26.9762 85.5812 28.4762ZM70.1512 10.8962C72.6412 11.3162 74.6312 9.22624 75.1212 6.91624C76.3512 1.05624 66.0212 -1.48376 66.1212 5.62624C66.3312 8.22624 67.2312 10.3962 70.1512 10.8962ZM71.8512 4.05624C72.9212 3.94624 73.0912 4.96624 73.5512 5.82624C72.9912 7.41624 70.5812 10.7462 70.0912 7.08624C69.9712 6.17624 70.6912 4.17624 71.8512 4.05624ZM12.9812 43.4362C12.5212 43.4562 12.0512 43.4362 11.5812 43.4262C11.3012 43.4162 10.9912 43.4562 10.7412 43.3762C9.92122 43.0962 10.1912 43.9862 9.81122 44.1662C10.0412 44.3462 10.2512 44.5562 10.4912 44.7062C10.8112 44.9062 11.2912 44.8762 11.3112 45.4562C11.3912 47.6062 11.4912 49.7562 11.6412 51.9062C11.7812 53.9162 12.0412 55.9062 11.8912 57.9362C11.7812 59.4362 11.8612 60.9462 11.8512 62.4562C11.8512 62.7162 11.7912 62.9662 11.7612 63.2262C11.7112 63.2362 11.6712 63.2462 11.6212 63.2462C11.5112 63.0562 11.3912 62.8862 11.3012 62.6862C10.7712 61.4562 10.3012 60.2062 9.73123 58.9862C8.74123 56.8762 7.70123 54.7862 6.67123 52.6862C5.49123 50.2662 4.26122 47.8562 3.12122 45.4162C2.57122 44.2462 1.78122 43.5962 0.511225 43.6162C-0.148775 44.2462 -0.098775 44.9562 0.261225 45.6062C0.841225 46.6362 0.801225 47.7562 0.901225 48.8562C1.07122 50.7662 1.24123 52.6762 1.37122 54.5862C1.50122 56.4362 1.63122 58.2862 1.71123 60.1362C1.79123 61.9962 1.80123 63.8462 1.84123 65.7062C1.85123 66.4162 1.84123 67.1262 1.84123 67.8662C1.55123 67.8462 1.35123 67.8162 1.15122 67.8062C0.541225 67.7762 0.221225 68.0562 0.191225 68.6462C0.161225 69.2062 0.511225 69.5362 1.12122 69.5562C1.41122 69.5662 1.70123 69.6562 1.99123 69.6462C2.74123 69.6262 3.50123 69.6762 4.22123 69.5062C4.67123 69.4062 5.39123 69.3162 5.30123 68.4662C4.88123 68.3962 4.46123 68.3362 4.06123 68.2362C3.94123 68.2062 3.79122 68.0462 3.78122 67.9262C3.63122 66.8662 3.38123 65.8062 3.40123 64.7462C3.46123 61.7762 3.34122 58.8262 3.13122 55.8762C3.04122 54.6562 2.96122 53.4362 2.88122 52.2162C3.27122 52.7462 3.54122 53.3162 3.81122 53.8962C4.99122 56.4162 6.19123 58.9262 7.33123 61.4662C7.99123 62.9462 8.49123 64.4962 9.15123 65.9762C9.65123 67.0862 10.2912 68.1262 11.6912 68.3662C11.8712 68.3962 12.0312 68.5562 12.2012 68.6462C12.5712 68.8462 12.9412 68.9962 13.1212 68.4162C13.3012 68.5362 13.4612 68.6262 13.8212 68.8562C13.8212 68.2662 13.8512 67.8363 13.8112 67.4262C13.7812 67.0863 13.6112 66.7462 13.6212 66.4062C13.6512 64.4762 13.7412 62.5462 13.7512 60.6062C13.7612 58.7262 13.7012 56.8462 13.6712 54.9662C13.6512 53.7562 13.6412 52.5562 13.6012 51.3462C13.5312 49.4062 13.4412 47.4662 13.3412 45.5362C13.3112 45.0262 13.4912 44.6962 13.9712 44.4562C14.2712 44.3062 14.5312 44.0762 14.7812 43.8462C14.8612 43.7762 14.9112 43.5862 14.8712 43.4862C14.8312 43.3962 14.6612 43.2962 14.5512 43.3062C14.0312 43.3362 13.5112 43.4162 12.9812 43.4362ZM73.1112 66.6662C72.8112 66.5062 72.2412 66.5962 71.9012 66.7762C71.4612 67.0062 71.3412 66.7962 71.1512 66.5262C70.0312 64.8662 68.9212 63.1962 67.7812 61.5462C67.5012 61.1462 67.5512 60.8262 67.9812 60.7162C69.7312 60.2462 70.5912 58.8062 71.6512 57.5862C71.8212 57.3862 72.0212 57.1662 72.0712 56.9262C72.3612 55.5562 72.7812 54.1862 72.8412 52.8062C72.9212 50.7762 72.3312 48.9162 71.0412 47.2262C70.2112 46.1462 69.2412 45.4162 67.9912 44.9462C66.9812 44.5662 65.9712 44.1662 64.9512 43.7962C64.7912 43.7362 64.5712 43.8462 64.3712 43.8662C64.1212 43.8862 63.8712 43.9162 63.6212 43.9062C63.1712 43.8762 62.4412 44.3162 62.5112 44.6962C62.5612 44.9762 62.9012 45.4062 63.1112 45.4062C63.7112 45.3962 63.6112 45.6962 63.5412 46.0362C63.4712 46.4262 63.3412 46.8262 63.3412 47.2162C63.3212 50.6162 63.3012 54.0062 63.3212 57.4062C63.3412 60.1762 63.4112 62.9462 63.4612 65.7262C63.4812 66.8062 63.5512 67.8662 64.4112 68.7162C64.8212 69.1162 66.1512 69.2062 66.3712 68.7062C66.6112 68.1562 66.7912 67.5362 66.8212 66.9362C66.8912 65.6462 66.8412 64.3462 66.8412 63.0562C66.8412 63.0562 66.9112 63.0862 66.9412 63.1262C67.9212 64.7462 68.9412 66.3462 69.8512 68.0062C70.2512 68.7362 70.8612 68.9962 71.5812 69.1562C71.6912 69.1762 71.8612 69.1162 71.9512 69.0262C72.2612 68.7362 72.5412 68.4162 72.8512 68.1262C73.2612 67.7562 73.4912 66.8662 73.1112 66.6662ZM66.6812 59.6262C66.0412 56.6062 66.0412 53.5762 66.0412 50.5362C66.0412 49.0962 66.0612 47.6462 66.0512 46.2062C66.0512 45.6762 66.2412 45.6062 66.7112 45.7762C69.4112 46.7162 70.6612 48.6762 71.0112 51.3762C71.1912 52.7762 71.2112 54.1762 70.7012 55.4662C70.0112 57.2262 68.7912 58.6362 67.0412 59.5162C66.9312 59.5762 66.7912 59.5962 66.6812 59.6262ZM87.0312 49.1162C86.3212 46.9762 85.0712 45.1562 82.8812 44.1562C82.6612 44.0562 82.4212 44.0062 82.1912 43.9262C82.2812 43.8262 82.3612 43.7262 82.4512 43.6262C82.3812 43.6762 82.3112 43.7262 82.2412 43.7562C82.1612 43.7862 82.0712 43.7962 81.9812 43.8162C79.9612 44.2362 78.1312 44.9462 77.1612 46.9562C77.0712 47.1362 76.7612 47.1962 76.5512 47.3162C76.2912 47.4662 75.9312 47.5462 75.7912 47.7662C75.6812 47.9362 75.7512 48.3362 75.8912 48.5362C76.5612 49.5362 78.4012 49.8262 79.5412 49.0562C79.2412 48.7762 78.9512 48.5062 78.6312 48.2162C79.2712 46.7962 80.4512 45.9762 81.9812 45.6062C82.2312 45.5462 82.5712 45.6162 82.8112 45.7462C84.4212 46.5662 84.8712 48.0862 84.9212 49.6662C84.9912 51.9162 84.8712 54.1862 84.8112 56.4362C84.7912 57.2062 84.7012 57.9762 84.6512 58.7362C83.9212 58.6062 83.2712 58.4362 82.6112 58.3762C81.8912 58.3062 81.1712 58.3362 80.4512 58.3262C78.3912 58.2962 75.9712 59.8262 75.3112 61.6562C74.6412 63.5362 75.3612 65.2162 76.4212 66.6762C77.8912 68.7062 80.0912 69.3062 82.5312 68.9762C83.4812 68.8562 84.4312 68.5762 84.9912 67.6062C85.0812 68.0762 85.0712 68.5062 85.2712 68.8162C85.4312 69.0762 85.8212 69.3262 86.1112 69.3362C86.4412 69.3362 86.9112 69.2762 86.8912 68.6662C86.8612 67.8262 86.9712 66.9762 86.9912 66.1262C87.0112 65.5462 86.9412 64.9662 86.9812 64.3962C87.1112 62.2562 87.3112 60.1162 87.3912 57.9762C87.4612 56.1762 87.4512 54.3662 87.4012 52.5562C87.3612 51.3962 87.3912 50.1862 87.0312 49.1162ZM84.2412 66.1462C84.1912 66.8062 83.3712 67.3162 82.3912 67.3662C82.1212 67.3762 81.8412 67.3662 81.7412 67.3662C80.7112 67.4062 79.8712 67.3562 79.2112 66.7462C78.8612 66.4262 78.5312 66.0462 78.3112 65.6262C77.4212 63.9462 77.3512 62.1962 79.1112 60.7362C80.4712 59.6162 81.9912 59.7562 83.5312 59.9462C84.1612 60.0262 84.5212 60.5962 84.5112 61.1462C84.4812 62.8162 84.3612 64.4862 84.2412 66.1462ZM29.1312 66.4062C29.0212 64.8162 29.0512 63.2162 29.0312 61.6162C29.0312 61.2162 29.0712 60.8262 29.1212 60.4262C29.2312 59.5662 29.4312 58.7162 29.4612 57.8562C29.5112 56.5662 29.3312 55.2662 29.4412 53.9862C29.5712 52.4462 29.6812 50.9562 29.4612 49.3862C29.2612 47.9362 28.7712 46.6862 28.0212 45.4962C27.7012 45.0162 27.2112 44.5862 26.7112 44.2162C25.4512 43.2862 24.1212 43.7262 22.8912 44.2462C20.1112 45.4262 18.7212 47.7262 17.9212 50.4962C17.8312 50.4562 17.7712 50.4262 17.7112 50.3962C17.2412 50.0862 16.6612 49.8962 16.3112 50.3962C15.9812 50.8762 16.1712 51.4462 16.7412 51.7662C17.2912 52.0762 17.8312 52.3962 18.3912 52.6662C19.0912 52.9962 19.6512 52.6662 20.2812 52.2362C20.0212 52.0062 19.7812 51.8462 19.6112 51.6262C19.4512 51.4262 19.2512 51.1562 19.2812 50.9362C19.4612 49.4262 20.1412 48.0962 21.1712 47.0162C22.0712 46.0762 23.1812 45.3962 24.5712 45.2262C25.4312 45.1162 25.8812 45.1962 26.3012 45.8662C27.3912 47.5962 27.9012 49.4862 27.8612 51.5162C27.8212 53.3262 27.7812 55.1462 27.7112 56.9562C27.6812 57.6162 27.5512 58.2762 27.4712 58.9262C26.5712 58.6562 25.7512 58.3262 24.9012 58.1662C24.1112 58.0262 23.2712 57.9362 22.4912 58.0562C20.7412 58.3162 19.4512 59.4262 18.2912 60.6262C17.0112 61.9462 16.6812 63.5662 17.3612 65.2562C17.6512 65.9662 18.2412 66.5962 18.8112 67.1362C20.4312 68.6762 23.4912 69.5262 25.7812 68.1662C26.2312 67.8962 26.6212 67.7462 26.9412 68.3762C27.0612 68.6162 27.4412 68.7262 27.3412 69.1162C27.3312 69.1362 27.5912 69.2662 27.7312 69.2862C27.8612 69.3062 28.0112 69.2462 28.1412 69.2062C28.6612 69.0262 29.1912 68.8362 29.7012 68.6262C29.7512 68.6062 29.7412 68.3562 29.7012 68.2262C29.5212 67.5962 29.1712 67.0162 29.1312 66.4062ZM26.7912 63.7762C26.7312 64.2362 26.6712 64.6962 26.6412 65.1662C26.6112 65.6362 26.6312 66.0962 26.6312 66.6762C25.5612 66.8162 24.5512 67.1062 23.5512 67.0662C20.8312 66.9562 19.6112 65.5262 19.9412 62.7962C20.1612 60.9862 22.7612 59.3762 24.2012 59.5462C24.6912 59.6062 25.1912 59.6362 25.6812 59.7062C26.3412 59.7962 27.1512 60.8462 27.0812 61.5462C27.0112 62.2862 26.8912 63.0262 26.7912 63.7762ZM59.1412 47.3762C58.9912 46.8562 58.9412 46.2462 59.0912 45.7362C59.2812 45.0462 59.2712 44.7662 58.5312 44.7162C57.7912 44.6562 57.0312 44.7762 56.3712 44.8162C56.2212 45.0762 56.0612 45.2262 56.0412 45.3962C56.0112 45.6062 56.0512 45.8562 56.1512 46.0462C56.2112 46.1562 56.4612 46.2662 56.5912 46.2362C57.1912 46.1062 57.6412 46.0962 57.4712 46.9162C57.4512 46.9962 57.5212 47.0862 57.5512 47.1662C57.7412 47.8962 58.0312 48.6162 58.1112 49.3562C58.2412 50.5062 58.2512 51.6762 58.2612 52.8362C58.2812 54.7062 58.2612 56.5862 58.2712 58.4562C58.2812 61.0262 57.7412 63.4262 56.1512 65.5362C55.6912 66.1462 55.0612 66.7762 54.3112 66.5762C53.7812 66.4362 53.1812 65.7862 53.0312 65.2462C52.6712 64.0162 52.1012 62.8562 52.0512 61.5062C52.0112 60.4562 51.5712 59.4362 51.6212 58.3262C51.6612 57.5562 51.2812 56.7662 51.2712 55.9762C51.2312 54.0362 51.2412 52.0962 51.3312 50.1562C51.3912 48.8062 51.6112 47.4662 51.7612 46.0862C51.9412 45.9862 52.2512 45.8062 52.5512 45.6362C51.8712 44.7462 51.0512 45.0162 50.2912 44.9662C49.8212 44.9362 49.3512 44.8462 48.8812 44.8062C48.7012 44.7862 48.4812 44.7862 48.3312 44.8662C47.8312 45.1362 47.8512 46.0362 48.4512 46.3362C48.9012 46.5662 48.8012 46.7662 48.7512 47.1062C48.5312 48.6462 48.2312 50.1762 48.1612 51.7262C48.0812 53.4062 48.2012 55.0962 48.2812 56.7762C48.3312 57.7962 48.4512 58.8162 48.6212 59.8262C48.9612 61.8362 49.7112 63.7162 50.6512 65.5062C51.3012 66.7262 52.1012 67.9162 53.7212 68.1962C54.9112 68.3962 57.2112 67.6462 57.6612 66.6262C58.3112 65.1462 58.9812 63.6162 59.2712 62.0462C59.6312 60.0862 59.6312 58.0562 59.7212 56.0562C59.7612 55.2462 59.5812 54.4262 59.5812 53.6062C59.5712 51.5262 59.7212 49.4262 59.1412 47.3762ZM45.8412 43.0062C44.2212 43.6062 42.5112 43.4462 40.8612 43.5762C38.0412 43.7862 35.1912 43.6262 32.3512 43.6262C32.2312 43.6262 32.0812 43.6262 32.0012 43.6862C31.3512 44.1762 31.4212 45.7962 32.1012 46.2362C32.1812 46.2862 32.3212 46.2962 32.4212 46.2762C32.6212 46.2262 32.8212 46.1462 33.0712 46.0662C33.0912 45.8562 33.1212 45.5662 33.1412 45.2962C34.7612 45.2962 36.3412 45.2962 37.9112 45.2962C37.8912 45.4462 37.8512 45.5962 37.8512 45.7462C37.8112 47.3662 37.7712 48.9962 37.7512 50.6162C37.7212 53.2462 37.6912 55.8662 37.6912 58.4962C37.6912 61.6362 37.7212 64.7762 37.7712 67.9162C37.7812 68.2862 37.7012 68.3862 37.3512 68.4062C36.9012 68.4262 36.5212 68.6262 36.5212 69.1062C36.5212 69.4062 36.7012 69.7062 36.8012 69.9962C37.0412 69.9562 37.2212 69.8862 37.3912 69.8962C38.6512 69.9662 39.8612 69.7862 41.0212 69.3162C41.2512 69.2162 41.4112 68.9562 41.6112 68.7662C41.4412 68.6162 41.2812 68.4462 41.0912 68.3062C41.0112 68.2462 40.8812 68.2462 40.7612 68.2262C40.6612 65.6462 40.5312 63.0862 40.4612 60.5262C40.4212 59.0362 40.4712 57.5362 40.4812 56.0362C40.4912 54.8862 40.5312 53.7262 40.5012 52.5762C40.4712 51.3362 40.3912 50.0962 40.3412 48.8462C40.3112 48.0062 40.3412 47.1662 40.2612 46.3262C40.1912 45.5462 40.4512 45.1762 41.2212 45.0962C42.3212 44.9862 43.4112 44.8562 44.4412 44.7362C44.7412 45.6562 45.0312 46.5262 45.3312 47.4262C45.6612 47.2862 45.9312 47.1662 46.1912 47.0562C46.3412 46.0362 46.6412 45.0662 46.9212 44.0962C47.1612 43.3362 46.6212 42.7162 45.8412 43.0062ZM101.581 66.1662C101.411 66.0562 100.951 66.1562 100.801 66.3162C100.551 66.5862 100.351 66.9662 100.321 67.3262C100.271 67.8462 100.121 68.0062 99.6012 67.8462C99.2812 67.7462 98.9412 67.7162 98.6012 67.7062C97.5212 67.6462 96.4412 67.5962 95.3712 67.5762C94.9312 67.5662 94.6912 67.3362 94.7012 66.9862C94.7312 65.3762 94.7912 63.7662 94.8912 62.1562C94.9612 61.0662 95.1512 59.9762 95.2112 58.8862C95.2512 58.1562 95.1212 57.4262 95.1212 56.6962C95.1312 55.1462 95.2212 53.5962 95.2012 52.0462C95.1712 50.2362 95.0912 48.4362 94.9512 46.6362C94.8712 45.5962 94.7312 44.4862 93.7912 43.7862C93.4412 43.5262 92.8912 43.2562 92.5112 43.3362C91.9212 43.4662 91.4112 43.8962 90.8612 44.2062C90.8512 44.2962 90.8412 44.3862 90.8412 44.4862C91.2212 44.6862 91.5912 44.8862 92.1412 45.1862C92.2012 45.9262 92.3212 46.8662 92.3312 47.8062C92.3612 49.9162 92.3712 52.0362 92.3412 54.1462C92.3112 56.1362 92.3312 58.1362 92.1612 60.1062C91.9512 62.5462 91.5612 64.9662 91.7812 67.4262C91.8412 68.0462 91.6012 68.8562 92.6612 68.9362C92.7012 68.9362 92.7312 69.0362 92.7612 69.0962C92.9912 69.6362 93.4512 69.6862 93.9412 69.5762C94.3712 69.4862 94.7812 69.2062 95.2012 69.2062C96.4312 69.2062 97.6712 69.3062 98.9012 69.3762C98.9412 69.3762 98.9912 69.4162 99.0312 69.4162C99.7312 69.4362 100.381 69.4562 101.021 68.9862C101.751 68.4462 101.711 67.6262 102.011 66.9362C102.081 66.7662 101.811 66.3162 101.581 66.1662Z" fill="black"/>
</svg>
