<svg width="132" height="68" viewBox="0 0 132 68" fill="none" xmlns="http://www.w3.org/2000/svg">
<path d="M41.2354 27.2551C39.1654 28.3151 37.6554 30.2951 35.7254 31.7951C35.3854 30.6551 35.0954 29.6851 34.7154 28.4251C34.2054 28.9851 33.9054 29.2251 33.7354 29.5351C33.1554 30.5351 32.4954 31.5051 32.0954 32.5851C30.2054 37.6851 26.9854 42.0151 24.0654 46.7651C24.0554 46.1451 24.0154 45.6951 24.0354 45.2451C24.2254 41.4351 25.1054 37.7851 26.3554 34.1951C27.0054 32.3351 28.2854 31.5551 30.0354 31.3051C32.7254 30.9151 33.6354 29.5451 32.8454 27.0051C32.3054 25.2951 31.1454 24.3751 29.6954 24.5351C28.1954 24.6951 27.3454 25.7651 27.0054 27.5251C26.6554 29.3051 26.1354 31.0451 25.6554 32.8051C24.8954 35.6251 24.1054 38.4451 23.3354 41.2651C23.2054 41.7351 23.1054 42.2151 22.9954 42.6851C22.1454 40.3451 21.6754 38.0151 21.0654 35.7351C20.6954 34.3851 20.7954 33.1451 21.4054 31.9251C21.8854 30.9651 22.4554 30.0451 22.9454 29.0851C23.9554 27.0951 25.1154 25.1651 25.8854 23.0851C26.4454 21.5751 27.2354 20.5951 28.7054 20.0151C31.8854 18.7551 33.9454 16.0751 36.2854 13.7651C36.4654 13.5851 36.4954 13.2551 36.6954 12.7551C33.4254 12.8651 30.7654 14.6051 27.7054 15.0151C27.7554 14.0951 27.8054 13.3251 27.8354 12.5551C27.9554 9.16511 28.0854 5.77511 28.1754 2.38511C28.1854 1.93511 27.9854 1.47511 27.8754 1.01511C27.6954 1.00511 27.5154 0.995107 27.3354 0.985107C26.9154 2.02511 26.3854 3.03511 26.0954 4.10511C24.9354 8.42511 23.8454 12.7551 22.7254 17.0851C22.5754 17.6851 22.5654 18.3851 22.2254 18.8551C21.1154 20.3751 19.8954 21.8151 18.5854 23.4451C18.4054 21.9451 18.9754 20.8551 19.6354 19.7551C20.8554 17.7351 20.3454 15.1251 18.4854 14.0651C16.8854 13.1551 15.2054 13.2151 13.6954 14.2751C12.2054 15.3251 11.4654 16.8451 11.8054 18.6951C12.1454 20.5051 13.4154 21.4151 15.1354 21.7651C15.4354 21.8251 15.8054 21.7751 16.0154 21.9451C16.4654 22.3051 17.0654 22.7051 17.1854 23.1951C17.8054 25.6951 18.2954 28.2151 18.8354 30.7351C17.9754 30.3551 17.5454 29.7451 17.0254 29.2251C15.6054 27.8251 14.3154 26.2051 12.6654 25.1651C10.9454 24.0851 9.44537 22.8651 8.10537 21.3751C7.38537 20.5751 6.61537 19.8151 5.82537 19.0851C5.28537 18.5951 4.66537 18.2051 3.71537 17.4851C3.48537 20.1851 5.20537 21.8851 5.43537 23.9351C3.69537 24.5751 1.80537 24.1851 0.00537109 25.6051C1.35537 26.2851 2.47537 26.8551 3.59537 27.4251C5.91537 28.6051 8.29537 29.7551 9.91537 31.8851C11.5754 34.0551 13.4954 35.8951 15.7554 37.4051C16.9654 38.2151 18.2154 39.0051 19.3154 39.9551C21.0654 41.4651 22.0154 43.3951 21.9854 46.0051C20.3354 44.9151 18.9554 43.8151 17.4154 43.0451C15.7654 42.2251 14.2254 41.3151 12.9154 40.0151C12.4354 39.5351 12.0454 38.9451 11.5454 38.4951C9.96537 37.0551 7.62537 37.3451 6.81537 39.0351C6.23537 40.2451 6.58537 42.1851 7.53537 43.1351C8.51537 44.1151 9.53537 44.1651 11.1254 43.5651C12.0254 43.2251 13.1354 42.7651 13.9454 43.0151C16.0354 43.6551 18.0754 44.5751 19.9154 46.4651C18.8554 46.3851 18.1054 46.2551 17.3754 46.2851C16.0054 46.3351 14.5254 46.1651 13.2954 46.6451C10.3754 47.7751 7.49537 48.3251 4.39537 47.6651C3.67537 47.5151 2.65537 47.3351 2.13537 48.6751C3.03537 49.6451 3.99537 50.6951 4.95537 51.7251C4.49537 53.3951 2.64537 54.2551 2.55537 56.1151C2.88537 56.1951 3.10537 56.3051 3.31537 56.2851C3.77537 56.2351 4.28537 56.2251 4.65537 56.0051C7.57537 54.2851 10.6054 54.3451 13.8654 54.8751C16.1654 55.2451 18.5954 54.7751 20.9654 54.6151C23.4854 54.4451 23.5954 54.4851 24.6754 56.6951C25.0254 57.4151 25.8254 66.9751 27.0354 67.0151C27.1954 66.7851 27.5354 66.5251 27.5054 66.3151C27.2554 64.6851 26.4754 58.3351 26.7454 56.4451C27.3454 56.1151 30.0554 54.1351 30.6854 53.8551C35.5154 51.7351 38.8054 48.1551 40.6154 43.1851C40.7654 42.7751 40.7854 42.3151 40.9054 41.7151C39.1454 41.9851 38.0754 43.1451 36.8454 43.9651C35.5954 44.7951 34.4254 45.7651 33.2354 46.6551C33.9954 44.8351 34.8354 43.1951 35.3554 41.4551C35.6754 40.3851 36.0354 39.4751 36.7854 38.6351C39.1854 35.9451 40.8354 32.8351 41.6554 29.3051C41.8054 28.6651 42.2554 27.9651 41.2354 27.2551ZM27.5954 15.9851C29.8154 15.3151 32.0954 14.6251 34.3654 13.9351C32.4154 16.4951 30.3054 18.6651 26.9954 19.8951C27.2154 18.5151 27.3854 17.3851 27.5954 15.9851ZM26.9854 4.91511C26.5854 12.9851 27.0954 21.2551 21.8854 28.2751C22.7554 20.3051 24.4954 12.5251 26.9854 4.91511ZM21.8954 20.5351C21.7954 22.2851 21.8554 23.8851 19.7954 24.3851C20.0554 22.6551 20.2654 22.2751 21.8954 20.5351ZM21.2454 24.6351C20.9254 26.7951 20.6554 28.6051 20.3854 30.4151C20.2754 30.4151 20.1554 30.4251 20.0454 30.4251C19.7054 28.9451 19.3654 27.4651 19.0154 25.9351C19.6854 25.5551 20.2654 25.2151 21.2454 24.6351ZM18.5854 32.6851C17.7954 33.2851 17.0854 32.9951 16.7054 32.4851C15.3554 30.6651 14.1154 28.7551 12.8254 26.8851C15.3754 28.2251 16.8354 30.5251 18.5854 32.6851ZM2.55537 25.9351C2.54537 25.7751 2.52537 25.6051 2.51537 25.4451C3.65537 25.2651 4.80537 25.0851 5.98537 24.9051C6.68537 26.2651 7.29537 27.4551 8.03537 28.9051C6.01537 27.8151 4.28537 26.8751 2.55537 25.9351ZM5.59537 20.7851C8.83537 22.7951 15.8754 31.8651 18.4454 37.3351C13.3054 35.8151 8.41537 29.0751 5.59537 20.7851ZM20.2754 38.4051C19.4754 37.0751 18.6854 35.7451 17.8154 34.2851C19.0854 33.8151 19.6854 34.1951 19.9154 35.3251C20.1154 36.3051 20.3554 37.2751 20.5854 38.2451C20.4754 38.2951 20.3754 38.3451 20.2754 38.4051ZM21.7654 48.4351C17.9254 50.5951 14.6254 49.7051 11.3554 48.2551C14.7054 46.9751 18.0454 46.5451 21.7654 48.4351ZM4.13537 55.4251C4.03537 55.2951 3.92537 55.1551 3.82537 55.0251C4.41537 54.1951 5.00537 53.3651 5.88537 52.1351C6.63537 52.6651 7.22537 53.0751 8.18537 53.7451C6.58537 54.4051 5.36537 54.9151 4.13537 55.4251ZM4.06537 48.8951C10.5554 49.4251 16.3154 50.9851 21.9854 52.9851C15.6554 54.0551 9.37537 54.8351 4.06537 48.8951ZM19.2854 50.4751C20.7154 50.1451 21.7054 49.9151 22.7454 49.6751C22.9154 50.4151 23.0554 51.0351 23.2654 51.9451C21.9454 51.4551 20.8454 51.0451 19.2854 50.4751ZM34.2754 30.4251C35.5554 33.4151 33.1054 34.3551 32.0254 35.9651C31.8554 35.8851 31.6954 35.8051 31.5254 35.7251C32.4054 34.0251 33.2954 32.3051 34.2754 30.4251ZM27.2854 46.1951C27.1054 48.3251 27.1054 48.3251 25.0254 49.5551C25.3254 47.8751 26.1054 46.9551 27.2854 46.1951ZM26.0054 54.7051C25.7254 53.4751 25.5054 52.5251 25.2654 51.5051C27.5054 50.2151 29.7654 48.9151 32.2354 47.4951C30.1454 49.9151 28.2054 52.1651 26.0054 54.7051ZM38.6854 44.0751C38.0154 47.4351 32.9254 51.9151 29.2154 52.6851C30.6854 50.1351 35.7854 45.4851 38.6854 44.0751ZM28.0954 48.6651C27.8754 44.3851 31.5154 43.4451 34.0154 41.4651C34.1254 44.1951 31.7354 47.0751 28.0954 48.6651ZM26.7554 44.9351C27.4654 42.3451 36.5854 32.0451 39.8454 30.1451C39.3354 34.8451 34.4654 40.6551 26.7554 44.9351ZM63.5854 27.4551C63.4854 27.2051 63.4354 26.8451 63.4354 26.3951V19.8351C63.4354 19.0051 63.3754 18.3551 63.2554 17.8551C63.1354 17.3651 62.9454 16.9651 62.6754 16.6551C62.4054 16.3451 62.0654 16.1151 61.6354 15.9551C61.2154 15.7951 60.6754 15.7151 60.0054 15.7151C58.0854 15.7151 56.7654 16.4651 56.0254 17.9751V15.7851C55.0954 16.0051 53.9154 16.1151 52.4854 16.1151C51.9954 16.1151 51.4954 16.0951 50.9854 16.0451V16.5551C51.5654 16.5551 51.9654 16.7251 52.1954 17.0651C52.4254 17.4051 52.5354 17.9451 52.5354 18.7051V26.3951C52.5354 26.8451 52.4854 27.2051 52.3854 27.4551C52.2854 27.7051 52.1254 27.8851 51.8954 27.9951C51.6654 28.0951 51.3654 28.1451 50.9754 28.1451V28.6551C52.7154 28.5951 53.8254 28.5551 54.3254 28.5551C54.8454 28.5551 55.8454 28.5851 57.3354 28.6551V28.1451C57.0154 28.1451 56.7554 28.0951 56.5654 27.9951C56.3754 27.8951 56.2354 27.7151 56.1554 27.4551C56.0654 27.2051 56.0254 26.8451 56.0254 26.3951V19.6151C56.0254 19.0951 56.1354 18.6151 56.3454 18.1851C56.5554 17.7551 56.8454 17.4151 57.2154 17.1651C57.5854 16.9151 57.9854 16.7951 58.4254 16.7951C58.9954 16.7951 59.3854 16.9651 59.6054 17.3051C59.8254 17.6451 59.9354 18.1451 59.9354 18.8151V26.3951C59.9354 26.8451 59.8954 27.2051 59.8154 27.4551C59.7354 27.7051 59.5954 27.8851 59.4054 27.9951C59.2154 28.0951 58.9554 28.1451 58.6254 28.1451V28.6551C60.2354 28.5951 61.2854 28.5551 61.7854 28.5551C62.3054 28.5551 63.3754 28.5851 64.9854 28.6551V28.1451C64.5954 28.1451 64.2954 28.0951 64.0754 27.9951C63.8554 27.8851 63.6954 27.7051 63.5854 27.4551ZM77.4854 27.5051C77.1454 27.7851 76.8454 27.9251 76.5854 27.9251C76.3954 27.9251 76.2654 27.8451 76.1854 27.6851C76.1054 27.5251 76.0754 27.2451 76.0754 26.8451V20.2151C76.0754 19.3051 76.0154 18.5951 75.8954 18.0851C75.7754 17.5751 75.5454 17.1551 75.2054 16.8151C74.5054 16.0851 73.3254 15.7151 71.6654 15.7151C70.1854 15.7151 68.9554 15.9851 67.9754 16.5351C67.0754 17.0551 66.6254 17.7451 66.6254 18.5851C66.6254 19.1251 66.7854 19.5751 67.0954 19.9251C67.4054 20.2851 67.8254 20.4651 68.3454 20.4651C68.7354 20.4651 69.0754 20.3851 69.3754 20.2351C69.6754 20.0751 69.9054 19.8751 70.0654 19.6051C70.2254 19.3351 70.3054 19.0351 70.3054 18.7051C70.3054 18.2251 70.1754 17.8151 69.9254 17.4951C69.6754 17.1751 69.3254 16.9351 68.8754 16.7851C69.0854 16.5851 69.3454 16.4351 69.6554 16.3351C69.9754 16.2351 70.2854 16.1851 70.6054 16.1851C71.2854 16.1851 71.7854 16.3751 72.1054 16.7651C72.4254 17.1551 72.5854 17.6851 72.5854 18.3551V20.2451C72.5854 20.5751 72.4354 20.8851 72.1254 21.1651C71.8154 21.4451 71.3154 21.7151 70.6254 21.9851C69.9354 22.2551 69.5254 22.4051 69.3954 22.4551C68.2354 22.8851 67.3754 23.3751 66.8254 23.9351C66.2754 24.4951 65.9954 25.1951 65.9954 26.0451C65.9954 26.9151 66.2754 27.5951 66.8254 28.0851C67.3854 28.5751 68.1254 28.8151 69.0454 28.8151C69.7754 28.8151 70.4554 28.6551 71.0954 28.3251C71.7354 27.9951 72.2554 27.5051 72.6454 26.8451C72.6454 27.4351 72.8254 27.9051 73.1854 28.2751C73.5454 28.6451 74.1354 28.8251 74.9554 28.8251C75.5654 28.8251 76.0854 28.7551 76.5154 28.6151C76.9454 28.4751 77.3554 28.2451 77.7254 27.9351L77.4854 27.5051ZM72.5854 26.2651C72.1254 26.9351 71.5754 27.2651 70.9454 27.2651C70.4954 27.2651 70.1354 27.1051 69.8554 26.7951C69.5754 26.4851 69.4454 26.0051 69.4454 25.3751C69.4454 24.7051 69.5954 24.1551 69.8854 23.7051C70.1754 23.2551 70.5754 22.8551 71.0954 22.4951C71.5254 22.2251 71.8654 21.9951 72.0954 21.8151C72.3254 21.6251 72.4954 21.4451 72.5954 21.2751V26.2651H72.5854ZM79.8754 24.7751C79.8754 25.6751 79.9354 26.3851 80.0554 26.8951C80.1754 27.4051 80.4054 27.8251 80.7454 28.1651C81.2954 28.7251 82.1054 28.9951 83.1754 28.9951C84.7754 28.9951 85.8854 28.1551 86.4854 26.4851L86.0754 26.2551C85.6654 27.2351 85.1154 27.7151 84.4354 27.7151C84.0754 27.7151 83.8054 27.6151 83.6354 27.4151C83.4654 27.2151 83.3754 26.8651 83.3754 26.3851V16.5551H86.2354V16.0651H83.3754V12.0451C82.3854 12.5651 81.2154 12.8351 79.8854 12.8351V16.0751H77.8554V16.5651H79.8854V24.7751H79.8754ZM87.8954 17.0751C88.1254 17.4151 88.2454 17.9551 88.2454 18.7051V24.8851C88.2454 25.6951 88.3054 26.3451 88.4154 26.8451C88.5254 27.3451 88.7254 27.7451 88.9854 28.0451C89.5354 28.6751 90.4154 28.9951 91.6254 28.9951C93.4954 28.9951 94.7954 28.2351 95.5254 26.7251V28.9251C96.4654 28.6951 97.6454 28.5851 99.0654 28.5851C99.5654 28.5851 100.065 28.6051 100.565 28.6551V28.1451C99.9954 28.1451 99.5954 27.9751 99.3654 27.6351C99.1354 27.2951 99.0154 26.7551 99.0154 25.9951V15.7851C98.0654 16.0051 96.8854 16.1151 95.4754 16.1151C94.9854 16.1151 94.4854 16.0951 93.9754 16.0451V16.5551C94.5454 16.5551 94.9454 16.7251 95.1754 17.0651C95.4054 17.4051 95.5254 17.9451 95.5254 18.6951V25.0851C95.5254 25.6051 95.4154 26.0851 95.2054 26.5151C94.9954 26.9451 94.7054 27.2851 94.3454 27.5351C93.9854 27.7851 93.5954 27.9151 93.1654 27.9151C92.6054 27.9151 92.2254 27.7451 92.0254 27.3951C91.8254 27.0451 91.7254 26.5451 91.7254 25.8651V15.7851C90.7754 16.0051 89.5954 16.1151 88.1854 16.1151C87.6954 16.1151 87.1954 16.0951 86.6854 16.0451V16.5551C87.2654 16.5551 87.6654 16.7351 87.8954 17.0751ZM108.965 28.6551V28.1451C108.165 28.1451 107.585 28.0051 107.225 27.7151C106.865 27.4251 106.685 26.9051 106.685 26.1451V19.6851C106.685 19.2451 106.785 18.8051 106.975 18.3451C107.165 17.8851 107.435 17.4851 107.775 17.1651C108.115 16.8351 108.485 16.6351 108.895 16.5751C109.035 16.5351 109.165 16.5151 109.275 16.5151C109.365 16.5151 109.465 16.5251 109.575 16.5551C108.865 17.0451 108.505 17.6851 108.505 18.4551C108.505 18.9351 108.665 19.3151 108.985 19.5951C109.305 19.8751 109.745 20.0151 110.295 20.0151C110.865 20.0151 111.325 19.8251 111.665 19.4451C112.015 19.0651 112.185 18.5751 112.185 17.9651C112.185 17.5751 112.105 17.2151 111.945 16.8751C111.785 16.5351 111.545 16.2651 111.215 16.0451C110.885 15.8351 110.475 15.7251 109.985 15.7251C109.255 15.7251 108.595 15.9451 108.015 16.3751C107.435 16.8051 106.995 17.3651 106.685 18.0551V15.7851C105.755 16.0051 104.575 16.1151 103.145 16.1151C102.655 16.1151 102.155 16.0951 101.645 16.0451V16.5551C102.225 16.5551 102.625 16.7251 102.855 17.0651C103.085 17.4051 103.195 17.9451 103.195 18.7051V26.3951C103.195 26.8451 103.145 27.2051 103.045 27.4551C102.945 27.7051 102.785 27.8851 102.555 27.9951C102.325 28.0951 102.025 28.1451 101.635 28.1451V28.6551C103.435 28.5951 104.585 28.5551 105.105 28.5551C105.665 28.5551 106.945 28.5851 108.965 28.6551ZM119.205 21.1751C118.895 21.4551 118.395 21.7251 117.705 21.9951C117.015 22.2651 116.605 22.4151 116.475 22.4651C115.315 22.8951 114.455 23.3851 113.905 23.9451C113.355 24.5051 113.075 25.2051 113.075 26.0551C113.075 26.9251 113.355 27.6051 113.905 28.0951C114.465 28.5851 115.205 28.8251 116.125 28.8251C116.855 28.8251 117.535 28.6651 118.175 28.3351C118.815 28.0051 119.335 27.5151 119.725 26.8551C119.725 27.4451 119.905 27.9151 120.265 28.2851C120.625 28.6551 121.215 28.8351 122.035 28.8351C122.645 28.8351 123.165 28.7651 123.595 28.6251C124.025 28.4851 124.435 28.2551 124.805 27.9451L124.555 27.5251C124.215 27.8051 123.915 27.9451 123.655 27.9451C123.465 27.9451 123.335 27.8651 123.255 27.7051C123.175 27.5451 123.145 27.2651 123.145 26.8651V20.2351C123.145 19.3251 123.085 18.6151 122.965 18.1051C122.845 17.5951 122.615 17.1751 122.275 16.8351C121.575 16.1051 120.395 15.7351 118.735 15.7351C117.255 15.7351 116.025 16.0051 115.045 16.5551C114.145 17.0751 113.695 17.7651 113.695 18.6051C113.695 19.1451 113.855 19.5951 114.165 19.9451C114.475 20.3051 114.895 20.4851 115.415 20.4851C115.805 20.4851 116.145 20.4051 116.445 20.2551C116.745 20.0951 116.975 19.8951 117.135 19.6251C117.295 19.3551 117.375 19.0551 117.375 18.7251C117.375 18.2451 117.245 17.8351 116.995 17.5151C116.745 17.1951 116.395 16.9551 115.945 16.8051C116.155 16.6051 116.415 16.4551 116.725 16.3551C117.045 16.2551 117.355 16.2051 117.675 16.2051C118.355 16.2051 118.855 16.3951 119.175 16.7851C119.495 17.1751 119.655 17.7051 119.655 18.3751V20.2651C119.665 20.5951 119.515 20.9051 119.205 21.1751ZM119.665 26.2651C119.205 26.9351 118.655 27.2651 118.025 27.2651C117.575 27.2651 117.215 27.1051 116.935 26.7951C116.655 26.4851 116.525 26.0051 116.525 25.3751C116.525 24.7051 116.675 24.1551 116.965 23.7051C117.255 23.2551 117.655 22.8551 118.175 22.4951C118.605 22.2251 118.945 21.9951 119.175 21.8151C119.405 21.6251 119.575 21.4451 119.675 21.2751V26.2651H119.665ZM131.085 27.9851C130.865 27.8851 130.695 27.7051 130.595 27.4451C130.495 27.1951 130.445 26.8351 130.445 26.3851V9.56511C129.505 9.79511 128.325 9.91511 126.905 9.91511C126.415 9.91511 125.915 9.89511 125.405 9.84511V10.3551C125.975 10.3551 126.375 10.5251 126.605 10.8651C126.835 11.2051 126.955 11.7451 126.955 12.5051V26.4051C126.955 26.8551 126.905 27.2151 126.805 27.4651C126.705 27.7151 126.545 27.8951 126.315 28.0051C126.095 28.1051 125.785 28.1551 125.405 28.1551V28.6651C127.075 28.6051 128.195 28.5651 128.755 28.5651C129.245 28.5651 130.325 28.5951 131.995 28.6651V28.1551C131.615 28.1451 131.315 28.0851 131.085 27.9851ZM61.5954 42.0851C60.9354 41.6151 60.1854 41.3851 59.3254 41.3851C58.4754 41.3851 57.7254 41.5851 57.0754 41.9751C56.4254 42.3751 55.9354 42.9451 55.6054 43.7051V35.2551C54.6654 35.4851 53.4854 35.6051 52.0654 35.6051C51.5654 35.6051 51.0654 35.5851 50.5654 35.5351V36.0451C51.1354 36.0451 51.5354 36.2151 51.7654 36.5551C51.9954 36.8951 52.1154 37.4351 52.1154 38.1951V53.1451C52.1154 53.6351 52.0654 54.0851 51.9454 54.5051L52.3154 54.7351C52.6154 54.4651 53.0154 54.2451 53.5154 54.0751C54.0154 53.9051 54.5354 53.8151 55.0554 53.8151C55.2254 53.8151 55.3454 53.8151 55.4354 53.8251C56.1254 54.3951 57.0254 54.6851 58.1454 54.6851C59.1954 54.6851 60.1354 54.4451 60.9654 53.9751C61.7954 53.4951 62.4554 52.7451 62.9554 51.7051C63.4454 50.6651 63.6954 49.3351 63.6954 47.7151C63.6954 46.3351 63.5054 45.1751 63.1354 44.2251C62.7654 43.2551 62.2554 42.5551 61.5954 42.0851ZM57.4154 54.1551C56.7454 54.1551 56.1454 53.9351 55.6154 53.5051V44.5551C55.7454 43.9051 56.0354 43.3851 56.4654 43.0051C56.8954 42.6251 57.3754 42.4351 57.9054 42.4351C58.6054 42.4351 59.1454 42.8651 59.5054 43.7351C59.8754 44.6051 60.0554 46.0351 60.0554 48.0351C60.0554 52.1151 59.1754 54.1551 57.4154 54.1551ZM76.0154 46.7851C76.0154 43.1851 74.4954 41.3851 71.4554 41.3851C70.2854 41.3851 69.2554 41.6351 68.3654 42.1451C67.4754 42.6551 66.7754 43.4151 66.2754 44.4251C65.7754 45.4351 65.5154 46.6851 65.5154 48.1551C65.5154 49.5951 65.7454 50.8051 66.2154 51.7751C66.6854 52.7451 67.3354 53.4751 68.1754 53.9451C69.0154 54.4251 69.9954 54.6551 71.1054 54.6551C71.9454 54.6551 72.7054 54.4751 73.3554 54.1151C74.0154 53.7551 74.5554 53.2851 74.9854 52.7151C75.4154 52.1351 75.7354 51.5151 75.9354 50.8551L75.5054 50.7151C74.7054 52.0151 73.6354 52.6651 72.2954 52.6651C71.7554 52.6651 71.2354 52.4951 70.7654 52.1751C70.2854 51.8451 69.8954 51.3251 69.5954 50.6151C69.2954 49.9051 69.1454 49.0151 69.1454 47.9351C69.1454 47.4151 69.1554 47.0351 69.1854 46.7951H76.0154V46.7851ZM69.1654 46.3251C69.2554 44.8051 69.4854 43.6951 69.8654 42.9751C70.2454 42.2551 70.7254 41.8951 71.3054 41.8951C71.8754 41.8951 72.2954 42.3151 72.5754 43.1551C72.8554 43.9951 72.9854 45.0551 72.9554 46.3251H69.1654ZM88.1154 53.5951C87.9254 53.5951 87.7954 53.5151 87.7154 53.3551C87.6354 53.1951 87.6054 52.9151 87.6054 52.5151V45.8851C87.6054 44.9751 87.5454 44.2651 87.4254 43.7551C87.3054 43.2451 87.0754 42.8251 86.7354 42.4851C86.0354 41.7551 84.8554 41.3951 83.1954 41.3951C81.7154 41.3951 80.4854 41.6651 79.5054 42.2151C78.6054 42.7351 78.1554 43.4251 78.1554 44.2651C78.1554 44.8051 78.3154 45.2551 78.6254 45.6051C78.9354 45.9651 79.3554 46.1451 79.8754 46.1451C80.2654 46.1451 80.6054 46.0651 80.9054 45.9151C81.2054 45.7651 81.4354 45.5551 81.5954 45.2851C81.7554 45.0151 81.8354 44.7151 81.8354 44.3851C81.8354 43.9051 81.7054 43.4951 81.4554 43.1751C81.2054 42.8551 80.8554 42.6151 80.4054 42.4651C80.6154 42.2651 80.8754 42.1151 81.1854 42.0151C81.5054 41.9151 81.8154 41.8651 82.1354 41.8651C82.8154 41.8651 83.3154 42.0551 83.6354 42.4451C83.9554 42.8351 84.1154 43.3651 84.1154 44.0351V45.9251C84.1154 46.2551 83.9654 46.5651 83.6554 46.8451C83.3454 47.1251 82.8454 47.3951 82.1554 47.6651C81.4654 47.9351 81.0554 48.0851 80.9254 48.1351C79.7654 48.5651 78.9054 49.0551 78.3554 49.6151C77.8054 50.1751 77.5254 50.8751 77.5254 51.7251C77.5254 52.5951 77.8054 53.2751 78.3554 53.7651C78.9154 54.2551 79.6554 54.4951 80.5754 54.4951C81.3054 54.4951 81.9854 54.3351 82.6254 54.0051C83.2654 53.6751 83.7854 53.1851 84.1754 52.5251C84.1754 53.1151 84.3554 53.5851 84.7154 53.9551C85.0754 54.3251 85.6654 54.5051 86.4854 54.5051C87.0954 54.5051 87.6154 54.4351 88.0454 54.2951C88.4754 54.1551 88.8854 53.9251 89.2554 53.6151L89.0054 53.1951C88.6754 53.4551 88.3754 53.5951 88.1154 53.5951ZM84.1154 51.9251C83.6554 52.5951 83.1054 52.9251 82.4654 52.9251C82.0154 52.9251 81.6554 52.7651 81.3754 52.4551C81.0954 52.1451 80.9654 51.6651 80.9654 51.0351C80.9654 50.3651 81.1154 49.8151 81.4054 49.3651C81.6954 48.9151 82.0954 48.5151 82.6154 48.1551C83.0454 47.8851 83.3854 47.6551 83.6154 47.4751C83.8454 47.2851 84.0154 47.1051 84.1154 46.9351V51.9251ZM102.385 53.3051C102.155 52.9651 102.035 52.4251 102.035 51.6651V41.4551C101.085 41.6751 99.9054 41.7851 98.4954 41.7851C98.0054 41.7851 97.5054 41.7651 96.9954 41.7151V42.2251C97.5654 42.2251 97.9654 42.3951 98.1954 42.7351C98.4254 43.0751 98.5454 43.6151 98.5454 44.3651V50.7551C98.5454 51.2751 98.4354 51.7551 98.2254 52.1851C98.0154 52.6151 97.7254 52.9551 97.3654 53.2051C97.0054 53.4551 96.6154 53.5851 96.1854 53.5851C95.6254 53.5851 95.2454 53.4151 95.0454 53.0651C94.8454 52.7151 94.7454 52.2151 94.7454 51.5351V41.4551C93.7954 41.6751 92.6154 41.7851 91.2054 41.7851C90.7154 41.7851 90.2154 41.7651 89.7054 41.7151V42.2251C90.2754 42.2251 90.6754 42.3951 90.9054 42.7351C91.1354 43.0751 91.2554 43.6151 91.2554 44.3651V50.5451C91.2554 51.3551 91.3154 52.0051 91.4254 52.5051C91.5354 53.0051 91.7354 53.4051 91.9954 53.7051C92.5454 54.3351 93.4254 54.6551 94.6354 54.6551C96.5054 54.6551 97.8054 53.8951 98.5354 52.3851V54.5851C99.4754 54.3551 100.655 54.2451 102.075 54.2451C102.575 54.2451 103.075 54.2651 103.575 54.3151V53.8051C103.015 53.8051 102.615 53.6451 102.385 53.3051ZM120.825 41.7151V42.2051C121.395 42.2451 121.835 42.4251 122.155 42.7451C122.475 43.0651 122.625 43.5351 122.625 44.1551C122.625 44.6751 122.495 45.3251 122.235 46.1051L120.575 50.7951L117.605 43.5951C117.495 43.3251 117.435 43.0951 117.435 42.9051C117.435 42.6951 117.505 42.5351 117.645 42.4451C117.785 42.3451 117.955 42.2951 118.145 42.2651C118.345 42.2451 118.615 42.2251 118.965 42.2251V41.7151C117.675 41.8051 116.545 41.8551 115.595 41.8551C114.445 41.8551 113.335 41.8051 112.265 41.7151V41.7351H109.575V37.7151C108.585 38.2351 107.415 38.5051 106.085 38.5051V41.7451H104.045V42.2351H106.085V50.4451C106.085 51.3451 106.145 52.0551 106.265 52.5651C106.385 53.0751 106.615 53.4951 106.955 53.8351C107.505 54.3951 108.315 54.6651 109.385 54.6651C110.985 54.6651 112.095 53.8251 112.695 52.1551L112.285 51.9251C111.875 52.9051 111.325 53.3851 110.645 53.3851C110.285 53.3851 110.015 53.2851 109.845 53.0851C109.675 52.8851 109.585 52.5351 109.585 52.0551V42.2251H112.275C112.525 42.2251 112.775 42.3151 113.025 42.4851C113.275 42.6551 113.525 43.0251 113.775 43.5951L118.925 55.3451L118.535 56.5151C118.065 57.8051 117.335 58.4451 116.325 58.4451C116.075 58.4451 115.885 58.4351 115.765 58.4251C116.145 58.2851 116.445 58.0651 116.655 57.7751C116.875 57.4851 116.985 57.1751 116.985 56.8451C116.985 56.3651 116.815 55.9851 116.485 55.7151C116.155 55.4451 115.715 55.3151 115.165 55.3151C114.585 55.3151 114.115 55.4651 113.755 55.7651C113.405 56.0651 113.225 56.4651 113.225 56.9651C113.225 57.4051 113.355 57.7651 113.625 58.0651C113.885 58.3551 114.225 58.5751 114.635 58.7151C115.045 58.8551 115.455 58.9251 115.875 58.9251C116.815 58.9251 117.525 58.7251 117.995 58.3151C118.385 58.0051 118.735 57.4251 119.065 56.5751L123.395 44.3151C123.635 43.6451 123.885 43.1451 124.155 42.8251C124.425 42.5051 124.735 42.3051 125.075 42.2151V41.7251C124.645 41.7751 124.015 41.7951 123.205 41.7951C122.365 41.7851 121.585 41.7651 120.825 41.7151Z" fill="black"/>
</svg>
