<svg width="107" height="78" viewBox="0 0 107 78" fill="none" xmlns="http://www.w3.org/2000/svg">
<path d="M106.59 59.3204C106.29 59.2404 105.95 59.4004 105.9 59.7004C105.35 62.1604 101.53 73.8204 99.7702 73.8204C98.7802 73.8204 98.7002 64.9204 99.3302 60.2004C102.96 58.5304 106.34 50.8304 106.48 47.3604C106.56 45.3704 105.68 43.3504 103.84 43.3504C98.4002 43.3504 95.9202 53.9904 95.6302 63.1004C93.3302 67.6404 90.1302 70.8504 88.9302 70.8504C88.4102 70.8504 90.9102 60.1504 91.7302 57.7204C92.0302 56.9604 88.7902 56.3504 88.5102 57.3904C88.3502 57.8504 88.1502 58.4004 87.9302 58.9704C87.2702 57.5504 86.0302 56.5104 83.7202 56.6504C80.5702 56.8304 78.7402 61.1504 78.7902 64.5804C77.3802 68.1804 75.7002 70.9404 74.2402 70.9404C73.1102 70.9404 74.7102 63.1604 75.9702 58.2404C76.1902 57.5004 75.6902 57.1804 75.0302 57.1804C73.1102 57.1804 70.6902 58.6304 68.3202 58.7904C69.8302 54.8604 70.4102 50.6004 67.2502 50.6004H67.2202C65.0802 50.6004 63.8402 53.1904 63.8402 55.5104C63.8402 57.6404 64.8502 59.4804 66.7902 59.8304C66.3702 61.6504 65.6502 64.6104 65.1402 66.0804C64.6502 67.5304 63.6302 70.2304 63.0502 70.2304C61.9802 70.2304 62.9402 63.2704 63.6802 59.9904C64.0602 58.4104 60.6002 58.0504 60.2202 59.7204C58.7602 63.8404 57.6602 67.2604 56.4202 67.2604C55.2902 67.2604 56.4502 61.4704 57.1102 59.4504C57.6602 58.0004 54.3102 57.6704 53.8902 59.0704C53.8902 59.1104 53.2802 61.1404 52.9602 63.4104C51.4702 68.7404 49.0802 75.2704 47.7202 75.2704C46.7302 75.2704 46.9802 70.3804 47.3402 66.9704C47.7002 63.1504 48.9402 55.3404 49.9802 49.2204C53.3102 49.7704 56.7202 50.2804 59.4402 50.2804C64.1702 50.2804 67.7202 49.0804 68.7102 44.9804C68.7902 44.6804 68.6302 44.4004 68.3302 44.3204C68.0302 44.2404 67.7502 44.4304 67.6702 44.7304C66.9802 47.4904 64.8102 49.1504 60.8202 49.1504C57.0002 49.1504 53.4702 48.6104 50.2002 48.0604C50.3102 47.4904 50.3902 46.9204 50.5002 46.3704C50.6902 44.9004 47.3102 45.0904 47.1702 46.2904C47.0902 46.6704 47.0302 47.0804 46.9502 47.5204C44.6902 47.1404 42.5802 46.8604 40.6002 46.8604C38.3702 46.8604 36.5002 47.3004 36.0302 49.0204C35.9502 49.3204 36.1402 49.6204 36.4402 49.7004C36.8002 49.7604 37.0202 49.6204 37.1002 49.2904C37.4002 48.1404 39.0002 47.9504 40.5602 47.9504C42.2102 47.9804 44.3602 48.2804 46.7202 48.6604C46.1402 52.0104 45.4202 56.6404 44.8602 60.5604C42.6402 66.3904 38.4502 70.8604 37.0402 70.8604C36.5202 70.8604 39.0202 60.1604 39.8402 57.7304C40.1402 56.9704 36.9002 56.3604 36.6202 57.4004C36.4602 57.8604 36.2602 58.4104 36.0402 58.9804C35.3802 57.5604 34.1402 56.5204 31.8302 56.6604C28.5302 56.8504 26.6902 61.5604 26.9202 65.0404C25.4002 70.0704 23.4302 75.5204 21.8102 75.0904C20.1302 74.7604 21.7002 66.3804 22.2202 63.2904C23.8702 54.2204 24.6702 46.4104 19.3602 46.6604C16.5002 46.6604 14.5802 49.6604 11.4402 58.4804C12.5402 50.9404 11.6302 43.7604 5.20021 43.7604C-2.22979 43.7604 2.01021 57.9604 3.25021 60.1704C3.39021 60.4204 3.74021 60.5504 3.99021 60.3604C4.24021 60.1704 4.32021 59.8704 4.18021 59.6204C2.31021 56.2904 0.380212 45.1704 4.24021 45.1704C8.04021 45.1704 8.86021 50.6304 8.36021 56.1204C7.95021 61.0404 7.10021 64.1504 6.54021 67.7504C6.35021 69.0304 9.68021 68.9504 9.84021 67.9704C9.89021 67.5904 12.3102 59.3404 12.8402 57.8104C13.8602 54.8904 16.4702 47.9504 18.5102 47.9504C21.2102 47.9504 20.1302 55.4604 18.9502 62.3104C17.8502 68.8904 16.3402 77.1904 20.2702 77.1904C23.7002 77.1904 25.5702 72.9104 27.3902 67.0804C27.8302 68.0704 28.5702 68.7304 29.6602 68.7304C32.0002 68.7304 33.6502 66.5704 34.7502 64.6604C34.0102 68.6504 33.7902 72.5804 36.3502 72.5804C38.7502 72.5804 42.1202 68.3904 44.3402 64.3204C44.2102 65.3304 44.1102 66.2104 44.0502 66.8704C43.5902 72.4004 43.5402 77.5004 46.5102 77.5004C49.0302 77.5004 51.3302 72.5504 52.9602 67.5304C53.2202 68.7104 53.8402 69.5304 55.0502 69.5304C56.5902 69.5304 58.0502 68.0804 59.4302 65.1904C58.9102 68.7904 59.0702 72.8104 61.6002 72.8104C63.6602 72.8104 65.1502 69.5104 66.2202 66.3904C66.8002 64.7304 67.5102 61.5604 67.9202 59.9204C67.9202 59.9004 67.9302 59.8904 67.9302 59.8704C69.5002 59.8104 71.0102 59.4704 72.4402 58.9604C71.0602 64.1204 69.4202 72.5904 73.7602 72.5904C75.8102 72.5904 77.6402 70.0604 79.1402 66.6904C79.5502 67.9104 80.3402 68.7404 81.5602 68.7404C83.9002 68.7404 85.5502 66.5804 86.6502 64.6704C85.9102 68.6604 85.6902 72.5904 88.2502 72.5904C90.4302 72.5904 93.4102 69.1304 95.6102 65.4404C95.6702 71.2204 96.6702 75.8604 98.3702 75.8604C101.92 75.8604 104.89 67.3704 106.98 59.9704C107.06 59.6704 106.89 59.4004 106.59 59.3204ZM104.64 45.2004C105.41 45.0604 105.44 46.2904 105.38 47.3004C105.22 50.1104 102.38 57.4304 99.5202 58.8804C100.02 55.6404 102.49 45.5904 104.64 45.2004ZM31.2102 67.0704C29.6902 67.0704 30.8802 58.0104 32.8002 58.0104C34.0102 58.0104 35.0302 59.2104 35.4702 60.4704C34.1602 63.6104 32.3202 67.0704 31.2102 67.0704ZM67.1302 58.7704C65.6502 58.5804 64.9602 57.1104 64.9602 55.5004C64.9602 53.7504 65.8102 51.6804 67.2402 51.6804H67.2702C69.4202 51.6804 68.4002 55.8004 67.1302 58.7704ZM83.0802 67.0704C81.5602 67.0704 82.7502 58.0104 84.6702 58.0104C85.8802 58.0104 86.9002 59.2104 87.3402 60.4704C86.0202 63.6104 84.1802 67.0704 83.0802 67.0704ZM37.2502 34.6604C41.5802 33.9204 45.8602 32.9204 50.2002 32.1804C51.3602 31.9804 52.5302 31.8704 53.6802 31.8404C55.5502 31.3904 57.2602 30.9704 58.8102 30.5904C58.8102 30.7704 58.8602 30.9504 58.9802 31.1504C59.0202 31.2104 59.0602 31.2604 59.0902 31.3204C60.0102 32.8004 61.0502 34.1904 62.1302 35.5504C63.3402 37.0904 64.7202 38.4504 66.3802 39.3504C67.8402 40.2304 69.3202 40.7704 70.9302 40.9804C72.0502 41.1304 73.1702 41.2704 74.2902 41.4204C75.1202 41.5304 75.9502 41.5004 76.7802 41.4004C77.1302 41.3604 77.4702 41.3104 77.8202 41.2704C79.4002 41.1204 80.9202 40.7204 82.4002 40.1404C82.7502 40.0104 83.0902 39.8604 83.4302 39.7104C83.6002 39.6304 83.7402 39.5104 83.7302 39.2904C83.7202 39.0804 83.6102 38.9504 83.4302 38.8704C83.3002 38.8104 83.1702 38.7704 83.0502 38.7104C82.8602 38.6304 82.6602 38.5604 82.4802 38.4704C81.5602 37.9904 80.6902 37.4204 79.9102 36.7504C78.5802 35.6304 77.2702 34.4804 76.0202 33.2804C74.8002 32.1104 73.5502 30.9604 72.2302 29.9004C71.8002 29.5604 71.3602 29.2104 70.8802 28.9604C69.8602 28.4204 68.8002 27.9804 67.7102 27.6104C67.3002 27.4704 66.8802 27.3804 66.4602 27.3404C67.9402 26.6404 69.4302 25.9504 70.8902 25.2204C70.9902 25.2004 71.1002 25.1704 71.2102 25.1204C71.2802 25.0904 71.3402 25.0504 71.4002 25.0204C73.0602 24.2204 74.6402 23.2804 76.2002 22.3104C77.9502 21.2204 79.5502 19.9404 80.6802 18.3104C81.7702 16.8904 82.5002 15.4204 82.9002 13.8004C83.1802 12.6604 83.4602 11.5204 83.7302 10.3904C83.9302 9.55039 84.0002 8.69038 83.9902 7.83039C83.9702 7.48039 83.9602 7.12039 83.9602 6.77039C83.9702 5.13039 83.7202 3.53039 83.2802 1.95039C83.1802 1.58039 83.0602 1.22039 82.9302 0.850385C82.8702 0.660385 82.7502 0.510385 82.5202 0.500385C82.2902 0.490385 82.1502 0.600385 82.0502 0.770385C81.9802 0.890385 81.9102 1.02039 81.8402 1.15039C81.7402 1.34039 81.6402 1.54039 81.5202 1.71039C80.9102 2.61039 80.2102 3.44039 79.4302 4.19039C78.1002 5.45039 76.7402 6.68039 75.3402 7.85039C73.9602 8.99039 72.6202 10.1604 71.3602 11.4204C70.9502 11.8304 70.5402 12.2504 70.2202 12.7204C69.5402 13.7104 68.9502 14.7604 68.4502 15.8504C68.0602 16.6904 67.8602 17.5704 67.9102 18.5004C67.9702 19.5104 68.1202 20.5004 68.4902 21.4504C68.7002 22.0004 68.9102 22.5404 69.1302 23.0804C69.0702 23.0404 68.9902 23.0104 68.9302 22.9704C67.4502 24.8604 65.5202 26.2004 63.1702 27.1004C59.6002 28.4604 56.0202 29.7604 52.2302 30.4004C52.0002 30.4404 51.7602 30.4604 51.4602 30.4804C52.1002 30.0104 52.7302 29.5304 53.3602 29.0304C54.9502 27.7804 56.3802 26.3604 57.3402 24.6604C58.2702 23.1704 58.8702 21.6604 59.1302 20.0404C59.3202 18.9104 59.5002 17.7704 59.6802 16.6404C59.8102 15.8004 59.8202 14.9604 59.7402 14.1304C59.7102 13.7804 59.6702 13.4404 59.6502 13.0904C59.5502 11.5004 59.1902 9.97038 58.6602 8.49039C58.5402 8.14039 58.4002 7.80039 58.2502 7.46039C58.1802 7.29039 58.0602 7.15039 57.8302 7.17039C57.6202 7.18039 57.4902 7.30039 57.4002 7.48039C57.3402 7.61039 57.2902 7.74039 57.2302 7.87039C57.1402 8.06039 57.0602 8.26039 56.9602 8.45039C56.4402 9.39038 55.8402 10.2704 55.1402 11.0804C53.9602 12.4404 52.7602 13.7904 51.5002 15.0804C50.2702 16.3404 49.0702 17.6204 47.9602 18.9804C47.6002 19.4204 47.2402 19.8704 46.9602 20.3604C46.3902 21.4004 45.9002 22.4804 45.5002 23.5904C45.1902 24.4404 45.0602 25.3304 45.1702 26.2204C45.2902 27.1904 45.5102 28.1404 45.9302 29.0204C46.1702 29.5404 46.4202 30.0604 46.6702 30.5704C46.7702 30.7804 46.8902 30.9904 47.0002 31.2004C45.8802 31.4004 44.7302 31.5804 43.6202 31.7404C43.0902 31.9604 42.5302 32.1204 41.9302 32.2404C38.2902 32.9404 34.6502 33.6404 30.9102 33.2604C30.4602 33.2104 29.9902 33.2604 28.9602 33.2704C29.2302 34.2804 29.3902 34.8704 29.5602 35.4804C32.3002 35.8704 34.7702 35.0804 37.2502 34.6604ZM82.1202 7.13039C82.1402 7.10039 82.1702 7.07039 82.1902 7.05039C82.1902 7.09039 82.2102 7.14039 82.2002 7.15039C82.1802 7.17039 82.1402 7.17038 82.1002 7.18039C82.1102 7.16039 82.1102 7.14039 82.1202 7.13039ZM82.1002 7.20039C82.1602 7.25039 82.2602 7.30039 82.2602 7.36039C82.2802 7.60039 82.2802 7.84039 82.2602 8.07039C82.1902 8.85039 82.1002 9.64039 82.0402 10.4204C81.9302 11.9704 81.4002 13.4004 80.7302 14.7804C80.1502 15.9904 79.4202 17.1104 78.6302 18.2004C78.2902 18.6704 77.9102 19.0904 77.4502 19.4604C76.3302 20.3804 75.1002 21.1404 73.8002 21.7804C73.5502 21.9004 73.2702 21.9804 73.0102 22.0804C73.0702 21.8504 73.2602 21.7004 73.4202 21.5504C75.2902 19.8004 76.9702 17.9004 78.4702 15.8304C79.7602 14.0504 80.7802 12.1304 81.4302 10.0404C81.7202 9.11038 81.8802 8.15038 82.1002 7.20039ZM81.5102 5.45039C81.5402 5.59038 81.5802 5.68039 81.5802 5.76039C81.5702 6.02039 81.5602 6.29039 81.5202 6.55039C81.1602 8.76039 80.5802 10.9004 79.5102 12.8804C79.1902 13.4704 78.8602 14.0604 78.4802 14.6104C77.3702 16.1804 76.2302 17.7204 74.8802 19.1204C73.9602 20.0704 73.0202 21.0104 72.0402 21.9004C71.9602 21.9804 71.8502 22.0304 71.6002 22.1904C71.8902 21.2604 72.2602 20.5604 72.6502 19.8804C73.3102 18.7404 73.9902 17.6004 74.7102 16.5004C75.4902 15.3104 76.3402 14.1804 77.1302 13.0004C78.0702 11.6004 79.0002 10.2004 79.8702 8.77039C80.3002 8.06039 80.5702 7.25039 80.9402 6.50039C81.1102 6.17039 81.1702 5.77039 81.5102 5.45039ZM80.0702 6.66039C79.8702 7.35039 79.6302 7.84039 79.3502 8.31039C78.4402 9.86038 77.4502 11.3704 76.4002 12.8404C75.4902 14.1104 74.5802 15.3804 73.7402 16.7004C72.7902 18.2004 71.8502 19.7104 71.1502 21.3504C71.1302 21.3904 71.0902 21.4204 71.0002 21.5104C70.9002 21.1804 70.9502 20.9204 70.9902 20.6604C71.3602 18.3704 72.0102 16.1804 73.4902 14.3104C74.4802 13.0704 75.4702 11.8304 76.5002 10.6204C77.3802 9.60039 78.3202 8.63039 79.2202 7.63039C79.4902 7.37039 79.7202 7.07038 80.0702 6.66039ZM70.6402 15.2104C70.8402 14.8804 71.0102 14.5304 71.2402 14.2304C71.5202 13.8504 71.8302 13.4704 72.1602 13.1304C73.0302 12.2304 73.9102 11.3404 74.8202 10.4804C75.9002 9.45039 77.0102 8.45039 78.1102 7.45039C78.4102 7.18039 78.7102 6.91039 79.1302 6.54039C78.9602 6.94039 78.7702 7.15039 78.5802 7.35039C77.9902 7.99039 77.3902 8.61038 76.8102 9.25039C75.3402 10.8404 73.9702 12.5204 72.7002 14.2604C71.9102 15.3304 71.3302 16.5104 70.9702 17.7904C70.6602 18.8704 70.3502 19.9504 70.2702 21.0804C70.2702 21.1204 70.2102 21.1504 70.1502 21.2204C70.0902 21.0804 70.0302 20.9604 69.9902 20.8304C69.4702 18.8704 69.5802 16.9904 70.6402 15.2104ZM77.1002 39.7404C76.8702 39.7804 76.6402 39.8104 76.4102 39.8104C75.6502 39.8304 74.8902 39.8204 74.1302 39.8404C72.6302 39.9004 71.2002 39.5404 69.8102 39.0504C68.5902 38.6204 67.4402 38.0504 66.3202 37.4204C65.8402 37.1504 65.4002 36.8304 65.0002 36.4404C64.0202 35.4804 63.1702 34.4104 62.4302 33.2504C62.2902 33.0304 62.1902 32.7804 62.0702 32.5404C62.3002 32.5704 62.4602 32.7304 62.6202 32.8704C64.4702 34.4504 66.4502 35.8304 68.5802 37.0304C70.4102 38.0604 72.3502 38.8304 74.4302 39.2204C75.3502 39.3904 76.3002 39.4504 77.2302 39.5604C77.2002 39.6404 77.1602 39.7304 77.1002 39.7404ZM77.3002 39.6704C77.2802 39.6504 77.2702 39.6104 77.2602 39.5804C77.2802 39.5804 77.3002 39.5904 77.3102 39.5904C77.3402 39.6104 77.3702 39.6304 77.4002 39.6504C77.3702 39.6604 77.3202 39.6804 77.3002 39.6704ZM63.0302 29.6004C63.1502 29.5604 63.2702 29.5204 63.3902 29.4804C63.4202 29.4704 63.4502 29.4704 63.4802 29.4604C63.4802 29.4604 63.4802 29.4604 63.4802 29.4504C65.1702 28.9104 66.8402 28.8904 68.5002 29.6404C68.8402 29.7904 69.1802 29.9204 69.5002 30.1004C69.9002 30.3304 70.2802 30.5804 70.6402 30.8604C71.5802 31.5904 72.5202 32.3204 73.4302 33.0904C74.5202 34.0004 75.5802 34.9404 76.6502 35.8704C76.9402 36.1204 77.2202 36.3804 77.6202 36.7404C77.2102 36.6204 77.0002 36.4604 76.7902 36.3104C76.1302 35.8204 75.4702 35.3304 74.8002 34.8404C73.1302 33.6204 71.3902 32.5104 69.6002 31.4904C68.5002 30.8604 67.3102 30.4304 66.0402 30.2204C64.9702 30.0404 63.9002 29.8604 62.8102 29.9004C62.7802 29.9004 62.7402 29.8504 62.6702 29.8104C62.8002 29.7104 62.9102 29.6404 63.0302 29.6004ZM63.2702 30.5304C65.5102 30.6404 67.6802 31.0404 69.6102 32.2404C70.9002 33.0404 72.1802 33.8504 73.4402 34.6904C74.5002 35.4104 75.5202 36.1904 76.5702 36.9404C76.8602 37.1504 77.1602 37.3404 77.5902 37.6204C76.9002 37.5104 76.4102 37.3204 75.9302 37.1104C74.3502 36.4104 72.8102 35.6404 71.3002 34.8004C69.9902 34.0804 68.6902 33.3404 67.3402 32.7004C65.8102 31.9604 64.2702 31.2304 62.6302 30.7404C62.5902 30.7304 62.5602 30.6904 62.4602 30.6204C62.7602 30.5004 63.0202 30.5104 63.2702 30.5304ZM64.1702 32.0004C65.3302 32.5004 66.4902 33.0204 67.6102 33.5904C68.8202 34.2004 69.9902 34.8904 71.2002 35.5104C72.6302 36.2504 74.0602 36.9804 75.5202 37.6504C76.2502 37.9804 77.0502 38.1604 77.8102 38.4304C78.1502 38.5504 78.5302 38.5704 78.8702 38.8504C78.7402 38.8904 78.6602 38.9404 78.5802 38.9504C78.3302 38.9704 78.0702 38.9804 77.8202 38.9704C75.6602 38.8604 73.5502 38.5204 71.5402 37.7304C70.9402 37.4904 70.3402 37.2404 69.7802 36.9404C68.1702 36.0604 66.5802 35.1404 65.1102 34.0204C64.1102 33.2504 63.1202 32.4704 62.1802 31.6404C62.1002 31.5704 62.0402 31.4804 61.8602 31.2604C62.7702 31.4304 63.4802 31.7004 64.1702 32.0004ZM57.9202 13.6404C57.9402 13.6104 57.9602 13.5804 57.9802 13.5504C57.9902 13.5804 58.0102 13.6304 57.9902 13.6504C57.9702 13.6704 57.9302 13.6804 57.9002 13.6904C57.9102 13.6704 57.9102 13.6504 57.9202 13.6404ZM57.4702 16.5404C57.6802 15.6104 57.7602 14.6504 57.9002 13.7004C57.9602 13.7504 58.0602 13.7804 58.0602 13.8404C58.1002 14.0704 58.1102 14.3004 58.1102 14.5304C58.1002 15.3004 58.0702 16.0704 58.0702 16.8304C58.0802 18.3504 57.6702 19.7904 57.1302 21.2004C56.6602 22.4404 56.0502 23.6104 55.3702 24.7504C55.0802 25.2404 54.7402 25.6904 54.3402 26.1004C53.3302 27.1104 52.2202 27.9904 51.0302 28.7604C50.8002 28.9104 50.5402 29.0104 50.3002 29.1404C50.3402 28.9104 50.5102 28.7404 50.6502 28.5804C52.3102 26.6804 53.7702 24.6504 55.0502 22.4804C56.1702 20.6104 57.0102 18.6404 57.4702 16.5404ZM57.2202 12.0804C57.2602 12.2104 57.3102 12.2904 57.3102 12.3704C57.3202 12.6304 57.3302 12.8804 57.3102 13.1404C57.1202 15.3204 56.7202 17.4604 55.8502 19.5004C55.5902 20.1104 55.3202 20.7204 54.9902 21.2904C54.0502 22.9404 53.0702 24.5604 51.8902 26.0604C51.0802 27.0904 50.2602 28.1004 49.3902 29.0704C49.3202 29.1504 49.2202 29.2104 49.0002 29.4004C49.2102 28.4704 49.5102 27.7404 49.8402 27.0404C50.3902 25.8604 50.9502 24.6804 51.5602 23.5304C52.2102 22.3004 52.9502 21.1004 53.6202 19.8704C54.4102 18.4104 55.2002 16.9504 55.9302 15.4604C56.2902 14.7204 56.4902 13.9104 56.7902 13.1404C56.8902 12.8104 56.9202 12.4204 57.2202 12.0804ZM55.2102 14.4504C55.4302 14.1504 55.6302 13.8504 55.9302 13.4104C55.7902 14.1004 55.5902 14.6104 55.3602 15.0904C54.6002 16.7004 53.7702 18.2704 52.8802 19.8104C52.1102 21.1504 51.3202 22.4804 50.6302 23.8504C49.8402 25.4104 49.0402 26.9804 48.4902 28.6404C48.4802 28.6804 48.4402 28.7204 48.3602 28.8104C48.2502 28.5004 48.2702 28.2404 48.2902 27.9904C48.4802 25.7304 48.9402 23.5304 50.2202 21.5604C51.0702 20.2504 51.9302 18.9304 52.8302 17.6504C53.5902 16.5604 54.4202 15.5204 55.2102 14.4504ZM47.5602 22.7404C47.7202 22.4004 47.8602 22.0404 48.0602 21.7204C48.3002 21.3204 48.5702 20.9204 48.8602 20.5504C49.6302 19.5904 50.4002 18.6204 51.2002 17.6904C52.1602 16.5704 53.1402 15.4804 54.1202 14.3904C54.3802 14.0904 54.6602 13.8004 55.0302 13.4004C54.8902 13.8104 54.7302 14.0304 54.5602 14.2504C54.0502 14.9304 53.5202 15.6104 53.0102 16.2904C51.7302 18.0004 50.5402 19.7704 49.4502 21.6104C48.7802 22.7404 48.3102 23.9404 48.0502 25.2204C47.8302 26.3004 47.6102 27.3804 47.6202 28.4904C47.6202 28.5204 47.5702 28.5604 47.5202 28.6304C47.4502 28.5004 47.3802 28.3904 47.3402 28.2704C46.7102 26.4204 46.6902 24.5804 47.5602 22.7404Z" fill="black"/>
</svg>
