<svg width="48" height="48" viewBox="0 0 48 48" fill="none" xmlns="http://www.w3.org/2000/svg">
<g clip-path="url(#clip0_130_173)">
<path d="M10.4731 34.9458C10.0872 34.9458 9.71709 35.0991 9.44423 35.372C9.17136 35.6448 9.01807 36.0149 9.01807 36.4008C9.01807 36.7867 9.17136 37.1568 9.44423 37.4296C9.71709 37.7025 10.0872 37.8558 10.4731 37.8558C10.859 37.8558 11.229 37.7025 11.5019 37.4296C11.7748 37.1568 11.9281 36.7867 11.9281 36.4008C11.9281 36.0149 11.7748 35.6448 11.5019 35.372C11.229 35.0991 10.859 34.9458 10.4731 34.9458Z" fill="#1A1A1A"/>
<path d="M40.5331 34.9458C40.1472 34.9458 39.7772 35.0991 39.5043 35.372C39.2314 35.6448 39.0781 36.0149 39.0781 36.4008C39.0781 36.7867 39.2314 37.1568 39.5043 37.4296C39.7772 37.7025 40.1472 37.8558 40.5331 37.8558C40.919 37.8558 41.2891 37.7025 41.562 37.4296C41.8348 37.1568 41.9881 36.7867 41.9881 36.4008C41.9881 36.0149 41.8348 35.6448 41.562 35.372C41.2891 35.0991 40.919 34.9458 40.5331 34.9458Z" fill="#1A1A1A"/>
<path d="M45.978 23.9462L41.07 22.3112L37.9875 14.2967C37.7708 13.7402 37.3917 13.2618 36.8995 12.9237C36.4072 12.5855 35.8247 12.4033 35.2275 12.4007H22.521L22.506 12.2252C22.4761 11.862 22.3103 11.5236 22.0417 11.2775C21.773 11.0313 21.4213 10.8957 21.057 10.8977H18.69V10.0952C18.6888 9.31117 18.3767 8.55963 17.8222 8.0054C17.2677 7.45116 16.516 7.13947 15.732 7.13867C14.9483 7.13986 14.1969 7.45173 13.6428 8.00593C13.0886 8.56012 12.7767 9.31142 12.7755 10.0952V10.8962H10.41C10.0457 10.8942 9.69399 11.0298 9.42534 11.276C9.15669 11.5221 8.99085 11.8605 8.961 12.2237L8.946 12.3992H1.455C1.06911 12.3992 0.699025 12.5525 0.42616 12.8253C0.153294 13.0982 0 13.4683 0 13.8542L0 34.1447C0 34.9457 0.6525 35.5997 1.455 35.5997H6.0855C5.96921 36.2424 5.99535 36.9029 6.16206 37.5344C6.32877 38.166 6.632 38.7532 7.05037 39.2549C7.46874 39.7565 7.99206 40.1602 8.58343 40.4376C9.1748 40.7149 9.81982 40.8592 10.473 40.8602C11.1263 40.8592 11.7715 40.7149 12.363 40.4375C12.9545 40.16 13.4779 39.7562 13.8963 39.2544C14.3147 38.7526 14.6179 38.1651 14.7845 37.5334C14.9511 36.9016 14.977 36.241 14.8605 35.5982H36.1455C36.0292 36.2409 36.0553 36.9014 36.2221 37.5329C36.3888 38.1645 36.692 38.7517 37.1104 39.2534C37.5287 39.755 38.0521 40.1587 38.6434 40.4361C39.2348 40.7134 39.8798 40.8577 40.533 40.8587C41.2043 40.8576 41.8666 40.7053 42.4709 40.4129C43.0751 40.1206 43.6057 39.6958 44.0231 39.1701C44.4405 38.6444 44.7341 38.0314 44.8819 37.3766C45.0298 36.7219 45.0281 36.0422 44.877 35.3882L46.365 34.6442C46.8571 34.4002 47.2711 34.0233 47.5601 33.5562C47.849 33.0891 48.0014 32.5504 48 32.0012V26.7512C48.0002 26.1305 47.805 25.5255 47.4421 25.022C47.0792 24.5186 46.5669 24.1421 45.978 23.9462ZM37.449 16.8122L39.51 22.1702H37.2825L35.4975 16.8122H37.4475H37.449ZM35.799 22.1702H30.012C29.8001 22.1698 29.597 22.0854 29.4471 21.9356C29.2973 21.7857 29.2129 21.5826 29.2125 21.3707V16.8122H34.014L35.799 22.1702ZM14.184 10.0952C14.184 9.24017 14.88 8.54417 15.735 8.54417C16.59 8.54417 17.286 9.24017 17.286 10.0952V10.8962H14.1825V10.0952H14.184ZM8.9895 28.1297L10.362 12.3482C10.3628 12.336 10.3682 12.3245 10.3771 12.3162C10.386 12.3078 10.3978 12.3031 10.41 12.3032H12.7755V13.8542C12.7755 14.0408 12.8496 14.2197 12.9816 14.3516C13.1135 14.4836 13.2924 14.5577 13.479 14.5577C13.6656 14.5577 13.8445 14.4836 13.9764 14.3516C14.1084 14.2197 14.1825 14.0408 14.1825 13.8542V12.3032H17.2845V13.8542C17.2845 14.0408 17.3586 14.2197 17.4906 14.3516C17.6225 14.4836 17.8014 14.5577 17.988 14.5577C18.1746 14.5577 18.3535 14.4836 18.4855 14.3516C18.6174 14.2197 18.6915 14.0408 18.6915 13.8542V12.3032H21.057C21.0825 12.3032 21.102 12.3227 21.105 12.3482L22.4775 28.1282C22.4775 28.1357 22.4775 28.1507 22.464 28.1657C22.449 28.1807 22.434 28.1807 22.428 28.1807H9.039C9.033 28.1807 9.018 28.1807 9.003 28.1657C8.9985 28.1609 8.99509 28.1552 8.99302 28.149C8.99095 28.1428 8.99026 28.1362 8.991 28.1297H8.9895ZM10.473 39.4547C9.66313 39.4539 8.88664 39.1319 8.31384 38.5594C7.74104 37.9869 7.41869 37.2105 7.4175 36.4007C7.4175 34.7162 8.7885 33.3452 10.473 33.3452C12.1575 33.3452 13.527 34.7162 13.527 36.4007C13.5258 37.2103 13.2037 37.9864 12.6312 38.5589C12.0587 39.1313 11.2826 39.4535 10.473 39.4547ZM40.533 39.4547C39.7234 39.4535 38.9473 39.1313 38.3748 38.5589C37.8023 37.9864 37.4802 37.2103 37.479 36.4007C37.479 34.7162 38.8485 33.3452 40.533 33.3452C42.2175 33.3452 43.5885 34.7162 43.5885 36.4007C43.5873 37.2105 43.265 37.9869 42.6922 38.5594C42.1194 39.1319 41.3429 39.4539 40.533 39.4547ZM46.593 28.1822H45.7935C45.6985 28.1778 45.6036 28.1927 45.5145 28.226C45.4254 28.2594 45.344 28.3104 45.2752 28.3761C45.2064 28.4418 45.1516 28.5208 45.1142 28.6082C45.0768 28.6957 45.0575 28.7898 45.0575 28.8849C45.0575 28.98 45.0768 29.0742 45.1142 29.1616C45.1516 29.2491 45.2064 29.328 45.2752 29.3937C45.344 29.4594 45.4254 29.5105 45.5145 29.5438C45.6036 29.5771 45.6985 29.5921 45.7935 29.5877H46.5945V31.9997C46.5945 32.5922 46.2645 33.1247 45.7365 33.3887L44.3445 34.0847C43.9468 33.4303 43.3875 32.8892 42.7202 32.5136C42.0529 32.1379 41.3002 31.9403 40.5345 31.9397C38.8755 31.9397 37.428 32.8487 36.6585 34.1942H14.3475C13.958 33.51 13.3943 32.9411 12.7139 32.5451C12.0334 32.1492 11.2603 31.9403 10.473 31.9397C8.8155 31.9397 7.368 32.8487 6.5985 34.1942H1.4535C1.44103 34.1938 1.4292 34.1886 1.42052 34.1796C1.41184 34.1706 1.40699 34.1586 1.407 34.1462V29.5877H5.2125C5.30752 29.5921 5.40244 29.5771 5.49153 29.5438C5.58061 29.5105 5.66201 29.4594 5.73081 29.3937C5.7996 29.328 5.85436 29.2491 5.89177 29.1616C5.92919 29.0742 5.94848 28.98 5.94848 28.8849C5.94848 28.7898 5.92919 28.6957 5.89177 28.6082C5.85436 28.5208 5.7996 28.4418 5.73081 28.3761C5.66201 28.3104 5.58061 28.2594 5.49153 28.226C5.40244 28.1927 5.30752 28.1778 5.2125 28.1822H1.4055V13.8542C1.4055 13.8287 1.428 13.8062 1.455 13.8062H8.823L7.5885 28.0082C7.57172 28.2088 7.59669 28.4108 7.66184 28.6014C7.72699 28.7919 7.83091 28.9669 7.96704 29.1153C8.10317 29.2637 8.26857 29.3823 8.45281 29.4636C8.63704 29.5449 8.83612 29.5871 9.0375 29.5877H22.428C22.6294 29.5871 22.8286 29.5449 23.0129 29.4636C23.1972 29.3823 23.3627 29.2637 23.4989 29.1154C23.6352 28.967 23.7392 28.792 23.8046 28.6015C23.8699 28.4109 23.8951 28.2089 23.8785 28.0082L22.6425 13.8062H35.2275C35.865 13.8062 36.447 14.2067 36.675 14.8007L36.9075 15.4067H28.509C28.3227 15.4067 28.144 15.4806 28.0121 15.6122C27.8802 15.7438 27.8059 15.9224 27.8055 16.1087V21.3692C27.8055 22.5857 28.7955 23.5757 30.012 23.5757H40.419L45.534 25.2812C46.167 25.4912 46.5945 26.0837 46.5945 26.7512V28.1822H46.593Z" fill="#1A1A1A"/>
<path d="M42.7875 28.1819H26.2545C26.1595 28.1775 26.0646 28.1924 25.9755 28.2258C25.8864 28.2591 25.805 28.3102 25.7362 28.3759C25.6674 28.4415 25.6127 28.5205 25.5753 28.6079C25.5378 28.6954 25.5186 28.7895 25.5186 28.8847C25.5186 28.9798 25.5378 29.0739 25.5753 29.1614C25.6127 29.2488 25.6674 29.3278 25.7362 29.3935C25.805 29.4591 25.8864 29.5102 25.9755 29.5435C26.0646 29.5769 26.1595 29.5918 26.2545 29.5874H42.7875C42.9683 29.579 43.1389 29.5014 43.2639 29.3705C43.3888 29.2396 43.4586 29.0656 43.4586 28.8847C43.4586 28.7037 43.3888 28.5297 43.2639 28.3988C43.1389 28.2679 42.9683 28.1903 42.7875 28.1819Z" fill="#1A1A1A"/>
</g>
<defs>
<clipPath id="clip0_130_173">
<rect width="48" height="48" fill="white"/>
</clipPath>
</defs>
</svg>
