<svg width="41" height="40" viewBox="0 0 41 40" fill="none" xmlns="http://www.w3.org/2000/svg">
<g clip-path="url(#clip0_130_179)">
<path d="M40.0415 5.5648C40.0348 5.44111 39.9891 5.3227 39.9109 5.22659C39.8328 5.13047 39.7262 5.06158 39.6065 5.0298L20.804 0.0198032C20.7049 -0.00660106 20.6006 -0.00660106 20.5015 0.0198032L1.72522 5.0298C1.60591 5.06174 1.49974 5.13054 1.42185 5.22639C1.34396 5.32224 1.29833 5.44024 1.29147 5.56355C1.27897 5.7998 0.997716 11.3873 3.19522 18.4511C4.48647 22.6036 6.37272 26.3936 8.79897 29.7186C11.8352 33.8773 15.729 37.3111 20.3715 39.9248C20.4572 39.9729 20.5536 39.9987 20.6519 39.9998C20.7502 40.0009 20.8472 39.9773 20.934 39.9311C25.5852 37.4611 29.4852 34.1136 32.5265 29.9848C34.9565 26.6848 36.844 22.8823 38.1365 18.6848C40.3352 11.5423 40.054 5.8048 40.0415 5.56355V5.5648ZM37.004 18.3786C35.7477 22.4448 33.919 26.1223 31.5677 29.3098C28.8252 33.0273 25.3577 36.0886 21.2527 38.4186V35.4048C26.5752 32.0436 30.5902 27.2873 33.184 21.2598C35.3215 16.2973 36.0177 11.5861 36.2252 8.50855C36.2345 8.37288 36.1962 8.23821 36.1171 8.12761C36.038 8.01701 35.9229 7.93736 35.7915 7.9023L34.5965 7.58355C34.4476 7.54735 34.2905 7.57086 34.1587 7.64905C34.027 7.72724 33.9311 7.8539 33.8915 8.00191C33.852 8.14993 33.872 8.30754 33.9472 8.44101C34.0224 8.57448 34.1469 8.6732 34.294 8.71605L35.019 8.9098C34.7802 11.8936 34.0702 16.2373 32.1077 20.7973C29.6227 26.5698 25.789 31.1311 20.7127 34.3598C20.2027 34.0223 19.7027 33.6723 19.219 33.3123C19.094 33.2248 18.9399 33.1894 18.7893 33.2137C18.6387 33.238 18.5035 33.32 18.4124 33.4423C18.3213 33.5647 18.2815 33.7177 18.3014 33.8689C18.3213 34.0202 18.3993 34.1577 18.519 34.2523C19.024 34.6273 19.5477 34.9948 20.0815 35.3461V38.3998C15.9727 35.9423 12.504 32.7998 9.76147 29.0498C7.41147 25.8348 5.58272 22.1661 4.32772 18.1448C2.52022 12.3561 2.43147 7.4748 2.45022 6.0498L20.0802 1.3448V4.02105L5.55022 7.8998C5.41837 7.93494 5.30292 8.01497 5.22374 8.12609C5.14456 8.23721 5.10663 8.37247 5.11647 8.50855C5.26772 10.6261 5.69397 13.9211 6.86397 17.5911C8.79897 23.6611 12.0477 28.7236 16.5215 32.6411C16.5793 32.692 16.6467 32.731 16.7198 32.7558C16.7928 32.7806 16.87 32.7907 16.9469 32.7854C17.0239 32.7802 17.099 32.7598 17.168 32.7254C17.237 32.6909 17.2985 32.6431 17.349 32.5848C17.4511 32.4679 17.5026 32.3152 17.4923 32.1603C17.482 32.0054 17.4107 31.8609 17.294 31.7586C12.9827 27.9836 9.85022 23.0986 7.98147 17.2361C7.12393 14.5293 6.56806 11.7361 6.32397 8.9073L20.6527 5.0823L31.7615 8.04355C31.8367 8.06621 31.9158 8.07351 31.9939 8.06501C32.072 8.05651 32.1476 8.03238 32.2163 7.99408C32.2849 7.95577 32.3451 7.90405 32.3933 7.842C32.4416 7.77996 32.4768 7.70885 32.497 7.6329C32.5172 7.55695 32.522 7.47772 32.5109 7.39991C32.4999 7.32209 32.4733 7.2473 32.4328 7.17996C32.3923 7.11262 32.3387 7.05411 32.2751 7.00791C32.2115 6.96172 32.1393 6.92878 32.0627 6.91105L21.254 4.02855V1.3523L38.8827 6.0498C38.9015 7.4998 38.8165 12.5111 37.004 18.3786Z" fill="#1A1A1A"/>
<path d="M29.4828 13.6924C29.3126 13.5208 29.1101 13.3847 28.8869 13.292C28.6638 13.1993 28.4244 13.1518 28.1828 13.1524C27.9412 13.1516 27.7019 13.1989 27.4787 13.2914C27.2556 13.3839 27.053 13.5197 26.8828 13.6911L19.414 21.1599L15.3365 17.0824C15.1662 16.9112 14.9635 16.7756 14.7404 16.6833C14.5172 16.591 14.278 16.544 14.0365 16.5449C13.795 16.544 13.5558 16.591 13.3326 16.6833C13.1095 16.7756 12.9069 16.9112 12.7365 17.0824C12.5652 17.2526 12.4294 17.4552 12.3369 17.6784C12.2444 17.9015 12.1971 18.1408 12.1978 18.3824C12.1978 18.8736 12.389 19.3361 12.7353 19.6824L18.114 25.0599C18.2843 25.2312 18.4868 25.3671 18.71 25.4596C18.9332 25.552 19.1724 25.5993 19.414 25.5986C19.6555 25.5995 19.8947 25.5524 20.1179 25.4601C20.341 25.3679 20.5437 25.2322 20.714 25.0611L29.4828 16.2924C29.8303 15.9449 30.0203 15.4824 30.0203 14.9924C30.0211 14.7509 29.9741 14.5116 29.8818 14.2885C29.7895 14.0653 29.6539 13.8627 29.4828 13.6924ZM28.654 15.4624L19.8853 24.2311C19.8237 24.2936 19.7504 24.3433 19.6695 24.3771C19.5886 24.411 19.5017 24.4285 19.414 24.4285C19.3263 24.4285 19.2395 24.411 19.1586 24.3771C19.0776 24.3433 19.0043 24.2936 18.9428 24.2311L13.5653 18.8536C13.5029 18.792 13.4534 18.7186 13.4196 18.6377C13.3858 18.5568 13.3684 18.47 13.3684 18.3824C13.3684 18.2947 13.3858 18.2079 13.4196 18.127C13.4534 18.0461 13.5029 17.9727 13.5653 17.9111C13.6268 17.8486 13.7001 17.7989 13.7811 17.7651C13.862 17.7312 13.9488 17.7137 14.0365 17.7137C14.1242 17.7137 14.2111 17.7312 14.292 17.7651C14.3729 17.7989 14.4462 17.8486 14.5078 17.9111L18.999 22.4024C19.229 22.6311 19.599 22.6311 19.8278 22.4024L27.7115 14.5199C27.7731 14.4575 27.8465 14.408 27.9274 14.3742C28.0083 14.3404 28.0951 14.323 28.1828 14.323C28.2704 14.323 28.3572 14.3404 28.4381 14.3742C28.519 14.408 28.5924 14.4575 28.654 14.5199C28.7164 14.5815 28.7659 14.6549 28.7997 14.7357C28.8335 14.8166 28.8509 14.9034 28.8509 14.9911C28.8509 15.0788 28.8335 15.1656 28.7997 15.2465C28.7659 15.3274 28.7164 15.4007 28.654 15.4624Z" fill="#1A1A1A"/>
</g>
<defs>
<clipPath id="clip0_130_179">
<rect width="40" height="40" fill="white" transform="translate(0.666504)"/>
</clipPath>
</defs>
</svg>
