<svg width="64" height="64" viewBox="0 0 64 64" fill="none" xmlns="http://www.w3.org/2000/svg">
<g clip-path="url(#clip0_143_113)">
<path d="M31.9951 64C49.6682 64 63.9951 49.6731 63.9951 32C63.9951 14.3269 49.6682 0 31.9951 0C14.322 0 -0.00488281 14.3269 -0.00488281 32C-0.00488281 49.6731 14.322 64 31.9951 64Z" fill="white"/>
<path fill-rule="evenodd" clip-rule="evenodd" d="M39.8199 47.7199C35.4339 47.7199 31.8779 44.0679 31.8779 39.5639C31.8779 35.0589 35.4339 31.4069 39.8199 31.4069C44.2059 31.4069 47.7599 35.0589 47.7599 39.5639C47.7599 44.0679 44.2059 47.7199 39.8199 47.7199ZM39.8199 29.6729C34.5099 29.6729 30.1899 34.1099 30.1899 39.5629C30.1899 45.0169 34.5099 49.4549 39.8199 49.4549C45.1299 49.4549 49.4499 45.0169 49.4499 39.5639C49.4499 34.1099 45.1299 29.6729 39.8199 29.6729Z" fill="#606060"/>
<path fill-rule="evenodd" clip-rule="evenodd" d="M31.0591 46.586C22.8351 46.408 16.2251 39.671 16.2391 31.391C16.2541 23.001 23.0141 16.246 31.3931 16.246C39.7631 16.246 46.5471 23.039 46.5471 31.418V31.421C46.5471 31.569 46.6111 31.71 46.7271 31.802C46.9641 31.991 47.1931 32.19 47.4131 32.397C47.4805 32.4615 47.565 32.5052 47.6567 32.5229C47.7483 32.5406 47.843 32.5314 47.9296 32.4966C48.0161 32.4618 48.0908 32.4027 48.1446 32.3265C48.1985 32.2503 48.2292 32.1602 48.2331 32.067C48.3294 29.7433 47.9414 27.425 47.0937 25.2593C46.246 23.0936 44.9572 21.1279 43.3091 19.487C41.7457 17.9197 39.8884 16.6765 37.8436 15.8284C35.7988 14.9804 33.6068 14.5442 31.3931 14.545C29.1787 14.5392 26.9851 14.9731 24.9397 15.8214C22.8942 16.6698 21.0374 17.9157 19.4771 19.487C17.9069 21.0509 16.6622 22.9106 15.815 24.9585C14.9677 27.0063 14.5348 29.2018 14.5411 31.418C14.5411 35.898 16.3121 40.181 19.4771 43.349C21.0692 44.9524 22.9695 46.2168 25.0635 47.0658C27.1576 47.9148 29.4019 48.3309 31.6611 48.289C31.755 48.2881 31.8466 48.26 31.9249 48.2082C32.0031 48.1563 32.0647 48.0829 32.1022 47.9968C32.1396 47.9107 32.1513 47.8156 32.1359 47.723C32.1204 47.6304 32.0785 47.5443 32.0151 47.475C31.8121 47.25 31.6181 47.015 31.4351 46.774C31.3905 46.7163 31.3334 46.6694 31.2681 46.6368C31.2028 46.6043 31.132 46.5869 31.0591 46.586Z" fill="#606060"/>
<path fill-rule="evenodd" clip-rule="evenodd" d="M30.8909 21.5271H30.6909C30.4139 21.5271 30.1889 21.2331 30.1889 20.8711V18.6931C30.1889 18.3301 30.4139 18.0361 30.6909 18.0361H30.8909C31.1679 18.0361 31.3929 18.3301 31.3929 18.6931V20.8711C31.3929 21.2331 31.1689 21.5271 30.8909 21.5271ZM18.1519 30.3521V30.1581C18.1519 29.8901 18.4559 29.6731 18.8309 29.6731H21.0839C21.4589 29.6731 21.7629 29.8901 21.7629 30.1581V30.3521C21.7629 30.6191 21.4589 30.8361 21.0839 30.8361H18.8309C18.4559 30.8361 18.1519 30.6191 18.1519 30.3521ZM37.6349 44.5801L35.2049 41.9001C35.0765 41.7532 35.0057 41.5647 35.0057 41.3696C35.0057 41.1745 35.0765 40.986 35.2049 40.8391L35.3979 40.6271C35.4577 40.5581 35.5316 40.5027 35.6147 40.4648C35.6978 40.4268 35.788 40.4072 35.8794 40.4072C35.9707 40.4072 36.061 40.4268 36.1441 40.4648C36.2271 40.5027 36.3011 40.5581 36.3609 40.6271L37.8769 42.2971C37.9068 42.3317 37.9438 42.3594 37.9854 42.3783C38.027 42.3973 38.0722 42.4071 38.1179 42.4071C38.1636 42.4071 38.2088 42.3973 38.2503 42.3783C38.2919 42.3594 38.3289 42.3317 38.3589 42.2971L43.2799 36.8741C43.3397 36.8049 43.4137 36.7494 43.4969 36.7114C43.58 36.6733 43.6704 36.6536 43.7619 36.6536C43.8533 36.6536 43.9437 36.6733 44.0269 36.7114C44.1101 36.7494 44.1841 36.8049 44.2439 36.8741L44.4359 37.0861C44.5646 37.2331 44.6355 37.4218 44.6355 37.6171C44.6355 37.8125 44.5646 38.0012 44.4359 38.1481L38.5999 44.5801C38.5401 44.6492 38.4661 44.7045 38.3831 44.7425C38.3 44.7804 38.2097 44.8001 38.1184 44.8001C38.027 44.8001 37.9368 44.7804 37.8537 44.7425C37.7706 44.7045 37.6967 44.6492 37.6369 44.5801H37.6349ZM20.5589 25.6001C20.5589 25.9211 20.2889 26.1821 19.9569 26.1821C19.8791 26.1835 19.8019 26.1695 19.7296 26.1409C19.6572 26.1124 19.5912 26.0699 19.5353 26.0158C19.4794 25.9618 19.4347 25.8973 19.4037 25.8259C19.3728 25.7546 19.3562 25.6779 19.3549 25.6001C19.3549 25.2791 19.6249 25.0181 19.9569 25.0181C20.2899 25.0181 20.5589 25.2781 20.5589 25.6001ZM20.5589 37.2361C20.5589 37.5581 20.2889 37.8181 19.9569 37.8181C19.8791 37.8195 19.8019 37.8055 19.7296 37.7769C19.6572 37.7484 19.5912 37.7059 19.5353 37.6518C19.4794 37.5978 19.4347 37.5333 19.4037 37.4619C19.3728 37.3906 19.3562 37.3139 19.3549 37.2361C19.3549 36.9151 19.6249 36.6541 19.9569 36.6541C20.2899 36.6541 20.5589 36.9141 20.5589 37.2361ZM42.2269 25.6001C42.2269 25.9211 41.9569 26.1821 41.6249 26.1821C41.5471 26.1835 41.4699 26.1695 41.3976 26.1409C41.3252 26.1124 41.2592 26.0699 41.2033 26.0158C41.1474 25.9618 41.1027 25.8973 41.0717 25.8259C41.0408 25.7546 41.0242 25.6779 41.0229 25.6001C41.0229 25.2791 41.2929 25.0181 41.6249 25.0181C41.9569 25.0181 42.2269 25.2781 42.2269 25.6001ZM24.1709 20.9451C24.1709 21.2671 23.9009 21.5271 23.5689 21.5271C23.4911 21.5285 23.4139 21.5145 23.3416 21.4859C23.2692 21.4574 23.2032 21.4149 23.1473 21.3608C23.0914 21.3068 23.0467 21.2423 23.0157 21.1709C22.9848 21.0996 22.9682 21.0229 22.9669 20.9451C22.9669 20.6251 23.2369 20.3641 23.5689 20.3641C23.9009 20.3641 24.1709 20.6241 24.1709 20.9451ZM25.3749 41.8901C25.3749 42.2121 25.1049 42.4731 24.7729 42.4731C24.6951 42.4745 24.6179 42.4605 24.5456 42.4319C24.4732 42.4034 24.4072 42.3609 24.3513 42.3068C24.2954 42.2528 24.2507 42.1883 24.2197 42.1169C24.1888 42.0456 24.1722 41.9689 24.1709 41.8911C24.1709 41.5701 24.4409 41.3091 24.7729 41.3091C25.1049 41.3091 25.3739 41.5691 25.3739 41.8911L25.3749 41.8901ZM38.6149 20.9451C38.6149 21.2671 38.3459 21.5271 38.0139 21.5271C37.9361 21.5285 37.8589 21.5145 37.7866 21.4859C37.7142 21.4574 37.6482 21.4149 37.5923 21.3608C37.5364 21.3068 37.4917 21.2423 37.4607 21.1709C37.4298 21.0996 37.4132 21.0229 37.4119 20.9451C37.4119 20.6251 37.6819 20.3641 38.0139 20.3641C38.3459 20.3641 38.6149 20.6241 38.6149 20.9451ZM28.0749 27.2001L31.2369 29.8791C31.3124 29.9395 31.4062 29.9724 31.5029 29.9724C31.5996 29.9724 31.6934 29.9395 31.7689 29.8791L35.9159 26.3691C36.0668 26.2485 36.2542 26.1827 36.4474 26.1827C36.6406 26.1827 36.828 26.2485 36.9789 26.3691L37.1919 26.5491C37.2604 26.6024 37.3159 26.6707 37.354 26.7487C37.3922 26.8266 37.412 26.9123 37.412 26.9991C37.412 27.086 37.3922 27.1716 37.354 27.2496C37.3159 27.3276 37.2604 27.3958 37.1919 27.4491L32.0349 31.8141C31.884 31.9348 31.6966 32.0005 31.5034 32.0005C31.3102 32.0005 31.1228 31.9348 30.9719 31.8141L26.7979 28.2811C26.7293 28.2278 26.6739 28.1596 26.6357 28.0816C26.5976 28.0036 26.5777 27.918 26.5777 27.8311C26.5777 27.7443 26.5976 27.6586 26.6357 27.5807C26.6739 27.5027 26.7293 27.4344 26.7979 27.3811L27.0109 27.2011C27.1618 27.0805 27.3492 27.0147 27.5424 27.0147C27.7356 27.0147 27.923 27.0805 28.0739 27.2011L28.0749 27.2001Z" fill="#606060"/>
</g>
<defs>
<clipPath id="clip0_143_113">
<rect width="64" height="64" fill="white" transform="translate(-0.00488281)"/>
</clipPath>
</defs>
</svg>
