<svg width="60" height="53" viewBox="0 0 60 53" fill="none" xmlns="http://www.w3.org/2000/svg">
<path fill-rule="evenodd" clip-rule="evenodd" d="M40 51.1035C40 51.6555 39.552 52.1035 39 52.1035H37C36.448 52.1035 36 51.6555 36 51.1035C36 50.5515 36.448 50.1035 37 50.1035H39C39.552 50.1035 40 50.5515 40 51.1035ZM60 51.1035C60 51.6555 59.552 52.1035 59 52.1035H43C42.448 52.1035 42 51.6555 42 51.1035C42 50.5515 42.448 50.1035 43 50.1035H59C59.552 50.1035 60 50.5515 60 51.1035ZM32 51.1035C32 51.6555 31.552 52.1035 31 52.1035H21C20.448 52.1035 20 51.6555 20 51.1035C20 50.5515 20.448 50.1035 21 50.1035H31C31.552 50.1035 32 50.5515 32 51.1035ZM16 51.1035C16 51.6555 15.552 52.1035 15 52.1035H1C0.448 52.1035 0 51.6555 0 51.1035C0 50.5515 0.448 50.1035 1 50.1035H15C15.552 50.1035 16 50.5515 16 51.1035ZM2 31.1035C2 30.5515 2.448 30.1035 3 30.1035H5.84L5.417 27.2505C5.336 26.7045 5.713 26.1955 6.259 26.1145C6.809 26.0375 7.315 26.4105 7.396 26.9565L7.863 30.1035H15C15.552 30.1035 16 30.5515 16 31.1035C16 31.6555 15.552 32.1035 15 32.1035H3C2.448 32.1035 2 31.6555 2 31.1035ZM3 22.1035H4.559L4.136 19.2505C4.055 18.7045 4.432 18.1955 4.978 18.1145C5.528 18.0385 6.034 18.4105 6.114 18.9565L6.582 22.1035H15C15.552 22.1035 16 22.5515 16 23.1035C16 23.6555 15.552 24.1035 15 24.1035H3C2.448 24.1035 2 23.6555 2 23.1035C2 22.5515 2.448 22.1035 3 22.1035ZM15 42.1035C14.449 42.1035 14 41.6545 14 41.1035C14 40.5525 14.449 40.1035 15 40.1035C15.551 40.1035 16 40.5525 16 41.1035C16 41.6545 15.551 42.1035 15 42.1035ZM15 38.1035C13.346 38.1035 12 39.4495 12 41.1035C12 42.7575 13.346 44.1035 15 44.1035C16.654 44.1035 18 42.7575 18 41.1035C18 39.4495 16.654 38.1035 15 38.1035ZM49 42.1035C48.449 42.1035 48 41.6545 48 41.1035C48 40.5525 48.449 40.1035 49 40.1035C49.551 40.1035 50 40.5525 50 41.1035C50 41.6545 49.551 42.1035 49 42.1035ZM49 38.1035C47.346 38.1035 46 39.4495 46 41.1035C46 42.7575 47.346 44.1035 49 44.1035C50.654 44.1035 52 42.7575 52 41.1035C52 39.4495 50.654 38.1035 49 38.1035ZM49 46.1035C46.243 46.1035 44 43.8605 44 41.1035C44 38.3465 46.243 36.1035 49 36.1035C51.757 36.1035 54 38.3465 54 41.1035C54 43.8605 51.757 46.1035 49 46.1035ZM58.707 25.3965L55.966 22.6555L55 11.1035C55 8.34652 52.757 6.10352 50 6.10352H43C42.448 6.10352 42 6.55152 42 7.10352C42 7.65552 42.448 8.10352 43 8.10352H50C51.626 8.10352 53 9.47752 53.003 11.1865L53.913 22.1035H50.618L51.895 19.5505C52.142 19.0565 51.941 18.4565 51.447 18.2085C50.952 17.9615 50.353 18.1625 50.105 18.6565L48.382 22.1035H43C42.448 22.1035 42 22.5515 42 23.1035C42 23.6555 42.448 24.1035 43 24.1035H54.586L57.293 26.8105C57.863 27.3805 57.998 28.6915 58 29.1035V40.1035H55.92C55.433 36.7165 52.52 34.1035 49 34.1035C45.14 34.1035 42 37.2435 42 41.1035C42 44.9635 45.14 48.1035 49 48.1035C52.52 48.1035 55.433 45.4905 55.92 42.1035H59C59.552 42.1035 60 41.6555 60 41.1035V29.1035C60 28.8565 59.964 26.6525 58.707 25.3965ZM15 46.1035C12.243 46.1035 10 43.8605 10 41.1035C10 38.3465 12.243 36.1035 15 36.1035C17.757 36.1035 20 38.3465 20 41.1035C20 43.8605 17.757 46.1035 15 46.1035ZM39 0.103516H7C4.243 0.103516 2 2.34652 2 5.10352C2 5.15352 2.004 5.20252 2.011 5.25152L3.339 14.1035H1C0.448 14.1035 0 14.5515 0 15.1035C0 15.6555 0.448 16.1035 1 16.1035H15C15.552 16.1035 16 15.6555 16 15.1035C16 14.5515 15.552 14.1035 15 14.1035H5.361L4.001 5.03452C4.038 3.41252 5.369 2.10352 7 2.10352H38V40.1035H21.92C21.433 36.7165 18.52 34.1035 15 34.1035C11.14 34.1035 8 37.2435 8 41.1035C8 44.9635 11.14 48.1035 15 48.1035C18.52 48.1035 21.433 45.4905 21.92 42.1035H39C39.552 42.1035 40 41.6555 40 41.1035V1.10352C40 0.551516 39.552 0.103516 39 0.103516Z" fill="black"/>
</svg>
