<svg width="64" height="68" viewBox="0 0 64 68" fill="none" xmlns="http://www.w3.org/2000/svg">
<path d="M29.1209 42.8129L25.6733 30.8871C25.1672 29.1363 26.1761 27.3066 27.9269 26.8005C29.6777 26.2944 31.5074 27.3034 32.0135 29.0542L33.4741 34.107M33.4744 34.1071L32.0137 29.0543C31.5076 27.3035 32.5166 25.4739 34.2674 24.9678C36.0182 24.4617 37.8478 25.4706 38.3539 27.2214M38.3539 27.2214L39.8145 32.2742M38.3539 27.2214C37.8478 25.4706 38.8569 23.641 40.6077 23.1349C42.3585 22.6288 44.1882 23.6377 44.6942 25.3885L46.1549 30.4413M53.8464 33.2825L56.0981 41.0713C56.7093 43.186 56.7331 45.4272 56.1667 47.5543L55.3628 50.5729C54.7964 52.7 54.8201 54.9413 55.4314 57.056L58.3232 66.2065M46.1549 30.4415L45.2903 27.4506C44.7842 25.6998 45.7931 23.8701 47.5439 23.364C49.2947 22.8579 51.1244 23.8669 51.6305 25.6177L52.5396 28.7626M27.8683 52.8695C28.6395 53.8582 29.565 54.7285 30.6179 55.4432L32.4572 56.6915C34.7968 58.2796 36.5074 60.6359 37.2927 63.3523L37.9336 66.2067M26.2534 32.8935L24.6724 35.4107C23.4719 37.3223 23.1439 39.6552 23.7707 41.8237L25.7824 48.7824C25.8222 48.9203 25.8645 49.0572 25.909 49.1932M17.8247 34.4886V7.56944C17.8247 5.72385 19.3208 4.22786 21.1663 4.22786C23.0118 4.22786 24.5078 5.72399 24.5078 7.56944V24.3474M31.1913 22.9971V7.56944C31.1913 5.72385 32.6874 4.22786 34.5329 4.22786C36.3784 4.22786 37.8744 5.72399 37.8744 7.56944V19.8914L37.8746 11.2387C37.8746 9.39315 39.3707 7.89716 41.2162 7.89716C43.0617 7.89716 44.5577 9.39329 44.5577 11.2387V19.3513M24.508 23.5373V5.34158C24.508 3.496 26.0041 2 27.8496 2C29.6951 2 31.1911 3.49613 31.1911 5.34158V22.9971M20.4456 56.9204V66.2067M20.8551 35.9554C19.9179 35.8539 18.9095 35.7989 17.8248 35.7989L13.2383 31.7365L11.5789 25.1521C10.9117 22.4542 8.13129 20.8556 5.46391 21.6362L4.85142 21.7771L6.89698 32.0825C7.0177 32.7218 7.23442 33.3393 7.53945 33.9142L11.9831 42.4006C12.3793 43.1468 12.9174 43.8083 13.5673 44.348L19.1166 48.8479C19.9587 49.5472 20.4457 50.5849 20.4457 51.6795V52.2894M6.82028 45.8806C6.95032 45.7267 7.08251 45.5718 7.217 45.416M30.6964 46.4021C16.6865 55.5609 4.50371 60.1234 2.05373 56.7563C0.959992 55.2533 1.9665 52.391 4.57474 48.7473M49.3513 14.6919C55.8048 11.9417 60.5215 11.2179 61.9463 13.1761C64.2611 16.3574 57.1678 25.6278 45.3924 35.5078" stroke="#474747" stroke-width="2.02545" stroke-miterlimit="10" stroke-linecap="round" stroke-linejoin="round"/>
</svg>
