<svg width="52" height="56" viewBox="0 0 52 56" fill="none" xmlns="http://www.w3.org/2000/svg">
<path d="M51.7042 22.4016C51.7042 22.1052 51.5864 21.821 51.3768 21.6114C51.1673 21.4018 50.883 21.284 50.5866 21.284H46.1163V14.735C46.1163 6.44262 37.511 0.206543 25.9999 0.206543C14.4889 0.206543 5.88354 6.44262 5.88354 14.735V21.284H1.41323C1.11683 21.284 0.832571 21.4018 0.622985 21.6114C0.413399 21.821 0.295654 22.1052 0.295654 22.4016V31.9681C0.295654 32.2645 0.413399 32.5487 0.622985 32.7583C0.832571 32.9679 1.11683 33.0856 1.41323 33.0856H4.16247L5.88354 54.9678C5.90606 55.2484 6.03367 55.5102 6.24087 55.7009C6.44806 55.8915 6.71957 55.9969 7.00111 55.996H44.9093C45.0562 56.0082 45.204 55.9912 45.3443 55.9461C45.4846 55.901 45.6145 55.8285 45.7267 55.733C45.8389 55.6374 45.9311 55.5206 45.9979 55.3893C46.0648 55.258 46.105 55.1147 46.1163 54.9678L47.9268 32.9962H50.5866C50.8782 32.998 51.1589 32.8857 51.3689 32.6833C51.4769 32.5793 51.5624 32.4542 51.62 32.3158C51.6777 32.1774 51.7063 32.0286 51.7042 31.8787V22.4016ZM8.11869 14.735C8.11869 7.71666 15.7629 2.4417 25.9999 2.4417C36.2369 2.4417 43.8811 7.71666 43.8811 14.735V21.284H8.11869V14.735ZM43.8811 53.8502H8.11869L6.41997 33.0856H45.5799L43.8811 53.8502ZM2.53081 30.8505V23.5192H49.469V30.8505H2.53081Z" fill="black"/>
<path d="M25.9999 48.4188C26.2963 48.4188 26.5806 48.301 26.7902 48.0915C26.9997 47.8819 27.1175 47.5976 27.1175 47.3012V37.7348C27.1175 37.4384 26.9997 37.1541 26.7902 36.9445C26.5806 36.7349 26.2963 36.6172 25.9999 36.6172C25.7035 36.6172 25.4193 36.7349 25.2097 36.9445C25.0001 37.1541 24.8823 37.4384 24.8823 37.7348V47.3012C24.8823 47.5976 25.0001 47.8819 25.2097 48.0915C25.4193 48.301 25.7035 48.4188 25.9999 48.4188Z" fill="black"/>
<path d="M37.3545 48.4188C37.6509 48.4188 37.9352 48.301 38.1447 48.0915C38.3543 47.8819 38.4721 47.5976 38.4721 47.3012V37.7348C38.4721 37.4384 38.3543 37.1541 38.1447 36.9445C37.9352 36.7349 37.6509 36.6172 37.3545 36.6172C37.0581 36.6172 36.7738 36.7349 36.5642 36.9445C36.3547 37.1541 36.2369 37.4384 36.2369 37.7348V47.3012C36.2369 47.5976 36.3547 47.8819 36.5642 48.0915C36.7738 48.301 37.0581 48.4188 37.3545 48.4188Z" fill="black"/>
<path d="M14.6453 48.4188C14.9417 48.4188 15.226 48.301 15.4356 48.0915C15.6452 47.8819 15.7629 47.5976 15.7629 47.3012V37.7348C15.7629 37.4384 15.6452 37.1541 15.4356 36.9445C15.226 36.7349 14.9417 36.6172 14.6453 36.6172C14.3489 36.6172 14.0647 36.7349 13.8551 36.9445C13.6455 37.1541 13.5278 37.4384 13.5278 37.7348V47.3012C13.5278 47.5976 13.6455 47.8819 13.8551 48.0915C14.0647 48.301 14.3489 48.4188 14.6453 48.4188Z" fill="black"/>
</svg>
