<svg width="285" height="61" viewBox="0 0 285 61" fill="none" xmlns="http://www.w3.org/2000/svg">
<path d="M284.057 60.419C284.608 60.3876 285.03 59.9152 284.998 59.3638L284.487 50.3783C284.456 49.8269 283.983 49.4054 283.432 49.4368C282.88 49.4681 282.459 49.9406 282.49 50.492L282.945 58.479L274.958 58.9336C274.406 58.965 273.985 59.4374 274.016 59.9888C274.048 60.5402 274.52 60.9617 275.071 60.9304L284.057 60.419ZM1.20068 11.4003C3.23655 10.9832 5.26366 10.5814 7.28195 10.1946L6.90548 8.23033C4.87887 8.61875 2.84346 9.02221 0.799316 9.44095L1.20068 11.4003ZM19.396 8.03292C23.4888 7.35691 27.5434 6.74245 31.5595 6.1872L31.2856 4.20604C27.2521 4.7637 23.1801 5.38079 19.0701 6.05966L19.396 8.03292ZM43.7672 4.66606C47.8923 4.20864 51.9744 3.81362 56.0128 3.47831L55.8473 1.48516C51.7906 1.822 47.6902 2.2188 43.5468 2.67825L43.7672 4.66606ZM68.2888 2.63274C72.4371 2.40605 76.5365 2.24221 80.5864 2.13813L80.535 0.13879C76.4659 0.243369 72.3472 0.407974 68.1797 0.635721L68.2888 2.63274ZM92.8956 2.00307C97.0549 2.01913 101.158 2.09797 105.205 2.23594L105.273 0.237099C101.206 0.0984452 97.0828 0.0192257 92.9034 0.00308877L92.8956 2.00307ZM117.503 2.84476C121.657 3.11507 125.748 3.44731 129.773 3.83716L129.966 1.84647C125.92 1.4546 121.808 1.12067 117.632 0.848977L117.503 2.84476ZM142.002 5.22024C146.133 5.75541 150.19 6.35055 154.17 7.00051L154.493 5.02665C150.49 4.37316 146.412 3.77483 142.259 3.23682L142.002 5.22024ZM166.258 9.18366C170.359 9.99638 174.371 10.8661 178.293 11.7863L178.75 9.83919C174.805 8.91366 170.77 8.03908 166.647 7.22182L166.258 9.18366ZM190.23 14.8129C194.266 15.9141 198.194 17.0666 202.014 18.2624L202.612 16.3538C198.768 15.1506 194.816 13.9911 190.756 12.8835L190.23 14.8129ZM213.693 22.1665C217.659 23.5785 221.488 25.033 225.181 26.5193L225.927 24.664C222.21 23.1676 218.355 21.7035 214.364 20.2824L213.693 22.1665ZM236.499 31.3601C240.368 33.1162 244.055 34.8984 247.555 36.6906L248.467 34.9104C244.938 33.1037 241.223 31.3079 237.326 29.539L236.499 31.3601ZM258.327 42.562C262.089 44.7465 265.569 46.9196 268.76 49.0522L269.871 47.3893C266.643 45.2324 263.128 43.0371 259.332 40.8325L258.327 42.562ZM278.69 56.2638C280.372 57.6017 281.921 58.9056 283.334 60.1667L284.666 58.6745C283.222 57.3863 281.645 56.0581 279.936 54.6986L278.69 56.2638Z" fill="#A1AB23"/>
</svg>
