<svg width="311" height="54" viewBox="0 0 311 54" fill="none" xmlns="http://www.w3.org/2000/svg">
<path d="M310.195 51.9809C310.736 51.8734 311.088 51.3471 310.981 50.8054L309.229 41.9775C309.122 41.4357 308.596 41.0837 308.054 41.1912C307.512 41.2987 307.16 41.825 307.268 42.3667L308.824 50.2137L300.977 51.7707C300.436 51.8781 300.084 52.4044 300.191 52.9461C300.299 53.4879 300.825 53.8399 301.367 53.7324L310.195 51.9809ZM1.4845 36.441C5.4554 34.2417 9.43413 32.1638 13.4178 30.2029L12.5345 28.4085C8.52198 30.3837 4.51467 32.4765 0.515502 34.6914L1.4845 36.441ZM38.13 19.5137C46.6927 16.3027 55.2512 13.5878 63.7769 11.3253L63.264 9.39221C54.6754 11.6713 46.0537 14.4063 37.4277 17.641L38.13 19.5137ZM90.1004 5.70849C99.0933 4.24377 108.016 3.2431 116.833 2.65383L116.7 0.658278C107.822 1.25161 98.8363 2.25927 89.7789 3.73451L90.1004 5.70849ZM143.761 2.08614C152.891 2.30353 161.86 2.92679 170.627 3.89209L170.846 1.90411C162.025 0.932819 152.998 0.30552 143.809 0.0867082L143.761 2.08614ZM197.265 7.93978C206.314 9.69215 215.07 11.772 223.478 14.0966L224.011 12.1689C215.555 9.83101 206.748 7.73899 197.645 5.97626L197.265 7.93978ZM249.138 22.273C258.046 25.4976 266.395 28.9362 274.097 32.4552L274.928 30.6361C267.177 27.0948 258.778 23.6357 249.819 20.3924L249.138 22.273ZM298.045 44.7558C302.205 47.1641 306.014 49.5368 309.444 51.8312L310.556 50.1688C307.087 47.8486 303.241 45.4531 299.047 43.0249L298.045 44.7558Z" fill="#A1AB23"/>
</svg>
